#N canvas 539 58 662 587 10;
#X obj 3 3 hoa.help.header;
#X obj 24 518 hoa.help.pub;
#N canvas 633 206 452 384 sel.hoa.txt 0;
#X obj 54 243 unpack s s;
#X msg 216 268 clear;
#X obj 20 30 inlet;
#X obj 111 294 outlet;
#X obj 54 217 textfile;
#X obj 20 100 until;
#X msg 37 132 rewind;
#X obj 20 58 t b b s b;
#X obj 54 164 makefilename hoa.%s.txt;
#X obj 54 187 msg read;
#X obj 111 267 msg append;
#X connect 0 1 10 0;
#X connect 1 0 3 0;
#X connect 2 0 7 0;
#X connect 4 0 0 0;
#X connect 4 1 5 1;
#X connect 5 0 4 0;
#X connect 6 0 4 0;
#X connect 7 0 5 0;
#X connect 7 1 6 0;
#X connect 7 2 8 0;
#X connect 7 3 1 0;
#X connect 8 0 9 0;
#X connect 9 0 4 0;
#X connect 10 0 3 0;
#X restore 161 230 pd sel.hoa.txt;
#N canvas 366 70 687 436 sel.hoa.text2 0;
#X obj 164 285 list split 1;
#X obj 198 305 list split 1;
#X obj 23 35 inlet;
#X obj 232 358 outlet;
#X obj 23 57 route -1;
#X obj 164 40 inlet;
#X obj 164 227 textfile;
#X obj 164 68 t s b;
#X obj 68 134 until;
#X msg 134 122 rewind;
#X obj 164 260 spigot 0;
#X obj 68 202 f 0;
#X obj 107 203 + 1;
#X obj 68 226 ==;
#X msg 106 170 0;
#X obj 68 110 + 1;
#X obj 57 179 t b b;
#X obj 164 174 makefilename hoa.%s.txt;
#X msg 364 328 clear;
#X obj 68 84 t f f b b;
#X obj 232 328 prepend text 10 10;
#X obj 164 197 msg read;
#X connect 0 1 1 0;
#X connect 1 1 20 0;
#X connect 2 0 4 0;
#X connect 4 1 19 0;
#X connect 5 0 7 0;
#X connect 6 0 10 0;
#X connect 7 0 17 0;
#X connect 7 1 18 0;
#X connect 8 0 16 0;
#X connect 9 0 6 0;
#X connect 10 0 0 0;
#X connect 11 0 12 0;
#X connect 11 0 13 0;
#X connect 12 0 11 1;
#X connect 13 0 10 1;
#X connect 14 0 11 1;
#X connect 15 0 8 0;
#X connect 16 0 6 0;
#X connect 16 1 11 0;
#X connect 17 0 21 0;
#X connect 18 0 3 0;
#X connect 19 0 15 0;
#X connect 19 1 13 1;
#X connect 19 1 14 0;
#X connect 19 2 9 0;
#X connect 19 3 18 0;
#X connect 20 0 3 0;
#X connect 21 0 6 0;
#X restore 5 362 pd sel.hoa.text2;
#N canvas 521 133 694 586 hoa.open.hel 0;
#X obj 371 281 pack s s;
#X obj 371 187 t s b;
#X obj 96 356 pack s s;
#X msg 96 383 \; pd open \$1 \$2;
#X obj 183 233 makefilename %s/tutorials;
#X obj 16 70 sel tutos;
#X obj 16 10 inlet;
#X obj 16 112 f 1;
#X obj 67 112 f 0;
#X obj 42 112 f 0;
#X obj 94 112 f 1;
#X obj 67 90 bang;
#X msg 74 286 hoa.tools.2d.pd;
#X obj 146 10 inlet;
#X obj 96 192 t f b;
#X msg 235 302 hoa.tools.3d.pd;
#X obj 53 323 makefilename Tutorial_%d.pd;
#X obj 96 223 + 1;
#X obj 96 253 sel 11 12;
#X obj 143 213 patch.args;
#X msg 371 308 \; pd open \$1-help.pd \$2;
#X obj 371 163 flow.gate 1;
#X obj 96 168 flow.gate 0;
#X obj 352 359 print;
#X obj 398 234 canvas.top;
#X msg 398 211 @dir?;
#X obj 398 257 prop-> @dir;
#X obj 146 32 list.at 1;
#X connect 0 0 20 0;
#X connect 0 0 23 0;
#X connect 1 0 0 0;
#X connect 1 1 25 0;
#X connect 2 0 3 0;
#X connect 4 0 2 1;
#X connect 5 0 7 0;
#X connect 5 0 9 0;
#X connect 5 1 11 0;
#X connect 6 0 5 0;
#X connect 7 0 22 1;
#X connect 8 0 22 1;
#X connect 9 0 21 1;
#X connect 10 0 21 1;
#X connect 11 0 8 0;
#X connect 11 0 10 0;
#X connect 12 0 2 0;
#X connect 13 0 27 0;
#X connect 14 0 17 0;
#X connect 14 1 19 0;
#X connect 15 0 2 0;
#X connect 16 0 2 0;
#X connect 17 0 18 0;
#X connect 18 0 12 0;
#X connect 18 1 15 0;
#X connect 18 2 16 0;
#X connect 19 0 4 0;
#X connect 21 0 1 0;
#X connect 22 0 14 0;
#X connect 24 0 26 0;
#X connect 25 0 24 0;
#X connect 26 1 0 1;
#X connect 27 0 22 0;
#X connect 27 0 21 0;
#X restore 42 267 pd hoa.open.hel;
#X text 4 47 Hoa Library allows musicians and composers to synthesize
\, transform and render sound fields in a creative and artistic way.
This library facilitates the understanding and the appropriation of
key concepts of Ambisonics. Thanks to original graphical interfaces
a lot of new signal processings are allowed like diffuse sound field
synthesis \, perspective distorsion or spatial filtering.;
#X obj 6 173 msg.onload 0;
#X obj 5 156 ui.tab @size 398 36 @receive "(null)" @send "(null)" @pinned
0 @presetname "ui.tab.0" @background_color 0.93 0.93 0.93 1 @border_color
0.6 0.6 0.6 1 @label_color 0 0 0 1 @text_color 0 0 0 1 @active_color
0 0.75 1 1 @hover_color 0.5 0.5 0.5 1 @fontname "Monaco" @fontweight
"normal" @fontslant "roman" @fontsize 13 @label "(null)" @label_inner
0 @label_side "top" @label_align "left" @label_valign "top" @label_margins
0 0 @orientation 0 @toggle 0 @items "2d" "3d" "common" "process" "tutos"
;
#X obj 5 201 ui.tab @size 398 264 @receive "(null)" @send "(null)"
@pinned 0 @presetname "ui.tab.1" @background_color 0.93 0.93 0.93 1
@border_color 0.6 0.6 0.6 1 @label_color 0 0 0 1 @text_color 0 0 0
1 @active_color 0 0.75 1 1 @hover_color 0.5 0.5 0.5 1 @fontname "Monaco"
@fontweight "normal" @fontslant "roman" @fontsize 11 @label "(null)"
@label_inner 0 @label_side "top" @label_align "left" @label_valign
"top" @label_margins 0 0 @orientation 1 @toggle 0 @items "hoa.fx.convolve~"
"hoa.fx.delay~" "hoa.fx.freeverb~" "hoa.fx.gain~" "hoa.fx.ringmod~"
"hoa.fx.mirror~" "hoa.syn.delay~" "hoa.syn.grain~" "hoa.syn.ringmod~"
;
#X obj 5 202 list.at 1;
#X connect 2 0 8 0;
#X connect 6 0 7 0;
#X connect 7 0 9 0;
#X connect 8 0 4 1;
#X connect 9 0 4 0;
#X connect 9 0 2 0;
#X coords 0 -2.14748e+09 1 -2.14748e+09 100 60 0;
