#N canvas 255 92 987 685 10;
#X obj 285 86 hoa.soundgrain;
#X obj 134 633 hoa.help.pub;
#X obj 285 574 hoa.2d.decoder~ 7 ambisonics 16, f 39;
#N canvas 237 132 503 391 hoa_grain_env 0;
#X obj 270 148 / 256;
#X obj 270 193 * 1;
#X obj 270 247 * 0.5;
#X obj 270 219 sin;
#X obj 270 271 + 0.5;
#X obj 270 120 t f f;
#X obj 270 299 pack;
#X obj 270 169 - 0.5;
#X obj 271 32 t b b;
#X obj 270 323 tabwrite \$0-hoa_grain_array;
#X obj 270 76 until;
#X obj 270 97 f;
#X obj 297 98 + 1;
#X msg 270 55 512;
#X obj 271 8 msg.onload;
#X obj 316 169 math.pi;
#X connect 0 0 7 0;
#X connect 1 0 3 0;
#X connect 2 0 4 0;
#X connect 3 0 2 0;
#X connect 4 0 6 0;
#X connect 5 0 0 0;
#X connect 5 1 6 1;
#X connect 6 0 9 0;
#X connect 7 0 1 0;
#X connect 8 0 13 0;
#X connect 8 1 15 0;
#X connect 10 0 11 0;
#X connect 11 0 12 0;
#X connect 11 0 5 0;
#X connect 12 0 11 1;
#X connect 13 0 10 0;
#X connect 14 0 8 0;
#X connect 15 0 1 1;
#X restore 674 43 pd hoa_grain_env;
#X obj 673 23 table \$0-hoa_grain_array 512;
#X text 544 287 Control the gain of each channel with a list or the
hoa.2d.space GUI., f 49;
#X text 544 324 Prepend the list with dB \, to control with decibel
;
#X text 690 105 You can also use it in the harmonics domain.;
#X text 690 115 In the harmonics domain \, you should use float;
#X text 690 125 or dB+float to control the gain of all;
#X text 690 135 the harmonics (just a multigain).;
#X text 9 49 hoa.fx.gain~ controls the gains of the sound field.;
#X obj 285 111 ui.gain~ @size 178 16 @receive "(null)" @send "(null)"
@pinned 0 @presetname "ui.gain~.0" @background_color 0.93 0.93 0.93
1 @border_color 0.6 0.6 0.6 1 @label_color 0 0 0 1 @knob_color 0 0.75
1 1 @fontname "Helvetica" @fontweight "normal" @fontslant "roman" @fontsize
11 @label "(null)" @label_inner 0 @label_side "top" @label_align "left"
@label_valign "top" @label_margins 0 0 @max 12 @min -60 @output_value
0 @show_range 1;
#X obj 75 217 hoa.scope~ @size 183 183 @receive "(null)" @send "(null)"
@pinned 0 @background_color 0.93 0.93 0.93 1 @border_color 0.6 0.6
0.6 1 @label_color 0 0 0 1 @ph_color 1 0 0 1 @nh_color 0 0 1 1 @fontname
"Helvetica" @fontweight "normal" @fontslant "roman" @fontsize 11 @label
"(null)" @label_inner 0 @label_side "top" @label_align "left" @label_valign
"top" @label_margins 0 0 @gain 10 @refresh 100 @order 7 @view 0;
#X obj 551 423 hoa.scope~ @size 189 189 @receive "(null)" @send "(null)"
@pinned 0 @background_color 0.93 0.93 0.93 1 @border_color 0.6 0.6
0.6 1 @label_color 0 0 0 1 @ph_color 1 0 0 1 @nh_color 0 0 1 1 @fontname
"Helvetica" @fontweight "normal" @fontslant "roman" @fontsize 11 @label
"(null)" @label_inner 0 @label_side "top" @label_align "left" @label_valign
"top" @label_margins 0 0 @gain 10 @refresh 100 @order 7 @view 0;
#X obj 75 412 ui.dsp~ @size 69 69 @receive "(null)" @send "(null)"
@pinned 0 @background_color 0.93 0.93 0.93 1 @border_color 0.6 0.6
0.6 1 @label_color 0 0 0 1 @active_color 0 0.75 1 1 @fontname "Helvetica"
@fontweight "normal" @fontslant "roman" @fontsize 11 @label "(null)"
@label_inner 0 @label_side "top" @label_align "left" @label_valign
"top" @label_margins 0 0;
#X obj 285 606 xdac~ 1:16, f 39;
#X obj 534 164 ui.sliders @size 150 100 @receive "(null)" @send "(null)"
@pinned 0 @presetname "ui.sliders.0" @background_color 0.93 0.93 0.93
1 @border_color 0.6 0.6 0.6 1 @label_color 0 0 0 1 @slider_color 0.75
0.75 0.75 1 @select_color 0 0.75 1 1 @fontname "Helvetica" @fontweight
"normal" @fontslant "roman" @fontsize 11 @label "(null)" @label_inner
0 @label_side "top" @label_align "left" @label_valign "top" @label_margins
0 0 @min -60 @max 12 @count 16 @auto_range 0 @show_range 1;
#X obj 534 269 msg @db;
#X obj 422 5 hoa.help.also;
#X obj 8 9 msg.onload @name?;
#X obj 8 31 canvas.top;
#X obj 8 9 prop-> @name;
#X obj 4 6 hoa.help.header;
#X obj 285 368 hoa.recomposer~ 7 16 fixe, f 39;
#X obj 285 299 hoa.process~ 16 hoa.fx.gain~ planewaves;
#X obj 285 136 hoa.process~ 7 hoa.syn.grain~ harmonics @array \$0-hoa_grain_array
, f 37;
#X obj 285 225 hoa.projector~ 7 16, f 37;
#X floatatom 539 84 5 0 0 0 - - -;
#X msg 539 106 open \$1;
#X connect 0 0 12 0;
#X connect 2 0 16 0;
#X connect 2 1 16 1;
#X connect 2 2 16 2;
#X connect 2 3 16 3;
#X connect 2 4 16 4;
#X connect 2 5 16 5;
#X connect 2 6 16 6;
#X connect 2 7 16 7;
#X connect 2 8 16 8;
#X connect 2 9 16 9;
#X connect 2 10 16 10;
#X connect 2 11 16 11;
#X connect 2 12 16 12;
#X connect 2 13 16 13;
#X connect 2 14 16 14;
#X connect 2 15 16 15;
#X connect 12 0 26 0;
#X connect 17 0 18 0;
#X connect 18 0 25 16;
#X connect 20 0 21 0;
#X connect 21 0 22 0;
#X connect 22 1 23 0;
#X connect 24 0 2 0;
#X connect 24 0 14 0;
#X connect 24 1 2 1;
#X connect 24 1 14 1;
#X connect 24 2 2 2;
#X connect 24 2 14 2;
#X connect 24 3 2 3;
#X connect 24 3 14 3;
#X connect 24 4 2 4;
#X connect 24 4 14 4;
#X connect 24 5 2 5;
#X connect 24 5 14 5;
#X connect 24 6 2 6;
#X connect 24 6 14 6;
#X connect 24 7 2 7;
#X connect 24 7 14 7;
#X connect 24 8 2 8;
#X connect 24 8 14 8;
#X connect 24 9 2 9;
#X connect 24 9 14 9;
#X connect 24 10 2 10;
#X connect 24 10 14 10;
#X connect 24 11 2 11;
#X connect 24 11 14 11;
#X connect 24 12 2 12;
#X connect 24 12 14 12;
#X connect 24 13 2 13;
#X connect 24 13 14 13;
#X connect 24 14 2 14;
#X connect 24 14 14 14;
#X connect 25 0 24 0;
#X connect 25 1 24 1;
#X connect 25 2 24 2;
#X connect 25 3 24 3;
#X connect 25 4 24 4;
#X connect 25 5 24 5;
#X connect 25 6 24 6;
#X connect 25 7 24 7;
#X connect 25 8 24 8;
#X connect 25 9 24 9;
#X connect 25 10 24 10;
#X connect 25 11 24 11;
#X connect 25 12 24 12;
#X connect 25 13 24 13;
#X connect 25 14 24 14;
#X connect 25 15 24 15;
#X connect 26 0 13 0;
#X connect 26 0 27 0;
#X connect 26 1 13 1;
#X connect 26 1 27 1;
#X connect 26 2 13 2;
#X connect 26 2 27 2;
#X connect 26 3 13 3;
#X connect 26 3 27 3;
#X connect 26 4 13 4;
#X connect 26 4 27 4;
#X connect 26 5 13 5;
#X connect 26 5 27 5;
#X connect 26 6 13 6;
#X connect 26 6 27 6;
#X connect 26 7 13 7;
#X connect 26 7 27 7;
#X connect 26 8 13 8;
#X connect 26 8 27 8;
#X connect 26 9 13 9;
#X connect 26 9 27 9;
#X connect 26 10 13 10;
#X connect 26 10 27 10;
#X connect 26 11 13 11;
#X connect 26 11 27 11;
#X connect 26 12 13 12;
#X connect 26 12 27 12;
#X connect 26 13 13 13;
#X connect 26 13 27 13;
#X connect 26 14 13 14;
#X connect 26 14 27 14;
#X connect 27 0 25 0;
#X connect 27 1 25 1;
#X connect 27 2 25 2;
#X connect 27 3 25 3;
#X connect 27 4 25 4;
#X connect 27 5 25 5;
#X connect 27 6 25 6;
#X connect 27 7 25 7;
#X connect 27 8 25 8;
#X connect 27 9 25 9;
#X connect 27 10 25 10;
#X connect 27 11 25 11;
#X connect 27 12 25 12;
#X connect 27 13 25 13;
#X connect 27 14 25 14;
#X connect 27 15 25 15;
#X connect 28 0 29 0;
#X connect 29 0 26 0;
#X coords 0 685 1 684 100 60 0;
