#N canvas 264 189 758 436 10;
#X obj 45 1 cnv 15 354 40 empty \$0-hoa.header HOA 10 12 0 14 -233017
-66577 0;
#X obj 388 313 s \$0-hoa.header;
#X obj 284 80 namecanvas \$0-r;
#X msg 580 55 read hoa.objects.txt;
#X obj 505 313 s \$0-r;
#X msg 388 283 label \$1;
#X obj 580 115 textfile;
#X obj 548 85 until;
#X msg 601 85 rewind;
#X obj 580 144 list;
#X obj 533 32 t b b b b s;
#X obj 505 285 prepend text 46 23;
#X text 215 0 High Order Ambisonics Library.;
#X obj 527 184 list.at 0;
#X obj 527 206 symbol.equal;
#X obj 428 184 flow.pass_if;
#X obj 388 243 list.at 1;
#X obj 533 9 inlet;
#X obj 505 243 list.slice 2;
#X connect 3 0 6 0;
#X connect 5 0 1 0;
#X connect 6 0 9 0;
#X connect 6 1 7 1;
#X connect 7 0 6 0;
#X connect 8 0 6 0;
#X connect 9 0 15 0;
#X connect 10 1 7 0;
#X connect 10 2 8 0;
#X connect 10 3 3 0;
#X connect 10 4 14 1;
#X connect 11 0 4 0;
#X connect 13 0 14 0;
#X connect 14 0 15 1;
#X connect 15 0 16 0;
#X connect 15 0 18 0;
#X connect 15 1 13 0;
#X connect 16 0 5 0;
#X connect 17 0 10 0;
#X connect 18 0 11 0;
#X coords 0 -1 1 1 400 42 2 0 0;
