#N canvas 339 44 865 702 10;
#X obj 125 497 hoa.in~;
#X obj 125 623 hoa.out~;
#X text 5 497 Receive the signal;
#X text 12 624 Output the signal;
#X text 362 108 Input messages selector;
#X obj 125 581 *~;
#X obj 185 500 line~;
#X obj 326 534 *~;
#X obj 326 473 osc~ 1;
#X obj 326 451 line~;
#X msg 326 429 \$1 20;
#X obj 231 63 hoa.in extra 1;
#X text 324 63 Extra 1 Receive the inlet messages.;
#X text 84 29 Default arguments and attributes;
#X text 377 473 Simple ring modulation;
#X obj 247 228 *;
#X obj 13 152 nbx 5 14 -1e+37 1e+37 0 0 empty empty empty 0 -8 0 10
-262144 -1 -1 0 256;
#X obj 326 407 f 1;
#X msg 185 479 \$1 20;
#X obj 223 402 sel 0 1;
#X obj 196 359 t b f;
#X text 375 297 diffusion : The value is clip between 0 and 1 and reversed.
If the value is 1 \, the ring modulation is applied to all the intances.
If the value is 0 \, the ring modulation is applied to no harmonics.
Between the boudnaries \, the ring modulation appears first in the
high harmonics then in the low harmonics.;
#X obj 196 332 >= 0;
#X obj 185 431 f 1;
#X obj 266 500 line~;
#X msg 266 479 \$1 20;
#X obj 296 431 f 1;
#X obj 223 431 f 0;
#X obj 256 431 f 0;
#X obj 193 393 tgl 15 0 empty empty empty 17 7 0 10 -262144 -1 -1 1
1;
#X text 34 385 1 if the ring modulation;
#X text 34 395 is active and 0 if not;
#X obj 196 78 f 10;
#X obj 196 109 route diffusion float list;
#X text 374 156 list : The item corresponding to the instance is selected
and control the frequency of the ring modulation (mostly used in the
plane waves domain).;
#X text 309 18 This hoa.processing diffuses the sound field with ring
modulation.;
#X obj 432 395 prop.declare diffusion @f @default 1 @min 0 @max 1;
#X obj 196 296 prop @diffusion;
#X obj 298 153 list.at;
#X obj 13 7 msg.onload;
#X obj 13 29 patch.args;
#X text 371 215 float : The value \, that control the frequency of
the ring modulation \, is multiplied by a factor depending on the instance.
The factor is 1 for the highest harmonic and decreases toward 0 for
the lower harmonics.;
#X obj 13 117 /;
#X text 18 134 instance factor;
#X obj 13 51 list.at 3;
#X obj 13 95 list.at 3 2;
#X connect 0 0 5 0;
#X connect 5 0 1 0;
#X connect 6 0 5 1;
#X connect 7 0 5 1;
#X connect 8 0 7 0;
#X connect 9 0 8 0;
#X connect 10 0 9 0;
#X connect 11 0 33 0;
#X connect 15 0 17 0;
#X connect 17 0 10 0;
#X connect 18 0 6 0;
#X connect 19 0 23 0;
#X connect 19 0 27 0;
#X connect 19 1 26 0;
#X connect 19 1 28 0;
#X connect 20 0 17 0;
#X connect 20 1 19 0;
#X connect 20 1 29 0;
#X connect 22 0 20 0;
#X connect 23 0 18 0;
#X connect 24 0 7 1;
#X connect 25 0 24 0;
#X connect 26 0 25 0;
#X connect 27 0 25 0;
#X connect 28 0 18 0;
#X connect 32 0 33 0;
#X connect 33 0 37 0;
#X connect 33 1 15 0;
#X connect 33 2 38 0;
#X connect 37 0 22 0;
#X connect 38 0 17 0;
#X connect 39 0 40 0;
#X connect 39 0 32 0;
#X connect 40 0 44 0;
#X connect 40 0 45 0;
#X connect 42 0 16 0;
#X connect 42 0 15 1;
#X connect 42 0 22 1;
#X connect 44 0 38 1;
#X connect 45 0 42 0;
