#N canvas 339 264 634 212 12;
#X floatatom 89 64 5 0 0 0 - - -;
#X obj 89 90 hoa.out;
#X obj 89 38 hoa.in;
#X floatatom 381 63 5 0 0 0 - - -;
#X obj 381 37 hoa.in @index 3;
#X obj 381 89 hoa.out @index 2;
#X connect 0 0 1 0;
#X connect 2 0 0 0;
#X connect 3 0 5 0;
#X connect 4 0 3 0;
