#N canvas 278 149 765 435 12;
#X obj 89 17 hoa.in;
#X obj 89 120 hoa.out;
#X obj 89 63 hoa.@process;
#X obj 273 24 prop.declare freq @min 10 @max 1000 @default 440;
#X obj 272 98 msg.onload;
#X obj 272 124 prop @freq;
#X floatatom 272 150 5 0 0 0 - - -;
#X obj 272 258 hoa.out~;
#X obj 272 176 sig~;
#X obj 272 202 lop~ 0.5;
#X obj 272 228 osc.square~;
#X connect 0 0 2 0;
#X connect 2 0 1 0;
#X connect 4 0 5 0;
#X connect 5 0 6 0;
#X connect 6 0 8 0;
#X connect 8 0 9 0;
#X connect 9 0 10 0;
#X connect 10 0 7 0;
