#N canvas 835 547 700 500 12;
#X obj 134 31 hoa.in;
#X obj 134 148 hoa.@process;
#X msg 134 122 @index?;
#X obj 354 132 hoa.@process;
#X msg 354 106 @index?;
#X obj 354 245 print OTHER;
#X obj 134 175 flow.pack 3;
#X obj 134 57 hoa.process.route float;
#X obj 134 94 t b f, f 11;
#X obj 134 201 print f;
#X obj 354 78 t b a, f 11;
#X obj 428 106 list;
#X obj 354 189 list.append;
#X obj 354 158 list;
#X obj 354 215 list trim;
#X connect 0 0 7 0;
#X connect 1 0 6 0;
#X connect 2 0 1 0;
#X connect 3 0 13 0;
#X connect 4 0 3 0;
#X connect 6 0 9 0;
#X connect 7 0 8 0;
#X connect 7 1 10 0;
#X connect 8 0 2 0;
#X connect 8 1 6 2;
#X connect 10 0 4 0;
#X connect 10 1 11 0;
#X connect 11 0 12 1;
#X connect 12 0 14 0;
#X connect 13 0 12 0;
#X connect 14 0 5 0;
