#N canvas 0 0 618 267 12;
#X obj 20 50 adc~ 1;
#X obj 56 95 tgl 15 0 empty empty empty 17 7 0 10 -262144 -1 -1 0 1;
#X obj 110 95 ui.menu hfc energy complex phase wphase specdiff
specflux kl mkl;
#X obj 20 125 gain~;
#X msg 110 125 @method \$1 \, dump;
#X msg 137 155 reset;
#X obj 20 200 an.onset~ 2048;
#X obj 281 200 ui.dsp~;
#X obj 20 230 bng 15 250 50 0 empty empty empty 17 7 0 10 -262144 -1
-1;
#X floatatom 101 230 10 0 0 0 - - -;
#X connect 0 0 3 0;
#X connect 1 0 3 1;
#X connect 2 0 4 0;
#X connect 3 0 6 0;
#X connect 4 0 6 0;
#X connect 5 0 6 0;
#X connect 6 0 8 0;
#X connect 6 1 9 0;
