#N canvas 0 0 360 237 12;
#X obj 20 50 adc~ 1;
#X obj 137 50 ui.dsp~;
#X obj 56 80 tgl 15 0 empty empty empty 17 7 0 10 -262144 -1 -1 0 1;
#X floatatom 92 80 5 0 0 0 - - -;
#X obj 20 110 gain~;
#X obj 92 110 osc~ 440;
#X obj 200 110 hradio 15 1 0 8 empty empty empty 17 7 0 10 -262144 -1
-1 0;
#X obj 20 140 flow.mux~ 2;
#X obj 20 170 an.pitchtrack~;
#X floatatom 20 200 5 0 0 0 - - -;
#X floatatom 83 200 5 0 0 0 - - -;
#X connect 0 0 4 0;
#X connect 2 0 4 1;
#X connect 3 0 5 0;
#X connect 4 0 7 0;
#X connect 5 0 7 1;
#X connect 6 0 7 2;
#X connect 7 0 8 0;
#X connect 8 1 9 0;
#X connect 8 2 10 0;
