#N canvas 0 0 306 237 12;
#X obj 20 50 sig~ 1;
#X obj 110 50 osc~ 440;
#X obj 146 80 ui.hrd @nitems 2;
#X obj 20 110 mux~ 2;
#X obj 20 140 an.rms~;
#X obj 20 170 ui.n~;
#X obj 20 200 ui.dsp~;
#X connect 0 0 3 0;
#X connect 1 0 3 1;
#X connect 2 0 3 2;
#X connect 3 0 4 0;
#X connect 4 0 5 0;
