#N canvas 0 0 816 462 12;
#X obj 20 50 loadmsg load sound/loop_breakbeat.flac to antmp @resize;
#X obj 20 80 snd.file;
#X obj 20 110 table antmp;
#X obj 155 110 ui.hsl @show_value 1 @min 0.1 @max 2.5;
#X obj 20 140 bng 15 250 50 0 empty empty empty 17 7 0 10 -262144 -1
-1;
#X msg 83 140 stop;
#X msg 155 140 @speed \$1;
#X obj 308 140 ui.dsp~;
#X obj 20 185 array.play~ antmp @loop 1;
#X obj 308 185 ui.menu hfc energy complex phase wphase specdiff
specflux kl mkl;
#X msg 308 215 @method \$1;
#X obj 47 245 an.tempo~;
#X floatatom 47 275 5 0 0 0 - - -;
#X floatatom 110 275 5 0 0 0 - - -;
#X obj 47 305 ui.b;
#X obj 47 335 click~;
#X obj 47 365 flt.resonbp~ 1000 50;
#X obj 20 395 ui.hgain~;
#X obj 20 425 dac~;
#X connect 0 0 1 0;
#X connect 3 0 6 0;
#X connect 4 0 8 0;
#X connect 5 0 8 0;
#X connect 6 0 8 0;
#X connect 9 0 10 0;
#X connect 8 0 11 0;
#X connect 10 0 11 0;
#X connect 11 0 12 0;
#X connect 11 1 13 0;
#X connect 12 0 14 0;
#X connect 14 0 15 0;
#X connect 15 0 16 0;
#X connect 8 0 17 0;
#X connect 16 0 17 0;
#X connect 17 0 18 0;
#X connect 17 0 18 1;
