#N canvas 0 0 292 462 12;
#X floatatom 20 50 5 0 0 0 - - -;
#X obj 164 50 ui.dsp~;
#X obj 20 95 osc~;
#X obj 110 125 an.zero~ @mode freq;
#X obj 110 155 ui.n~;
#X obj 65 185 an.zero~ @mode rate;
#X obj 65 215 ui.n~;
#X obj 20 245 an.zero~ @mode count;
#X obj 20 275 ui.n~;
#X floatatom 20 305 5 0 0 0 - - -;
#X obj 20 335 osc~;
#X obj 20 365 an.zero~ @clock;
#X obj 20 395 ui.hgain~;
#X obj 20 425 dac~;
#X connect 0 0 2 0;
#X connect 2 0 3 0;
#X connect 3 0 4 0;
#X connect 2 0 5 0;
#X connect 5 0 6 0;
#X connect 2 0 7 0;
#X connect 7 0 8 0;
#X connect 9 0 10 0;
#X connect 10 0 11 0;
#X connect 11 0 12 0;
#X connect 12 0 13 0;
#X connect 12 0 13 1;
