#N canvas 0 0 929 462 12;
#X msg 20 50 fill 80 @l 300ms @at rand()*1s @at ondone +=100ms @pan ondone rand() @s ondone choice(1\ \,-0.5) @tb rand()*400ms @w hann;
#X obj 110 125 tgl 15 0 empty empty empty 17 7 0 10 -262144 -1 -1 0 1;
#X msg 38 155 clear;
#X msg 110 155 pause * \$1;
#X obj 20 185 array.grainer~ agr0;
#X obj 227 185 ui.dsp~;
#X obj 20 215 ui.hgain2~;
#X obj 20 245 dac~;
#X obj 20 275 table agr0;
#X obj 20 305 msg.onload load guitar1.wav to agr0 @resize;
#X obj 38 335 bng 15 250 50 0 empty empty empty 17 7 0 10 -262144 -1
-1;
#X obj 38 365 openpanel;
#X msg 38 395 load \$1 to agr0 @resize;
#X obj 20 425 snd.file;
#X connect 1 0 3 0;
#X connect 0 0 4 0;
#X connect 2 0 4 0;
#X connect 3 0 4 0;
#X connect 4 0 6 0;
#X connect 4 1 6 1;
#X connect 6 0 7 0;
#X connect 6 1 7 1;
#X connect 10 0 11 0;
#X connect 11 0 12 0;
#X connect 9 0 13 0;
#X connect 12 0 13 0;
