#N canvas 0 0 519 207 12;
#X obj 20 50 bng 15 250 50 0 empty empty empty 17 7 0 10 -262144 -1
-1;
#N canvas 0 22 450 300 (subpatch) 0;
#X array amean 10 float 1;
#A 0 0 0 0 0 0 0 0 0 0 0;
#X coords 0 1 10 -1 180 130 1;
#X restore 299 50 graph;
#X obj 20 80 array.mean amean;
#X floatatom 20 110 16 0 0 0 - - -;
#X msg 20 140 uniform;
#X msg 110 140 fill 0;
#X obj 20 170 array.fill amean;
#X connect 0 0 2 0;
#X connect 2 0 3 0;
#X connect 4 0 6 0;
#X connect 5 0 6 0;
