#N canvas 0 0 411 147 12;
#X obj 20 50 bng 15 250 50 0 empty empty empty 17 7 0 10 -262144 -1
-1;
#X obj 272 50 bng 15 250 50 0 empty empty empty 17 7 0 10 -262144 -1
-1;
#X obj 20 80 canvas.dir;
#X obj 272 80 canvas.dir.sp;
#X obj 20 110 ui.dt;
#X obj 272 110 ui.dt;
#X connect 0 0 2 0;
#X connect 1 0 3 0;
#X connect 2 0 4 0;
#X connect 3 0 5 0;
