#N canvas 0 0 335 237 12;
#X obj 20 50 bng 15 250 50 0 empty empty empty 17 7 0 10 -262144 -1
-1;
#X obj 20 80 canvas.dir;
#X obj 20 110 ui.dt @auto_size 0 @size 400 45;
#X floatatom 92 170 5 0 0 0 - - -;
#X obj 20 200 canvas.dir.abs0;
#X obj 182 200 canvas.dir.abs1;
#X connect 0 0 1 0;
#X connect 1 0 2 0;
#X connect 1 1 3 0;
