#N canvas 0 0 380 237 12;
#X msg 20 50 @name?;
#X msg 119 50 @dir?;
#X msg 218 50 @width?;
#X msg 38 80 @root?;
#X msg 137 80 @args?;
#X msg 236 80 @abstraction?;
#X msg 65 110 @x?;
#X msg 155 110 @y?;
#X msg 254 110 @height?;
#X obj 83 140 bng 15 250 50 0 empty empty empty 17 7 0 10 -262144 -1
-1;
#X obj 20 170 canvas.current;
#X obj 20 200 ui.display @display_type 1;
#X connect 0 0 10 0;
#X connect 3 0 10 0;
#X connect 6 0 10 0;
#X connect 9 0 10 0;
#X connect 1 0 10 0;
#X connect 4 0 10 0;
#X connect 7 0 10 0;
#X connect 2 0 10 0;
#X connect 5 0 10 0;
#X connect 8 0 10 0;
#X connect 10 0 11 0;
