#N canvas 0 0 201 147 12;
#X obj 20 50 bng 15 250 50 0 empty empty empty 17 7 0 10 -262144 -1
-1;
#X obj 20 80 canvas.path;
#X obj 146 80 bng 15 250 50 0 empty empty empty 17 7 0 10 -262144 -1
-1;
#X obj 20 110 ui.display;
#X connect 0 0 1 0;
#X connect 1 0 3 0;
#X connect 2 0 3 0;
