#N canvas 0 0 319 177 12;
#X symbolatom 20 50 10 0 0 0 - - -;
#X symbolatom 146 50 10 0 0 0 - - -;
#X msg 20 80 k \$1;
#X msg 146 80 o \$1;
#X symbolatom 209 80 10 0 0 0 - - -;
#X obj 20 110 ceammc.search;
#X obj 20 140 ui.display;
#X connect 0 0 2 0;
#X connect 1 0 3 0;
#X connect 2 0 5 0;
#X connect 3 0 5 0;
#X connect 4 0 5 0;
#X connect 5 0 6 0;
