#N canvas 0 0 484 267 12;
#X msg 20 50 440;
#X msg 74 50 15000;
#X floatatom 146 50 5 0 0 0 - - -;
#X obj 236 50 ui.dsp~;
#X obj 20 80 sig~ 400;
#X obj 146 80 sig~ 1;
#X obj 20 110 chaos.std0~;
#X obj 20 140 fx.pitchshift~ @drywet 0.5 @fade 50 @pitch 15.1 @window
93;
#X obj 20 170 flt.dcblock~;
#X obj 20 200 ui.hgain~;
#X obj 20 230 dac~;
#X connect 0 0 4 0;
#X connect 1 0 4 0;
#X connect 2 0 5 0;
#X connect 4 0 6 0;
#X connect 5 0 6 1;
#X connect 6 0 7 0;
#X connect 7 0 8 0;
#X connect 8 0 9 0;
#X connect 9 0 10 0;
#X connect 9 0 10 1;
