#N canvas 0 0 557 237 12;
#X msg 20 50 10;
#X msg 65 50 100;
#X msg 119 50 20000;
#X obj 191 50 ui.dsp~;
#X obj 281 50 sig~ 35;
#X obj 20 80 sig~ 10;
#X obj 281 80 chaos.gbman0~;
#X obj 20 110 chaos.gbman0~;
#X obj 281 110 l->l~ -3 6 50 10000 @clip minmax;
#X obj 20 140 dyn.limit~;
#X obj 281 140 osc.sin~;
#X obj 20 170 ui.hgain~;
#X obj 281 170 ui.hgain~;
#X obj 20 200 dac~;
#X obj 281 200 dac~;
#X connect 0 0 5 0;
#X connect 1 0 5 0;
#X connect 2 0 5 0;
#X connect 4 0 6 0;
#X connect 5 0 7 0;
#X connect 6 0 8 0;
#X connect 7 0 9 0;
#X connect 8 0 10 0;
#X connect 9 0 11 0;
#X connect 10 0 12 0;
#X connect 11 0 13 0;
#X connect 11 0 13 1;
#X connect 12 0 14 0;
#X connect 12 0 14 1;
