#N canvas 0 0 723 477 12;
#X obj 20 50 tgl 15 0 empty empty empty 17 7 0 10 -262144 -1 -1 0 1;
#X obj 164 50 ui.dsp~;
#X obj 263 50 r~ std0;
#X obj 20 80 metro.random 100 200;
#X obj 263 80 ui.scope~ @size 420 100;
#X msg 20 110 3;
#X obj 20 140 list.gen;
#X obj 137 140 chaos.std0;
#X obj 20 170 l->l -2 1 20 55 @clip minmax;
#X obj 20 200 list.unpack 3;
#X obj 20 230 sig~;
#X obj 146 230 * 8000;
#X obj 227 230 / 200;
#X obj 146 260 sig~;
#X msg 227 260 @res \$1;
#X obj 20 290 osc.square~;
#X obj 146 290 lop~ 2;
#X obj 20 320 flt.moog_vcf~;
#X obj 20 350 clip~ -1 1;
#X obj 20 380 flt.dcblock~;
#X obj 155 380 s~ std0;
#X obj 20 410 ui.hgain~;
#X obj 20 440 dac~;
#X connect 0 0 3 0;
#X connect 2 0 4 0;
#X connect 3 0 5 0;
#X connect 5 0 6 0;
#X connect 6 0 8 0;
#X connect 8 0 9 0;
#X connect 9 0 10 0;
#X connect 9 1 11 0;
#X connect 9 2 12 0;
#X connect 11 0 13 0;
#X connect 12 0 14 0;
#X connect 10 0 15 0;
#X connect 13 0 16 0;
#X connect 15 0 17 0;
#X connect 16 0 17 1;
#X connect 14 0 17 0;
#X connect 17 0 18 0;
#X connect 18 0 19 0;
#X connect 18 0 20 0;
#X connect 19 0 21 0;
#X connect 21 0 22 0;
#X connect 21 0 22 1;
#X connect 6 1 7 0;
#X connect 7 0 6 1;
