#N canvas 0 0 228 225 12;
#X obj 20 44 tgl 15 0 empty empty empty 17 7 0 10 -262144 -1 -1 0 1;
#X obj 132 44 ui.dsp~;
#X obj 20 68 metro 300;
#X obj 20 92 ui.b;
#X obj 20 116 click~;
#X obj 20 140 flt.resonbp~ 1000;
#X obj 20 164 ui.hgain~;
#X obj 20 188 dac~;
#X connect 0 0 2 0;
#X connect 2 0 3 0;
#X connect 3 0 4 0;
#X connect 4 0 5 0;
#X connect 5 0 6 0;
#X connect 6 0 7 0;
#X connect 6 0 7 1;
