#N canvas 0 0 368 177 12;
#X floatatom 20 50 5 0 127 0 - - -;
#X obj 56 80 ctlin 0;
#X floatatom 164 80 5 0 127 0 - - -;
#X obj 20 110 cc->amp;
#X obj 164 110 cc->amp @from 1 @to -1;
#X floatatom 20 140 5 0 0 0 - - -;
#X floatatom 164 140 5 0 0 0 - - -;
#X connect 0 0 3 0;
#X connect 1 0 3 0;
#X connect 2 0 4 0;
#X connect 3 0 5 0;
#X connect 4 0 6 0;
