#N canvas 0 0 514 237 12;
#X obj 20 50 phasor~ 0.5;
#X obj 191 50 phasor~ 0.5;
#X obj 353 50 lfo.tri~ 0.5;
#X obj 20 80 s->f~;
#X obj 191 80 *~ -1;
#X obj 353 80 s->f~;
#X floatatom 20 110 5 0 0 0 - - -;
#X obj 191 110 s->f~;
#X floatatom 353 110 5 0 0 0 - - -;
#X obj 20 140 edge->bang @down;
#X floatatom 191 140 5 0 0 0 - - -;
#X obj 353 140 edge->bang @both;
#X obj 20 170 bng 15 250 50 0 empty empty empty 17 7 0 10 -262144 -1
-1;
#X obj 191 170 edge->bang @up;
#X obj 353 170 bng 15 250 50 0 empty empty empty 17 7 0 10 -262144 -1
-1;
#X obj 20 200 ui.dsp~;
#X obj 191 200 bng 15 250 50 0 empty empty empty 17 7 0 10 -262144 -1
-1;
#X connect 0 0 3 0;
#X connect 1 0 4 0;
#X connect 2 0 5 0;
#X connect 3 0 6 0;
#X connect 4 0 7 0;
#X connect 5 0 8 0;
#X connect 6 0 9 0;
#X connect 7 0 10 0;
#X connect 8 0 11 0;
#X connect 9 0 12 0;
#X connect 10 0 13 0;
#X connect 11 0 14 0;
#X connect 13 0 16 0;
