#N canvas 0 0 407 207 12;
#X obj 20 50 tgl 15 0 empty empty empty 17 7 0 10 -262144 -1 -1 0 1;
#X floatatom 218 50 5 0 0 0 - - -;
#X obj 20 80 metro 1000;
#X obj 218 80 sec->str @symbol @ms;
#X obj 20 110 f;
#X obj 74 110 + 1;
#X symbolatom 218 110 14 0 0 0 - - -;
#X obj 20 140 sec->str @symbol;
#X obj 218 140 str->sec;
#X symbolatom 20 170 12 0 0 0 - - -;
#X floatatom 218 170 5 0 0 0 - - -;
#X connect 0 0 2 0;
#X connect 1 0 3 0;
#X connect 2 0 4 0;
#X connect 3 0 6 0;
#X connect 4 0 7 0;
#X connect 6 0 8 0;
#X connect 7 0 9 0;
#X connect 8 0 10 0;
#X connect 4 0 5 0;
#X connect 5 0 4 1;
