#N canvas 0 0 202 207 12;
#X obj 20 50 tgl 15 0 empty empty empty 17 7 0 10 -262144 -1 -1 0 1;
#X obj 20 80 metro 200;
#X obj 20 110 f;
#X obj 74 110 + 200;
#X obj 20 140 ms->str @symbol @ms;
#X symbolatom 20 170 12 0 0 0 - - -;
#X connect 0 0 1 0;
#X connect 1 0 2 0;
#X connect 2 0 4 0;
#X connect 4 0 5 0;
#X connect 2 0 3 0;
#X connect 3 0 2 1;
