#N canvas 0 0 202 177 12;
#X floatatom 20 50 5 0 0 0 - - -;
#X obj 74 50 tgl 15 0 empty empty empty 17 7 0 10 -262144 -1 -1 0 1;
#X msg 74 80 @clip \$1;
#X obj 20 110 lin->lin 0 127 -1 1;
#X floatatom 20 140 5 0 0 0 - - -;
#X connect 1 0 2 0;
#X connect 0 0 3 0;
#X connect 2 0 3 0;
#X connect 3 0 4 0;
