#N canvas 0 0 244 235 12;
#X obj 20 50 ui.hsl;
#X obj 92 80 ui.hsl;
#X obj 155 110 ui.hsl;
#X obj 20 140 rgb->hex @sync @float;
#X msg 20 170 color \$1 0 -1;
#X obj 20 200 bng 15 250 50 0 empty empty empty 17 7 0 10 -262144 -1
-1;
#X connect 0 0 3 0;
#X connect 1 0 3 1;
#X connect 2 0 3 2;
#X connect 3 0 4 0;
#X connect 4 0 5 0;
