#N canvas 0 0 277 402 12;
#X msg 20 50 bang;
#X obj 20 80 list.gen 11;
#X obj 146 80 random.i 0 7;
#X obj 20 110 degree->key @scale major;
#X obj 38 140 ui.dt;
#X obj 20 185 msg @v;
#X obj 110 185 tgl 15 0 empty empty empty 17 7 0 10 -262144 -1 -1 0 1;
#X obj 20 215 seq @t 120|4_bpm @inf;
#X obj 20 245 + 72;
#X obj 20 275 mtof;
#X obj 20 305 osc~;
#X obj 164 305 ui.dsp~;
#X obj 20 335 ui.hgain~;
#X obj 20 365 dac~;
#X connect 0 0 1 0;
#X connect 1 0 3 0;
#X connect 3 0 4 0;
#X connect 3 0 5 0;
#X connect 5 0 7 0;
#X connect 6 0 7 0;
#X connect 7 0 8 0;
#X connect 8 0 9 0;
#X connect 9 0 10 0;
#X connect 10 0 12 0;
#X connect 12 0 13 0;
#X connect 12 0 13 1;
#X connect 1 1 2 0;
#X connect 2 0 1 1;
