#N canvas 0 0 238 177 12;
#X symbolatom 20 50 5 0 0 0 - - -;
#X obj 137 50 tgl 15 0 empty empty empty 17 7 0 10 -262144 -1 -1 0 1;
#X msg 137 80 @sym \$1;
#X obj 20 110 conv.char2morse;
#X obj 20 140 ui.dt;
#X connect 1 0 2 0;
#X connect 0 0 3 0;
#X connect 2 0 3 0;
#X connect 3 0 4 0;
