#N canvas 0 0 231 237 12;
#X obj 20 50 ui.hsl @min -144 @max 6;
#X floatatom 20 80 8 0 0 0 - - -;
#X obj 20 110 dbfs->amp;
#X floatatom 20 140 8 0 0 0 - - -;
#X obj 20 170 amp->dbfs;
#X floatatom 20 200 8 0 0 0 - - -;
#X connect 0 0 1 0;
#X connect 1 0 2 0;
#X connect 2 0 3 0;
#X connect 3 0 4 0;
#X connect 4 0 5 0;
