#N canvas 0 0 308 387 12;
#X obj 20 50 tgl 15 0 empty empty empty 17 7 0 10 -262144 -1 -1 0 1;
#X obj 146 50 ui.dsp~;
#X obj 20 80 metro 100;
#X msg 20 110 list Bb3 C4 F4 G4 C6 E##7 R R R R;
#X obj 20 140 list.choice;
#X obj 20 170 pitch->midi;
#X obj 20 200 t f f;
#X obj 20 230 mtof;
#X obj 83 230 != -1;
#X obj 20 260 osc~;
#X obj 83 260 lop~ 30;
#X obj 20 290 *~;
#X obj 20 320 ui.hgain~;
#X obj 20 350 dac~;
#X connect 0 0 2 0;
#X connect 2 0 3 0;
#X connect 3 0 4 0;
#X connect 4 0 5 0;
#X connect 5 0 6 0;
#X connect 6 0 7 0;
#X connect 6 1 8 0;
#X connect 7 0 9 0;
#X connect 8 0 10 0;
#X connect 9 0 11 0;
#X connect 10 0 11 1;
#X connect 11 0 12 0;
#X connect 12 0 13 0;
#X connect 12 0 13 1;
