#N canvas 0 0 209 237 12;
#X obj 20 50 ui.hsl @min 0 @max 7;
#X obj 20 80 rad->phase;
#X obj 20 110 ui.knob;
#X obj 20 170 phase->rad;
#X floatatom 20 200 5 0 0 0 - - -;
#X connect 0 0 1 0;
#X connect 1 0 2 0;
#X connect 2 0 3 0;
#X connect 3 0 4 0;
