#N canvas 0 0 260 260 12;
#X obj 20 50 lfo.saw~ 0.1;
#X obj 164 50 ui.dsp~;
#X obj 20 80 phase->rad~;
#X obj 20 110 rad->phase~;
#X obj 20 140 ui.scope~ @size 150 100;
#X connect 0 0 2 0;
#X connect 2 0 3 0;
#X connect 3 0 4 0;
