#N canvas 0 0 335 237 12;
#X msg 20 50 0:59;
#X msg 92 50 2:01;
#X msg 155 50 0:01.5;
#X msg 236 50 1:03:45;
#X obj 20 110 str->sec @on_err -100;
#X floatatom 20 140 5 0 0 0 - - -;
#X obj 20 170 sec->str;
#X symbolatom 20 200 12 0 0 0 - - -;
#X connect 0 0 4 0;
#X connect 1 0 4 0;
#X connect 2 0 4 0;
#X connect 3 0 4 0;
#X connect 4 0 5 0;
#X connect 5 0 6 0;
#X connect 6 0 7 0;
