#N canvas 0 0 368 357 12;
#X floatatom 92 50 5 0 0 0 - - -;
#X text 146 50 tempo;
#X obj 92 80 * 8;
#X text 146 80 32nds;
#X obj 20 110 tgl 15 0 empty empty empty 17 7 0 10 -262144 -1 -1 0 1;
#X obj 92 110 bpm->ms;
#X floatatom 92 140 5 0 0 0 - - -;
#X obj 20 170 metro 80;
#X msg 20 200 next;
#X obj 20 230 list.walk mtof(60 72 48 77 84 62 67) @fold;
#X obj 20 260 osc.pulse~;
#X obj 155 260 ui.dsp~;
#X obj 20 290 ui.hgain~;
#X obj 20 320 dac~;
#X connect 0 0 2 0;
#X connect 2 0 5 0;
#X connect 5 0 6 0;
#X connect 4 0 7 0;
#X connect 6 0 7 1;
#X connect 7 0 8 0;
#X connect 8 0 9 0;
#X connect 9 0 10 0;
#X connect 10 0 12 0;
#X connect 12 0 13 0;
#X connect 12 0 13 1;
