#N canvas 0 0 283 177 12;
#X msg 20 50 1 0 1 1 0 0 0 0;
#X obj 182 50 tgl 15 0 empty empty empty 17 7 0 10 -262144 -1 -1 0 1;
#X msg 182 80 @rev \$1;
#X obj 20 110 bits->pos;
#X obj 20 140 ui.dt;
#X connect 1 0 2 0;
#X connect 0 0 3 0;
#X connect 2 0 3 0;
#X connect 3 0 4 0;
