#N canvas 0 0 134 267 12;
#X obj 20 50 ui.hsl;
#X floatatom 20 80 5 0 0 0 - - -;
#X obj 20 110 amp->dbfs;
#X floatatom 20 140 5 0 0 0 - - -;
#X msg 20 170 0 0.5 1 2;
#X obj 20 200 amp->dbfs;
#X obj 20 230 ui.dt;
#X connect 0 0 1 0;
#X connect 1 0 2 0;
#X connect 2 0 3 0;
#X connect 4 0 5 0;
#X connect 5 0 6 0;
