#N canvas 0 0 284 177 12;
#X floatatom 20 50 5 0 0 0 - - -;
#X msg 20 80 \$1 \, bang;
#X msg 119 80 clear;
#X msg 191 80 @size?;
#X obj 20 110 data.set;
#X obj 20 140 ui.dt;
#X connect 0 0 1 0;
#X connect 1 0 4 0;
#X connect 2 0 4 0;
#X connect 3 0 4 0;
#X connect 4 0 5 0;
