#N canvas 0 0 644 295 12;
#X msg 20 50 hex #AA0055;
#X msg 182 50 darken 0.1;
#X msg 326 50 brighten 0.1;
#X msg 488 50 rgb8 10 255 100;
#X msg 20 80 red 1;
#X msg 119 80 green 0.5;
#X msg 254 80 blue 0.5;
#X msg 380 80 grayscale;
#X msg 515 80 invert;
#X msg 20 110 rotate 20;
#X msg 155 110 saturate 0.1;
#X msg 317 110 desaturate 0.1;
#X obj 20 140 msg.after 0 bang;
#X obj 218 140 loadbang;
#X obj 20 170 data.color \#DEF;
#X obj 20 200 rgb->hex;
#X msg 20 230 color \$1 -1 -1;
#X obj 20 260 hslider 128 15 0.0 127.0 0 0 empty empty empty 17 7 0 10
-262144 -1 -1 0 0;
#X connect 12 0 14 0;
#X connect 13 0 14 0;
#X connect 14 0 15 0;
#X connect 15 0 16 0;
#X connect 16 0 17 0;
#X connect 0 0 12 0;
#X connect 1 0 12 0;
#X connect 2 0 12 0;
#X connect 4 0 12 0;
#X connect 5 0 12 0;
#X connect 6 0 12 0;
#X connect 7 0 12 0;
#X connect 3 0 12 0;
#X connect 8 0 12 0;
#X connect 9 0 12 0;
#X connect 10 0 12 0;
#X connect 11 0 12 0;
