#N canvas 0 0 286 237 12;
#X floatatom 20 50 5 0 0 0 - - -;
#X msg 38 80 + 1 \, bang;
#X msg 164 80 - 10 \, bang;
#X msg 56 110 * 2 \, bang;
#X msg 182 110 / 3;
#X msg 74 140 bang;
#X floatatom 209 140 5 0 0 0 - - -;
#X obj 20 170 .int 100;
#X floatatom 20 200 5 0 0 0 - - -;
#X connect 0 0 7 0;
#X connect 1 0 7 0;
#X connect 3 0 7 0;
#X connect 5 0 7 0;
#X connect 2 0 7 0;
#X connect 4 0 7 0;
#X connect 6 0 7 1;
#X connect 7 0 8 0;
