#N canvas 0 0 252 207 12;
#X msg 20 50 bang;
#X msg 47 80 (A B C) \, bang;
#X msg 74 110 1 2 3 \, bang;
#X obj 20 140 data.mlist (1 2 3 (1 3 3));
#X obj 20 170 ui.d @display_type 1;
#X connect 0 0 3 0;
#X connect 1 0 3 0;
#X connect 2 0 3 0;
#X connect 3 0 4 0;
