#N canvas 0 0 584 267 12;
#X msg 20 50 bang;
#X msg 83 50 [a: [K0: 1 2 3 K2: "a symbol"]] \, bang;
#X msg 470 50 get_key a;
#X msg 47 80 [a: b c: d] \, bang;
#X msg 236 80 clear;
#X msg 308 80 remove a;
#X msg 74 110 add KEY value;
#X obj 326 110 bng 15 250 50 0 empty empty empty 17 7 0 10 -262144 -1
-1;
#X obj 326 140 openpanel;
#X msg 101 155 list a b c d;
#X msg 326 170 read \$1;
#X obj 20 200 data.dict \[tempo: 120 title: "New Masterpiece"\];
#X obj 20 230 ui.display @display_type 1;
#X connect 7 0 8 0;
#X connect 8 0 10 0;
#X connect 0 0 11 0;
#X connect 3 0 11 0;
#X connect 6 0 11 0;
#X connect 9 0 11 0;
#X connect 4 0 11 0;
#X connect 5 0 11 0;
#X connect 10 0 11 0;
#X connect 11 0 12 0;
#X connect 1 0 11 0;
#X connect 2 0 11 0;
