#N canvas 0 0 293 201 12;
#X floatatom 20 44 5 0 0 0 - - -;
#X msg 36 68 + 1.1 \, bang;
#X msg 148 68 10 \, bang;
#X msg 52 92 * 2 \, bang;
#X msg 164 92 / 3.1 \, bang;
#X msg 68 116 bang;
#X floatatom 188 116 5 0 0 0 - - -;
#X obj 20 140 .float 100;
#X floatatom 20 164 10 0 0 0 - - -;
#X connect 0 0 7 0;
#X connect 1 0 7 0;
#X connect 3 0 7 0;
#X connect 5 0 7 0;
#X connect 2 0 7 0;
#X connect 4 0 7 0;
#X connect 6 0 7 1;
#X connect 7 0 8 0;
