#N canvas 0 0 559 327 12;
#X obj 20 50 ui.hsl -60 0 @show_value 1;
#X obj 245 50 ui.dsp~;
#X obj 20 80 dbfs->amp;
#X obj 20 110 sig~;
#X obj 92 110 ui.hsl -60 0 @show_value 1;
#X msg 92 155 @threshold \$1;
#X obj 245 155 ui.knob @label STRENGTH @show_value 1;
#X obj 20 200 dyn.comp_up~ 0 -60 10 100;
#X obj 20 230 env~;
#X obj 218 230 ui.hsl 0 32 @active_scale 1 @show_value 1;
#X obj 20 260 - 100;
#X floatatom 20 290 5 0 0 0 - - -;
#X connect 0 0 2 0;
#X connect 2 0 3 0;
#X connect 4 0 5 0;
#X connect 3 0 7 0;
#X connect 5 0 7 0;
#X connect 6 0 7 1;
#X connect 7 0 8 0;
#X connect 7 1 9 0;
#X connect 8 0 10 0;
#X connect 10 0 11 0;
