#N canvas 0 0 290 267 12;
#X obj 20 50 osc~ 440;
#X floatatom 119 50 5 0 0 0 - - -;
#X obj 74 80 dbtorms;
#X obj 20 110 *~;
#X floatatom 146 110 5 0 0 0 - - -;
#X msg 146 140 @threshold \$1;
#X obj 20 170 dyn.gate~ 90;
#X obj 20 200 ui.hgain~;
#X obj 164 200 ui.dsp~;
#X obj 20 230 dac~;
#X connect 1 0 2 0;
#X connect 0 0 3 0;
#X connect 2 0 3 1;
#X connect 4 0 5 0;
#X connect 3 0 6 0;
#X connect 5 0 6 0;
#X connect 6 0 7 0;
#X connect 7 0 9 0;
#X connect 7 0 9 1;
