#N canvas 0 0 388 267 12;
#X obj 20 50 osc~ 440;
#X obj 155 50 ui.hsl -60 0 @show_value 1;
#X obj 155 80 dbfs->amp;
#X obj 20 110 gain~;
#X obj 155 110 ui.hsl -60 0 @show_value 1;
#X msg 155 140 @threshold \$1;
#X obj 20 170 dyn.gate~ -10;
#X obj 20 200 ui.hgain~;
#X obj 155 200 ui.dsp~;
#X obj 20 230 dac~;
#X connect 1 0 2 0;
#X connect 0 0 3 0;
#X connect 4 0 5 0;
#X connect 3 0 6 0;
#X connect 5 0 6 0;
#X connect 6 0 7 0;
#X connect 7 0 9 0;
#X connect 7 0 9 1;
#X connect 2 0 3 1;
