#N canvas 0 0 386 282 12;
#X obj 20 50 phasor~ 10;
#X obj 146 50 ui.dsp~;
#X obj 20 80 *~ 100;
#X obj 20 110 clip~ 0 1;
#X obj 146 110 ui.hsl 1.5 10 @show_value 1;
#X obj 20 140 *~ 20;
#X msg 146 140 @ratio \$1;
#X obj 20 185 dyn.comp2~ 3 90 10 100;
#X obj 20 215 ui.hgain2~;
#X obj 20 245 dac~;
#X connect 0 0 2 0;
#X connect 2 0 3 0;
#X connect 3 0 5 0;
#X connect 4 0 6 0;
#X connect 5 0 7 0;
#X connect 5 0 7 1;
#X connect 6 0 7 0;
#X connect 7 0 8 0;
#X connect 7 1 8 1;
#X connect 8 0 9 0;
#X connect 8 1 9 1;
