#N canvas 0 0 559 327 12;
#X obj 20 50 ui.hsl -60 20 @show_value 1;
#X obj 137 50 ui.hsl -60 20 @show_value 1;
#X obj 326 50 ui.dsp~;
#X obj 20 80 dbfs->amp;
#X obj 137 80 dbfs->amp;
#X obj 20 110 sig~;
#X obj 137 110 sig~;
#X obj 200 110 ui.hsl 1 16 @show_value 1;
#X obj 326 110 ui.hsl -60 0 @show_value 1;
#X msg 200 155 @ratio \$1;
#X msg 326 155 @threshold \$1;
#X obj 20 200 dyn.comp2~ 3 -60 10 100;
#X obj 20 230 env~;
#X obj 101 230 env~;
#X obj 200 230 ui.hsl @active_scale 1;
#X obj 20 260 - 100;
#X obj 101 260 - 100;
#X floatatom 20 290 5 0 0 0 - - -;
#X floatatom 101 290 5 0 0 0 - - -;
#X connect 0 0 3 0;
#X connect 1 0 4 0;
#X connect 3 0 5 0;
#X connect 4 0 6 0;
#X connect 7 0 9 0;
#X connect 8 0 10 0;
#X connect 5 0 11 0;
#X connect 6 0 11 1;
#X connect 9 0 11 0;
#X connect 10 0 11 0;
#X connect 11 0 12 0;
#X connect 11 1 13 0;
#X connect 11 2 14 0;
#X connect 12 0 15 0;
#X connect 13 0 16 0;
#X connect 15 0 17 0;
#X connect 16 0 18 0;
