#N canvas 0 0 388 267 12;
#X obj 20 50 osc~ 400;
#X obj 155 50 ui.hsl -60 0 @show_value 1;
#X obj 47 80 osc~ 900;
#X obj 155 80 dbfs->amp;
#X obj 20 110 gain~ 2;
#X obj 155 110 ui.hsl -60 0 @show_value 1;
#X msg 155 140 @threshold \$1;
#X obj 20 170 dyn.gate2~ -10;
#X obj 20 200 ui.hgain2~;
#X obj 155 200 ui.dsp~;
#X obj 20 230 dac~;
#X connect 1 0 3 0;
#X connect 0 0 4 0;
#X connect 2 0 4 1;
#X connect 5 0 6 0;
#X connect 4 0 7 0;
#X connect 6 0 7 0;
#X connect 7 0 8 0;
#X connect 7 1 8 1;
#X connect 8 0 10 0;
#X connect 8 1 10 1;
#X connect 3 0 4 2;
#X connect 4 1 7 1;
