#N canvas 0 0 247 225 12;
#X obj 20 44 phasor~ 10;
#X obj 132 44 ui.dsp~;
#X obj 20 68 *~ 100;
#X obj 20 92 clip~ 0 1;
#X floatatom 132 92 5 0 0 0 - - -;
#X obj 20 116 *~ 20;
#X msg 132 116 @ratio \$1;
#X obj 20 140 dyn.comp2~ 3 90 10 100 id;
#X obj 20 164 ui.hgain2~;
#X obj 20 188 dac~;
#X connect 0 0 2 0;
#X connect 2 0 3 0;
#X connect 3 0 5 0;
#X connect 4 0 6 0;
#X connect 5 0 7 0;
#X connect 6 0 7 0;
#X connect 7 0 8 0;
#X connect 7 1 8 1;
#X connect 8 0 9 0;
#X connect 8 1 9 1;
