#N canvas 0 0 268 225 12;
#X obj 20 44 osc~ 440;
#X floatatom 108 44 5 0 0 0 - - -;
#X obj 60 68 dbtorms;
#X obj 20 92 *~;
#X floatatom 124 92 5 0 0 0 - - -;
#X msg 124 116 @threshold \$1;
#X obj 20 140 dyn.gate2~ 90;
#X obj 20 164 ui.hgain2~;
#X obj 20 188 dac~;
#X connect 1 0 2 0;
#X connect 0 0 3 0;
#X connect 2 0 3 1;
#X connect 4 0 5 0;
#X connect 3 0 6 0;
#X connect 5 0 6 0;
#X connect 6 0 7 0;
#X connect 6 1 7 1;
#X connect 7 0 8 0;
#X connect 7 1 8 1;
