#N canvas 0 0 433 372 12;
#X obj 20 50 ui.keyboard;
#X obj 20 125 unpack;
#X obj 236 125 msg.onload asr 600 60;
#X obj 20 155 mtof;
#X obj 92 155 cc->amp;
#X obj 236 155 ui.env @size 200 60;
#X obj 20 185 osc~;
#X msg 92 185 @gate \$1;
#X obj 146 215 tgl 15 0 empty empty empty 17 7 0 10 -262144 -1 -1 0 1;
#X obj 20 245 env.asr~ 2 100 2000;
#X obj 146 275 tgl 15 0 empty empty empty 17 7 0 10 -262144 -1 -1 0 1;
#X obj 20 305 ui.gain~ @size 140 16;
#X obj 236 305 ui.dsp~;
#X obj 20 335 dac~;
#X connect 0 0 1 0;
#X connect 1 0 3 0;
#X connect 1 1 4 0;
#X connect 2 0 5 0;
#X connect 3 0 6 0;
#X connect 4 0 7 0;
#X connect 6 0 9 0;
#X connect 7 0 9 0;
#X connect 8 0 9 1;
#X connect 5 0 9 0;
#X connect 9 1 10 0;
#X connect 9 0 11 0;
#X connect 11 0 13 0;
#X connect 11 0 13 1;
