#N canvas 0 0 296 207 12;
#X obj 20 50 osc~ 440;
#X obj 119 50 osc~ 1000;
#X obj 227 50 tgl 15 0 empty empty empty 17 7 0 10 -262144 -1 -1 0 1;
#X obj 20 80 env.asr2~ 1000 100 1000;
#X obj 200 110 tgl 15 0 empty empty empty 17 7 0 10 -262144 -1 -1 0 1;
#X obj 20 140 ui.hgain2~;
#X obj 200 140 ui.dsp~;
#X obj 20 170 dac~;
#X connect 0 0 3 0;
#X connect 1 0 3 1;
#X connect 2 0 3 2;
#X connect 3 2 4 0;
#X connect 3 0 5 0;
#X connect 3 1 5 1;
#X connect 5 0 7 0;
#X connect 5 1 7 1;
