#N canvas 0 0 602 402 12;
#X obj 20 50 ui.keyboard;
#X obj 20 125 unpack;
#X obj 119 155 sig~ 8000;
#X obj 227 155 cc->amp;
#X obj 326 155 ui.env @size 200 60 @length 2000;
#X obj 20 185 mtof;
#X msg 227 185 @gate \$1;
#X obj 20 215 osc.tri~;
#X obj 119 215 env.adsr~ 10 50 20 600;
#X obj 353 245 hslider 128 15 0.0 127.0 0 0 empty empty empty 17 7 0
10 -262144 -1 -1 0 0;
#X obj 353 275 / 20;
#X obj 20 305 bob~;
#X obj 20 335 ui.gain~ @size 120 14;
#X obj 236 335 ui.dsp~;
#X obj 20 365 dac~;
#X connect 0 0 1 0;
#X connect 1 1 3 0;
#X connect 1 0 5 0;
#X connect 3 0 6 0;
#X connect 5 0 7 0;
#X connect 2 0 8 0;
#X connect 6 0 8 0;
#X connect 4 0 8 0;
#X connect 9 0 10 0;
#X connect 7 0 11 0;
#X connect 8 0 11 1;
#X connect 10 0 11 2;
#X connect 11 0 12 0;
#X connect 12 0 14 0;
#X connect 12 0 14 1;
