#N canvas 0 0 286 207 12;
#X obj 20 50 osc~ 440;
#X floatatom 119 50 5 0 0 0 - - -;
#X floatatom 164 65 5 0 0 0 - - -;
#X obj 38 80 dbtorms;
#X msg 164 95 @attack \$1;
#X obj 20 110 *~;
#X obj 20 140 env.follow~ 50 200;
#X obj 20 170 ui.n~;
#X connect 1 0 3 0;
#X connect 2 0 4 0;
#X connect 0 0 5 0;
#X connect 3 0 5 1;
#X connect 5 0 6 0;
#X connect 4 0 6 0;
#X connect 6 0 7 0;
