#N canvas 0 0 550 402 12;
#X obj 20 50 bng 15 250 50 0 empty empty empty 17 7 0 10 -262144 -1
-1;
#X floatatom 56 50 5 0 0 0 - - -;
#X msg 101 50 symbol user:%USER%;
#X msg 290 50 list current shell: %SHELL%;
#X msg 128 80 doc: %DOC%;
#X msg 317 80 doc: %CEAMMC%;
#X msg 155 110 %DOC%;
#X msg 335 110 home: %HOME%;
#X obj 20 140 expand_env;
#X obj 20 170 ui.display @display_type 1;
#X msg 20 245 %CEAMMC%;
#X obj 20 275 expand_env @any;
#X obj 20 305 symbol;
#X symbolatom 20 335 70 0 0 0 - - -;
#X obj 20 365 print;
#X connect 0 0 8 0;
#X connect 1 0 8 0;
#X connect 2 0 8 0;
#X connect 4 0 8 0;
#X connect 6 0 8 0;
#X connect 3 0 8 0;
#X connect 5 0 8 0;
#X connect 7 0 8 0;
#X connect 8 0 9 0;
#X connect 10 0 11 0;
#X connect 11 0 12 0;
#X connect 12 0 13 0;
#X connect 13 0 14 0;
