#N canvas 0 0 431 267 12;
#X obj 20 50 osc~ 440;
#X obj 146 50 ui.radio @nitems 4;
#X obj 335 50 ui.dsp~;
#X msg 38 80 @value?;
#X obj 20 110 flow.demultiplex~ 4;
#X obj 20 140 ~->;
#X obj 47 170 ui.display @display_type 1;
#X obj 20 200 env~;
#X obj 101 200 env~;
#X obj 191 200 env~;
#X obj 281 200 env~;
#X floatatom 20 230 5 0 0 0 - - -;
#X floatatom 101 230 5 0 0 0 - - -;
#X floatatom 191 230 5 0 0 0 - - -;
#X floatatom 281 230 5 0 0 0 - - -;
#X connect 0 0 4 0;
#X connect 3 0 4 0;
#X connect 1 0 4 1;
#X connect 4 0 5 0;
#X connect 5 1 6 0;
#X connect 5 0 7 0;
#X connect 7 0 11 0;
#X connect 8 0 12 0;
#X connect 9 0 13 0;
#X connect 10 0 14 0;
#X connect 4 1 8 0;
#X connect 4 2 9 0;
#X connect 4 3 10 0;
