#N canvas 0 0 371 333 12;
#X obj 20 44 ui.keyboard;
#X msg 68 104 stop;
#X msg 124 104 play;
#X msg 180 104 clear;
#X obj 20 128 flow.record @auto 1;
#X obj 20 152 msg note;
#X msg 36 176 notesoff;
#X obj 20 200 fluid~;
#X obj 164 200 ui.dsp~;
#X obj 20 224 ui.hgain2~;
#X obj 20 248 dac~;
#X obj 20 272 flow.record.speed;
#X obj 204 272 flow.record.qlist;
#X obj 20 296 flow.record.sync;
#X connect 0 0 4 0;
#X connect 1 0 4 1;
#X connect 2 0 4 1;
#X connect 3 0 4 1;
#X connect 4 0 5 0;
#X connect 5 0 7 0;
#X connect 6 0 7 0;
#X connect 7 0 9 0;
#X connect 7 1 9 1;
#X connect 9 0 10 0;
#X connect 9 1 10 1;
