#N canvas 0 0 549 387 12;
#X msg 20 50 bang;
#X msg 200 50 list 0 500 120 110;
#X text 389 50 - change pattern;
#X obj 92 80 tgl 15 0 empty empty empty 17 7 0 10 -262144 -1 -1 0 1;
#X msg 227 80 list 0 400 100 300;
#X msg 92 110 @block \$1;
#X obj 20 140 flow.seqdel 0 0 0 0;
#X obj 164 170 synth.church_bell~;
#X obj 119 200 synth.german_bell~;
#X obj 65 230 synth.english_bell~;
#X obj 20 260 synth.russian_bell~;
#X obj 245 260 ui.dsp~;
#X obj 20 290 pan.spread~ 4, f 21;
#X obj 20 320 ui.hgain2~ @size 15 151;
#X obj 20 350 dac~ 1 2, f 21;
#X connect 3 0 5 0;
#X connect 0 0 6 0;
#X connect 5 0 6 1;
#X connect 1 0 6 1;
#X connect 4 0 6 1;
#X connect 6 3 7 0;
#X connect 6 2 8 0;
#X connect 6 1 9 0;
#X connect 6 0 10 0;
#X connect 10 0 12 0;
#X connect 12 0 13 0;
#X connect 12 1 13 1;
#X connect 13 0 14 0;
#X connect 13 1 14 1;
#X connect 9 0 12 1;
#X connect 8 0 12 2;
#X connect 7 0 12 3;
