#N canvas 0 0 265 357 12;
#X obj 20 50 tgl 15 0 empty empty empty 17 7 0 10 -262144 -1 -1 0 1;
#X obj 137 50 ui.dsp~;
#X obj 20 80 metro 200;
#X obj 20 110 random.i 48 72;
#X obj 20 140 makenote 127 180;
#X obj 20 170 pack f f;
#X obj 47 200 flow.queue 8 @auto_pop 1;
#X obj 20 230 msg note;
#X obj 137 230 msg note;
#X obj 20 260 synth.ks~;
#X obj 137 260 synth.ks~;
#X obj 20 290 ui.hgain2~;
#X obj 20 320 dac~;
#X connect 0 0 2 0;
#X connect 2 0 3 0;
#X connect 3 0 4 0;
#X connect 4 0 5 0;
#X connect 4 1 5 1;
#X connect 5 0 6 0;
#X connect 5 0 7 0;
#X connect 6 0 8 0;
#X connect 7 0 9 0;
#X connect 8 0 10 0;
#X connect 9 0 11 0;
#X connect 10 0 11 1;
#X connect 11 0 12 0;
#X connect 11 1 12 1;
