#N canvas 0 0 261 207 12;
#X obj 20 50 tgl 15 0 empty empty empty 17 7 0 10 -262144 -1 -1 0 1;
#X obj 20 80 metro 300;
#X floatatom 146 80 5 0 0 0 - - -;
#X msg 83 110 bang;
#X msg 146 110 @value \$1;
#X obj 20 140 flow.count;
#X floatatom 20 170 5 0 0 0 - - -;
#X connect 0 0 1 0;
#X connect 2 0 4 0;
#X connect 1 0 5 0;
#X connect 3 0 5 1;
#X connect 4 0 5 1;
#X connect 5 0 6 0;
