#N canvas 0 0 416 537 12;
#X msg 20 50 @freq 1000;
#X msg 137 50 @freq 2000;
#X obj 20 80 t a;
#X obj 38 110 flow.del 100;
#X obj 20 140 t b a;
#X obj 20 170 click~;
#X obj 20 200 flt.resonbp~;
#X obj 20 230 ui.hgain~;
#X obj 20 260 dac~;
#X msg 20 290 @msg 400;
#X msg 119 290 300;
#X msg 182 290 0;
#X text 209 290 change delay time;
#X obj 119 320 prop.set @delay;
#X floatatom 281 320 5 0 0 0 - - -;
#X text 317 320 the same;
#X obj 20 350 flow.delay 1000;
#X obj 20 380 ui.display @display_type 1;
#X msg 20 410 1 2;
#X text 65 410 zero time;
#X obj 20 440 unpack f f;
#X obj 92 470 flow.del 0;
#X obj 20 500 print Z;
#X connect 0 0 2 0;
#X connect 1 0 2 0;
#X connect 2 0 3 0;
#X connect 2 0 4 0;
#X connect 3 0 4 0;
#X connect 4 0 5 0;
#X connect 5 0 6 0;
#X connect 4 1 6 0;
#X connect 6 0 7 0;
#X connect 7 0 8 0;
#X connect 7 0 8 1;
#X connect 10 0 13 0;
#X connect 11 0 13 0;
#X connect 9 0 16 0;
#X connect 13 0 16 0;
#X connect 14 0 16 1;
#X connect 16 0 17 0;
#X connect 18 0 20 0;
#X connect 20 1 21 0;
#X connect 20 0 22 0;
#X connect 20 1 22 0;
#X connect 21 0 22 0;
