#N canvas 0 0 266 147 12;
#X floatatom 20 50 5 0 0 0 - - -;
#X obj 20 80 flow.reject_if;
#X obj 191 80 < 10;
#X floatatom 20 110 5 0 0 0 - - -;
#X connect 0 0 1 0;
#X connect 1 0 3 0;
#X connect 1 1 2 0;
#X connect 2 0 1 1;
