#N canvas 0 0 275 165 12;
#X floatatom 20 44 5 0 0 0 - - -;
#X symbolatom 76 44 5 0 0 0 - - -;
#X msg 132 44 list 1 2 9 10;
#X obj 44 68 bng 15 250 50 0 empty empty empty 17 7 0 10 -262144 -1
-1;
#X msg 148 68 a b c d;
#X obj 20 104 flow.pass 1 10 100 a z;
#X obj 20 128 ui.display @display_type 1;
#X connect 0 0 5 0;
#X connect 3 0 5 0;
#X connect 1 0 5 0;
#X connect 2 0 5 0;
#X connect 4 0 5 0;
#X connect 5 0 6 0;
