#N canvas 0 0 369 267 12;
#X obj 20 50 osc~ 440;
#X obj 128 50 ui.dsp~;
#X obj 38 95 bng 15 250 50 0 empty empty empty 17 7 0 10 -262144 -1
-1;
#X msg 74 95 symbol A;
#X msg 173 95 list 1 2 3;
#X msg 290 95 @p 1;
#X obj 20 140 flow.tee~;
#X obj 83 170 ui.dt;
#X obj 20 200 ui.hgain~;
#X obj 20 230 dac~;
#X connect 0 0 6 0;
#X connect 2 0 6 0;
#X connect 3 0 6 0;
#X connect 4 0 6 0;
#X connect 5 0 6 0;
#X connect 6 1 7 0;
#X connect 6 0 8 0;
#X connect 8 0 9 0;
#X connect 8 0 9 1;
