#N canvas 0 0 601 297 12;
#X msg 20 50 amp2;
#X msg 83 50 amp3;
#X msg 146 50 freq0;
#X msg 218 50 freq1;
#X msg 290 50 unmatched;
#X floatatom 434 50 5 0 0 0 - - -;
#X msg 434 80 @prop \$1;
#X obj 20 110 symbol;
#X obj 434 110 flow.match "@p.+";
#X symbolatom 20 140 16 0 0 0 - - -;
#X msg 146 140 freq3 X;
#X msg 236 140 amp4 Y;
#X obj 434 140 ui.dt;
#X obj 20 185 flow.match freq`d amp`d;
#X obj 20 230 ui.dt;
#X obj 128 230 ui.dt;
#X obj 227 230 ui.dt;
#X obj 20 260 flow.match.syntax;
#X connect 5 0 6 0;
#X connect 0 0 7 0;
#X connect 1 0 7 0;
#X connect 2 0 7 0;
#X connect 3 0 7 0;
#X connect 4 0 7 0;
#X connect 6 0 8 0;
#X connect 7 0 9 0;
#X connect 8 0 12 0;
#X connect 9 0 13 0;
#X connect 10 0 13 0;
#X connect 11 0 13 0;
#X connect 13 0 14 0;
#X connect 13 1 15 0;
#X connect 13 2 16 0;
