#N canvas 0 0 351 309 12;
#X obj 20 44 ui.keyboard;
#X obj 124 104 tgl 15 0 empty empty empty 17 7 0 10 -262144 -1 -1 0 1;
#X floatatom 212 104 5 0 0 0 - - -;
#X obj 20 128 stripnote;
#X obj 124 128 metro 65;
#X obj 212 128 prop.set @ttl;
#X obj 20 152 flow.mem @ttl 4;
#X obj 20 176 flow.mem.osc~;
#X obj 20 200 pan~;
#X obj 20 224 ui.hgain2~;
#X obj 180 224 ui.dsp~;
#X obj 20 248 dac~;
#X obj 20 272 flow.mem.more;
#X connect 0 0 3 0;
#X connect 1 0 4 0;
#X connect 2 0 5 0;
#X connect 3 0 6 0;
#X connect 4 0 6 1;
#X connect 5 0 6 1;
#X connect 8 0 9 0;
#X connect 8 1 9 1;
#X connect 9 0 11 0;
#X connect 9 1 11 1;
