#N canvas 0 0 386 297 12;
#X msg 20 50 1 2 3;
#X msg 155 50 list c 17;
#X msg 20 80 10;
#X msg 83 80 40;
#X msg 155 80 b;
#X floatatom 20 110 5 0 0 0 - - -;
#X msg 83 110 30;
#X msg 155 110 symbol c;
#X msg 272 110 unmatched;
#X obj 20 140 flow.sel 1..10 >20 a|b|c @v, f 32;
#X obj 20 170 ui.dt;
#X obj 83 200 ui.dt;
#X obj 155 230 ui.dt;
#X obj 227 260 ui.dt;
#X connect 2 0 5 0;
#X connect 5 0 9 0;
#X connect 6 0 9 0;
#X connect 7 0 9 0;
#X connect 8 0 9 0;
#X connect 9 0 10 0;
#X connect 9 1 11 0;
#X connect 9 2 12 0;
#X connect 9 3 13 0;
#X connect 3 0 9 0;
#X connect 4 0 9 0;
#X connect 0 0 9 0;
#X connect 1 0 9 0;
