#N canvas 0 0 484 207 12;
#X floatatom 20 50 5 0 0 0 - - -;
#X floatatom 74 80 5 0 0 0 - - -;
#X obj 74 110 prop.set @delay;
#X msg 290 110 other append message;
#X obj 20 140 flow.append "@message" 1 2 3 @delay 100;
#X obj 20 170 print;
#X connect 1 0 2 0;
#X connect 0 0 4 0;
#X connect 2 0 4 0;
#X connect 3 0 4 1;
#X connect 4 0 5 0;
