#N canvas 0 0 538 267 12;
#X obj 20 50 ui.sliders 3 @size 100 60;
#X text 308 50 vanilla analogue;
#X msg 308 80 1 2 3;
#X obj 308 110 unpack f f f;
#X obj 20 140 list->many @a @b @c;
#X msg 308 140 @a \$1;
#X msg 380 140 @b \$1;
#X msg 452 140 @c \$1;
#X obj 146 170 ui.dt;
#X obj 308 170 ui.dt;
#X obj 380 170 ui.dt;
#X obj 452 170 ui.dt;
#X obj 83 200 ui.dt;
#X obj 20 230 ui.dt;
#X connect 2 0 3 0;
#X connect 0 0 4 0;
#X connect 3 0 5 0;
#X connect 3 1 6 0;
#X connect 3 2 7 0;
#X connect 4 2 8 0;
#X connect 5 0 9 0;
#X connect 6 0 10 0;
#X connect 7 0 11 0;
#X connect 4 1 12 0;
#X connect 4 0 13 0;
