#N canvas 0 0 239 153 12;
#X floatatom 20 44 5 0 0 0 - - -;
#X obj 20 92 flow.>= 100 10 1;
#X floatatom 20 116 5 0 0 0 - - -;
#X floatatom 68 116 5 0 0 0 - - -;
#X floatatom 116 116 5 0 0 0 - - -;
#X floatatom 164 116 5 0 0 0 - - -;
#X connect 0 0 1 0;
#X connect 1 0 2 0;
#X connect 1 1 3 0;
#X connect 1 2 4 0;
#X connect 1 3 5 0;
