#N canvas 0 0 391 237 12;
#X obj 20 50 hradio 15 1 0 8 empty empty empty 17 7 0 10 -262144 -1 -1
0;
#X obj 209 50 flow.multiplex.bang;
#X obj 20 80 prop.set @index;
#X obj 209 80 flow.multiplex.list;
#X obj 209 110 flow.multiplex.any;
#X floatatom 38 140 5 0 0 0 - - -;
#X floatatom 83 140 5 0 0 0 - - -;
#X floatatom 128 140 5 0 0 0 - - -;
#X floatatom 173 140 5 0 0 0 - - -;
#X text 218 140 select;
#X obj 20 170 flow.multiplex 3;
#X floatatom 20 200 5 0 0 0 - - -;
#X connect 0 0 2 0;
#X connect 2 0 10 0;
#X connect 5 0 10 0;
#X connect 6 0 10 1;
#X connect 7 0 10 2;
#X connect 8 0 10 3;
#X connect 10 0 11 0;
