#N canvas 0 0 443 312 12;
#X obj 20 50 noise~;
#X floatatom 101 50 5 0 0 0 - - -;
#X floatatom 200 50 5 0 0 0 - - -;
#X floatatom 299 50 5 0 0 0 - - -;
#X msg 101 80 @freq \$1;
#X msg 200 80 @gain \$1;
#X msg 299 80 @bandwidth \$1;
#X obj 20 110 flt.eq_peak~ 3000 20 400;
#X obj 20 140 ui.ssc~ @size 500 120;
#X obj 20 275 ui.dsp~;
#X connect 1 0 4 0;
#X connect 2 0 5 0;
#X connect 3 0 6 0;
#X connect 0 0 7 0;
#X connect 4 0 7 0;
#X connect 5 0 7 0;
#X connect 6 0 7 0;
#X connect 7 0 8 0;
