#N canvas 0 0 289 261 12;
#X obj 20 44 noise.pink~;
#X floatatom 92 68 5 0 0 0 - - -;
#X floatatom 180 68 5 0 0 0 - - -;
#X msg 92 92 @freq \$1;
#X msg 180 92 @gain \$1;
#X obj 92 116 flt.c_peak~ 200 15 10;
#X obj 20 152 flt.biquad~;
#X obj 20 176 ui.gain~ @size 120 16;
#X obj 20 200 dac~;
#X obj 20 224 ui.dsp~;
#X connect 1 0 3 0;
#X connect 2 0 4 0;
#X connect 3 0 5 0;
#X connect 4 0 5 0;
#X connect 0 0 6 0;
#X connect 5 0 6 1;
#X connect 5 1 6 2;
#X connect 5 2 6 3;
#X connect 5 3 6 4;
#X connect 5 4 6 5;
#X connect 6 0 7 0;
#X connect 7 0 8 0;
#X connect 7 0 8 1;
