#N canvas 0 0 715 477 12;
#X msg 20 50 100;
#X msg 74 50 500;
#X msg 128 50 1000;
#X msg 191 50 5000;
#X msg 254 50 10000;
#X msg 326 50 15000;
#X msg 398 50 20000;
#X floatatom 20 80 5 0 0 0 - - -;
#X floatatom 128 95 5 0 0 0 - - -;
#X msg 326 95 bang;
#X text 416 95 plot response;
#X msg 20 125 @freq \$1;
#X msg 128 125 @q \$1;
#X obj 326 125 click~;
#X obj 20 155 flt.bpf12~ 1000 2.5;
#X obj 20 185 plot.response~ @sr 1 @db 1;
#X obj 20 215 ui.plot~ @xlabels 1 @ylabels 1 @ymin -60 @ymax 0
@ymin_ticks 0 @ymaj_ticks 0 @size 400 200;
#X obj 20 440 ui.dsp~;
#X connect 0 0 7 0;
#X connect 1 0 7 0;
#X connect 2 0 7 0;
#X connect 3 0 7 0;
#X connect 4 0 7 0;
#X connect 5 0 7 0;
#X connect 6 0 7 0;
#X connect 7 0 11 0;
#X connect 8 0 12 0;
#X connect 9 0 13 0;
#X connect 11 0 14 0;
#X connect 12 0 14 0;
#X connect 13 0 14 0;
#X connect 14 0 15 0;
#X connect 15 0 16 0;
#X connect 15 2 16 1;
#X connect 9 0 15 1;
