#N canvas 0 0 312 201 12;
#X obj 20 44 noise~;
#X floatatom 108 44 5 0 0 0 - - -;
#X floatatom 204 44 5 0 0 0 - - -;
#X msg 108 68 @freq \$1;
#X msg 204 68 @gain \$1;
#X obj 20 116 flt.highshelf~ 3000 -15;
#X obj 20 140 ui.gain~ @size 120 14;
#X obj 212 140 ui.dsp~;
#X obj 20 164 dac~;
#X connect 1 0 3 0;
#X connect 2 0 4 0;
#X connect 0 0 5 0;
#X connect 3 0 5 0;
#X connect 4 0 5 0;
#X connect 5 0 6 0;
#X connect 6 0 8 0;
#X connect 6 0 8 1;
