#N canvas 0 0 346 267 12;
#X obj 20 50 noise~;
#X obj 164 50 ui.dsp~;
#X obj 20 80 flt.bpf72e~ 300 1;
#X obj 164 110 flt.bpf72e~ 320 1.5;
#X obj 92 140 flt.bpf72e~ 280 0.25;
#X obj 20 170 pan.spread~ 3, f 22;
#X obj 20 200 ui.hgain2~;
#X obj 20 230 dac~;
#X connect 0 0 2 0;
#X connect 5 0 6 0;
#X connect 5 1 6 1;
#X connect 6 0 7 0;
#X connect 6 1 7 1;
#X connect 0 0 4 0;
#X connect 0 0 3 0;
#X connect 2 0 5 0;
#X connect 4 0 5 1;
#X connect 3 0 5 2;
