#N canvas 0 0 552 333 12;
#X msg 20 44 fill 0.5 \, bang;
#X obj 212 44 r~ ssc;
#X obj 20 68 ui.sliders @count 10;
#X obj 212 68 ui.spectroscope~ @log_scale 1 @size 300 100;
#X obj 20 164 lin->lin 0 1 -10 10;
#X floatatom 164 200 5 0 0 0 - - -;
#X obj 44 224 noise.white~;
#X msg 164 224 @f8000 \$1;
#X obj 20 248 flt.eq10~;
#X obj 20 272 ui.gain~ @size 120 14;
#X obj 220 272 ui.dsp~;
#X obj 20 296 dac~;
#X obj 76 296 s~ ssc;
#X connect 0 0 2 0;
#X connect 1 0 3 0;
#X connect 2 0 4 0;
#X connect 5 0 7 0;
#X connect 4 0 8 0;
#X connect 6 0 8 0;
#X connect 7 0 8 0;
#X connect 8 0 9 0;
#X connect 9 0 11 0;
#X connect 9 0 11 1;
#X connect 9 0 12 0;
