#N canvas 0 0 506 282 12;
#X obj 20 50 ui.hsl;
#X obj 317 50 ui.hsl;
#X floatatom 20 80 5 0 0 0 - - -;
#X floatatom 317 80 5 0 0 0 - - -;
#X obj 20 110 math.* expr(sr/2);
#X obj 317 110 math.* pi();
#X obj 20 140 flt.c_lpf;
#X obj 317 140 flt.c_lpf @rad;
#X obj 20 170 ui.dt @float_width 5;
#X obj 317 170 ui.dt @float_width 5;
#X obj 20 245 flt.c_lpf.plot;
#X connect 0 0 2 0;
#X connect 1 0 3 0;
#X connect 2 0 4 0;
#X connect 3 0 5 0;
#X connect 4 0 6 0;
#X connect 5 0 7 0;
#X connect 6 0 8 0;
#X connect 7 0 9 0;
