#N canvas 0 0 291 372 12;
#X obj 20 50 noise.pink~;
#X obj 47 80 tgl 15 0 empty empty empty 17 7 0 10 -262144 -1 -1 0 1;
#X obj 20 110 *~;
#X floatatom 65 140 5 0 0 0 - - -;
#X floatatom 164 140 5 0 0 0 - - -;
#X msg 65 170 @freq \$1;
#X msg 164 170 @gain \$1;
#X obj 65 200 flt.c_highshelf~ 1100 -15;
#X obj 20 245 flt.biquad~;
#X obj 20 275 ui.gain~ @size 120 16;
#X obj 20 305 dac~;
#X obj 20 335 ui.dsp~;
#X connect 0 0 2 0;
#X connect 1 0 2 1;
#X connect 3 0 5 0;
#X connect 4 0 6 0;
#X connect 5 0 7 0;
#X connect 6 0 7 0;
#X connect 2 0 8 0;
#X connect 7 0 8 1;
#X connect 7 1 8 2;
#X connect 7 2 8 3;
#X connect 7 3 8 4;
#X connect 7 4 8 5;
#X connect 8 0 9 0;
#X connect 9 0 10 0;
#X connect 9 0 10 1;
