#N canvas 0 0 442 327 12;
#X obj 20 50 osc.saw~ 200;
#X obj 254 50 ui.dsp~;
#X obj 47 80 ui.hsl 500 5000 @show_value 1;
#X msg 47 110 @freq \$1;
#X obj 146 110 ui.hsl 0.5 50 @show_value 1;
#X msg 146 140 @q \$1;
#X obj 20 170 flt.resonlp~ 1000 20;
#X obj 20 200 ui.gain~ @size 120 14;
#X obj 245 200 ui.ssc~ @size 400 120;
#X obj 20 290 dac~;
#X connect 2 0 3 0;
#X connect 4 0 5 0;
#X connect 0 0 6 0;
#X connect 3 0 6 0;
#X connect 5 0 6 0;
#X connect 6 0 7 0;
#X connect 7 0 9 0;
#X connect 7 0 9 1;
#X connect 6 0 8 0;
