#N canvas 0 0 701 462 12;
#X obj 20 50 bng 15 250 50 0 empty empty empty 17 7 0 10 -262144 -1
-1;
#X obj 101 50 msg.onload;
#X obj 236 50 ui.knob @min -1 @max 1;
#X obj 20 80 click~;
#X obj 101 80 samplerate~;
#X obj 101 110 / 8;
#X msg 236 110 @a \$1;
#X floatatom 308 110 5 0 0 0 - - -;
#X obj 20 140 flt.fb_comb~;
#X obj 20 170 plot.response~;
#X obj 20 200 ui.plot~ @xlabels 1 @ylabels 1 @ymin 0 @ymax 4
@ymin_ticks 0 @ymaj_ticks 0 @size 400 200;
#X obj 20 425 ui.dsp~;
#X connect 0 0 3 0;
#X connect 1 0 4 0;
#X connect 4 0 5 0;
#X connect 2 0 6 0;
#X connect 2 0 7 0;
#X connect 3 0 8 0;
#X connect 5 0 8 1;
#X connect 6 0 8 0;
#X connect 8 0 9 0;
#X connect 9 0 10 0;
#X connect 9 2 10 1;
#X connect 0 0 9 1;
#X connect 2 0 0 0;
