#N canvas 0 0 460 387 12;
#X obj 20 50 tgl 15 0 empty empty empty 17 7 0 10 -262144 -1 -1 0 1;
#X obj 20 80 metro 10;
#X obj 119 80 ui.hsl;
#X obj 20 110 click~;
#X obj 119 110 lin->lin 0 1 500 15000;
#X obj 20 140 *~ 100;
#X msg 119 140 @freq \$1;
#X obj 20 170 flt.hpf24~ 5000;
#X obj 20 200 ui.spectroscope~ @size 400 120;
#X obj 20 350 ui.dsp~;
#X connect 0 0 1 0;
#X connect 1 0 3 0;
#X connect 2 0 4 0;
#X connect 3 0 5 0;
#X connect 4 0 6 0;
#X connect 5 0 7 0;
#X connect 6 0 7 0;
#X connect 7 0 8 0;
