#N canvas 0 0 217 297 12;
#X obj 20 50 osc~ 1000;
#X obj 128 50 tgl 15 0 empty empty empty 17 7 0 10 -262144 -1 -1 0 1;
#X obj 20 80 *~;
#X floatatom 74 110 5 0 0 0 - - -;
#X msg 74 140 @freq \$1;
#X obj 20 170 flt.notch~ 1000 10;
#X obj 20 200 ui.gain~ @size 120 16;
#X obj 20 230 dac~;
#X obj 20 260 ui.dsp~;
#X connect 0 0 2 0;
#X connect 1 0 2 1;
#X connect 3 0 4 0;
#X connect 2 0 5 0;
#X connect 4 0 5 0;
#X connect 5 0 6 0;
#X connect 6 0 7 0;
#X connect 6 0 7 1;
