#N canvas 0 0 708 345 12;
#X msg 20 44 bang;
#X obj 172 44 msg.onload fill 0;
#X obj 20 68 click~;
#X obj 172 68 ui.sliders 5 @min -6 @max 6;
#X obj 20 152 flt.fbank5x1~;
#X obj 20 188 plot.response~ @sr 1 @db 1;
#X obj 20 212 ui.plot~ @xlabels 1 @ylabels 1 @ymin -6 @ymax 6
@ymin_ticks 0 @ymaj_ticks 0 @size 300 100;
#X obj 20 308 ui.dsp~;
#X connect 0 0 2 0;
#X connect 1 0 3 0;
#X connect 2 0 4 0;
#X connect 4 0 5 0;
#X connect 4 1 5 0;
#X connect 4 2 5 0;
#X connect 4 3 5 0;
#X connect 4 4 5 0;
#X connect 5 0 6 0;
#X connect 5 2 6 1;
#X connect 0 0 5 1;
#X connect 3 0 4 0;
