#N canvas 0 0 463 237 12;
#X floatatom 20 50 5 0 0 0 - - -;
#X obj 281 50 ui.knob @size 32 32;
#X obj 20 80 phasor~ 50;
#X obj 137 80 lfo.+tri~ 1;
#X obj 137 110 *~ 5000;
#X msg 281 110 @res \$1;
#X obj 20 140 flt.moog_vcf~ 0.6;
#X obj 20 170 ui.gain~ @size 120 16;
#X obj 236 170 ui.dsp~;
#X obj 20 200 dac~;
#X connect 0 0 2 0;
#X connect 3 0 4 0;
#X connect 1 0 5 0;
#X connect 2 0 6 0;
#X connect 4 0 6 1;
#X connect 5 0 6 0;
#X connect 6 0 7 0;
#X connect 7 0 9 0;
#X connect 7 0 9 1;
