#N canvas 0 0 367 312 12;
#X obj 20 50 noise.pink~;
#X obj 146 50 tgl 15 0 empty empty empty 17 7 0 10 -262144 -1 -1 0 1;
#X floatatom 182 50 5 0 0 0 - - -;
#X floatatom 281 50 5 0 0 0 - - -;
#X obj 20 80 *~;
#X msg 182 80 @freq \$1;
#X msg 281 80 @q \$1;
#X obj 182 110 flt.c_bpf~ 1000 100;
#X obj 20 185 flt.biquad~;
#X obj 20 215 ui.gain~ @size 120 16;
#X obj 20 245 dac~;
#X obj 20 275 ui.dsp~;
#X connect 0 0 4 0;
#X connect 1 0 4 1;
#X connect 2 0 5 0;
#X connect 3 0 6 0;
#X connect 5 0 7 0;
#X connect 6 0 7 0;
#X connect 4 0 8 0;
#X connect 7 0 8 1;
#X connect 7 1 8 2;
#X connect 7 2 8 3;
#X connect 7 3 8 4;
#X connect 7 4 8 5;
#X connect 8 0 9 0;
#X connect 9 0 10 0;
#X connect 9 0 10 1;
