#N canvas 0 0 376 297 12;
#X obj 20 50 noise.pink~;
#X floatatom 182 50 5 0 0 0 - - -;
#X floatatom 290 50 5 0 0 0 - - -;
#X msg 182 80 @freq \$1;
#X msg 290 80 @q \$1;
#X obj 182 110 flt.c_hpf~ 5000 60;
#X obj 20 170 flt.biquad~;
#X obj 20 200 ui.gain~ @size 120 16;
#X obj 20 230 dac~;
#X obj 20 260 ui.dsp~;
#X connect 1 0 3 0;
#X connect 2 0 4 0;
#X connect 3 0 5 0;
#X connect 4 0 5 0;
#X connect 0 0 6 0;
#X connect 5 0 6 1;
#X connect 5 1 6 2;
#X connect 5 2 6 3;
#X connect 5 3 6 4;
#X connect 5 4 6 5;
#X connect 6 0 7 0;
#X connect 7 0 8 0;
#X connect 7 0 8 1;
