#N canvas 0 0 473 237 12;
#X obj 20 44 ui.hsl;
#X obj 284 44 ui.hsl;
#X floatatom 20 68 5 0 0 0 - - -;
#X floatatom 284 68 5 0 0 0 - - -;
#X obj 20 92 math.* expr(sr/2);
#X obj 284 92 math.* pi();
#X obj 20 116 flt.c_pole @lpf;
#X obj 284 116 flt.c_pole @rad @hpf;
#X obj 20 140 ui.dt @float_width 5;
#X obj 284 140 ui.dt @float_width 5;
#X obj 20 200 flt.c_pole.plot;
#X connect 0 0 2 0;
#X connect 1 0 3 0;
#X connect 2 0 4 0;
#X connect 3 0 5 0;
#X connect 4 0 6 0;
#X connect 5 0 7 0;
#X connect 6 0 8 0;
#X connect 7 0 9 0;
