#N canvas 0 0 502 342 12;
#X msg 20 50 open %CEAMMC%/guitar1.wav \, 1;
#X obj 20 80 expand_env;
#X obj 20 110 readsf~;
#X obj 38 140 ui.knob;
#X obj 146 140 ui.knob;
#X obj 263 140 ui.knob;
#X obj 380 140 tgl 15 0 empty empty empty 17 7 0 10 -262144 -1 -1 0 1;
#X msg 38 200 @drive \$1;
#X msg 146 200 @offset \$1;
#X msg 263 200 @drywet \$1;
#X msg 380 200 @bypass \$1;
#X obj 20 245 fx.distortion~;
#X obj 20 275 ui.gain~ @size 120 16;
#X obj 326 275 ui.dsp~;
#X obj 20 305 dac~;
#X connect 0 0 1 0;
#X connect 1 0 2 0;
#X connect 3 0 7 0;
#X connect 4 0 8 0;
#X connect 5 0 9 0;
#X connect 6 0 10 0;
#X connect 2 0 11 0;
#X connect 7 0 11 0;
#X connect 8 0 11 0;
#X connect 9 0 11 0;
#X connect 10 0 11 0;
#X connect 11 0 12 0;
#X connect 12 0 14 0;
#X connect 12 0 14 1;
