#N canvas 0 0 350 267 12;
#X msg 20 50 open %CEAMMC%/guitar1.wav \, 1;
#X obj 20 80 expand_env;
#X obj 20 110 readsf~;
#X obj 119 110 ui.hsl @show_value 1;
#X msg 119 140 @stereo \$1;
#X obj 20 170 fx.echo2~ 500 0.3;
#X obj 20 200 ui.gain2~ @size 120 16;
#X obj 254 200 ui.dsp~;
#X obj 20 230 dac~;
#X connect 0 0 1 0;
#X connect 1 0 2 0;
#X connect 3 0 4 0;
#X connect 2 0 5 0;
#X connect 4 0 5 0;
#X connect 5 0 6 0;
#X connect 5 1 6 1;
#X connect 6 0 8 0;
#X connect 6 1 8 1;
