#N canvas 0 0 341 237 12;
#X msg 20 50 open %CEAMMC%/guitar1.wav \, 1;
#X obj 20 80 expand_env;
#X obj 146 80 ui.hsl 0 1000;
#X obj 20 110 readsf~;
#X msg 146 110 @delay \$1;
#X obj 20 140 fx.echo~ 500 0.8;
#X obj 20 170 ui.gain~ @size 120 16;
#X obj 245 170 ui.dsp~;
#X obj 20 200 dac~;
#X connect 0 0 1 0;
#X connect 1 0 3 0;
#X connect 2 0 4 0;
#X connect 3 0 5 0;
#X connect 4 0 5 0;
#X connect 5 0 6 0;
#X connect 6 0 8 0;
#X connect 6 0 8 1;
