#N canvas 0 0 361 267 12;
#X floatatom 20 50 5 0 0 0 - - -;
#X obj 20 80 osc.tri~ 440;
#X floatatom 155 80 5 0 0 0 - - -;
#X text 209 80 frequency shift;
#X obj 155 110 sig~;
#X obj 155 140 lop~ 10;
#X obj 20 170 fx.freqshift~;
#X obj 20 200 ui.gain~ @size 120 16;
#X obj 20 230 dac~;
#X connect 0 0 1 0;
#X connect 2 0 4 0;
#X connect 4 0 5 0;
#X connect 1 0 6 0;
#X connect 5 0 6 1;
#X connect 6 0 7 0;
#X connect 7 0 8 0;
#X connect 7 0 8 1;
