#N canvas 0 0 511 327 12;
#X floatatom 20 50 5 0 0 0 - - -;
#X msg 191 50 open %CEAMMC%/guitar1.wav \, 1;
#X obj 20 80 lfo.impulse~ 2;
#X obj 191 80 expand_env;
#X obj 47 110 tgl 15 0 empty empty empty 17 7 0 10 -262144 -1 -1 0 1;
#X obj 191 110 ui.knob;
#X obj 290 110 ui.knob;
#X obj 389 110 ui.knob;
#X obj 20 140 *~;
#X obj 74 140 readsf~;
#X msg 191 170 @room \$1;
#X msg 290 170 @damp \$1;
#X msg 389 170 @drywet \$1;
#X obj 20 230 fx.freeverb~ 0.95 0.125;
#X obj 20 260 ui.gain~ @size 120 16;
#X obj 236 260 ui.dsp~;
#X obj 20 290 dac~;
#X connect 0 0 2 0;
#X connect 1 0 3 0;
#X connect 2 0 8 0;
#X connect 4 0 8 1;
#X connect 5 0 10 0;
#X connect 6 0 11 0;
#X connect 7 0 12 0;
#X connect 8 0 13 0;
#X connect 9 0 13 0;
#X connect 10 0 13 0;
#X connect 11 0 13 0;
#X connect 12 0 13 0;
#X connect 13 0 14 0;
#X connect 14 0 16 0;
#X connect 14 0 16 1;
#X connect 3 0 9 0;
