#N canvas 0 0 445 267 12;
#X msg 20 50 1000 1000 0 \, 300 300 1000 \, 3000 500 1300 \, 0 100 1400;
#X obj 20 80 vline~;
#X obj 20 110 osc.saw~;
#X obj 20 140 fx.greyhole~;
#X obj 173 140 ui.hsl;
#X obj 20 185 *~;
#X obj 92 185 *~;
#X obj 20 230 dac~;
#X connect 0 0 1 0;
#X connect 1 0 2 0;
#X connect 2 0 3 0;
#X connect 2 0 3 1;
#X connect 3 0 5 0;
#X connect 3 1 6 0;
#X connect 5 0 7 0;
#X connect 6 0 7 1;
#X connect 4 0 5 1;
#X connect 4 0 6 1;
