#N canvas 0 0 491 267 12;
#X msg 20 50 open %CEAMMC%/guitar1.wav \, 1;
#X obj 20 80 expand_env;
#X floatatom 137 80 5 0 0 0 - - -;
#X floatatom 245 80 5 0 0 0 - - -;
#X floatatom 362 80 5 0 0 0 - - -;
#X obj 20 110 readsf~;
#X msg 137 110 @delay \$1;
#X msg 245 110 @length \$1;
#X msg 362 110 @density \$1;
#X obj 20 170 fx.granulator~;
#X obj 20 200 ui.gain~ @size 120 14;
#X obj 236 200 ui.dsp~;
#X obj 20 230 dac~;
#X connect 0 0 1 0;
#X connect 1 0 5 0;
#X connect 2 0 6 0;
#X connect 3 0 7 0;
#X connect 4 0 8 0;
#X connect 5 0 9 0;
#X connect 6 0 9 0;
#X connect 7 0 9 0;
#X connect 8 0 9 0;
#X connect 9 0 10 0;
#X connect 10 0 12 0;
#X connect 10 0 12 1;
