#N canvas 0 0 716 267 12;
#X msg 20 50 open %CEAMMC%/guitar1.wav \, 1;
#X obj 362 50 loadmsg 0.5 0.2 0.9 0.7;
#X obj 20 80 expand_env;
#X msg 137 80 open %DOC%/sound/voice.wav \, 1;
#X msg 38 110 reset;
#X obj 137 110 expand_env;
#X obj 362 110 ui.sliders 4 @size 125 70;
#X obj 20 140 readsf~;
#X obj 137 140 readsf~;
#X obj 227 155 r $0-r;
#X obj 20 170 fx.infrev~;
#X obj 20 200 ui.hgain2~;
#X obj 191 200 ui.dsp~;
#X msg 362 200 @filter \$1 \, @damp \$2 \, @size \$3 \, @drywet \$4;
#X obj 20 230 dac~;
#X obj 362 230 s $0-r;
#X connect 0 0 2 0;
#X connect 3 0 5 0;
#X connect 2 0 7 0;
#X connect 5 0 8 0;
#X connect 7 0 10 0;
#X connect 8 0 10 1;
#X connect 10 0 11 0;
#X connect 10 1 11 1;
#X connect 6 0 13 0;
#X connect 11 0 14 0;
#X connect 11 1 14 1;
#X connect 13 0 15 0;
#X connect 4 0 10 0;
#X connect 9 0 10 0;
#X connect 1 0 6 0;
