#N canvas 0 0 439 327 12;
#X obj 20 50 tgl 15 0 empty empty empty 17 7 0 10 -262144 -1 -1 0 1;
#X obj 20 80 metro 1000;
#X msg 20 110 60;
#X obj 20 140 makenote 127 100;
#X obj 191 140 ui.hsl 0 3 @show_value 1;
#X obj 20 170 pack f f;
#X obj 191 170 ui.hrd 4;
#X obj 317 170 tgl 15 0 empty empty empty 17 7 0 10 -262144 -1 -1 0 1;
#X obj 20 200 synth.eguitar~;
#X msg 191 200 @size \$1;
#X msg 317 200 @bypass \$1;
#X obj 20 230 fx.room~;
#X obj 20 260 ui.hgain~;
#X obj 191 260 ui.dsp~;
#X obj 20 290 dac~;
#X connect 0 0 1 0;
#X connect 1 0 2 0;
#X connect 2 0 3 0;
#X connect 3 0 5 0;
#X connect 3 1 5 1;
#X connect 5 0 8 0;
#X connect 6 0 9 0;
#X connect 7 0 10 0;
#X connect 8 0 11 0;
#X connect 9 0 11 0;
#X connect 10 0 11 0;
#X connect 11 0 12 0;
#X connect 12 0 14 0;
#X connect 12 0 14 1;
#X connect 4 0 9 0;
