#N canvas 0 0 489 297 12;
#X msg 20 50 open %CEAMMC%/guitar1.wav \, 1;
#X obj 20 80 expand_env;
#X obj 119 110 ui.tab speed quality consistency @size 200 16;
#X obj 20 140 readsf~;
#X msg 119 140 @quality \$1;
#X obj 245 140 tgl 15 0 empty empty empty 17 7 0 10 -262144 -1 -1 0 1;
#X floatatom 164 170 5 0 0 0 - - -;
#X msg 245 170 @formant \$1;
#X obj 20 200 fx.rb_pitchshift~ -7;
#X obj 20 230 ui.gain~ @size 120 14;
#X obj 236 230 ui.dsp~;
#X obj 20 260 dac~;
#X connect 0 0 1 0;
#X connect 1 0 3 0;
#X connect 2 0 4 0;
#X connect 5 0 7 0;
#X connect 3 0 8 0;
#X connect 4 0 8 0;
#X connect 6 0 8 1;
#X connect 7 0 8 0;
#X connect 8 0 9 0;
#X connect 9 0 11 0;
#X connect 9 0 11 1;
