#N canvas 0 0 503 312 12;
#X msg 20 50 open %CEAMMC%/guitar1.wav \, 1;
#X obj 20 80 expand_env;
#X obj 20 110 readsf~;
#X obj 146 110 ui.tab mod osc noise;
#X floatatom 236 140 5 0 0 0 - - -;
#X msg 281 140 20;
#X msg 146 170 @src \$1;
#X msg 236 170 @freq \$1;
#X obj 371 170 osc.tri~ 400;
#X obj 20 215 fx.ringmod~ 0.75;
#X obj 20 245 ui.gain~ @size 120 14;
#X obj 236 245 ui.dsp~;
#X obj 20 275 dac~;
#X connect 0 0 1 0;
#X connect 1 0 2 0;
#X connect 3 0 6 0;
#X connect 4 0 7 0;
#X connect 5 0 7 0;
#X connect 2 0 9 0;
#X connect 6 0 9 0;
#X connect 9 0 10 0;
#X connect 10 0 12 0;
#X connect 10 0 12 1;
#X connect 7 0 9 0;
#X connect 8 0 9 1;
