#N canvas 0 0 272 237 12;
#X msg 20 50 open %CEAMMC%/guitar1.wav \, 1;
#X obj 20 80 expand_env;
#X obj 20 110 readsf~;
#X obj 20 140 fx.recho~ 1000 @drywet 0.3;
#X obj 20 170 ui.hgain~;
#X obj 164 170 ui.dsp~;
#X obj 20 200 dac~;
#X connect 0 0 1 0;
#X connect 1 0 2 0;
#X connect 2 0 3 0;
#X connect 3 0 4 0;
#X connect 4 0 6 0;
#X connect 4 0 6 1;
