#N canvas 0 0 439 327 12;
#X obj 20 50 tgl 15 0 empty empty empty 17 7 0 10 -262144 -1 -1 0 1;
#X obj 20 80 metro 250;
#X obj 20 110 random.a 68 26 84;
#X obj 20 140 makenote 127 200;
#X obj 191 140 ui.k;
#X obj 20 170 pack f f;
#X obj 317 170 tgl 15 0 empty empty empty 17 7 0 10 -262144 -1 -1 0 1;
#X obj 20 200 synth.dubdub~;
#X msg 191 200 @drywet \$1;
#X msg 317 200 @bypass \$1;
#X obj 20 230 fx.satrev~;
#X obj 20 260 ui.hgain2~;
#X obj 191 260 ui.dsp~;
#X obj 20 290 dac~;
#X connect 0 0 1 0;
#X connect 1 0 2 0;
#X connect 2 0 3 0;
#X connect 3 0 5 0;
#X connect 3 1 5 1;
#X connect 5 0 7 0;
#X connect 4 0 8 0;
#X connect 6 0 9 0;
#X connect 7 0 10 0;
#X connect 8 0 10 0;
#X connect 9 0 10 0;
#X connect 10 0 11 0;
#X connect 10 1 11 1;
#X connect 11 0 13 0;
#X connect 11 1 13 1;
