#N canvas 0 0 422 327 12;
#X obj 20 50 tgl 15 0 empty empty empty 17 7 0 10 -262144 -1 -1 0 1;
#X obj 20 80 metro 250;
#X msg 20 110 60;
#X obj 20 140 makenote 127 100;
#X obj 20 170 pack f f;
#X obj 182 170 ui.hsl -12 12 @show_value 1;
#X obj 20 200 synth.eguitar~;
#X msg 182 200 @shift \$1;
#X obj 20 230 fx.shimmer~ @shift 12;
#X obj 20 260 ui.hgain2~;
#X obj 173 260 ui.dsp~;
#X obj 20 290 dac~;
#X connect 0 0 1 0;
#X connect 1 0 2 0;
#X connect 2 0 3 0;
#X connect 3 0 4 0;
#X connect 3 1 4 1;
#X connect 4 0 6 0;
#X connect 5 0 7 0;
#X connect 6 0 8 0;
#X connect 7 0 8 0;
#X connect 8 0 9 0;
#X connect 8 1 9 1;
#X connect 9 0 11 0;
#X connect 9 1 11 1;
