#N canvas 0 0 361 282 12;
#X msg 20 50 open %CEAMMC%/guitar1.wav \, 1;
#X obj 20 80 expand_env;
#X obj 137 80 ui.hsl;
#X obj 20 125 readsf~;
#X obj 137 125 lin->lin 0 1 0 1000;
#X msg 137 155 @delay \$1;
#X obj 20 185 fx.sdelay~ @drywet 0.5 @interpolation 100;
#X obj 20 215 ui.gain~ @size 120 16;
#X obj 245 215 ui.dsp~;
#X obj 20 245 dac~;
#X connect 0 0 1 0;
#X connect 1 0 3 0;
#X connect 2 0 4 0;
#X connect 4 0 5 0;
#X connect 3 0 6 0;
#X connect 5 0 6 0;
#X connect 6 0 7 0;
#X connect 7 0 9 0;
#X connect 7 0 9 1;
#X connect 3 1 0 0;
