#N canvas 0 0 711 417 12;
#X obj 20 50 bng 15 250 50 0 empty empty empty 17 7 0 10 -262144 -1
-1;
#X msg 362 50 list 2 4_ 4 8_ 8 16_ 16;
#X obj 20 80 click~;
#X msg 362 80 list 4_ 8 4_ 8 4_ 8;
#X obj 20 110 flt.resonbp~ 1000 50;
#X obj 362 110 music.d->t @bpm 120 1;
#X obj 47 140 flt.resonbp~ 1700 50;
#X obj 56 170 ui.sliders 6 @size 84 50 @min 0 @max 1;
#X obj 209 170 ui.sliders 6 @size 84 50 @min 0 @max 1;
#X obj 362 170 ui.sliders 6 @size 84 50 @min 50 @max 1000;
#X obj 56 230 m @outs0;
#X obj 209 230 m @outs1;
#X obj 362 230 m @delays;
#X msg 56 260 reset;
#X msg 137 260 dump;
#X msg 362 260 random delays 200 3000 \, random fb 0.1 0.2;
#X msg 362 290 pingpong 250 0.7;
#X obj 20 320 fx.tapiir~ @out0.in0 1 @out1.in1 1;
#X obj 20 350 ui.hgain2~;
#X obj 362 350 ui.dsp~;
#X obj 20 380 dac~;
#X connect 0 0 2 0;
#X connect 2 0 4 0;
#X connect 3 0 5 0;
#X connect 5 0 9 0;
#X connect 7 0 10 0;
#X connect 9 0 12 0;
#X connect 4 0 17 0;
#X connect 13 0 17 0;
#X connect 14 0 17 0;
#X connect 17 0 18 0;
#X connect 17 1 18 1;
#X connect 18 0 20 0;
#X connect 18 1 20 1;
#X connect 12 0 17 0;
#X connect 10 0 17 0;
#X connect 8 0 11 0;
#X connect 11 0 17 0;
#X connect 15 0 17 0;
#X connect 1 0 5 0;
#X connect 16 0 17 0;
#X connect 6 0 17 1;
#X connect 2 0 6 0;
