#N canvas 0 0 671 267 12;
#X msg 20 50 open %CEAMMC%/guitar1.wav \, 1;
#X obj 20 80 expand_env;
#X obj 137 80 ui.hsl 0.5 10 @show_value 1;
#X obj 254 80 ui.hsl @show_value 1;
#X obj 380 80 ui.tab tri osc square @size 140 15;
#X obj 20 110 readsf~;
#X msg 137 110 @freq \$1;
#X msg 254 110 @depth \$1;
#X msg 380 110 @src \$1;
#X obj 20 170 fx.tremolo~;
#X obj 20 200 ui.gain~ @size 120 16;
#X obj 245 200 ui.dsp~;
#X obj 20 230 dac~;
#X connect 0 0 1 0;
#X connect 1 0 5 0;
#X connect 2 0 6 0;
#X connect 3 0 7 0;
#X connect 4 0 8 0;
#X connect 5 0 9 0;
#X connect 6 0 9 0;
#X connect 7 0 9 0;
#X connect 8 0 9 0;
#X connect 9 0 10 0;
#X connect 10 0 12 0;
#X connect 10 0 12 1;
