#N canvas 0 0 579 522 12;
#X msg 20 50 bell.aiff;
#X msg 128 50 voice.wav;
#N canvas 0 22 450 300 (subpatch) 0;
#X array array1 100 float 1;
#A 0 0 0 0 0 0 0 0 0 0 0 0 0 0 0 0 0 0 0 0 0 0 0 0 0 0 0 0 0 0 0 0 0 0
0 0 0 0 0 0 0 0 0 0 0 0 0 0 0 0 0 0 0 0 0 0 0 0 0 0 0 0 0 0 0 0 0 0 0
0 0 0 0 0 0 0 0 0 0 0 0 0 0 0 0 0 0 0 0 0 0 0 0 0 0 0 0 0 0 0 0;
#X coords 0 1 100 -1 150 100 1;
#X restore 389 50 graph;
#X obj 20 80 symbol;
#X msg 20 110 load %DOC%/sound/\$1 @to array1 @resize;
#X obj 20 140 expand_env;
#X obj 20 170 snd.file;
#X msg 20 215 bang;
#X obj 20 245 tabplay~ array1;
#X obj 263 245 ui.dsp~;
#X floatatom 155 275 5 0 0 0 - - -;
#X obj 38 305 tgl 15 0 empty empty empty 17 7 0 10 -262144 -1 -1 0 1;
#X msg 155 305 @delay \$1;
#X floatatom 263 305 5 0 0 0 - - -;
#X floatatom 407 305 5 0 0 0 - - -;
#X msg 38 335 @bypass \$1;
#X msg 173 335 dump;
#X msg 263 335 @decay_mid \$1;
#X msg 407 335 @decay_low \$1;
#X obj 425 365 tgl 15 0 empty empty empty 17 7 0 10 -262144 -1 -1 0 1;
#X msg 425 395 @freeze \$1;
#X obj 20 425 fx.zita_rev1~ 3 4;
#X obj 20 455 ui.hgain2~;
#X obj 20 485 dac~;
#X connect 0 0 3 0;
#X connect 1 0 3 0;
#X connect 3 0 4 0;
#X connect 4 0 5 0;
#X connect 5 0 6 0;
#X connect 7 0 8 0;
#X connect 10 0 12 0;
#X connect 11 0 15 0;
#X connect 13 0 17 0;
#X connect 14 0 18 0;
#X connect 19 0 20 0;
#X connect 8 0 21 0;
#X connect 15 0 21 0;
#X connect 12 0 21 0;
#X connect 16 0 21 0;
#X connect 17 0 21 0;
#X connect 18 0 21 0;
#X connect 20 0 21 0;
#X connect 21 0 22 0;
#X connect 21 1 22 1;
#X connect 22 0 23 0;
#X connect 22 1 23 1;
