#N canvas 0 0 611 147 12;
#X obj 20 50 sig~ 1;
#X obj 101 50 sig~ 2;
#X obj 182 50 sig~ 100;
#X obj 281 50 tgl 15 0 empty empty empty 17 7 0 10 -262144 -1 -1 0 1;
#X obj 326 50 ui.hrd* 3;
#X obj 515 50 ui.dsp~;
#X obj 20 80 gate~ 3, f 30;
#X obj 20 110 ui.n~;
#X obj 110 110 ui.n~;
#X obj 200 110 ui.n~;
#X connect 0 0 6 0;
#X connect 1 0 6 1;
#X connect 2 0 6 2;
#X connect 3 0 6 3;
#X connect 4 0 6 3;
#X connect 6 0 7 0;
#X connect 6 1 8 0;
#X connect 6 2 9 0;
