#N canvas 0 0 485 153 12;
#X obj 20 44 bng 15 250 50 0 empty empty empty 17 7 0 10 -262144 -1
-1;
#X msg 68 44 1 2 3;
#X floatatom 132 44 5 0 0 0 - - -;
#X msg 164 44 clear;
#X msg 252 44 bang;
#X obj 20 92 global.set s1;
#X obj 252 92 global.set s1;
#X obj 20 116 ui.display @display_type 1;
#X obj 252 116 ui.display @display_type 1;
#X connect 0 0 5 0;
#X connect 1 0 5 0;
#X connect 2 0 5 0;
#X connect 3 0 5 0;
#X connect 4 0 6 0;
#X connect 5 0 7 0;
#X connect 6 0 8 0;
