#N canvas 0 0 455 207 12;
#X msg 20 50 [a: a b c bpm: 100] \, bang;
#X msg 308 50 bang;
#X obj 308 80 global.dict d1;
#X obj 20 110 global.dict d1;
#X obj 308 110 ui.dt;
#X obj 20 140 ui.dt;
#X obj 20 170 global.dict.subpatch;
#X connect 1 0 2 0;
#X connect 0 0 3 0;
#X connect 2 0 4 0;
#X connect 3 0 5 0;
