#N canvas 0 0 400 297 12;
#X msg 20 50 info;
#X obj 20 80 hoa.map.ui @size 150 150;
#X obj 20 260 print SRC;
#X obj 155 260 print GRP;
#X obj 290 260 print INF;
#X connect 0 0 1 0;
#X connect 1 0 2 0;
#X connect 1 1 3 0;
#X connect 1 2 4 0;
