#N canvas 0 0 696 387 12;
#X obj 20 50 sig~ 1;
#X obj 218 50 lfo.saw~ 0.05;
#X obj 218 80 phase->rad~;
#X obj 20 110 hoa.2d.encoder~ 3, f 30;
#X obj 20 140 hoa.2d.projector~ 3 7, f 30;
#X obj 20 200 ui.m~;
#X obj 119 200 ui.m~;
#X obj 218 200 ui.m~;
#X obj 317 200 ui.m~;
#X obj 416 200 ui.m~;
#X obj 515 200 ui.m~;
#X obj 614 200 ui.m~;
#X obj 20 350 ui.dsp~;
#X connect 1 0 2 0;
#X connect 0 0 3 0;
#X connect 2 0 3 1;
#X connect 3 0 4 0;
#X connect 3 1 4 1;
#X connect 3 2 4 2;
#X connect 3 3 4 3;
#X connect 3 4 4 4;
#X connect 3 5 4 5;
#X connect 3 6 4 6;
#X connect 4 0 5 0;
#X connect 4 1 6 0;
#X connect 4 2 7 0;
#X connect 4 3 8 0;
#X connect 4 4 9 0;
#X connect 4 5 10 0;
#X connect 4 6 11 0;
