#N canvas 0 0 657 852 12;
#X text 20 50 single source: signal controlled;
#X obj 20 80 sig~ 1;
#X floatatom 110 80 5 0 0 0 - - -;
#X obj 200 80 phasor~ 0.2;
#X obj 110 110 sig~ 1;
#X obj 200 110 phase->rad~;
#X obj 20 140 hoa.map~ 5 1, f 23;
#X obj 20 170 hoa.scope~ 5 @gain 4 @size 164 164;
#X text 20 350 multiple sources: control via properties;
#X obj 20 380 msg.onload 1 1.57;
#X obj 200 380 msg.onload 1 -1.57;
#X obj 20 410 ui.polar @clockwise 0 @direction N @radians 1 @radius
0.5;
#X obj 200 410 ui.polar @clockwise 0 @direction N @radians 1 @radius
0.5;
#X text 353 410 use Alt+drag to fix radius value;
#X obj 362 470 ui.hrd @nitems 2 @mode 1;
#X msg 362 500 1 \$1 \, 2 \$2;
#X obj 20 530 msg polar 1;
#X obj 200 530 msg polar 2;
#X obj 362 530 msg mute;
#X obj 29 560 sig~ 1;
#X obj 173 560 sig~ -1;
#X obj 362 560 hoa.map.ui;
#X obj 20 590 hoa.2d.map~ 7 2, f 23;
#X obj 20 620 hoa.scope~ 7 @gain 4 @size 164 164;
#X obj 20 815 ui.dsp~;
#X connect 2 0 4 0;
#X connect 3 0 5 0;
#X connect 1 0 6 0;
#X connect 4 0 6 1;
#X connect 5 0 6 2;
#X connect 6 0 7 0;
#X connect 6 1 7 1;
#X connect 6 2 7 2;
#X connect 6 3 7 3;
#X connect 6 4 7 4;
#X connect 6 5 7 5;
#X connect 6 6 7 6;
#X connect 6 7 7 7;
#X connect 6 8 7 8;
#X connect 6 9 7 9;
#X connect 6 10 7 10;
#X connect 9 0 11 0;
#X connect 10 0 12 0;
#X connect 14 0 15 0;
#X connect 11 0 16 0;
#X connect 12 0 17 0;
#X connect 15 0 18 0;
#X connect 19 0 22 0;
#X connect 20 0 22 1;
#X connect 22 0 23 0;
#X connect 22 1 23 1;
#X connect 22 2 23 2;
#X connect 22 3 23 3;
#X connect 22 4 23 4;
#X connect 22 5 23 5;
#X connect 22 6 23 6;
#X connect 22 7 23 7;
#X connect 22 8 23 8;
#X connect 22 9 23 9;
#X connect 22 10 23 10;
#X connect 22 11 23 11;
#X connect 22 12 23 12;
#X connect 22 13 23 13;
#X connect 22 14 23 14;
#X connect 16 0 22 0;
#X connect 17 0 22 0;
#X connect 18 0 22 0;
#X connect 21 0 22 0;
