#N canvas 0 0 405 177 12;
#X msg 56 50 open 0;
#X msg 164 50 open 1;
#X obj 20 80 sig~ 0.5;
#X obj 317 80 sig~ 1;
#X obj 20 110 hoa.process~ 2 hoa/hoa_out_example3 planewaves;
#X obj 20 140 ui.n~;
#X obj 164 140 ui.n~;
#X obj 317 140 ui.n~;
#X connect 2 0 4 0;
#X connect 3 0 4 1;
#X connect 4 0 5 0;
#X connect 4 1 6 0;
#X connect 4 2 7 0;
#X connect 0 0 4 0;
#X connect 1 0 4 0;
