#N canvas 0 0 723 387 12;
#X msg 20 50 open 0;
#X msg 101 50 open 1;
#X msg 182 50 open 2;
#X msg 299 50 @*? \, @index? @order? @total? @hdegree? @horder?;
#X msg 317 80 @freq? \, #1 @freq 1000 \, @freq?;
#X msg 335 110 #0 @freq 740 \, #2 @freq 300;
#X msg 353 140 #0 @freq 200 \, #1 @freq 600 \, #2 @freq 500;
#X msg 425 170 3;
#X obj 425 200 list.gen;
#X obj 542 200 random.int 100 1000;
#X text 218 230 click me;
#X obj 425 230 list.do;
#X msg 542 230 #\$2 @freq \$1;
#X obj 20 260 hoa.process~ 3 hoa/hoa_prop_example1 planewaves "@freq"
250, f 60;
#X obj 20 320 ui.hgain~;
#X obj 146 320 ui.dsp~;
#X obj 416 320 print;
#X obj 20 350 dac~;
#X connect 7 0 8 0;
#X connect 8 0 11 0;
#X connect 0 0 13 0;
#X connect 1 0 13 0;
#X connect 2 0 13 0;
#X connect 12 0 13 1;
#X connect 13 0 14 0;
#X connect 13 1 14 0;
#X connect 13 2 14 0;
#X connect 13 3 16 0;
#X connect 14 0 17 0;
#X connect 14 0 17 1;
#X connect 3 0 13 1;
#X connect 4 0 13 1;
#X connect 5 0 13 1;
#X connect 6 0 13 1;
#X connect 11 1 12 0;
#X connect 8 1 9 0;
#X connect 9 0 8 1;
