#N canvas 0 0 756 852 12;
#X text 20 50 single source: signal controlled;
#X obj 20 80 sig~ 1;
#X floatatom 110 80 5 0 0 0 - - -;
#X obj 200 80 phasor~ 0.2;
#X obj 110 110 sig~ 1;
#X obj 200 110 phase->rad~;
#X obj 20 140 hoa.map~ 5 1, f 23;
#X obj 20 170 hoa.scope~ 5 @gain 4 @size 164 164;
#X text 20 350 multiple sources: control via properties;
#X obj 20 380 msg.onload;
#X text 209 380 use Alt+drag to fix radius value;
#X obj 20 410 ui.polar @clockwise 0 @direction E @radians 1 @angle 0
@radius 0.5;
#X obj 191 410 ui.polar @clockwise 0 @direction E @radians 1 @angle
-3.1415 @radius 0.5;
#X obj 353 470 ui.hrd @nitems 2 @mode 1 @size 41 20;
#X msg 353 500 0 \$1 \, 1 \$2;
#X obj 20 530 msg polar 0;
#X obj 191 530 msg polar 1;
#X obj 353 530 msg mute;
#X obj 29 560 sig~ 1;
#X obj 173 560 sig~ -1;
#X obj 20 590 hoa.2d.map~ 7 2, f 23;
#X obj 20 620 hoa.scope~ 7 @gain 4 @size 164 164;
#X obj 20 815 ui.dsp~;
#X connect 2 0 4 0;
#X connect 3 0 5 0;
#X connect 1 0 6 0;
#X connect 4 0 6 1;
#X connect 5 0 6 2;
#X connect 6 0 7 0;
#X connect 6 1 7 1;
#X connect 6 2 7 2;
#X connect 6 3 7 3;
#X connect 6 4 7 4;
#X connect 6 5 7 5;
#X connect 6 6 7 6;
#X connect 6 7 7 7;
#X connect 6 8 7 8;
#X connect 6 9 7 9;
#X connect 6 10 7 10;
#X connect 9 0 11 0;
#X connect 9 0 12 0;
#X connect 13 0 14 0;
#X connect 11 0 15 0;
#X connect 12 0 16 0;
#X connect 14 0 17 0;
#X connect 18 0 20 0;
#X connect 19 0 20 1;
#X connect 20 0 21 0;
#X connect 20 1 21 1;
#X connect 20 2 21 2;
#X connect 20 3 21 3;
#X connect 20 4 21 4;
#X connect 20 5 21 5;
#X connect 20 6 21 6;
#X connect 20 7 21 7;
#X connect 20 8 21 8;
#X connect 20 9 21 9;
#X connect 20 10 21 10;
#X connect 20 11 21 11;
#X connect 20 12 21 12;
#X connect 20 13 21 13;
#X connect 20 14 21 14;
#X connect 15 0 20 0;
#X connect 16 0 20 0;
#X connect 17 0 20 0;
