#N canvas 0 0 556 282 12;
#X msg 20 50 open 0;
#X msg 101 50 open 1;
#X msg 191 50 42;
#X msg 236 50 #0 43;
#X msg 317 50 #1 44;
#X obj 20 95 hoa.process~ 2 hoa/hoa_in_example1 planewaves;
#X obj 20 125 print A;
#X msg 20 155 open 0;
#X msg 137 155 42;
#X msg 182 155 #0 43;
#X msg 263 155 #1 44;
#X msg 344 155 45;
#X msg 389 155 #0 46;
#X msg 470 155 #1 47;
#X msg 38 185 open 1;
#X obj 20 215 hoa.process~ 2 hoa/hoa_in_example2 planewaves;
#X obj 20 245 print B;
#X obj 317 245 print C;
#X connect 0 0 5 0;
#X connect 1 0 5 0;
#X connect 2 0 5 1;
#X connect 3 0 5 1;
#X connect 4 0 5 1;
#X connect 5 0 6 0;
#X connect 7 0 15 0;
#X connect 14 0 15 0;
#X connect 8 0 15 1;
#X connect 9 0 15 1;
#X connect 10 0 15 1;
#X connect 11 0 15 3;
#X connect 12 0 15 3;
#X connect 13 0 15 3;
#X connect 15 0 16 0;
#X connect 15 1 17 0;
