#N canvas 0 0 414 177 12;
#X msg 20 50 open 0;
#X msg 128 50 open 1;
#X floatatom 326 50 5 0 0 0 - - -;
#X obj 20 80 sig~ 0.5;
#X obj 173 80 sig~ 1;
#X obj 326 80 sig~ 3;
#X obj 20 110 hoa.process~ 2 hoa/hoa_in_example3 planewaves;
#X obj 20 140 ui.n~;
#X obj 326 140 ui.n~;
#X connect 2 0 5 0;
#X connect 3 0 6 0;
#X connect 4 0 6 1;
#X connect 5 0 6 2;
#X connect 6 0 7 0;
#X connect 6 1 8 0;
#X connect 0 0 6 0;
#X connect 1 0 6 0;
