#N canvas 0 0 602 447 12;
#X obj 20 50 hoa/hoa.soundrone;
#X obj 236 50 phasor~ 0.15;
#X obj 20 80 ui.gain~ @size 120 14;
#X obj 236 80 phase->rad~;
#X obj 362 80 ui.menu basic maxre inphase;
#X obj 20 110 hoa.encoder~ 5, f 25;
#X msg 362 110 @mode \$2;
#X obj 20 140 hoa.optim~ 5 inphase, f 25;
#X obj 56 170 hoa.scope~ 5 @gain 4 @size 164 164;
#X obj 20 350 hoa.decoder~ 5 regular 11, f 25;
#X obj 20 380 xdac~ 1:11, f 25;
#X obj 20 410 ui.dsp~;
#X connect 1 0 3 0;
#X connect 2 0 5 0;
#X connect 3 0 5 1;
#X connect 4 0 6 0;
#X connect 5 0 7 0;
#X connect 5 1 7 1;
#X connect 5 2 7 2;
#X connect 5 3 7 3;
#X connect 5 4 7 4;
#X connect 5 5 7 5;
#X connect 5 6 7 6;
#X connect 5 7 7 7;
#X connect 5 8 7 8;
#X connect 5 9 7 9;
#X connect 5 10 7 10;
#X connect 6 0 7 0;
#X connect 7 0 8 0;
#X connect 7 1 8 1;
#X connect 7 2 8 2;
#X connect 7 3 8 3;
#X connect 7 4 8 4;
#X connect 7 5 8 5;
#X connect 7 6 8 6;
#X connect 7 7 8 7;
#X connect 7 8 8 8;
#X connect 7 9 8 9;
#X connect 7 10 8 10;
#X connect 7 0 9 0;
#X connect 7 1 9 1;
#X connect 7 2 9 2;
#X connect 7 3 9 3;
#X connect 7 4 9 4;
#X connect 7 5 9 5;
#X connect 7 6 9 6;
#X connect 7 7 9 7;
#X connect 7 8 9 8;
#X connect 7 9 9 9;
#X connect 7 10 9 10;
#X connect 9 0 10 0;
#X connect 9 1 10 1;
#X connect 9 2 10 2;
#X connect 9 3 10 3;
#X connect 9 4 10 4;
#X connect 9 5 10 5;
#X connect 9 6 10 6;
#X connect 9 7 10 7;
#X connect 9 8 10 8;
#X connect 9 9 10 9;
#X connect 9 10 10 10;
