#N canvas 0 0 521 312 12;
#X obj 20 50 osc.square~ 0.15;
#X obj 236 50 phasor~ 0.15;
#X obj 389 50 phasor~ 0.15;
#X obj 20 80 ui.gain~ @size 120 14;
#X obj 236 80 phase->rad~;
#X obj 389 80 phase->rad~;
#X obj 20 110 hoa.3d.encoder~ 3, f 17;
#X obj 20 140 hoa.3d.scope~ 3 @size 123 123;
#X obj 20 275 ui.dsp~;
#X connect 0 0 3 0;
#X connect 1 0 4 0;
#X connect 2 0 5 0;
#X connect 3 0 6 0;
#X connect 6 0 7 0;
#X connect 6 1 7 1;
#X connect 6 2 7 2;
#X connect 6 3 7 3;
#X connect 6 4 7 4;
#X connect 6 5 7 5;
#X connect 6 6 7 6;
#X connect 6 7 7 7;
#X connect 6 8 7 8;
#X connect 6 9 7 9;
#X connect 6 10 7 10;
#X connect 6 11 7 11;
#X connect 6 12 7 12;
#X connect 6 13 7 13;
#X connect 6 14 7 14;
#X connect 6 15 7 15;
#X connect 4 0 6 1;
#X connect 5 0 6 2;
