#N canvas 0 0 332 402 12;
#X obj 20 50 lfo.square~ 1;
#X obj 20 80 ui.gain~ @size 120 14;
#X obj 236 80 ui.knob;
#X obj 20 110 hoa.3d.encoder~ 2, f 24;
#X obj 20 140 hoa.3d.wider~ 2, f 24;
#X obj 20 170 hoa.3d.scope~ @order 2 @size 171 171;
#X obj 20 365 ui.dsp~;
#X connect 0 0 1 0;
#X connect 1 0 3 0;
#X connect 3 0 4 0;
#X connect 3 1 4 1;
#X connect 3 2 4 2;
#X connect 3 3 4 3;
#X connect 3 4 4 4;
#X connect 3 5 4 5;
#X connect 3 6 4 6;
#X connect 3 7 4 7;
#X connect 3 8 4 8;
#X connect 4 0 5 0;
#X connect 4 1 5 1;
#X connect 4 2 5 2;
#X connect 4 3 5 3;
#X connect 4 4 5 4;
#X connect 4 5 5 5;
#X connect 4 6 5 6;
#X connect 4 7 5 7;
#X connect 4 8 5 8;
#X connect 2 0 4 9;
