#N canvas 0 0 361 312 12;
#X msg 20 50 249;
#X text 83 50 firmata version request;
#X msg 38 80 1 2 3 4 5;
#X text 146 80 serial echo;
#X msg 56 110 @devices?;
#X obj 20 155 hw.arduino @reconnect @on_connect ardconn;
#X obj 20 185 print arduino;
#X obj 20 215 function ardconn;
#X obj 191 215 b;
#X obj 20 245 flow.count;
#X floatatom 20 275 5 0 0 0 - - -;
#X connect 0 0 5 0;
#X connect 2 0 5 0;
#X connect 4 0 5 0;
#X connect 5 0 6 0;
#X connect 7 0 9 0;
#X connect 9 0 10 0;
#X connect 7 1 8 0;
#X connect 8 0 7 1;
