#N canvas 0 0 229 237 12;
#X obj 20 50 tgl 15 0 empty empty empty 17 7 0 10 -262144 -1 -1 0 1;
#X obj 20 80 metro 300;
#X obj 128 80 tgl 15 0 empty empty empty 17 7 0 10 -262144 -1 -1 0 1;
#X msg 128 110 @raw \$1;
#X obj 20 140 hw.apple_sms;
#X obj 20 170 unpack 0 0 0;
#X floatatom 20 200 5 0 0 0 - - -;
#X floatatom 83 200 5 0 0 0 - - -;
#X floatatom 146 200 5 0 0 0 - - -;
#X connect 0 0 1 0;
#X connect 2 0 3 0;
#X connect 1 0 4 0;
#X connect 3 0 4 0;
#X connect 4 0 5 0;
#X connect 5 0 6 0;
#X connect 5 1 7 0;
#X connect 5 2 8 0;
