#N canvas 0 0 309 177 12;
#X obj 20 50 ui.slider @size 120 12;
#X msg 20 80 @brightness \$1;
#X msg 173 80 @brightness?;
#X obj 20 110 hw.display;
#X obj 20 140 ui.d;
#X connect 0 0 1 0;
#X connect 1 0 3 0;
#X connect 2 0 3 0;
#X connect 3 0 4 0;
