#N canvas 0 0 224 207 12;
#X obj 20 50 tgl 15 0 empty empty empty 17 7 0 10 -262144 -1 -1 0 1;
#X obj 20 80 metro 250;
#X obj 128 80 ui.knob;
#X obj 20 140 hw.kbd_light;
#X floatatom 20 170 5 0 0 0 - - -;
#X connect 0 0 1 0;
#X connect 1 0 3 0;
#X connect 2 0 3 0;
#X connect 3 0 4 0;
