#N canvas 0 0 339 147 12;
#X msg 20 50 bang;
#X msg 83 50 1;
#X msg 119 50 symbol a;
#X msg 218 50 list a b c;
#X obj 20 80 is_bang;
#X obj 20 110 tgl 15 0 empty empty empty 17 7 0 10 -262144 -1 -1 0 1;
#X obj 83 110 print passed;
#X connect 0 0 4 0;
#X connect 1 0 4 0;
#X connect 2 0 4 0;
#X connect 3 0 4 0;
#X connect 4 0 5 0;
#X connect 4 1 6 0;
