#N canvas 0 0 228 175 12;
#X msg 20 50 symbol is_file-help.pd;
#X msg 56 80 symbol not-exists;
#X obj 20 110 is_file;
#X obj 20 140 tgl 15 0 empty empty empty 17 7 0 10 -262144 -1 -1 0 1;
#X connect 0 0 2 0;
#X connect 1 0 2 0;
#X connect 2 0 3 0;
