#N canvas 0 0 440 147 12;
#X msg 20 50 100;
#X msg 83 50 any;
#X msg 137 50 symbol a;
#X msg 245 50 list a b c;
#X msg 362 50 bang;
#X obj 20 80 is_symbol;
#X obj 20 110 tgl 15 0 empty empty empty 17 7 0 10 -262144 -1 -1 0 1;
#X obj 83 110 print passed;
#X connect 0 0 5 0;
#X connect 1 0 5 0;
#X connect 2 0 5 0;
#X connect 3 0 5 0;
#X connect 4 0 5 0;
#X connect 5 0 6 0;
#X connect 5 1 7 0;
