#N canvas 0 0 413 252 12;
#X msg 20 50 open;
#X obj 92 50 ui.knob @min 0 @max 0.5;
#X obj 209 50 ui.knob @min 0 @max 10;
#X msg 92 95 @amp \$1;
#X msg 209 95 @freq \$1;
#X obj 182 125 osc.square~ 300;
#X obj 20 155 lang.faust~ faust/ex0.dsp;
#X obj 20 185 ui.hgain~;
#X obj 182 185 ui.dsp~;
#X obj 20 215 dac~;
#X connect 1 0 3 0;
#X connect 2 0 4 0;
#X connect 0 0 6 0;
#X connect 5 0 6 1;
#X connect 6 0 7 0;
#X connect 7 0 9 0;
#X connect 7 0 9 1;
#X connect 3 0 6 0;
#X connect 4 0 6 0;
