#N canvas 0 0 458 297 12;
#X floatatom 20 50 5 0 0 0 - - -;
#X obj 101 50 tgl 15 0 empty empty empty 17 7 0 10 -262144 -1 -1 0 1;
#X obj 245 50 tgl 15 0 empty empty empty 17 7 0 10 -262144 -1 -1 0 1;
#X msg 101 80 @invert \$1;
#X msg 245 80 @pause \$1;
#X msg 380 80 bang;
#X obj 20 110 lfo.+saw~ 1;
#X obj 20 140 *~ 3000;
#X obj 20 170 +~ 100;
#X obj 20 200 osc~;
#X obj 20 230 ui.gain~ @size 120 14;
#X obj 245 230 ui.dsp~;
#X obj 20 260 dac~;
#X connect 1 0 3 0;
#X connect 2 0 4 0;
#X connect 0 0 6 0;
#X connect 6 0 7 0;
#X connect 7 0 8 0;
#X connect 8 0 9 0;
#X connect 9 0 10 0;
#X connect 10 0 12 0;
#X connect 10 0 12 1;
#X connect 3 0 6 0;
#X connect 4 0 6 0;
#X connect 5 0 6 1;
