#N canvas 0 0 210 192 12;
#X floatatom 20 50 5 0 0 0 - - -;
#X obj 20 80 lfo.impulse~ 8;
#X obj 155 95 tgl 15 0 empty empty empty 17 7 0 10 -262144 -1 -1 0 1;
#X obj 20 125 *~;
#X obj 20 155 dac~;
#X connect 0 0 1 0;
#X connect 1 0 3 0;
#X connect 2 0 3 1;
#X connect 3 0 4 0;
#X connect 3 0 4 1;
