#N canvas 0 0 324 201 12;
#X obj 20 44 osc.saw~ 40;
#X obj 228 44 ui.dsp~;
#X obj 20 68 ui.hgain~;
#X floatatom 92 92 5 0 0 0 - - -;
#X msg 188 92 bang;
#X obj 92 116 lfo.tri~ 0.5;
#X obj 20 140 pan.linsig~;
#X obj 20 164 dac~;
#X connect 0 0 2 0;
#X connect 3 0 5 0;
#X connect 4 0 5 1;
#X connect 2 0 6 0;
#X connect 5 0 6 1;
#X connect 6 0 7 0;
#X connect 6 1 7 1;
