#N canvas 0 0 341 207 12;
#X obj 20 50 osc.saw~ 100;
#X floatatom 155 50 5 0 0 0 - - -;
#X obj 155 80 lfo.+square~ 10;
#X obj 20 110 *~;
#X obj 20 140 ui.gain~ @size 120 14;
#X obj 245 140 ui.dsp~;
#X obj 20 170 dac~;
#X connect 1 0 2 0;
#X connect 0 0 3 0;
#X connect 2 0 3 1;
#X connect 3 0 4 0;
#X connect 4 0 6 0;
#X connect 4 0 6 1;
