#N canvas 0 0 269 207 12;
#X obj 20 50 osc~ 200;
#X floatatom 119 50 5 0 0 0 - - -;
#X obj 119 80 lfo.+tri~ 10;
#X obj 20 110 *~;
#X obj 20 140 ui.hgain~;
#X obj 173 140 ui.dsp~;
#X obj 20 170 dac~;
#X connect 1 0 2 0;
#X connect 0 0 3 0;
#X connect 2 0 3 1;
#X connect 3 0 4 0;
#X connect 4 0 6 0;
#X connect 4 0 6 1;
