#N canvas 0 0 479 327 12;
#X msg 20 50 1 2 3 4 5 6 7 8 9;
#X msg 218 50 1 2 3 4 5 6 7 8 9;
#X obj 20 80 list.each;
#X obj 146 80 pow 2;
#X obj 218 80 list.each 2;
#X obj 362 80 *;
#X obj 20 110 ui.dt;
#X obj 218 110 ui.dt;
#X text 20 140 more complex example: multiply by three element in list;
#X msg 20 170 1 2 3 4 5 6 7 8 9;
#X obj 47 200 hradio 15 1 0 8 empty empty empty 17 7 0 10 -262144 -1
-1 0;
#X msg 47 230 @step \$1;
#X obj 20 260 list.each 3;
#X obj 164 260 list.reduce;
#X obj 308 260 *;
#X obj 20 290 ui.dt;
#X connect 0 0 2 0;
#X connect 1 0 4 0;
#X connect 2 0 6 0;
#X connect 4 0 7 0;
#X connect 10 0 11 0;
#X connect 9 0 12 0;
#X connect 11 0 12 0;
#X connect 12 0 15 0;
#X connect 2 1 3 0;
#X connect 3 0 2 1;
#X connect 4 1 5 0;
#X connect 5 0 4 1;
#X connect 12 1 13 0;
#X connect 13 0 12 1;
#X connect 13 1 14 0;
#X connect 14 0 13 1;
