#N canvas 0 0 366 201 12;
#X obj 20 44 ui.sliders;
#X obj 148 44 ui.sliders @auto_range 1;
#X obj 124 140 ui.hrd;
#X obj 20 164 list.resample 4;
#X connect 0 0 3 0;
#X connect 2 0 3 1;
#X connect 3 0 1 0;
