#N canvas 0 0 371 177 12;
#X msg 110 50 @pattern c;
#X msg 236 50 list a b c c;
#X msg 20 80 1 2 3 1;
#X floatatom 128 80 5 0 0 0 - - -;
#X obj 20 110 list.count a;
#X floatatom 20 140 5 0 0 0 - - -;
#X obj 101 140 print;
#X connect 2 0 4 0;
#X connect 0 0 4 0;
#X connect 3 0 4 1;
#X connect 1 0 4 0;
#X connect 4 0 5 0;
#X connect 4 0 6 0;
