#N canvas 0 0 249 177 12;
#X msg 20 50 1 2;
#X msg 74 50 1 2 3;
#X msg 146 50 1 2 3 4;
#X obj 20 110 list.none_of;
#X obj 182 110 > 3;
#X floatatom 20 140 5 0 0 0 - - -;
#X connect 0 0 3 0;
#X connect 1 0 3 0;
#X connect 2 0 3 0;
#X connect 3 0 5 0;
#X connect 3 1 4 0;
#X connect 4 0 3 1;
