#N canvas 0 0 217 147 12;
#X msg 20 50 1 2 3 4 5 6;
#X msg 146 50 3 4;
#X obj 20 80 list.unpack 3;
#X floatatom 20 110 5 0 0 0 - - -;
#X floatatom 74 110 5 0 0 0 - - -;
#X floatatom 137 110 5 0 0 0 - - -;
#X connect 0 0 2 0;
#X connect 1 0 2 0;
#X connect 2 0 3 0;
#X connect 2 1 4 0;
#X connect 2 2 5 0;
