#N canvas 0 0 466 207 12;
#X msg 20 50 1 2 3 4 *;
#X msg 137 50 (1 2 3) \, bang;
#X obj 299 50 bng 15 250 50 0 empty empty empty 17 7 0 10 -262144 -1
-1;
#X msg 38 80 symbol A;
#X obj 137 80 ml;
#X obj 299 80 str a test string;
#X msg 56 110 10;
#X floatatom 317 110 5 0 0 0 - - -;
#X obj 20 140 list.repeat 3;
#X obj 20 170 ui.display @display_type 1;
#X connect 1 0 4 0;
#X connect 2 0 5 0;
#X connect 0 0 8 0;
#X connect 3 0 8 0;
#X connect 6 0 8 0;
#X connect 4 0 8 0;
#X connect 5 0 8 0;
#X connect 7 0 8 1;
#X connect 8 0 9 0;
