#N canvas 0 0 312 357 12;
#X floatatom 20 50 5 0 0 0 - - -;
#X msg 65 50 0 \, 30 2000;
#X obj 65 80 line;
#X obj 20 110 t b f;
#X text 137 110 change list values;
#X obj 20 140 ui.sliders @count 30 @size 200 60;
#X obj 20 215 list.shift 10;
#X obj 20 245 ui.sliders @count 30 @size 200 60;
#X obj 20 320 print;
#X connect 1 0 2 0;
#X connect 0 0 3 0;
#X connect 2 0 3 0;
#X connect 3 0 5 0;
#X connect 5 0 6 0;
#X connect 6 0 7 0;
#X connect 7 0 8 0;
#X connect 3 1 6 1;
