#N canvas 0 0 394 165 12;
#X msg 20 44 10 20 30;
#X msg 116 44 list a b;
#X msg 204 44 1 2 3 4 5;
#X msg 44 68 @pad;
#X msg 140 68 @clip;
#X msg 244 68 @wrap;
#X msg 308 68 @fold;
#X obj 20 104 list.zip 3 @min;
#X obj 20 128 ui.dt;
#X connect 0 0 7 0;
#X connect 3 0 7 0;
#X connect 1 0 7 1;
#X connect 4 0 7 0;
#X connect 2 0 7 2;
#X connect 5 0 7 0;
#X connect 6 0 7 0;
#X connect 7 0 8 0;
