#N canvas 0 0 439 402 12;
#X msg 20 50 1 2 3 4;
#X msg 227 50 1 2 3 4;
#X obj 20 95 list.reduce;
#X obj 164 95 +;
#X obj 227 95 list.reduce;
#X obj 371 95 *;
#X floatatom 20 125 5 0 0 0 - - -;
#X floatatom 227 125 5 0 0 0 - - -;
#X msg 20 170 1 1 1 0;
#X msg 119 170 1 1 1;
#X msg 227 170 1 1 1 0;
#X msg 317 170 0 0 0;
#X obj 20 215 list.reduce;
#X obj 164 215 &&;
#X obj 227 215 list.reduce;
#X obj 371 215 ||;
#X floatatom 20 245 5 0 0 0 - - -;
#X floatatom 227 245 5 0 0 0 - - -;
#X msg 20 290 1 2 3 4;
#X msg 227 290 1 2 3 4;
#X obj 20 335 list.reduce;
#X obj 164 335 min;
#X obj 227 335 list.reduce;
#X obj 371 335 max;
#X floatatom 20 365 5 0 0 0 - - -;
#X floatatom 227 365 5 0 0 0 - - -;
#X connect 0 0 2 0;
#X connect 1 0 4 0;
#X connect 2 0 6 0;
#X connect 4 0 7 0;
#X connect 8 0 12 0;
#X connect 9 0 12 0;
#X connect 10 0 14 0;
#X connect 11 0 14 0;
#X connect 12 0 16 0;
#X connect 14 0 17 0;
#X connect 18 0 20 0;
#X connect 19 0 22 0;
#X connect 20 0 24 0;
#X connect 22 0 25 0;
#X connect 2 1 3 0;
#X connect 3 0 2 1;
#X connect 4 1 5 0;
#X connect 5 0 4 1;
#X connect 12 1 13 0;
#X connect 13 0 12 1;
#X connect 14 1 15 0;
#X connect 15 0 14 1;
#X connect 20 1 21 0;
#X connect 21 0 20 1;
#X connect 22 1 23 0;
#X connect 23 0 22 1;
