#N canvas 0 0 531 237 12;
#X msg 20 50 list A B C D E;
#X msg 200 50 list A B C D E;
#X msg 371 50 list A B C D E;
#X obj 20 80 list.slice 2;
#X obj 200 80 list.slice 2 4;
#X obj 371 80 list.slice 0 5 2;
#X obj 20 110 ui.dt;
#X obj 200 110 ui.dt;
#X obj 371 110 ui.dt;
#X msg 20 140 list A B C D E;
#X msg 200 140 list A B C D E;
#X obj 20 170 list.slice -2;
#X obj 200 170 list.slice -4 -1;
#X obj 20 200 ui.dt;
#X obj 200 200 ui.dt;
#X connect 0 0 3 0;
#X connect 1 0 4 0;
#X connect 2 0 5 0;
#X connect 3 0 6 0;
#X connect 4 0 7 0;
#X connect 5 0 8 0;
#X connect 9 0 11 0;
#X connect 10 0 12 0;
#X connect 11 0 13 0;
#X connect 12 0 14 0;
