#N canvas 0 0 253 192 12;
#X msg 20 50 1 2 3 4;
#X msg 47 80 list D E F;
#X floatatom 173 80 5 0 0 0 - - -;
#X obj 20 125 list.insert A B C @index 1;
#X obj 20 155 ui.display @display_type 1;
#X connect 0 0 3 0;
#X connect 1 0 3 1;
#X connect 2 0 3 2;
#X connect 3 0 4 0;
