#N canvas 0 0 273 267 12;
#X obj 20 50 bng 15 250 50 0 empty empty empty 17 7 0 10 -262144 -1
-1;
#X obj 20 80 list.gen 10;
#X obj 164 80 random 25;
#X obj 20 110 t b a;
#X obj 56 140 msg set;
#X msg 20 170 ;
#X obj 20 200 list.count_if;
#X obj 182 200 > 10;
#X floatatom 20 230 5 0 0 0 - - -;
#X connect 0 0 1 0;
#X connect 1 0 3 0;
#X connect 3 1 4 0;
#X connect 3 0 5 0;
#X connect 4 0 5 0;
#X connect 5 0 6 0;
#X connect 6 0 8 0;
#X connect 1 1 2 0;
#X connect 2 0 1 1;
#X connect 6 1 7 0;
#X connect 7 0 6 1;
