#N canvas 0 0 333 282 12;
#X msg 20 50 1 2 3 4;
#X msg 47 80 1 2 a b c d;
#X msg 173 80 @range;
#X msg 254 80 @sum;
#X obj 20 140 list.normalize @sum;
#X obj 38 170 ui.dt;
#X obj 20 215 list.sum;
#X floatatom 20 245 5 0 0 0 - - -;
#X connect 0 0 4 0;
#X connect 1 0 4 0;
#X connect 2 0 4 0;
#X connect 3 0 4 0;
#X connect 4 0 5 0;
#X connect 4 0 6 0;
#X connect 6 0 7 0;
