#N canvas 0 0 253 177 12;
#X obj 20 44 bng 15 250 50 0 empty empty empty 17 7 0 10 -262144 -1
-1;
#X obj 20 68 list 0 1 2 3 4 5 6 7 8 9 *;
#X floatatom 124 92 5 0 0 0 - - -;
#X obj 20 116 list.rotate 1;
#X obj 20 140 ui.dt;
#X connect 0 0 1 0;
#X connect 1 0 3 0;
#X connect 2 0 3 1;
#X connect 3 0 4 0;
#X connect 3 0 1 1;
