#N canvas 0 0 307 273 12;
#X msg 20 44 1 2 3 4;
#X msg 44 68 1 2 a b c d;
#X msg 156 68 @range;
#X msg 228 68 @sum;
#X obj 20 116 list.normalize @sum;
#X obj 20 140 t b a;
#X obj 60 164 msg set;
#X msg 20 188 ;
#X obj 20 212 list.sum;
#X floatatom 20 236 5 0 0 0 - - -;
#X connect 0 0 4 0;
#X connect 1 0 4 0;
#X connect 2 0 4 0;
#X connect 3 0 4 0;
#X connect 4 0 5 0;
#X connect 5 1 6 0;
#X connect 5 0 7 0;
#X connect 6 0 7 0;
#X connect 7 0 8 0;
#X connect 8 0 9 0;
