#N canvas 0 0 321 222 12;
#X msg 20 50 1 2 3 4;
#X msg 110 50 1 2 3 4 5;
#X msg 47 95 dump;
#X msg 164 95 @min;
#X msg 227 95 @pad X;
#X obj 20 155 list.unzip 2;
#X obj 20 185 ui.dt;
#X obj 164 185 ui.dt;
#X connect 0 0 5 0;
#X connect 2 0 5 0;
#X connect 1 0 5 0;
#X connect 3 0 5 0;
#X connect 4 0 5 0;
#X connect 5 0 6 0;
#X connect 5 1 7 0;
