#N canvas 0 0 488 267 12;
#X floatatom 20 50 5 0 0 0 - - -;
#X symbolatom 65 50 5 0 0 0 - - -;
#X msg 128 50 20 30;
#X floatatom 146 80 5 0 0 0 - - -;
#X msg 146 110 @start \$1;
#X floatatom 164 140 5 0 0 0 - - -;
#X msg 164 170 @end \$1;
#X msg 254 170 1 2 3 4;
#X msg 353 170 list a b c d;
#X obj 20 200 list.^search 10 20 30 40 50 A B C;
#X floatatom 20 230 5 0 0 0 - - -;
#X connect 3 0 4 0;
#X connect 5 0 6 0;
#X connect 0 0 9 0;
#X connect 1 0 9 0;
#X connect 2 0 9 0;
#X connect 4 0 9 0;
#X connect 6 0 9 0;
#X connect 7 0 9 1;
#X connect 8 0 9 1;
#X connect 9 0 10 0;
