#N canvas 0 0 298 237 12;
#X floatatom 56 50 5 0 0 0 - - -;
#X floatatom 146 50 5 0 0 0 - - -;
#X obj 20 80 bng 15 250 50 0 empty empty empty 17 7 0 10 -262144 -1
-1;
#X msg 83 80 dump;
#X msg 146 80 @count \$1;
#X obj 20 140 list.gen 3;
#X obj 182 140 random 100;
#X obj 20 170 m set;
#X msg 20 200 ;
#X connect 1 0 4 0;
#X connect 2 0 5 0;
#X connect 0 0 5 0;
#X connect 3 0 5 0;
#X connect 4 0 5 0;
#X connect 5 0 7 0;
#X connect 7 0 8 0;
#X connect 5 1 6 0;
#X connect 6 0 5 1;
