#N canvas 0 0 510 417 12;
#X msg 20 50 10;
#X msg 290 50 10;
#X obj 20 80 list.seq;
#X obj 290 80 list.seq;
#X obj 20 110 list.pass_if;
#X obj 173 110 is_odd;
#X obj 290 110 list.pass_if;
#X obj 443 110 > 5;
#X obj 20 140 msg set;
#X obj 290 140 msg set;
#X msg 20 170 ;
#X msg 290 170 ;
#X obj 20 200 bng 15 250 50 0 empty empty empty 17 7 0 10 -262144 -1
-1;
#X obj 20 230 path.ls .;
#X obj 20 260 list.pass_if;
#X obj 173 260 str.ends_with .pd;
#X obj 20 290 str.join ' ';
#X obj 20 320 str->sym;
#X obj 20 350 msg set;
#X msg 20 380 ;
#X connect 0 0 2 0;
#X connect 1 0 3 0;
#X connect 2 0 4 0;
#X connect 3 0 6 0;
#X connect 4 0 8 0;
#X connect 6 0 9 0;
#X connect 8 0 10 0;
#X connect 9 0 11 0;
#X connect 12 0 13 0;
#X connect 13 0 14 0;
#X connect 14 0 16 0;
#X connect 16 0 17 0;
#X connect 17 0 18 0;
#X connect 18 0 19 0;
#X connect 4 1 5 0;
#X connect 5 0 4 1;
#X connect 6 1 7 0;
#X connect 7 0 6 1;
#X connect 14 1 15 0;
#X connect 15 0 14 1;
