#N canvas 0 0 531 297 12;
#X msg 20 50 list A B C D E;
#X msg 200 50 list A B C D E;
#X msg 371 50 list A B C D E;
#X obj 20 80 list.slice 2;
#X obj 200 80 list.slice 2 4;
#X obj 371 80 list.slice 0 5 2;
#X obj 20 110 msg set;
#X obj 200 110 msg set;
#X obj 371 110 msg set;
#X msg 20 140 ;
#X msg 200 140 ;
#X msg 371 140 ;
#X msg 20 170 list A B C D E;
#X msg 200 170 list A B C D E;
#X obj 20 200 list.slice -2;
#X obj 200 200 list.slice -4 -1;
#X obj 20 230 msg set;
#X obj 200 230 msg set;
#X msg 20 260 ;
#X msg 200 260 ;
#X connect 0 0 3 0;
#X connect 1 0 4 0;
#X connect 2 0 5 0;
#X connect 3 0 6 0;
#X connect 4 0 7 0;
#X connect 5 0 8 0;
#X connect 6 0 9 0;
#X connect 7 0 10 0;
#X connect 8 0 11 0;
#X connect 12 0 14 0;
#X connect 13 0 15 0;
#X connect 14 0 16 0;
#X connect 15 0 17 0;
#X connect 16 0 18 0;
#X connect 17 0 19 0;
