#N canvas 0 0 253 147 12;
#X floatatom 20 50 5 0 0 0 - - -;
#X msg 65 50 1 3 5 -1;
#X obj 20 80 list.^at A B C D E F G H;
#X obj 20 110 ui.display @display_type 1;
#X connect 0 0 2 0;
#X connect 1 0 2 0;
#X connect 2 0 3 0;
