#N canvas 0 0 356 342 12;
#X msg 20 50 1 2 3 4 5;
#X floatatom 128 50 5 0 0 0 - - -;
#X msg 173 50 1 2 3 4 5;
#X floatatom 281 50 5 0 0 0 - - -;
#X obj 20 80 list.at -1;
#X obj 173 80 list.at @clip;
#X floatatom 20 110 5 0 0 0 - - -;
#X floatatom 173 110 5 0 0 0 - - -;
#X msg 20 155 1 2 3 4 5;
#X floatatom 128 155 5 0 0 0 - - -;
#X msg 173 155 1 2 3 4 5;
#X floatatom 281 155 5 0 0 0 - - -;
#X obj 20 185 list.at @wrap;
#X obj 173 185 list.at @fold;
#X floatatom 20 215 5 0 0 0 - - -;
#X floatatom 173 215 5 0 0 0 - - -;
#X msg 20 245 list A B C D E;
#X obj 20 275 list.at -1 1 3;
#X obj 20 305 ui.dt;
#X connect 0 0 4 0;
#X connect 1 0 4 1;
#X connect 2 0 5 0;
#X connect 3 0 5 1;
#X connect 4 0 6 0;
#X connect 5 0 7 0;
#X connect 8 0 12 0;
#X connect 9 0 12 1;
#X connect 10 0 13 0;
#X connect 11 0 13 1;
#X connect 12 0 14 0;
#X connect 13 0 15 0;
#X connect 16 0 17 0;
#X connect 17 0 18 0;
