#N canvas 0 0 548 327 12;
#X obj 20 50 bng 15 250 50 0 empty empty empty 17 7 0 10 -262144 -1
-1;
#N canvas 0 22 450 300 (subpatch) 0;
#X array distrib 20 float 1;
#A 0 0 0 0 0 0 0 0 0 0 0 0 0 0 0 0 0 0 0 0 0;
#X coords 0 1 20 0 200 140 1;
#X restore 308 50 graph;
#X obj 20 80 t b b;
#X msg 56 110 normalize;
#X obj 56 140 s distrib;
#X obj 20 170 list.gen 1000;
#X obj 182 170 random.int 0 20;
#X obj 20 200 list.distribution @normalize 1;
#X obj 20 230 list.repack 2;
#X obj 20 260 swap;
#X obj 20 290 tabwrite distrib;
#X connect 0 0 2 0;
#X connect 2 0 3 0;
#X connect 3 0 4 0;
#X connect 2 1 5 0;
#X connect 5 0 7 0;
#X connect 7 0 8 0;
#X connect 8 0 9 0;
#X connect 9 0 10 0;
#X connect 9 1 10 1;
#X connect 5 1 6 0;
#X connect 6 0 5 1;
