#N canvas 0 0 273 222 12;
#X obj 20 50 bng 15 250 50 0 empty empty empty 17 7 0 10 -262144 -1
-1;
#X obj 20 80 list.gen 10;
#X obj 164 80 random 25;
#X obj 38 110 ui.dt;
#X obj 20 155 list.count_if;
#X obj 182 155 > 10;
#X floatatom 20 185 5 0 0 0 - - -;
#X connect 0 0 1 0;
#X connect 1 0 3 0;
#X connect 1 0 4 0;
#X connect 4 0 6 0;
#X connect 1 1 2 0;
#X connect 2 0 1 1;
#X connect 4 1 5 0;
#X connect 5 0 4 1;
