#N canvas 0 0 288 237 12;
#X msg 20 50 1 10;
#X msg 119 50 (1 3 5) \, bang;
#X msg 164 80 1 10 2;
#X obj 20 110 list.seq;
#X obj 119 110 ml;
#X obj 164 110 list.seq;
#X obj 20 170 list.all_of;
#X obj 200 170 is_odd;
#X floatatom 20 200 5 0 0 0 - - -;
#X connect 0 0 3 0;
#X connect 1 0 4 0;
#X connect 2 0 5 0;
#X connect 3 0 6 0;
#X connect 4 0 6 0;
#X connect 5 0 6 0;
#X connect 6 0 8 0;
#X connect 6 1 7 0;
#X connect 7 0 6 1;
