#N canvas 0 0 423 222 12;
#X msg 20 50 1 2 3;
#X msg 101 50 list a b c;
#X msg 137 80 1 2 3;
#X msg 209 80 list a b c;
#X msg 245 110 dump;
#X msg 308 110 @pattern?;
#X obj 20 155 list.equal a b c;
#X floatatom 20 185 5 0 0 0 - - -;
#X obj 74 185 print;
#X connect 0 0 6 0;
#X connect 1 0 6 0;
#X connect 2 0 6 1;
#X connect 3 0 6 1;
#X connect 4 0 6 0;
#X connect 5 0 6 0;
#X connect 6 0 7 0;
#X connect 6 0 8 0;
