#N canvas 0 0 404 177 12;
#X msg 20 50 1 60 120 b 11;
#X msg 164 50 list a b;
#X msg 263 50 (a b c) \, bang;
#X obj 263 80 ml;
#X obj 20 110 list.last;
#X obj 20 140 ui.dt;
#X connect 2 0 3 0;
#X connect 0 0 4 0;
#X connect 1 0 4 0;
#X connect 3 0 4 0;
#X connect 4 0 5 0;
