#N canvas 0 0 480 492 12;
#X msg 20 50 100;
#X msg 101 50 symbol A;
#X msg 227 50 list A;
#X msg 20 80 200;
#X msg 101 80 symbol B;
#X msg 227 80 list A B;
#X msg 20 110 150;
#X msg 101 110 1 2 3;
#X msg 227 110 200 300;
#X obj 20 155 list.route A B 100 200;
#X obj 20 215 msg set;
#X obj 110 215 msg set;
#X obj 200 215 msg set;
#X obj 290 215 msg set;
#X obj 380 215 msg set;
#X msg 20 245 ;
#X msg 110 245 ;
#X msg 200 245 ;
#X msg 290 245 ;
#X msg 380 245 ;
#X msg 20 290 100;
#X msg 110 290 symbol A;
#X msg 245 290 list A;
#X msg 380 290 1 2 3;
#X msg 20 320 200;
#X msg 110 320 symbol B;
#X msg 245 320 list A B;
#X msg 380 320 100 300;
#X obj 20 365 list.route A B 100 @trim;
#X obj 38 395 bng 15 250 50 0 empty empty empty 17 7 0 10 -262144 -1
-1;
#X obj 137 395 bng 15 250 50 0 empty empty empty 17 7 0 10 -262144 -1
-1;
#X obj 236 395 bng 15 250 50 0 empty empty empty 17 7 0 10 -262144 -1
-1;
#X obj 20 425 msg set;
#X obj 110 425 msg set;
#X obj 200 425 msg set;
#X obj 290 425 msg set;
#X msg 20 455 ;
#X msg 110 455 ;
#X msg 200 455 ;
#X msg 290 455 ;
#X connect 9 0 10 0;
#X connect 9 1 11 0;
#X connect 9 2 12 0;
#X connect 9 3 13 0;
#X connect 9 4 14 0;
#X connect 10 0 15 0;
#X connect 11 0 16 0;
#X connect 12 0 17 0;
#X connect 13 0 18 0;
#X connect 14 0 19 0;
#X connect 28 0 29 0;
#X connect 28 1 30 0;
#X connect 28 2 31 0;
#X connect 28 0 32 0;
#X connect 28 1 33 0;
#X connect 28 2 34 0;
#X connect 28 3 35 0;
#X connect 32 0 36 0;
#X connect 33 0 37 0;
#X connect 34 0 38 0;
#X connect 35 0 39 0;
#X connect 1 0 9 0;
#X connect 4 0 9 0;
#X connect 7 0 9 0;
#X connect 2 0 9 0;
#X connect 5 0 9 0;
#X connect 8 0 9 0;
#X connect 0 0 9 0;
#X connect 3 0 9 0;
#X connect 6 0 9 0;
#X connect 21 0 28 0;
#X connect 25 0 28 0;
#X connect 23 0 28 0;
#X connect 22 0 28 0;
#X connect 26 0 28 0;
#X connect 27 0 28 0;
#X connect 20 0 28 0;
#X connect 24 0 28 0;
