#N canvas 0 0 226 207 12;
#X floatatom 20 50 5 0 0 0 - - -;
#X symbolatom 74 50 16 0 0 0 - - -;
#X obj 74 80 symbol2any;
#X obj 74 110 list;
#X obj 20 140 list.pass A B C 1 2 3;
#X obj 20 170 ui.dt;
#X connect 1 0 2 0;
#X connect 2 0 3 0;
#X connect 0 0 4 0;
#X connect 3 0 4 0;
#X connect 4 0 5 0;
