#N canvas 0 0 287 192 12;
#X msg 20 50 1 2 3 4 5 -6;
#X msg 173 50 1 2 a b c;
#X msg 47 80 1 2 3;
#X obj 20 125 list.product;
#X floatatom 20 155 5 0 0 0 - - -;
#X connect 0 0 3 0;
#X connect 2 0 3 0;
#X connect 1 0 3 0;
#X connect 3 0 4 0;
