#N canvas 0 0 474 207 12;
#X msg 20 50 10;
#X msg 254 50 10;
#X obj 20 80 list.seq;
#X obj 254 80 list.seq;
#X obj 38 110 ui.dt;
#X obj 272 110 ui.dt;
#X obj 20 140 list.remove_if;
#X obj 173 140 is_odd;
#X obj 254 140 list.remove_if;
#X obj 407 140 > 5;
#X obj 20 170 ui.dt;
#X obj 254 170 ui.dt;
#X connect 0 0 2 0;
#X connect 1 0 3 0;
#X connect 2 0 4 0;
#X connect 3 0 5 0;
#X connect 2 0 6 0;
#X connect 3 0 8 0;
#X connect 6 0 10 0;
#X connect 8 0 11 0;
#X connect 6 1 7 0;
#X connect 7 0 6 1;
#X connect 8 1 9 0;
#X connect 9 0 8 1;
