#N canvas 0 0 566 357 12;
#X obj 20 50 tgl 15 0 empty empty empty 17 7 0 10 -262144 -1 -1 0 1;
#X obj 236 50 tgl 15 0 empty empty empty 17 7 0 10 -262144 -1 -1 0 1;
#X obj 20 80 metro 100;
#X msg 128 80 1 6 9 11;
#X msg 227 80 @direction \$1;
#X msg 146 110 @clip;
#X msg 245 110 @single;
#X msg 335 110 @loop;
#X msg 407 110 @fold;
#X msg 56 140 -1;
#X msg 173 140 1;
#X msg 425 140 prev;
#X msg 488 140 next;
#X obj 20 170 list.walk 1 3 6 8 @fold;
#X obj 20 200 + 60;
#X obj 20 230 mtof;
#X obj 20 260 osc~;
#X obj 20 290 ui.hgain~;
#X obj 20 320 dac~;
#X obj 83 320 ui.dsp~;
#X connect 0 0 2 0;
#X connect 1 0 4 0;
#X connect 2 0 13 0;
#X connect 9 0 13 0;
#X connect 3 0 13 0;
#X connect 5 0 13 0;
#X connect 10 0 13 0;
#X connect 4 0 13 0;
#X connect 6 0 13 0;
#X connect 7 0 13 0;
#X connect 8 0 13 0;
#X connect 11 0 13 0;
#X connect 12 0 13 0;
#X connect 13 0 14 0;
#X connect 14 0 15 0;
#X connect 15 0 16 0;
#X connect 16 0 17 0;
#X connect 17 0 18 0;
#X connect 17 0 18 1;
