#N canvas 0 0 217 237 12;
#X msg 20 50 1 2 3;
#X msg 110 50 -1 -2 -3;
#X msg 47 80 dump;
#X msg 128 80 clear;
#X obj 20 140 list.integrator;
#X obj 20 170 msg set;
#X msg 20 200 ;
#X connect 0 0 4 0;
#X connect 2 0 4 0;
#X connect 1 0 4 0;
#X connect 3 0 4 0;
#X connect 4 0 5 0;
#X connect 5 0 6 0;
