#N canvas 0 0 528 207 12;
#X msg 20 50 10;
#X msg 290 50 10;
#X obj 20 80 list.seq;
#X obj 290 80 list.seq;
#X obj 20 110 list.remove_if;
#X obj 191 110 is_odd;
#X obj 290 110 list.remove_if;
#X obj 461 110 > 5;
#X obj 20 140 msg set;
#X obj 290 140 msg set;
#X msg 20 170 ;
#X msg 290 170 ;
#X connect 0 0 2 0;
#X connect 1 0 3 0;
#X connect 2 0 4 0;
#X connect 3 0 6 0;
#X connect 4 0 8 0;
#X connect 6 0 9 0;
#X connect 8 0 10 0;
#X connect 9 0 11 0;
#X connect 4 1 5 0;
#X connect 5 0 4 1;
#X connect 6 1 7 0;
#X connect 7 0 6 1;
