#N canvas 0 0 221 327 12;
#X msg 20 50 -3 0 10 2 -5 11 a b c;
#X obj 20 80 list.range @f;
#X obj 20 110 ui.dt;
#X msg 20 140 -3 0 10 2 -5 11 a b c;
#X obj 20 170 list.range @s;
#X obj 20 200 ui.dt;
#X msg 20 230 -3 0 10 2 -5 11 a b c;
#X obj 20 260 list.range @a;
#X obj 20 290 ui.dt;
#X connect 0 0 1 0;
#X connect 1 0 2 0;
#X connect 3 0 4 0;
#X connect 4 0 5 0;
#X connect 6 0 7 0;
#X connect 7 0 8 0;
