#N canvas 0 0 317 207 12;
#X msg 20 50 1 2 3 4 5;
#X msg 128 50 (a b c d e) \, bang;
#X obj 128 80 ml;
#X obj 173 80 tgl 15 0 empty empty empty 17 7 0 10 -262144 -1 -1 0 1;
#X msg 173 110 @enumerate \$1;
#X obj 20 140 list.separate;
#X obj 20 170 print SEPARATE;
#X connect 1 0 2 0;
#X connect 3 0 4 0;
#X connect 0 0 5 0;
#X connect 2 0 5 0;
#X connect 4 0 5 0;
#X connect 5 0 6 0;
