#N canvas 0 0 332 237 12;
#X obj 20 50 adc~;
#X msg 119 50 reset;
#X msg 38 80 record;
#X obj 137 80 tgl 15 0 empty empty empty 17 7 0 10 -262144 -1 -1 0 1;
#X msg 56 110 stop;
#X msg 137 110 @gate \$1;
#X obj 236 110 tgl 15 0 empty empty empty 17 7 0 10 -262144 -1 -1 0 1;
#X obj 20 140 live.capture~;
#X obj 20 170 ui.gain~ @size 120 14;
#X obj 236 170 ui.dsp~;
#X obj 20 200 dac~;
#X connect 3 0 5 0;
#X connect 0 0 7 0;
#X connect 2 0 7 0;
#X connect 4 0 7 0;
#X connect 1 0 7 0;
#X connect 5 0 7 0;
#X connect 6 0 7 1;
#X connect 7 0 8 0;
#X connect 8 0 10 0;
#X connect 8 0 10 1;
