#N canvas 0 0 401 207 12;
#X msg 20 50 list a b c;
#X msg 146 50 set 3 2 1;
#X msg 47 80 1 2 3;
#X obj 263 80 bng 15 250 50 0 empty empty empty 17 7 0 10 -262144 -1
-1;
#X obj 20 110 local.list id;
#X obj 263 110 local.list id;
#X obj 20 140 ui.dt;
#X obj 263 140 ui.dt;
#X obj 20 170 local.list.nonlocal;
#X connect 0 0 4 0;
#X connect 2 0 4 0;
#X connect 1 0 4 0;
#X connect 3 0 5 0;
#X connect 4 0 6 0;
#X connect 5 0 7 0;
