#N canvas 0 0 490 222 12;
#X floatatom 20 50 5 0 0 0 - - -;
#X msg 74 50 + 2 \, bang;
#X msg 209 50 * 3 \, bang;
#X msg 344 50 bang;
#X msg 101 95 - 3 \, bang;
#X msg 227 95 / 2 \, bang;
#X obj 20 155 local.float f1;
#X obj 344 155 local.float f1;
#X floatatom 20 185 5 0 0 0 - - -;
#X floatatom 344 185 5 0 0 0 - - -;
#X connect 0 0 6 0;
#X connect 1 0 6 0;
#X connect 4 0 6 0;
#X connect 2 0 6 0;
#X connect 5 0 6 0;
#X connect 3 0 7 0;
#X connect 6 0 8 0;
#X connect 7 0 9 0;
