#N canvas 0 0 477 153 12;
#X msg 20 44 (1 2 3 (a b c)) \, bang;
#X msg 244 44 bang;
#X obj 20 68 ml;
#X obj 244 68 local.mlist l1;
#X obj 20 92 local.mlist l1;
#X obj 244 92 ui.display @display_type 1;
#X obj 20 116 ui.display @display_type 1;
#X connect 0 0 2 0;
#X connect 1 0 3 0;
#X connect 2 0 4 0;
#X connect 3 0 5 0;
#X connect 4 0 6 0;
