#N canvas 0 0 411 207 12;
#X msg 20 50 [a: abc bpm: 100] \, bang;
#X msg 272 50 bang;
#X obj 272 80 local.dict d1;
#X obj 20 110 local.dict d1;
#X obj 272 110 ui.dt;
#X obj 20 140 ui.dt;
#X obj 20 170 local.dict.subpatch;
#X connect 1 0 2 0;
#X connect 0 0 3 0;
#X connect 2 0 4 0;
#X connect 3 0 5 0;
