#N canvas 0 0 477 357 12;
#X msg 20 50 bang;
#X obj 20 80 plot.linspace~ -3 3;
#X obj 20 110 math.erf~;
#X obj 20 140 ui.plot~ @xlabels 1 @ylabels 1 @size 400 160 @xmin_grid
1;
#X obj 20 320 ui.dsp~;
#X connect 0 0 1 0;
#X connect 1 0 2 0;
#X connect 2 0 3 0;
#X connect 1 1 3 1;
