#N canvas 0 0 228 249 12;
#X obj 20 44 ui.slider2d @show_grid 1 @size 100 100;
#X obj 20 140 unpack f f;
#X obj 20 164 sig~;
#X obj 76 164 sig~;
#X obj 20 188 math.cabs~;
#X obj 132 188 ui.dsp~;
#X obj 20 212 ui.n~;
#X connect 0 0 1 0;
#X connect 1 0 2 0;
#X connect 1 1 3 0;
#X connect 2 0 4 0;
#X connect 3 0 4 1;
#X connect 4 0 6 0;
