#N canvas 0 0 453 175 12;
#X obj 20 50 tgl 15 0 empty empty empty 17 7 0 10 -262144 -1 -1 0 1;
#X obj 74 50 tgl 15 0 empty empty empty 17 7 0 10 -262144 -1 -1 0 1;
#X text 128 50 same as:;
#X obj 245 50 tgl 15 0 empty empty empty 17 7 0 10 -262144 -1 -1 0 1;
#X obj 290 50 tgl 15 0 empty empty empty 17 7 0 10 -262144 -1 -1 0 1;
#X text 362 50 0 0 | 0;
#X obj 290 80 t b f;
#X text 362 80 0 1 | 1;
#X obj 20 110 ||';
#X obj 245 110 ||;
#X text 362 110 1 0 | 1;
#X obj 20 140 tgl 15 0 empty empty empty 17 7 0 10 -262144 -1 -1 0 1;
#X obj 245 140 tgl 15 0 empty empty empty 17 7 0 10 -262144 -1 -1 0 1;
#X text 362 140 1 1 | 1;
#X connect 4 0 6 0;
#X connect 0 0 8 0;
#X connect 1 0 8 1;
#X connect 3 0 9 0;
#X connect 6 0 9 0;
#X connect 6 1 9 1;
#X connect 8 0 11 0;
#X connect 9 0 12 0;
