#N canvas 0 0 219 175 12;
#X obj 20 50 tgl 15 0 empty empty empty 17 7 0 10 -262144 -1 -1 0 1;
#X obj 74 50 tgl 15 0 empty empty empty 17 7 0 10 -262144 -1 -1 0 1;
#X text 128 50 0 0 | 0;
#X text 128 80 0 1 | 1;
#X obj 20 110 ^';
#X text 128 110 1 0 | 1;
#X obj 20 140 tgl 15 0 empty empty empty 17 7 0 10 -262144 -1 -1 0 1;
#X text 128 140 1 1 | 0;
#X connect 0 0 4 0;
#X connect 1 0 4 1;
#X connect 4 0 6 0;
