#N canvas 0 0 147 237 12;
#X obj 20 50 osc~ 440;
#X obj 20 80 *~ 8;
#X obj 20 110 math.round~;
#X obj 20 140 /~ 32;
#X obj 92 140 tgl 15 0 empty empty empty 17 7 0 10 -262144 -1 -1 0 1;
#X obj 20 170 *~;
#X obj 20 200 dac~;
#X connect 0 0 1 0;
#X connect 1 0 2 0;
#X connect 2 0 3 0;
#X connect 3 0 5 0;
#X connect 4 0 5 1;
#X connect 5 0 6 0;
#X connect 5 0 6 1;
