#N canvas 0 0 340 333 12;
#X obj 20 44 bng 15 250 50 0 empty empty empty 17 7 0 10 -262144 -1
-1;
#X obj 20 68 plot.linspace~ -5 5 256;
#X obj 20 92 math.reciprocal~;
#X obj 20 116 ui.plot~ @ymin -20 @ymax 20 @xlabels 1;
#X obj 20 296 ui.dsp~;
#X connect 0 0 1 0;
#X connect 1 0 2 0;
#X connect 2 0 3 0;
#X connect 1 1 3 1;
