#N canvas 0 0 621 372 12;
#X msg 20 50 bang;
#X obj 20 80 plot.linspace~ -4 8 400;
#X obj 20 110 math.gamma~;
#X obj 20 140 ui.plot~ @xlabels 1 @ylabels 1 @ymin -20 @ymax 40 @size
400 170 @ymin_ticks 0;
#X obj 20 335 ui.dsp~;
#X connect 0 0 1 0;
#X connect 1 0 2 0;
#X connect 2 0 3 0;
#X connect 1 1 3 1;
