#N canvas 0 0 323 265 12;
#X obj 20 50 hslider 128 15 0.0 127.0 0 0 empty empty empty 17 7 0 10
-262144 -1 -1 0 0;
#X obj 20 80 > 50;
#X obj 92 80 hslider 128 15 0.0 127.0 0 0 empty empty empty 17 7 0 10
-262144 -1 -1 0 0;
#X obj 92 110 > 50;
#X obj 155 110 hslider 128 15 0.0 127.0 0 0 empty empty empty 17 7 0
10 -262144 -1 -1 0 0;
#X obj 155 140 < 50;
#X msg 218 140 reset;
#X obj 20 170 math.and 3 @sync;
#X floatatom 20 200 5 0 0 0 - - -;
#X obj 20 230 bng 15 250 50 0 empty empty empty 17 7 0 10 -262144 -1
-1;
#X connect 0 0 1 0;
#X connect 2 0 3 0;
#X connect 4 0 5 0;
#X connect 1 0 7 0;
#X connect 3 0 7 1;
#X connect 5 0 7 2;
#X connect 6 0 7 0;
#X connect 7 0 8 0;
#X connect 8 0 9 0;
