#N canvas 0 0 371 282 12;
#X floatatom 20 50 5 0 0 0 - - -;
#X floatatom 74 50 5 0 0 0 - - -;
#X text 128 50 same as:;
#X floatatom 245 50 5 0 0 0 - - -;
#X floatatom 290 50 5 0 0 0 - - -;
#X obj 290 80 t b f;
#X obj 20 110 %';
#X obj 245 110 mod;
#X floatatom 20 140 5 0 0 0 - - -;
#X floatatom 245 140 5 0 0 0 - - -;
#X floatatom 20 170 5 0 0 0 - - -;
#X floatatom 83 170 5 0 0 0 - - -;
#X obj 20 215 math.%' @int;
#X floatatom 20 245 5 0 0 0 - - -;
#X connect 4 0 5 0;
#X connect 0 0 6 0;
#X connect 1 0 6 1;
#X connect 3 0 7 0;
#X connect 5 0 7 0;
#X connect 5 1 7 1;
#X connect 6 0 8 0;
#X connect 7 0 9 0;
#X connect 10 0 12 0;
#X connect 11 0 12 1;
#X connect 12 0 13 0;
