#N canvas 0 0 217 177 12;
#X floatatom 20 50 5 0 0 0 - - -;
#X floatatom 65 50 5 0 0 0 - - -;
#X obj 20 80 flow.sync 2;
#X msg 146 80 3 5;
#X obj 20 110 math.lcm 12;
#X floatatom 20 140 5 0 0 0 - - -;
#X connect 0 0 2 0;
#X connect 1 0 2 1;
#X connect 2 0 4 0;
#X connect 2 1 4 1;
#X connect 3 0 4 0;
#X connect 4 0 5 0;
