#N canvas 0 0 183 177 12;
#X floatatom 20 50 5 0 0 0 - - -;
#X msg 83 50 1 2 d b;
#X obj 20 80 math.acos;
#X obj 20 110 msg set;
#X msg 20 140 ;
#X connect 0 0 2 0;
#X connect 1 0 2 0;
#X connect 2 0 3 0;
#X connect 3 0 4 0;
