#N canvas 0 0 542 432 12;
#X obj 20 50 bng 15 250 50 0 empty empty empty 17 7 0 10 -262144 -1
-1;
#X obj 20 80 plot.linspace~ -3 3, f 50;
#X obj 245 110 *~ -1;
#X obj 20 140 math.cosh~;
#X obj 137 140 math.exp~;
#X obj 245 140 math.exp~;
#X obj 20 170 ui.plot~ @xlabels 1 @ylabels 1 @ymin 0 @ymax 20 @size
400 200 @n 3;
#X obj 20 395 ui.dsp~;
#X connect 0 0 1 0;
#X connect 1 0 2 0;
#X connect 1 0 3 0;
#X connect 1 0 4 0;
#X connect 2 0 5 0;
#X connect 3 0 6 0;
#X connect 4 0 6 1;
#X connect 5 0 6 2;
#X connect 1 1 6 3;
