#N canvas 0 0 341 237 12;
#X floatatom 20 44 5 0 0 0 - - -;
#X floatatom 68 44 5 0 0 0 - - -;
#X text 116 44 same as:;
#X floatatom 220 44 5 0 0 0 - - -;
#X floatatom 260 44 5 0 0 0 - - -;
#X obj 260 68 t b f;
#X obj 20 92 math.sync_div 2;
#X obj 220 92 / 2;
#X floatatom 20 116 5 0 0 0 - - -;
#X floatatom 220 116 5 0 0 0 - - -;
#X msg 20 140 3.1415 5.1;
#X msg 124 140 13 0;
#X obj 20 176 math.sync_div @int;
#X floatatom 20 200 5 0 0 0 - - -;
#X connect 4 0 5 0;
#X connect 0 0 6 0;
#X connect 1 0 6 1;
#X connect 3 0 7 0;
#X connect 5 0 7 0;
#X connect 5 1 7 1;
#X connect 6 0 8 0;
#X connect 7 0 9 0;
#X connect 10 0 12 0;
#X connect 11 0 12 0;
#X connect 12 0 13 0;
