#N canvas 0 0 506 402 12;
#X obj 20 50 bng 15 250 50 0 empty empty empty 17 7 0 10 -262144 -1
-1;
#X obj 20 80 plot.linspace~ -4 30;
#X obj 20 110 math.log~;
#X obj 20 140 ui.plot~ @xlabels 1 @ylabels 1 @ymin -5 @ymax 5 @size
400 200;
#X obj 20 365 ui.dsp~;
#X connect 0 0 1 0;
#X connect 1 0 2 0;
#X connect 2 0 3 0;
#X connect 1 1 3 1;
