#N canvas 0 0 296 177 12;
#X floatatom 20 50 5 0 0 0 - - -;
#X msg 65 50 1 2 3 4 5;
#X floatatom 218 50 5 0 0 0 - - -;
#X obj 20 80 1/x;
#X msg 218 80 1 \$1;
#X obj 20 110 ui.dt;
#X obj 218 110 /;
#X floatatom 218 140 5 0 0 0 - - -;
#X connect 0 0 3 0;
#X connect 1 0 3 0;
#X connect 2 0 4 0;
#X connect 3 0 5 0;
#X connect 4 0 6 0;
#X connect 6 0 7 0;
