#N canvas 0 0 359 207 12;
#X floatatom 20 50 5 0 0 0 - - -;
#X floatatom 83 50 5 0 0 0 - - -;
#X floatatom 146 50 5 0 0 0 - - -;
#X floatatom 209 50 5 0 0 0 - - -;
#X obj 20 80 sig~;
#X obj 83 80 sig~;
#X obj 146 80 sig~;
#X obj 209 80 sig~;
#X obj 20 140 math.cdiv~;
#X obj 263 140 ui.dsp~;
#X obj 20 170 ui.n~;
#X obj 128 170 ui.n~;
#X connect 0 0 4 0;
#X connect 1 0 5 0;
#X connect 2 0 6 0;
#X connect 3 0 7 0;
#X connect 4 0 8 0;
#X connect 5 0 8 1;
#X connect 6 0 8 2;
#X connect 7 0 8 3;
#X connect 8 0 10 0;
#X connect 8 1 11 0;
