#N canvas 0 0 558 222 12;
#X obj 20 50 sig~ 0.25;
#X obj 128 50 sig~ 0.5;
#X obj 245 50 ui.matrix @size 37 69 @cols 2 @rows 4;
#X obj 20 110 matrix~ 2 4;
#X obj 20 155 env~;
#X obj 83 155 env~;
#X obj 155 155 env~;
#X obj 227 155 env~;
#X obj 290 155 ui.dsp~;
#X floatatom 20 185 5 0 0 0 - - -;
#X floatatom 83 185 5 0 0 0 - - -;
#X floatatom 155 185 5 0 0 0 - - -;
#X floatatom 227 185 5 0 0 0 - - -;
#X connect 0 0 3 0;
#X connect 1 0 3 1;
#X connect 2 0 3 0;
#X connect 3 0 4 0;
#X connect 3 1 5 0;
#X connect 3 2 6 0;
#X connect 3 3 7 0;
#X connect 4 0 9 0;
#X connect 5 0 10 0;
#X connect 6 0 11 0;
#X connect 7 0 12 0;
