#N canvas 0 0 371 237 12;
#X obj 20 50 tgl 15 0 empty empty empty 17 7 0 10 -262144 -1 -1 0 1;
#X listbox 191 50 20 0 0 0 - - -;
#X obj 20 80 metro.choice 100 200;
#X obj 20 110 click~;
#X obj 20 140 flt.resonbp~ 1000 40;
#X obj 227 140 ui.dsp~;
#X obj 20 170 ui.hgain~;
#X obj 20 200 dac~;
#X connect 0 0 2 0;
#X connect 1 0 2 1;
#X connect 2 0 3 0;
#X connect 3 0 4 0;
#X connect 4 0 6 0;
#X connect 6 0 7 0;
#X connect 6 0 7 1;
