#N canvas 0 0 332 267 12;
#X msg 20 50 @pattern 100 290 110 70;
#X obj 38 80 tgl 15 0 empty empty empty 17 7 0 10 -262144 -1 -1 0 1;
#X msg 92 80 @pattern 500 150;
#X obj 20 110 metro.pattern 268 200;
#X obj 20 140 click~;
#X obj 200 140 is_bang;
#X obj 20 170 flt.resonbp~ 1600;
#X obj 254 170 bng 15 250 50 0 empty empty empty 17 7 0 10 -262144 -1
-1;
#X obj 20 200 ui.gain~ @size 120 16;
#X obj 236 200 ui.dsp~;
#X obj 20 230 dac~;
#X connect 0 0 3 0;
#X connect 1 0 3 0;
#X connect 2 0 3 0;
#X connect 3 0 4 0;
#X connect 3 1 5 0;
#X connect 4 0 6 0;
#X connect 5 1 7 0;
#X connect 6 0 8 0;
#X connect 8 0 10 0;
#X connect 8 0 10 1;
