#N canvas 0 0 452 237 12;
#X obj 20 50 tgl 15 0 empty empty empty 17 7 0 10 -262144 -1 -1 0 1;
#X listbox 119 50 20 0 0 0 - - -;
#X listbox 272 50 20 0 0 0 - - -;
#X obj 20 80 metro.wchoice 100 20% 200 80%;
#X obj 20 110 click~;
#X obj 20 140 flt.resonbp~ 1000 40;
#X obj 227 140 ui.dsp~;
#X obj 20 170 ui.hgain~;
#X obj 20 200 dac~;
#X connect 0 0 3 0;
#X connect 1 0 3 1;
#X connect 2 0 3 2;
#X connect 3 0 4 0;
#X connect 4 0 5 0;
#X connect 5 0 7 0;
#X connect 7 0 8 0;
#X connect 7 0 8 1;
