#N canvas 0 0 323 267 12;
#X obj 20 50 tgl 15 0 empty empty empty 17 7 0 10 -262144 -1 -1 0 1;
#X obj 65 50 ui.rsl @min 50 @max 1000;
#X obj 20 110 metro.random 100 140;
#X obj 20 140 click~;
#X obj 20 170 flt.resonbp~ 1000 20;
#X obj 227 170 ui.dsp~;
#X obj 20 200 ui.hgain~;
#X obj 20 230 dac~;
#X connect 0 0 2 0;
#X connect 1 0 2 1;
#X connect 2 0 3 0;
#X connect 3 0 4 0;
#X connect 4 0 6 0;
#X connect 6 0 7 0;
#X connect 6 0 7 1;
