#N canvas 0 0 359 357 12;
#X obj 20 50 tgl 15 0 empty empty empty 17 7 0 10 -262144 -1 -1 0 1;
#X obj 173 50 ui.keyboard;
#X obj 20 80 metro 100;
#X obj 20 110 random.i 40 80;
#X obj 20 140 makenote 120 95;
#X obj 20 170 pack f f;
#X msg 128 170 dump;
#X obj 20 200 note.pass white($N) && $N>=60;
#X obj 20 230 msg note;
#X obj 20 260 sfizz~ \#tri @volume 6;
#X obj 263 260 ui.dsp~;
#X obj 20 290 ui.hgain2~;
#X obj 20 320 dac~;
#X connect 0 0 2 0;
#X connect 2 0 3 0;
#X connect 3 0 4 0;
#X connect 1 0 4 0;
#X connect 4 0 5 0;
#X connect 4 1 5 1;
#X connect 5 0 7 0;
#X connect 6 0 7 0;
#X connect 7 0 8 0;
#X connect 8 0 9 0;
#X connect 9 0 11 0;
#X connect 9 1 11 1;
#X connect 11 0 12 0;
#X connect 11 1 12 1;
