#N canvas 0 0 365 312 12;
#X obj 20 50 ui.keyboard;
#X msg 281 125 reset;
#X obj 20 155 midi.vramp 30 127 12 @auto 1;
#X obj 20 185 msg note;
#X obj 20 215 fluid~ sf2/VintageDreamsWaves-v2.sf2;
#X obj 20 245 ui.hgain2~;
#X obj 173 245 ui.dsp~;
#X obj 20 275 dac~;
#X connect 0 0 2 0;
#X connect 1 0 2 0;
#X connect 2 0 3 0;
#X connect 3 0 4 0;
#X connect 4 0 5 0;
#X connect 4 1 5 1;
#X connect 5 0 7 0;
#X connect 5 1 7 1;
