#N canvas 0 0 261 327 12;
#X obj 20 50 bng 15 250 50 0 empty empty empty 17 7 0 10 -262144 -1
-1;
#X obj 20 80 openpanel;
#X msg 20 110 read \$1 \, bang;
#X obj 20 140 midi.file;
#X msg 47 170 play;
#X msg 110 170 stop;
#X obj 20 200 midi.track @join @speed 0.7;
#X obj 20 230 midi.ev->ctl;
#X obj 20 260 msg set;
#X msg 20 290 ;
#X connect 0 0 1 0;
#X connect 1 0 2 0;
#X connect 2 0 3 0;
#X connect 3 0 6 0;
#X connect 4 0 6 0;
#X connect 5 0 6 0;
#X connect 6 0 7 0;
#X connect 7 0 8 0;
#X connect 8 0 9 0;
