#N canvas 0 0 311 177 12;
#X floatatom 20 50 5 0 0 0 - - -;
#X floatatom 101 50 5 0 0 0 - - -;
#X msg 20 80 @cc \$1;
#X msg 101 80 @curve \$1;
#X obj 20 110 midi.cc 10 @min 0 @max 1 @curve -2;
#X obj 20 140 ui.hsl;
#X connect 0 0 2 0;
#X connect 1 0 3 0;
#X connect 2 0 4 0;
#X connect 3 0 4 0;
#X connect 4 0 5 0;
