#N canvas 0 0 491 177 12;
#X msg 20 50 1;
#X msg 65 50 9;
#X floatatom 20 80 5 0 0 0 - - -;
#X obj 20 110 midi.prg->str @symbol;
#X obj 236 110 midi.prg->str @symbol @family;
#X obj 20 140 ui.dt;
#X obj 236 140 ui.dt;
#X connect 0 0 2 0;
#X connect 1 0 2 0;
#X connect 2 0 3 0;
#X connect 2 0 4 0;
#X connect 3 0 5 0;
#X connect 4 0 6 0;
