#N canvas 0 0 244 207 12;
#X msg 20 50 0;
#X msg 56 50 4;
#X msg 92 50 7;
#X msg 128 50 64;
#X msg 173 50 120;
#X floatatom 20 80 5 0 0 0 - - -;
#X obj 20 110 midi.ctl->str @symbol;
#X obj 20 140 msg set;
#X msg 20 170 ;
#X connect 0 0 5 0;
#X connect 1 0 5 0;
#X connect 2 0 5 0;
#X connect 3 0 5 0;
#X connect 4 0 5 0;
#X connect 5 0 6 0;
#X connect 6 0 7 0;
#X connect 7 0 8 0;
