#N canvas 0 0 637 297 12;
#X obj 20 50 tgl 15 0 empty empty empty 17 7 0 10 -262144 -1 -1 0 1;
#X obj 20 80 metro 350;
#X obj 137 80 ui.tab uniform gauss linup lindown cmin cmax cmean @size
400 15;
#X msg 20 110 60 20 300;
#X msg 137 110 @dist \$2;
#X obj 245 110 ui.tab assign add sub;
#X msg 245 140 @mode \$2;
#X obj 20 170 midi.vrand 60 90;
#X obj 47 200 ui.dt;
#X obj 20 230 makenote;
#X obj 20 260 midiout;
#X connect 0 0 1 0;
#X connect 1 0 3 0;
#X connect 2 0 4 0;
#X connect 5 0 6 0;
#X connect 3 0 7 0;
#X connect 4 0 7 0;
#X connect 6 0 7 0;
#X connect 7 0 8 0;
#X connect 7 0 9 0;
#X connect 9 0 10 0;
#X connect 9 1 10 1;
