#N canvas 0 0 489 267 12;
#X msg 20 50 symbol stargazing.mod;
#X obj 245 50 tgl 15 0 empty empty empty 17 7 0 10 -262144 -1 -1 0 1;
#X msg 38 80 play;
#X msg 101 80 pause;
#X msg 173 80 stop;
#X obj 245 80 metro 100;
#X msg 245 110 @rpos?;
#X obj 20 140 modplug~ @done on_done;
#X obj 20 170 ~->;
#X obj 317 170 function on_done;
#X obj 20 200 ui.gain2~ @size 120 16;
#X obj 281 200 route @rpos;
#X obj 434 200 tgl 15 0 empty empty empty 17 7 0 10 -262144 -1 -1 0 1;
#X obj 20 230 dac~;
#X obj 92 230 ui.dsp~;
#X floatatom 281 230 5 0 0 0 - - -;
#X connect 1 0 5 0;
#X connect 5 0 6 0;
#X connect 0 0 7 0;
#X connect 2 0 7 0;
#X connect 3 0 7 0;
#X connect 4 0 7 0;
#X connect 6 0 7 0;
#X connect 7 0 8 0;
#X connect 8 0 10 0;
#X connect 8 1 11 0;
#X connect 9 1 12 0;
#X connect 10 0 13 0;
#X connect 10 1 13 1;
#X connect 11 0 15 0;
#X connect 7 1 10 1;
