#N canvas 0 0 332 237 12;
#X msg 128 50 1;
#X obj 20 80 osc~ 500;
#X obj 128 80 msg.after 500 0;
#X msg 128 110 @gate \$1;
#X obj 20 140 env.adsr~ 20 100 30 500;
#X obj 20 170 ui.gain~ @size 120 14;
#X obj 236 170 ui.dsp~;
#X obj 20 200 dac~;
#X connect 0 0 2 0;
#X connect 2 0 3 0;
#X connect 1 0 4 0;
#X connect 3 0 4 0;
#X connect 4 0 5 0;
#X connect 5 0 7 0;
#X connect 5 0 7 1;
