#N canvas 0 0 304 357 12;
#X obj 20 50 ui.hrd 4;
#X floatatom 182 50 5 0 0 0 - - -;
#X msg 20 80 @universe \$1;
#X msg 182 80 @offset \$1;
#X obj 29 110 ui.colorpanel @matrix 16 8;
#X obj 29 230 route @rgb;
#X obj 29 260 math.* 255;
#X obj 29 290 msg dmx;
#X msg 119 290 poll;
#X msg 182 290 dmx_fill 0;
#X obj 20 320 net.artnet.send;
#X connect 0 0 2 0;
#X connect 1 0 3 0;
#X connect 4 0 5 0;
#X connect 5 0 6 0;
#X connect 6 0 7 0;
#X connect 7 0 10 0;
#X connect 8 0 10 0;
#X connect 9 0 10 0;
#X connect 2 0 10 0;
#X connect 3 0 10 0;
