#N canvas 0 0 527 282 12;
#X obj 20 50 ui.dsp~;
#X obj 20 95 noise.white~;
#X obj 20 125 ui.gain~ @size 120 16;
#X obj 236 125 ui.ssc~ @size 300 120 @log_scale 1;
#X obj 20 215 dac~;
#X obj 20 245 ui.dsp~;
#X connect 1 0 2 0;
#X connect 1 0 3 0;
#X connect 2 0 4 0;
#X connect 2 0 4 1;
