#N canvas 0 0 322 321 12;
#X obj 20 56 tgl 15 0 empty empty empty 17 7 0 10 -262144 -1 -1 0 1;
#X obj 20 80 metro 50;
#X obj 36 116 tgl 15 0 empty empty empty 17 7 0 10 -262144 -1 -1 0 1;
#X floatatom 132 116 5 0 0 0 - - -;
#X msg 36 140 om \$1;
#X msg 132 140 set \$1;
#X floatatom 28 164 5 0 0 0 - - -;
#X floatatom 140 164 5 0 0 0 - - -;
#X msg 28 188 e \$1;
#X msg 140 188 dt \$1;
#X floatatom 52 212 5 0 0 0 - - -;
#X floatatom 132 212 5 0 0 0 - - -;
#X floatatom 212 212 5 0 0 0 - - -;
#X msg 52 236 x \$1;
#X msg 132 236 y \$1;
#X msg 212 236 y' \$1;
#X obj 20 260 noise.henon_heilles;
#X obj 20 284 ui.display;
#X obj 204 284 ui.display;
#X connect 0 0 1 0;
#X connect 2 0 4 0;
#X connect 3 0 5 0;
#X connect 6 0 8 0;
#X connect 7 0 9 0;
#X connect 10 0 13 0;
#X connect 11 0 14 0;
#X connect 12 0 15 0;
#X connect 16 0 17 0;
#X connect 16 0 18 0;
#X connect 8 0 16 0;
#X connect 9 0 16 0;
#X connect 13 0 16 0;
#X connect 14 0 16 0;
#X connect 15 0 16 0;
#X connect 4 0 16 0;
#X connect 5 0 16 0;
#X connect 1 0 16 0;
