#N canvas 0 0 412 297 12;
#X obj 20 50 tgl 15 0 empty empty empty 17 7 0 10 -262144 -1 -1 0 1;
#X obj 20 80 metro 50;
#X obj 38 110 tgl 15 0 empty empty empty 17 7 0 10 -262144 -1 -1 0 1;
#X floatatom 146 110 5 0 0 0 - - -;
#X msg 38 140 om \$1;
#X msg 146 140 set \$1;
#X msg 272 140 reset;
#X floatatom 56 170 5 0 0 0 - - -;
#X floatatom 146 170 5 0 0 0 - - -;
#X floatatom 236 170 5 0 0 0 - - -;
#X floatatom 326 170 5 0 0 0 - - -;
#X msg 56 200 a \$1;
#X msg 146 200 b \$1;
#X msg 236 200 w \$1;
#X msg 326 200 dt \$1;
#X obj 20 230 noise.duffing;
#X obj 20 260 ui.display;
#X connect 0 0 1 0;
#X connect 2 0 4 0;
#X connect 3 0 5 0;
#X connect 7 0 11 0;
#X connect 8 0 12 0;
#X connect 9 0 13 0;
#X connect 10 0 14 0;
#X connect 15 0 16 0;
#X connect 11 0 15 0;
#X connect 12 0 15 0;
#X connect 13 0 15 0;
#X connect 14 0 15 0;
#X connect 4 0 15 0;
#X connect 5 0 15 0;
#X connect 6 0 15 0;
#X connect 1 0 15 0;
