#N canvas 0 0 527 357 12;
#X obj 20 50 ui.k -1 1 @show_value 1;
#X obj 38 110 ui.tab brown pink white blue velvet @size 200 16;
#X msg 38 140 \$2;
#X obj 20 170 noise.colored~;
#X obj 20 200 ui.gain~ @size 120 16;
#X obj 236 200 ui.ssc~ @size 300 120 @log_scale 1;
#X obj 20 290 dac~;
#X obj 20 320 ui.dsp~;
#X connect 1 0 2 0;
#X connect 0 0 3 0;
#X connect 2 0 3 0;
#X connect 3 0 4 0;
#X connect 3 0 5 0;
#X connect 4 0 6 0;
#X connect 4 0 6 1;
