#N canvas 0 0 360 285 12;
#X msg 20 44 @freq 200;
#X msg 116 44 @freq 2000;
#X obj 20 68 noise.lfreq0~ 400;
#X obj 44 92 ui.gain~ @size 120 16;
#X obj 44 116 dac~;
#X obj 20 152 ui.scope~ @size 300 100;
#X obj 20 248 ui.dsp~;
#X connect 0 0 2 0;
#X connect 1 0 2 0;
#X connect 2 0 3 0;
#X connect 3 0 4 0;
#X connect 2 0 5 0;
