#N canvas 0 0 1109 447 12;
#X obj 20 65 tgl 15 0 empty empty empty 17 7 0 10 -262144 -1 -1 0 1;
#X obj 20 95 metro 50;
#X obj 344 110 ui.slider, f 100;
#X obj 560 110 ui.slider;
#X obj 47 245 bng 15 250 50 0 empty empty empty 17 7 0 10 -262144 -1
-1;
#X msg 200 245 reset;
#X msg 344 245 set \$1;
#X msg 560 245 seed \$1;
#X obj 362 275 tgl 15 0 empty empty empty 17 7 0 10 -262144 -1 -1 0 1;
#X obj 596 275 tgl 15 0 empty empty empty 17 7 0 10 -262144 -1 -1 0 1;
#X msg 362 305 fold_cut \$1;
#X msg 596 305 om \$1;
#X floatatom 74 320 5 0 0 0 - - -;
#X floatatom 227 320 5 0 0 0 - - -;
#X msg 74 350 cut \$1;
#X msg 227 350 fold \$1;
#X obj 20 380 noise.baker 0.85;
#X obj 20 410 ui.display;
#X connect 0 0 1 0;
#X connect 2 0 6 0;
#X connect 3 0 7 0;
#X connect 8 0 10 0;
#X connect 9 0 11 0;
#X connect 12 0 14 0;
#X connect 13 0 15 0;
#X connect 1 0 16 0;
#X connect 4 0 16 0;
#X connect 14 0 16 0;
#X connect 5 0 16 0;
#X connect 15 0 16 0;
#X connect 6 0 16 0;
#X connect 10 0 16 0;
#X connect 7 0 16 0;
#X connect 11 0 16 0;
#X connect 16 0 17 0;
