#N canvas 0 0 360 342 12;
#X msg 20 50 @freq 5000;
#X msg 137 50 @freq 2000;
#X obj 20 80 noise.lfreq~ 1000;
#X obj 47 110 ui.gain~ @size 120 16;
#X obj 47 140 dac~;
#X obj 20 185 ui.scope~ @size 300 100;
#X obj 20 305 ui.dsp~;
#X connect 0 0 2 0;
#X connect 1 0 2 0;
#X connect 2 0 3 0;
#X connect 3 0 4 0;
#X connect 2 0 5 0;
