#N canvas 0 0 328 309 12;
#X obj 20 44 tgl 15 0 empty empty empty 17 7 0 10 -262144 -1 -1 0 1;
#X obj 20 68 metro 50;
#X obj 36 104 tgl 15 0 empty empty empty 17 7 0 10 -262144 -1 -1 0 1;
#X floatatom 132 104 5 0 0 0 - - -;
#X msg 36 128 om \$1;
#X msg 132 128 set \$1;
#X msg 244 128 reset;
#X floatatom 28 152 5 0 0 0 - - -;
#X msg 28 176 seed \$1;
#X floatatom 84 200 5 0 0 0 - - -;
#X floatatom 164 200 5 0 0 0 - - -;
#X floatatom 244 200 5 0 0 0 - - -;
#X msg 84 224 x \$1;
#X msg 164 224 y \$1;
#X msg 244 224 z \$1;
#X obj 20 248 noise.ginger 0.82 0.7 1.2;
#X obj 20 272 ui.display;
#X obj 204 272 ui.display;
#X connect 0 0 1 0;
#X connect 2 0 4 0;
#X connect 3 0 5 0;
#X connect 7 0 8 0;
#X connect 9 0 12 0;
#X connect 10 0 13 0;
#X connect 11 0 14 0;
#X connect 15 0 16 0;
#X connect 15 0 17 0;
#X connect 8 0 15 0;
#X connect 12 0 15 0;
#X connect 13 0 15 0;
#X connect 14 0 15 0;
#X connect 4 0 15 0;
#X connect 5 0 15 0;
#X connect 6 0 15 0;
#X connect 1 0 15 0;
