#N canvas 0 0 527 297 12;
#X obj 20 50 ui.k -1 1 @show_value 1;
#X obj 20 110 noise.colored~;
#X obj 20 140 ui.gain~ @size 120 16;
#X obj 236 140 ui.ssc~ @size 300 120 @log_scale 1;
#X obj 20 230 dac~;
#X obj 20 260 ui.dsp~;
#X connect 0 0 1 0;
#X connect 1 0 2 0;
#X connect 1 0 3 0;
#X connect 2 0 4 0;
#X connect 2 0 4 1;
