#N canvas 0 0 309 312 12;
#X obj 20 50 tgl 15 0 empty empty empty 17 7 0 10 -262144 -1 -1 0 1;
#X obj 20 80 metro 50;
#X obj 38 110 tgl 15 0 empty empty empty 17 7 0 10 -262144 -1 -1 0 1;
#X msg 38 140 om \$1;
#X floatatom 29 170 5 0 0 0 - - -;
#X obj 209 170 tgl 15 0 empty empty empty 17 7 0 10 -262144 -1 -1 0 1;
#X msg 29 200 offset \$1;
#X msg 209 200 mode \$1;
#X obj 20 245 noise.collatz;
#X obj 20 275 ui.display;
#X connect 0 0 1 0;
#X connect 2 0 3 0;
#X connect 4 0 6 0;
#X connect 5 0 7 0;
#X connect 8 0 9 0;
#X connect 3 0 8 0;
#X connect 6 0 8 0;
#X connect 7 0 8 0;
#X connect 1 0 8 0;
