#N canvas 0 0 430 220 12;
#X obj 20 50 bng 15 250 50 0 empty empty empty 17 7 0 10 -262144 -1
-1;
#X obj 20 80 obj.props;
#X obj 20 110 ui.dt;
#X obj 290 110 flt.moog_vcf~;
#X text 20 185 ...;
#X connect 0 0 1 0;
#X connect 1 0 2 0;
#X connect 1 1 3 0;
