#N canvas 0 0 282 320 12;
#X floatatom 20 50 5 0 0 0 - - -;
#X obj 101 50 ui.dsp~;
#X msg 20 80 \$1 50;
#X obj 20 110 line~;
#X msg 101 110 bang;
#X obj 20 140 osc.saw~;
#X obj 20 170 ui.gain~ @size 120 14;
#X obj 20 200 dac~;
#X obj 92 200 ui.spectroscope~ @size 150 100;
#X connect 0 0 2 0;
#X connect 2 0 3 0;
#X connect 3 0 5 0;
#X connect 4 0 5 1;
#X connect 5 0 6 0;
#X connect 6 0 7 0;
#X connect 6 0 7 1;
#X connect 6 0 8 0;
