#N canvas 0 0 217 207 12;
#X floatatom 20 50 5 0 0 0 - - -;
#X obj 20 80 osc.impulse~ 20;
#X obj 20 110 ui.gain~ @size 120 16;
#X obj 20 140 dac~;
#X obj 20 170 ui.dsp~;
#X connect 0 0 1 0;
#X connect 1 0 2 0;
#X connect 2 0 3 0;
#X connect 2 0 3 1;
