#N canvas 0 0 305 320 12;
#X floatatom 20 50 5 0 0 0 - - -;
#X obj 101 50 ui.knob;
#X obj 209 50 ui.dsp~;
#X msg 101 110 @duty \$1;
#X obj 20 140 osc.pulse~ 220 0.5;
#X obj 20 170 ui.gain~ @size 120 14;
#X obj 20 200 dac~;
#X obj 83 200 ui.scope~ @size 150 100;
#X connect 1 0 3 0;
#X connect 0 0 4 0;
#X connect 3 0 4 0;
#X connect 4 0 5 0;
#X connect 5 0 6 0;
#X connect 5 0 6 1;
#X connect 5 0 7 0;
