#N canvas 0 0 332 177 12;
#X floatatom 20 50 5 0 0 0 - - -;
#X obj 20 80 osc.sin~ 440;
#X obj 20 110 ui.gain~ @size 120 16;
#X obj 236 110 ui.dsp~;
#X obj 20 140 dac~;
#X connect 0 0 1 0;
#X connect 1 0 2 0;
#X connect 2 0 4 0;
#X connect 2 0 4 1;
