#N canvas 0 0 350 272 12;
#X floatatom 20 44 10 0 0 0 - - -;
#X floatatom 156 44 5 0 0 0 - - -;
#X msg 212 44 3;
#X msg 252 44 6;
#X msg 284 44 0;
#X obj 20 68 sig~;
#X msg 156 68 @harmonics \$1;
#X obj 20 104 osc.blit~ 2000 4;
#X obj 20 152 ui.spectroscope~ @size 150 100;
#X obj 180 152 ui.dsp~;
#X connect 0 0 5 0;
#X connect 1 0 6 0;
#X connect 2 0 6 0;
#X connect 3 0 6 0;
#X connect 4 0 6 0;
#X connect 5 0 7 0;
#X connect 6 0 7 0;
#X connect 7 0 8 0;
