#N canvas 0 0 274 284 12;
#X floatatom 20 44 5 0 0 0 - - -;
#X obj 100 44 ui.dsp~;
#X msg 20 68 \$1 50;
#X obj 20 92 line~;
#X msg 116 92 bang;
#X obj 20 116 osc.tri~;
#X obj 20 140 ui.gain~ @size 120 14;
#X obj 20 164 dac~;
#X obj 84 164 ui.scope~ @size 150 100;
#X connect 0 0 2 0;
#X connect 2 0 3 0;
#X connect 3 0 5 0;
#X connect 4 0 5 1;
#X connect 5 0 6 0;
#X connect 6 0 7 0;
#X connect 6 0 7 1;
#X connect 6 0 8 0;
