#N canvas 0 0 292 237 12;
#X obj 110 50 hslider 128 15 0.0 127.0 0 0 empty empty empty 17 7 0 10
-262144 -1 -1 0 0;
#X obj 110 80 lin->lin 0 127 -1 1;
#X obj 20 110 sig~ 1;
#X floatatom 110 110 5 0 0 0 - - -;
#X obj 20 140 pan.lin~;
#X obj 20 170 env~;
#X obj 101 170 env~;
#X floatatom 20 200 5 0 0 0 - - -;
#X floatatom 101 200 5 0 0 0 - - -;
#X connect 0 0 1 0;
#X connect 1 0 3 0;
#X connect 2 0 4 0;
#X connect 3 0 4 1;
#X connect 4 0 5 0;
#X connect 4 1 6 0;
#X connect 5 0 7 0;
#X connect 6 0 8 0;
