#N canvas 0 0 453 447 12;
#X obj 20 50 tgl 15 0 empty empty empty 17 7 0 10 -262144 -1 -1 0 1;
#X obj 20 80 metro 160;
#X obj 20 110 flow.count;
#X obj 20 140 % 4;
#X obj 20 170 sel 0 1 2 3;
#X obj 20 200 click~;
#X obj 101 200 click~;
#X obj 182 200 click~;
#X obj 263 200 click~;
#X obj 263 230 flt.resonbp~ 1600 30;
#X obj 182 260 flt.resonbp~ 1200 40;
#X obj 101 290 flt.resonbp~ 800 40;
#X obj 20 320 flt.resonbp~ 500 60;
#X msg 218 350 @spread 0;
#X msg 326 350 @spread 1;
#X obj 20 380 pan.spread~ 4;
#X obj 20 410 dac~;
#X connect 0 0 1 0;
#X connect 1 0 2 0;
#X connect 2 0 3 0;
#X connect 3 0 4 0;
#X connect 4 0 5 0;
#X connect 4 1 6 0;
#X connect 4 2 7 0;
#X connect 4 3 8 0;
#X connect 8 0 9 0;
#X connect 7 0 10 0;
#X connect 6 0 11 0;
#X connect 5 0 12 0;
#X connect 13 0 15 0;
#X connect 14 0 15 0;
#X connect 15 0 16 0;
#X connect 15 1 16 1;
#X connect 12 0 15 0;
#X connect 11 0 15 1;
#X connect 10 0 15 2;
#X connect 9 0 15 3;
