#N canvas 0 0 426 297 12;
#X obj 20 50 prop.declare freq @min 20 @max 20000 @default 1000;
#X obj 20 80 prop.declare gain @min -60 @max 12 @default -3;
#X msg 20 110 @*?;
#X msg 74 110 @freq 100;
#X msg 182 110 @freq?;
#X msg 263 110 default;
#X obj 20 140 patch.props;
#X obj 20 170 ui.display @display_type 1;
#X floatatom 20 200 5 0 0 0 - - -;
#X floatatom 137 200 5 0 0 0 - - -;
#X obj 20 230 prop @freq;
#X obj 137 230 prop @gain;
#X floatatom 20 260 5 0 0 0 - - -;
#X floatatom 137 260 5 0 0 0 - - -;
#X connect 2 0 6 0;
#X connect 3 0 6 0;
#X connect 4 0 6 0;
#X connect 5 0 6 0;
#X connect 6 0 7 0;
#X connect 8 0 10 0;
#X connect 9 0 11 0;
#X connect 10 0 12 0;
#X connect 11 0 13 0;
