#N canvas 0 0 577 267 12;
#X msg 20 50 symbol loop_breakbeat.flac;
#X obj 416 50 path.search.std;
#X msg 20 80 symbol guitar1.wav;
#X obj 416 80 path.search.home;
#X symbolatom 47 110 30 0 0 0 - - -;
#X msg 74 140 @paths sound;
#X text 200 140 change search path;
#X obj 20 170 path.search;
#X msg 119 200 not found;
#X obj 20 230 ui.dt @size 500 35 @auto_size 0;
#X connect 2 0 7 0;
#X connect 4 0 7 0;
#X connect 5 0 7 0;
#X connect 7 1 8 0;
#X connect 7 0 9 0;
#X connect 8 0 9 0;
#X connect 0 0 7 0;
