#N canvas 0 0 399 177 12;
#X msg 200 50 store 0;
#X msg 299 50 store 1;
#X msg 119 80 load 0;
#X msg 218 80 load 1;
#X symbolatom 20 140 5 0 0 0 - - -;
#X obj 119 140 preset.symbol f1;
#X connect 2 0 5 0;
#X connect 0 0 5 0;
#X connect 3 0 5 0;
#X connect 1 0 5 0;
#X connect 4 0 5 0;
#X connect 5 0 4 0;
