#N canvas 0 0 459 237 12;
#X floatatom 20 50 5 0 0 0 - - -;
#X obj 74 50 preset.float id1;
#X floatatom 245 50 5 0 0 0 - - -;
#X obj 299 50 preset.float id2;
#X obj 20 80 ui.radio;
#X obj 182 80 ui.radio;
#X msg 20 110 load \$1;
#X msg 182 110 store \$1;
#X msg 281 110 @keys?;
#X obj 20 170 preset.storage;
#X obj 20 200 ui.dt;
#X connect 4 0 6 0;
#X connect 5 0 7 0;
#X connect 6 0 9 0;
#X connect 7 0 9 0;
#X connect 8 0 9 0;
#X connect 9 0 10 0;
#X connect 0 0 1 0;
#X connect 1 0 0 0;
#X connect 2 0 3 0;
#X connect 3 0 2 0;
