#N canvas 0 0 345 237 12;
#X msg 119 50 store 0;
#X msg 245 50 store 1;
#X msg 20 80 load 0;
#X msg 137 80 load 1;
#X msg 38 110 1 2 3;
#X msg 155 110 4 5 6;
#X obj 20 170 preset.list l1 1 2 3 4 5 6 7 8 9;
#X obj 20 200 ui.dt;
#X connect 2 0 6 0;
#X connect 4 0 6 0;
#X connect 0 0 6 0;
#X connect 3 0 6 0;
#X connect 5 0 6 0;
#X connect 1 0 6 0;
#X connect 6 0 7 0;
