#N canvas 0 0 395 320 12;
#X obj 20 50 osc~ 440;
#X msg 119 50 @db?;
#X msg 182 50 @size?;
#X msg 263 50 @amp?;
#X obj 20 80 ui.gain~ @size 160 16;
#X obj 299 80 ui.dsp~;
#X obj 20 110 prop~> @db;
#X obj 128 140 ui.display @display_type 1;
#X obj 56 170 ui.display @display_type 1;
#X obj 20 200 ui.scope~ @size 150 100;
#X connect 0 0 4 0;
#X connect 1 0 4 0;
#X connect 2 0 4 0;
#X connect 3 0 4 0;
#X connect 4 0 6 0;
#X connect 6 2 7 0;
#X connect 6 1 8 0;
#X connect 6 0 9 0;
