#N canvas 0 0 321 297 12;
#X obj 20 50 bng 15 250 50 0 empty empty empty 17 7 0 10 -262144 -1
-1;
#X obj 20 80 prop.random @feedback;
#X obj 38 110 sig~ 50;
#X floatatom 155 110 5 0 0 0 - - -;
#X obj 20 140 osc.sinfb~;
#X obj 155 140 ui.dsp~;
#X obj 20 170 ui.hgain~;
#X obj 20 200 dac~;
#X obj 20 230 prop.random.1;
#X obj 182 230 prop.random.2;
#X obj 20 260 prop.random.3;
#X connect 0 0 1 0;
#X connect 1 1 3 0;
#X connect 1 0 4 0;
#X connect 2 0 4 0;
#X connect 4 0 6 0;
#X connect 6 0 7 0;
#X connect 6 0 7 1;
