#N canvas 0 0 426 297 12;
#X obj 20 50 prop.declare freq @min 20 @max 20000 @default 1000;
#X obj 20 80 prop.declare gain @min -60 @max 12 @default -3;
#X floatatom 20 110 5 0 0 0 - - -;
#X obj 20 140 prop @freq;
#X obj 137 140 prop @gain;
#X floatatom 20 170 5 0 0 0 - - -;
#X floatatom 137 170 5 0 0 0 - - -;
#X msg 20 200 default;
#X obj 20 230 prop @freq;
#X floatatom 20 260 5 0 0 0 - - -;
#X connect 2 0 3 0;
#X connect 3 0 5 0;
#X connect 4 0 6 0;
#X connect 7 0 8 0;
#X connect 8 0 9 0;
