#N canvas 0 0 449 237 12;
#X msg 20 50 play;
#X msg 137 50 playlist;
#X msg 281 50 next;
#X msg 371 50 prev;
#X msg 20 80 stop;
#X obj 137 80 bng 15 250 50 0 empty empty empty 17 7 0 10 -262144 -1
-1;
#X msg 281 80 browse file://;
#X obj 29 110 tgl 15 0 empty empty empty 17 7 0 10 -262144 -1 -1 0 1;
#X obj 137 110 openpanel;
#X symbolatom 281 110 10 0 0 0 - - -;
#X msg 20 140 pause;
#X msg 92 140 fs;
#X msg 137 140 add file://\$1;
#X msg 281 140 seek \$1;
#X obj 20 170 proto.vlc localhost @pass 12345;
#X obj 20 200 tgl 15 0 empty empty empty 17 7 0 10 -262144 -1 -1 0 1;
#X obj 227 200 print;
#X connect 5 0 8 0;
#X connect 7 0 10 0;
#X connect 8 0 12 0;
#X connect 9 0 13 0;
#X connect 10 0 14 0;
#X connect 11 0 14 0;
#X connect 12 0 14 0;
#X connect 13 0 14 0;
#X connect 14 0 15 0;
#X connect 14 1 16 0;
#X connect 0 0 14 0;
#X connect 4 0 14 0;
#X connect 1 0 14 0;
#X connect 2 0 14 0;
#X connect 3 0 14 0;
#X connect 6 0 14 0;
