#N canvas 0 0 503 237 12;
#X obj 20 50 midiin;
#X symbolatom 119 50 25 0 0 0 - - -;
#X obj 317 50 r oxt;
#X obj 317 80 route fader0;
#X obj 38 110 r ixt;
#X obj 119 110 sym->any;
#X obj 317 110 sync;
#X obj 407 110 ui.knob;
#X obj 20 140 proto.xtouch_ext;
#X obj 137 170 ui.dt;
#X msg 317 170 fader0 \$1;
#X obj 20 200 midiout;
#X obj 119 200 s oxt;
#X obj 317 200 s ixt;
#X connect 2 0 3 0;
#X connect 1 0 5 0;
#X connect 3 0 6 0;
#X connect 0 0 8 0;
#X connect 4 0 8 0;
#X connect 5 0 8 0;
#X connect 8 1 9 0;
#X connect 6 0 10 0;
#X connect 8 0 11 0;
#X connect 8 1 12 0;
#X connect 10 0 13 0;
#X connect 6 1 7 0;
#X connect 7 0 6 1;
