#N canvas 0 0 525 252 12;
#X obj 20 50 midiin;
#X symbolatom 110 50 16 0 0 0 - - -;
#X msg 236 50 cc 0 23 121;
#X msg 389 50 note 1 60 90;
#X obj 110 80 sym->any;
#X msg 236 80 start;
#X msg 389 80 sound_off;
#X obj 20 155 proto.midi;
#X obj 110 185 ui.dt;
#X obj 20 215 print MIDI;
#X connect 1 0 4 0;
#X connect 0 0 7 0;
#X connect 4 0 7 0;
#X connect 7 1 8 0;
#X connect 7 0 9 0;
#X connect 2 0 7 0;
#X connect 5 0 7 0;
#X connect 3 0 7 0;
#X connect 6 0 7 0;
