#N canvas 0 0 467 267 12;
#X obj 20 50 tgl 15 0 empty empty empty 17 7 0 10 -262144 -1 -1 0 1;
#X msg 56 50 date 83 1 11;
#X obj 209 50 ui.hsl 0.5 4;
#X obj 371 50 ui.dsp~;
#X msg 74 80 time 0 4 15;
#X msg 209 80 @speed \$1;
#X obj 20 110 ltc.out~;
#X obj 101 140 tgl 15 0 empty empty empty 17 7 0 10 -262144 -1 -1 0 1;
#X msg 38 170 dump;
#X msg 101 170 @use_date \$1;
#X obj 20 200 ltc.in~;
#X obj 20 230 ui.dt;
#X obj 146 230 ui.dt;
#X connect 2 0 5 0;
#X connect 0 0 6 0;
#X connect 1 0 6 0;
#X connect 4 0 6 0;
#X connect 5 0 6 0;
#X connect 7 0 9 0;
#X connect 6 0 10 0;
#X connect 8 0 10 0;
#X connect 9 0 10 0;
#X connect 10 0 11 0;
#X connect 10 1 12 0;
