#N canvas 0 0 490 441 12;
#X obj 20 44 tgl 15 0 empty empty empty 17 7 0 10 -262144 -1 -1 0 1;
#X msg 20 68 report_apin 0 \$1;
#X obj 36 92 tgl 15 0 empty empty empty 17 7 0 10 -262144 -1 -1 0 1;
#X msg 36 116 report_dport 0 \$1;
#X obj 52 140 tgl 15 0 empty empty empty 17 7 0 10 -262144 -1 -1 0 1;
#X text 84 140 blink onboard LED;
#X msg 52 164 write_dpin 13 \$1;
#X floatatom 204 164 5 0 0 0 - - -;
#X text 252 164 attach servo to PIN10;
#X msg 156 188 write_pwm 10 \$1;
#X msg 68 212 version?;
#X msg 172 212 firmware?;
#X msg 188 236 pin_mode 4 INPUT \, pin_mode 10 SERVO;
#X obj 20 260 proto.firmata;
#X obj 20 284 hw.arduino;
#X obj 20 308 proto.firmata;
#X obj 20 332 route version firmware apin dport;
#X obj 20 356 msg set;
#X obj 100 356 msg set;
#X obj 180 356 msg set;
#X msg 20 380 ;
#X msg 100 380 ;
#X msg 180 404 ;
#X connect 0 0 1 0;
#X connect 2 0 3 0;
#X connect 4 0 6 0;
#X connect 7 0 9 0;
#X connect 1 0 13 0;
#X connect 3 0 13 0;
#X connect 6 0 13 0;
#X connect 10 0 13 0;
#X connect 9 0 13 0;
#X connect 11 0 13 0;
#X connect 12 0 13 0;
#X connect 13 0 14 0;
#X connect 14 0 15 0;
#X connect 15 0 16 0;
#X connect 16 0 17 0;
#X connect 16 1 18 0;
#X connect 16 2 19 0;
#X connect 17 0 20 0;
#X connect 18 0 21 0;
#X connect 19 0 22 0;
