#N canvas 0 0 878 321 12;
#X text 20 44 start mpv player;
#X msg 20 68 list mpv --player-operation-mode=pseudo-gui --input-ipc-server=/tmp/mpvsocket --pause --no-audio --idle --no-osc;
#X obj 20 116 system.exec;
#X text 20 140 choose video file or image;
#X obj 20 164 bng 15 250 50 0 empty empty empty 17 7 0 10 -262144 -1
-1;
#X obj 20 188 openpanel;
#X obj 116 188 tgl 15 0 empty empty empty 17 7 0 10 -262144 -1 -1 0 1;
#X msg 204 188 quit;
#X msg 284 188 text 3000 A simple OSD title;
#X msg 20 212 load \$1;
#X msg 116 212 pause \$1;
#X msg 204 212 stop;
#X msg 284 212 play;
#X obj 460 212 tgl 15 0 empty empty empty 17 7 0 10 -262144 -1 -1 0 1;
#X msg 228 236 seek 10 rel;
#X msg 340 236 seek -10 rel;
#X msg 460 236 fullscreen \$1;
#X obj 20 260 proto.mpv /tmp/mpvsocket;
#X obj 20 284 print;
#X connect 1 0 2 0;
#X connect 4 0 5 0;
#X connect 5 0 9 0;
#X connect 6 0 10 0;
#X connect 13 0 16 0;
#X connect 9 0 17 0;
#X connect 10 0 17 0;
#X connect 11 0 17 0;
#X connect 14 0 17 0;
#X connect 15 0 17 0;
#X connect 17 0 18 0;
#X connect 7 0 17 0;
#X connect 12 0 17 0;
#X connect 8 0 17 0;
#X connect 16 0 17 0;
