#N canvas 0 0 388 177 12;
#X obj 20 50 tgl 15 0 empty empty empty 17 7 0 10 -262144 -1 -1 0 1;
#X obj 191 50 ui.tab chords classic;
#X msg 56 80 random harm;
#X msg 191 80 @mode \$2;
#X obj 20 110 proto.whammy @chan 0 @mode classic;
#X obj 20 140 midiout;
#X obj 110 140 print;
#X connect 1 0 3 0;
#X connect 0 0 4 0;
#X connect 2 0 4 0;
#X connect 3 0 4 0;
#X connect 4 0 5 0;
#X connect 4 0 6 0;
