#N canvas 0 0 218 295 12;
#X obj 20 50 ui.hrd 4;
#X msg 20 80 input \$1;
#X obj 20 110 proto.feelworld;
#X obj 20 140 msg send;
#X symbolatom 38 170 20 0 0 0 - - -;
#X msg 38 200 connect \$1 1000;
#X obj 20 230 netsend -u -b;
#X obj 20 260 tgl 15 0 empty empty empty 17 7 0 10 -262144 -1 -1 0 1;
#X connect 0 0 1 0;
#X connect 1 0 2 0;
#X connect 2 0 3 0;
#X connect 4 0 5 0;
#X connect 3 0 6 0;
#X connect 5 0 6 0;
#X connect 6 0 7 0;
