#N canvas 0 0 237 205 12;
#X obj 20 50 ui.radio @nitems 4;
#X msg 47 110 reset;
#X obj 20 140 radio 4;
#X obj 20 170 tgl 15 0 empty empty empty 17 7 0 10 -262144 -1 -1 0 1;
#X obj 65 170 tgl 15 0 empty empty empty 17 7 0 10 -262144 -1 -1 0 1;
#X obj 119 170 tgl 15 0 empty empty empty 17 7 0 10 -262144 -1 -1 0 1;
#X obj 182 170 tgl 15 0 empty empty empty 17 7 0 10 -262144 -1 -1 0 1;
#X connect 0 0 2 0;
#X connect 1 0 2 0;
#X connect 2 0 3 0;
#X connect 2 1 4 0;
#X connect 2 2 5 0;
#X connect 2 3 6 0;
