#N canvas 0 0 240 177 12;
#X obj 20 50 bng 15 250 50 0 empty empty empty 17 7 0 10 -262144 -1
-1;
#X msg 65 50 @seed 0;
#X msg 155 50 gen 5;
#X obj 20 110 random.float 1 3;
#X obj 20 140 ui.dt;
#X connect 0 0 3 0;
#X connect 1 0 3 0;
#X connect 2 0 3 0;
#X connect 3 0 4 0;
