#N canvas 0 0 620 225 12;
#X obj 20 44 bng 15 250 50 0 empty empty empty 17 7 0 10 -262144 -1
-1;
#N canvas 0 22 450 300 (subpatch) 0;
#X array array1 9 float 1;
#A 0 0 0 0 0 0 0 0 0 0;
#X coords 0 1 9 0 200 140 1;
#X restore 380 44 graph;
#X obj 20 68 list.gen 1000;
#X obj 148 68 random.discrete 1 2 3 4 0 1 2 4 5;
#X obj 20 92 list.histogram @bins 9;
#X obj 20 116 list.normalize @range;
#X obj 20 140 list.enumerate @append;
#X obj 20 164 list.repack 2;
#X obj 20 188 tabwrite array1;
#X connect 0 0 2 0;
#X connect 2 0 4 0;
#X connect 4 0 5 0;
#X connect 5 0 6 0;
#X connect 6 0 7 0;
#X connect 7 0 8 0;
#X connect 2 1 3 0;
#X connect 3 0 2 1;
