#N canvas 0 0 370 237 12;
#X floatatom 20 50 5 0 0 0 - - -;
#X msg 65 50 1 2 3;
#X msg 146 50 list a b c;
#X msg 83 110 dump;
#X msg 164 110 symbol a;
#X msg 263 110 symbol A;
#X obj 20 155 replace 3 33333;
#X obj 20 200 ui.display @auto_size 0 @size 120 17;
#X connect 0 0 6 0;
#X connect 1 0 6 0;
#X connect 3 0 6 0;
#X connect 2 0 6 0;
#X connect 4 0 6 1;
#X connect 5 0 6 2;
#X connect 6 0 7 0;
