#N canvas 0 0 589 327 12;
#X obj 20 50 bng 15 250 50 0 empty empty empty 17 7 0 10 -262144 -1
-1;
#X symbolatom 56 50 10 0 0 0 - - -;
#X obj 308 50 tgl 15 0 empty empty empty 17 7 0 10 -262144 -1 -1 0 1;
#X obj 308 80 metro.pattern 100;
#X obj 488 80 r hexpat;
#X obj 20 110 rhythm.hexbeat \#D1;
#X obj 308 110 list.walk @wrap;
#X obj 20 140 t l l;
#X obj 308 140 sel 1;
#X obj 56 170 list.size;
#X obj 308 170 click~;
#X msg 56 200 @nitems \$1 \, @size 150 15;
#X obj 308 200 flt.resonlp~ 1000 40;
#X obj 20 230 ui.hrd* @nosave 1;
#X obj 308 230 ui.hgain~;
#X obj 20 260 s hexpat;
#X obj 308 260 dac~;
#X obj 20 290 rhythm.hexbeat.list;
#X connect 2 0 3 0;
#X connect 0 0 5 0;
#X connect 1 0 5 0;
#X connect 3 0 6 0;
#X connect 4 0 6 0;
#X connect 5 0 7 0;
#X connect 6 0 8 0;
#X connect 7 1 9 0;
#X connect 8 0 10 0;
#X connect 9 0 11 0;
#X connect 10 0 12 0;
#X connect 7 0 13 0;
#X connect 11 0 13 0;
#X connect 12 0 14 0;
#X connect 13 0 15 0;
#X connect 14 0 16 0;
#X connect 14 0 16 1;
