#N canvas 0 0 423 312 12;
#X msg 20 50 0 \, 1 10000;
#X floatatom 146 50 5 0 0 0 - - -;
#X floatatom 308 50 5 0 0 0 - - -;
#X obj 20 80 line 0 20;
#X msg 146 80 @interval \$1;
#X msg 308 80 @shift \$1;
#X obj 20 140 risset.gliss 60;
#X obj 20 170 msg \#:0;
#X obj 119 170 msg \#:0;
#X obj 20 200 hoa.process~ 5 risset.gliss.osc~ planewaves;
#X obj 20 245 ui.hgain~;
#X obj 308 245 ui.dsp~;
#X obj 20 275 dac~ 1 2;
#X connect 0 0 3 0;
#X connect 1 0 4 0;
#X connect 2 0 5 0;
#X connect 3 0 6 0;
#X connect 6 0 7 0;
#X connect 6 1 8 0;
#X connect 7 0 9 1;
#X connect 8 0 9 2;
#X connect 9 0 10 0;
#X connect 9 1 10 0;
#X connect 9 2 10 0;
#X connect 9 3 10 0;
#X connect 9 4 10 0;
#X connect 10 0 12 0;
#X connect 10 0 12 1;
#X connect 4 0 6 0;
#X connect 5 0 6 0;
