#N canvas 0 0 460 447 12;
#X obj 20 50 tgl 15 0 empty empty empty 17 7 0 10 -262144 -1 -1 0 1;
#X obj 20 80 metro 150;
#X msg 38 110 bang;
#X obj 20 140 route.cycle 4;
#X obj 20 200 click~;
#X obj 137 200 click~;
#X obj 254 200 click~;
#X obj 371 200 click~;
#X obj 20 230 flt.resonlp~ 400;
#X obj 56 260 flt.resonlp~ 600;
#X obj 92 290 flt.resonlp~ 800;
#X obj 128 320 flt.resonlp~ 1200;
#X obj 20 350 pan.spread~ 4;
#X obj 20 380 ui.hgain2~;
#X obj 227 380 ui.dsp~;
#X obj 20 410 dac~;
#X connect 0 0 1 0;
#X connect 1 0 3 0;
#X connect 2 0 3 0;
#X connect 12 0 13 0;
#X connect 12 1 13 1;
#X connect 13 0 15 0;
#X connect 13 1 15 1;
#X connect 8 0 12 0;
#X connect 9 0 12 1;
#X connect 10 0 12 2;
#X connect 11 0 12 3;
#X connect 3 0 4 0;
#X connect 3 1 5 0;
#X connect 3 2 6 0;
#X connect 3 3 7 0;
#X connect 4 0 8 0;
#X connect 5 0 9 0;
#X connect 6 0 10 0;
#X connect 7 0 11 0;
