#N canvas 0 0 569 345 12;
#X msg 20 44 bang;
#X floatatom 76 44 5 0 0 0 - - -;
#X msg 116 44 (1 2 2 1) \, bang;
#X msg 276 44 (2 1 1) \, bang;
#X msg 420 44 (3 1) \, bang;
#X obj 20 80 rtree->list 1 (1 1 1 1(2 1 1));
#X obj 20 104 ui.dt;
#X text 20 140 built-in funciton rtree() \, that can be used in any
ceammc object instead of list arguments;
#X floatatom 220 164 5 0 0 0 - - -;
#X msg 20 188 bang;
#X msg 84 188 stop;
#X msg 220 188 @t \$1;
#X obj 20 212 seq.bangs rtree(2 \(1 1 1\(1 1\) 1\(1 1 1\) 1\(1 1 1 1
1\)\)\) @inf @t 90bpm, f 70;
#X obj 20 236 click~;
#X obj 20 260 flt.resonbp~ 1000 60;
#X obj 204 260 ui.dsp~;
#X obj 20 284 ui.hgain~;
#X obj 20 308 dac~;
#X connect 0 0 5 0;
#X connect 1 0 5 0;
#X connect 2 0 5 0;
#X connect 3 0 5 0;
#X connect 4 0 5 0;
#X connect 5 0 6 0;
#X connect 8 0 11 0;
#X connect 9 0 12 0;
#X connect 10 0 12 0;
#X connect 11 0 12 0;
#X connect 12 0 13 0;
#X connect 13 0 14 0;
#X connect 14 0 16 0;
#X connect 16 0 17 0;
#X connect 16 0 17 1;
