#N canvas 0 0 333 237 12;
#X obj 20 50 tgl 15 0 empty empty empty 17 7 0 10 -262144 -1 -1 0 1;
#X msg 83 50 bang;
#X obj 173 50 lfo.+square~ 100;
#X obj 20 80 samp.t~;
#X obj 173 80 samp.t~;
#X obj 20 110 ui.n~;
#X obj 173 110 ui.n~;
#X obj 20 140 tgl 15 0 empty empty empty 17 7 0 10 -262144 -1 -1 0 1;
#X obj 20 170 samp.t~ 0;
#X obj 173 170 ui.dsp~;
#X obj 20 200 ui.n~;
#X connect 0 0 3 0;
#X connect 1 0 3 1;
#X connect 2 0 4 0;
#X connect 3 0 5 0;
#X connect 4 0 6 0;
#X connect 7 0 8 0;
#X connect 8 0 10 0;
