#N canvas 0 0 363 297 12;
#X msg 20 50 on;
#X msg 74 50 on last 80;
#X obj 263 50 ui.dsp~;
#X obj 20 80 flow.dup 6;
#X obj 20 110 flow.space 130;
#X msg 173 110 on all;
#X msg 263 110 off all;
#X obj 20 140 seq.arp 60 64 67 79 54 80;
#X obj 20 170 msg note;
#X obj 119 170 loadmsg prog 1 12;
#X obj 20 200 fluid~ sf2/VintageDreamsWaves-v2.sf2;
#X obj 20 230 ui.hgain2~;
#X obj 20 260 dac~;
#X connect 0 0 3 0;
#X connect 1 0 3 0;
#X connect 3 0 4 0;
#X connect 4 0 7 0;
#X connect 5 0 7 0;
#X connect 6 0 7 0;
#X connect 7 0 8 0;
#X connect 8 0 10 0;
#X connect 9 0 10 0;
#X connect 10 0 11 0;
#X connect 10 1 11 1;
#X connect 11 0 12 0;
#X connect 11 0 12 1;
