#N canvas 0 0 377 327 12;
#X msg 20 50 asr 100 first 10 last;
#X obj 281 50 ui.dsp~;
#X msg 38 80 asr 200 first 10 first;
#X msg 65 110 asr 150 all 10 last;
#X msg 83 140 on;
#X msg 128 140 off;
#X obj 20 170 seq.arp 60 64 67 79 54 80;
#X obj 20 200 msg note;
#X obj 119 200 loadmsg prog 1 12;
#X obj 20 230 fluid~ sf2/VintageDreamsWaves-v2.sf2;
#X obj 20 260 ui.hgain2~;
#X obj 20 290 dac~;
#X connect 0 0 6 0;
#X connect 2 0 6 0;
#X connect 3 0 6 0;
#X connect 4 0 6 0;
#X connect 5 0 6 0;
#X connect 6 0 7 0;
#X connect 7 0 9 0;
#X connect 8 0 9 0;
#X connect 9 0 10 0;
#X connect 9 1 10 1;
#X connect 10 0 11 0;
#X connect 10 0 11 1;
