#N canvas 0 0 473 282 12;
#X obj 20 50 bng 15 250 50 0 empty empty empty 17 7 0 10 -262144 -1
-1;
#X msg 92 50 stop;
#X msg 164 50 reset;
#X obj 20 95 seq.bangs 3 1 2 1 1 @t 480bpm @r 4;
#X obj 263 125 route done i ed ri, f 21;
#X obj 20 155 click~;
#X obj 263 155 bng 15 250 50 0 empty empty empty 17 7 0 10 -262144 -1
-1;
#X floatatom 308 155 5 0 0 0 - - -;
#X floatatom 353 155 5 0 0 0 - - -;
#X floatatom 398 155 5 0 0 0 - - -;
#X obj 20 185 flt.resonbp~ 1000 40;
#X obj 263 185 ui.dsp~;
#X obj 20 215 ui.hgain~;
#X obj 20 245 dac~;
#X connect 0 0 3 0;
#X connect 1 0 3 0;
#X connect 2 0 3 0;
#X connect 3 1 4 0;
#X connect 3 0 5 0;
#X connect 4 0 6 0;
#X connect 4 1 7 0;
#X connect 4 2 8 0;
#X connect 4 3 9 0;
#X connect 5 0 10 0;
#X connect 10 0 12 0;
#X connect 12 0 13 0;
#X connect 12 0 13 1;
