#N canvas 0 0 456 447 12;
#X obj 20 50 tgl 15 0 empty empty empty 17 7 0 10 -262144 -1 -1 0 1;
#X msg 56 50 rewind;
#X obj 146 50 ui.tab inc dec tri;
#X obj 353 50 ui.dsp~;
#X msg 146 80 @mode \$1;
#X obj 20 110 seq.matrix 16 120#4bpm;
#X obj 245 110 loadmsg random;
#X obj 20 140 ui.matrix 3 16 @size 257 46;
#X obj 20 200 route col;
#X obj 20 230 unpack f f f f;
#X floatatom 20 260 5 0 0 0 - - -;
#X obj 65 260 osc~ 400;
#X obj 191 260 osc~ 1200;
#X obj 317 260 osc~ 100;
#X msg 83 290 @gate \$1;
#X msg 209 290 @gate \$1;
#X msg 335 290 @gate \$1;
#X obj 65 320 env.ar~ 20 100;
#X obj 191 320 env.ar~ 10 80;
#X obj 317 320 env.ar~ 6 200;
#X obj 20 350 pan.spread~ 5, f 16;
#X obj 20 380 ui.hgain2~;
#X obj 20 410 dac~, f 16;
#X connect 2 0 4 0;
#X connect 0 0 5 0;
#X connect 1 0 5 0;
#X connect 4 0 5 0;
#X connect 5 0 7 0;
#X connect 6 0 7 0;
#X connect 7 0 8 0;
#X connect 8 0 9 0;
#X connect 9 0 10 0;
#X connect 11 0 17 0;
#X connect 14 0 17 0;
#X connect 12 0 18 0;
#X connect 15 0 18 0;
#X connect 13 0 19 0;
#X connect 16 0 19 0;
#X connect 20 0 21 0;
#X connect 20 1 21 1;
#X connect 21 0 22 0;
#X connect 21 1 22 1;
#X connect 9 1 14 0;
#X connect 9 2 15 0;
#X connect 9 3 16 0;
#X connect 17 0 20 1;
#X connect 18 0 20 2;
#X connect 19 0 20 3;
