#N canvas 0 0 361 207 12;
#X obj 20 50 bng 15 250 50 0 empty empty empty 17 7 0 10 -262144 -1
-1;
#X obj 20 80 trigger b b;
#X obj 20 110 data.set 1 2 3 4;
#X obj 200 110 data.set 3 4 5 6;
#X obj 20 140 set.intersect;
#X obj 20 170 ui.dt;
#X connect 0 0 1 0;
#X connect 1 0 2 0;
#X connect 1 1 3 0;
#X connect 2 0 4 0;
#X connect 3 0 4 1;
#X connect 4 0 5 0;
