#N canvas 0 0 495 342 12;
#X obj 20 50 ui.keyboard;
#X obj 20 125 msg note;
#X obj 20 155 sfizz~ \#sine;
#X obj 20 185 ui.hgain2~;
#X obj 191 185 ui.dsp~;
#X obj 20 215 dac~;
#X obj 20 245 sfizz~.freq;
#X obj 182 245 sfizz~.pan;
#X obj 335 245 sfizz~.pedals;
#X obj 20 275 sfizz~.bend;
#X obj 182 275 sfizz~.tune-12;
#X obj 335 275 sfizz~.soundsoff;
#X obj 20 305 sfizz~.notesoff;
#X obj 182 305 sfizz~.sfz;
#X connect 0 0 1 0;
#X connect 1 0 2 0;
#X connect 2 0 3 0;
#X connect 2 1 3 1;
#X connect 3 0 5 0;
#X connect 3 1 5 1;
