#N canvas 0 0 575 477 12;
#X obj 20 50 bng 15 250 50 0 empty empty empty 17 7 0 10 -262144 -1
-1;
#X obj 20 80 openpanel;
#X msg 20 110 symbol %CEAMMC%/guitar1.wav \, 1;
#X msg 29 140 @name %CEAMMC%/sound/loop_breakbeat.flac \, 1;
#X msg 56 170 @name %CEAMMC%/sound/vla-overtones-3.mp3 \, 1;
#X obj 20 200 expand_env;
#X obj 29 230 tgl 15 0 empty empty empty 17 7 0 10 -262144 -1 -1 0 1;
#X obj 110 230 tgl 15 0 empty empty empty 17 7 0 10 -262144 -1 -1 0 1;
#X obj 236 230 tgl 15 0 empty empty empty 17 7 0 10 -262144 -1 -1 0 1;
#X obj 335 230 ui.hsl 0.25 4 @show_value 1;
#X msg 47 260 stop;
#X msg 110 260 pause \$1;
#X msg 236 260 @loop \$1;
#X msg 335 260 @speed \$1;
#X msg 65 290 start;
#X obj 20 320 snd.play~ 2 @loop 1;
#X obj 236 350 ui.dt;
#X obj 20 380 ui.hgain2~;
#X obj 227 380 ui.dsp~;
#X obj 20 410 dac~;
#X obj 20 440 snd.play~.seek;
#X obj 173 440 snd.play~.resamp;
#X connect 0 0 1 0;
#X connect 3 0 5 0;
#X connect 4 0 5 0;
#X connect 7 0 11 0;
#X connect 8 0 12 0;
#X connect 9 0 13 0;
#X connect 6 0 15 0;
#X connect 10 0 15 0;
#X connect 14 0 15 0;
#X connect 12 0 15 0;
#X connect 13 0 15 0;
#X connect 15 2 16 0;
#X connect 15 0 17 0;
#X connect 15 1 17 1;
#X connect 17 0 19 0;
#X connect 17 1 19 1;
#X connect 1 0 5 0;
#X connect 2 0 5 0;
#X connect 11 0 15 0;
#X connect 5 0 15 0;
