#N canvas 0 0 606 387 12;
#X obj 20 50 osc~ 1000;
#X obj 128 50 ui.knob;
#X obj 254 50 ui.knob;
#X obj 128 95 phase->rad;
#X msg 128 125 @angle \$1;
#X msg 254 125 @radius \$1;
#X obj 20 185 spat.pan8~ 1 pi();
#X obj 20 215 ui.m~;
#X obj 92 215 ui.m~;
#X obj 164 215 ui.m~;
#X obj 236 215 ui.m~;
#X obj 308 215 ui.m~;
#X obj 380 215 ui.m~;
#X obj 452 215 ui.m~;
#X obj 524 215 ui.m~;
#X obj 20 350 ui.dsp~;
#X connect 1 0 3 0;
#X connect 3 0 4 0;
#X connect 2 0 5 0;
#X connect 0 0 6 0;
#X connect 4 0 6 0;
#X connect 5 0 6 0;
#X connect 6 0 7 0;
#X connect 6 1 8 0;
#X connect 6 2 9 0;
#X connect 6 3 10 0;
#X connect 6 4 11 0;
#X connect 6 5 12 0;
#X connect 6 6 13 0;
#X connect 6 7 14 0;
