#N canvas 0 0 350 321 12;
#X obj 20 44 osc~ 1000;
#X obj 116 44 ui.knob;
#X obj 228 44 ui.knob;
#X obj 116 80 phase->rad;
#X msg 116 104 @angle \$1;
#X msg 228 104 @radius \$1;
#X obj 20 152 spat.pan4~ 0.8 pi();
#X obj 20 176 ui.m~;
#X obj 84 176 ui.m~;
#X obj 148 176 ui.m~;
#X obj 212 176 ui.m~;
#X obj 20 284 ui.dsp~;
#X connect 1 0 3 0;
#X connect 3 0 4 0;
#X connect 2 0 5 0;
#X connect 0 0 6 0;
#X connect 4 0 6 0;
#X connect 5 0 6 0;
#X connect 6 0 7 0;
#X connect 6 1 8 0;
#X connect 6 2 9 0;
#X connect 6 3 10 0;
