#N canvas 0 0 582 327 12;
#X msg 20 50 open %CEAMMC%/sound/vln-pizz-a4.aiff \, 1;
#X obj 299 50 ui.polar @positive 1 @clockwise 1;
#X obj 20 80 expand_env;
#X obj 20 110 readsf~;
#X obj 38 170 osc~ 1000;
#X obj 299 170 list.apply_to 1;
#X obj 488 170 / 360;
#X obj 38 200 env.ar~ 20 100;
#X obj 191 200 ui.dt;
#X msg 299 200 @radius \$1 \, @angle \$2;
#X obj 20 260 spat.zita8~ @radius 0, f 25;
#X obj 20 290 dac~ 1 2 3 4 5 6 7 8, f 25;
#X obj 299 290 ui.dsp~;
#X connect 0 0 2 0;
#X connect 2 0 3 0;
#X connect 1 0 5 0;
#X connect 4 0 7 0;
#X connect 5 0 9 0;
#X connect 3 0 10 0;
#X connect 7 0 10 0;
#X connect 9 0 10 0;
#X connect 10 0 11 0;
#X connect 10 1 11 1;
#X connect 10 2 11 2;
#X connect 10 3 11 3;
#X connect 10 4 11 4;
#X connect 10 5 11 5;
#X connect 10 6 11 6;
#X connect 10 7 11 7;
#X connect 5 0 8 0;
#X connect 5 1 6 0;
#X connect 6 0 5 2;
