#N canvas 0 0 560 345 12;
#N canvas 0 22 450 300 (subpatch) 0;
#X array arr_flite 100 float 1;
#A 0 0 0 0 0 0 0 0 0 0 0 0 0 0 0 0 0 0 0 0 0 0 0 0 0 0 0 0 0 0 0 0 0 0
0 0 0 0 0 0 0 0 0 0 0 0 0 0 0 0 0 0 0 0 0 0 0 0 0 0 0 0 0 0 0 0 0 0 0
0 0 0 0 0 0 0 0 0 0 0 0 0 0 0 0 0 0 0 0 0 0 0 0 0 0 0 0 0 0 0 0;
#X coords 0 1 100 -1 500 80 1;
#X restore 20 44 graph;
#X obj 20 116 tgl 15 0 empty empty empty 17 7 0 10 -262144 -1 -1 0 1;
#X obj 20 140 metro 1000;
#X obj 132 140 ui.menu kal16 slt rms awb;
#X obj 356 140 ui.knob @min 1 @max 4;
#X obj 20 164 flow.count;
#X msg 132 164 @voice \$2;
#X floatatom 228 164 5 0 0 0 - - -;
#X msg 228 188 @pitch \$1;
#X msg 356 188 @speed \$1;
#X obj 20 212 speech.flite arr_flite;
#X msg 20 236 0;
#X obj 20 260 tabplay~ arr_flite;
#X obj 20 284 ui.gain~ @size 120 16;
#X obj 228 284 ui.dsp~;
#X obj 20 308 dac~;
#X connect 1 0 2 0;
#X connect 2 0 5 0;
#X connect 3 0 6 0;
#X connect 7 0 8 0;
#X connect 4 0 9 0;
#X connect 5 0 10 0;
#X connect 6 0 10 0;
#X connect 8 0 10 0;
#X connect 9 0 10 0;
#X connect 10 0 11 0;
#X connect 11 0 12 0;
#X connect 12 0 13 0;
#X connect 13 0 15 0;
#X connect 13 0 15 1;
