#N canvas 0 0 507 297 12;
#X obj 20 50 tgl 15 0 empty empty empty 17 7 0 10 -262144 -1 -1 0 1;
#X obj 137 50 speech.rhvoice~.voices;
#X text 362 50 <-- see here;
#X obj 20 80 metro 1000;
#X obj 20 110 flow.count;
#X obj 137 110 ui.hsl -1 1 @show_value 1;
#X obj 281 110 ui.hsl -1 1 @show_value 1;
#X msg 137 140 @pitch \$1;
#X msg 281 140 @rate \$1;
#X obj 20 170 speech.rhvoice~;
#X obj 119 200 bng 15 250 50 0 empty empty empty 17 7 0 10 -262144 -1
-1;
#X obj 20 230 ui.gain~ @size 120 16;
#X obj 254 230 ui.dsp~;
#X obj 20 260 dac~;
#X connect 0 0 3 0;
#X connect 3 0 4 0;
#X connect 5 0 7 0;
#X connect 6 0 8 0;
#X connect 4 0 9 0;
#X connect 7 0 9 0;
#X connect 8 0 9 0;
#X connect 9 1 10 0;
#X connect 9 0 11 0;
#X connect 11 0 13 0;
#X connect 11 0 13 1;
