#N canvas 0 0 674 207 12;
#X obj 20 50 bng 15 250 50 0 empty empty empty 17 7 0 10 -262144 -1
-1;
#X obj 236 50 bng 15 250 50 0 empty empty empty 17 7 0 10 -262144 -1
-1;
#X obj 470 50 bng 15 250 50 0 empty empty empty 17 7 0 10 -262144 -1
-1;
#X obj 20 80 string 12321 12321;
#X obj 236 80 string 12321 12321;
#X obj 470 80 string 12321 12321;
#X obj 20 110 str.remove "123" @all;
#X obj 236 110 str.remove "123" @first;
#X obj 470 110 str.remove "123" @last;
#X obj 218 170 ui.dt;
#X connect 0 0 3 0;
#X connect 1 0 4 0;
#X connect 2 0 5 0;
#X connect 3 0 6 0;
#X connect 4 0 7 0;
#X connect 5 0 8 0;
#X connect 6 0 9 0;
#X connect 7 0 9 0;
#X connect 8 0 9 0;
