#N canvas 0 0 412 177 12;
#X msg 20 50 list A B C 1 2 3;
#X msg 164 80 symbol ":::";
#X msg 299 80 symbol "";
#X obj 20 110 string.join _;
#X obj 20 140 ui.dt;
#X connect 0 0 3 0;
#X connect 1 0 3 1;
#X connect 2 0 3 1;
#X connect 3 0 4 0;
