#N canvas 0 0 352 177 12;
#X msg 20 50 list May 2017;
#X msg 173 50 list Июнь 2017;
#X obj 20 80 string;
#X obj 20 110 string.length;
#X floatatom 20 140 5 0 0 0 - - -;
#X connect 0 0 2 0;
#X connect 1 0 2 0;
#X connect 2 0 3 0;
#X connect 3 0 4 0;
