#N canvas 0 0 247 177 12;
#X obj 20 50 bng 15 250 50 0 empty empty empty 17 7 0 10 -262144 -1
-1;
#X floatatom 56 50 5 0 0 0 - - -;
#X msg 119 50 symbol test;
#X obj 20 80 string A B C;
#X obj 20 110 str->sym;
#X obj 20 140 ui.dt;
#X connect 0 0 3 0;
#X connect 1 0 3 0;
#X connect 2 0 3 0;
#X connect 3 0 4 0;
#X connect 4 0 5 0;
