#N canvas 0 0 269 207 12;
#X msg 20 50 bang;
#X obj 20 80 string TEST;
#X obj 20 110 string.split;
#X msg 164 110 symbol .;
#X obj 20 140 string.join " ";
#X obj 20 170 ui.dt;
#X connect 0 0 1 0;
#X connect 1 0 2 0;
#X connect 2 0 4 0;
#X connect 3 0 4 1;
#X connect 4 0 5 0;
