#N canvas 0 0 263 177 12;
#X msg 20 50 symbol example;
#X symbolatom 83 80 20 0 0 0 - - -;
#X obj 20 110 symbol.length;
#X floatatom 20 140 5 0 0 0 - - -;
#X connect 0 0 2 0;
#X connect 1 0 2 0;
#X connect 2 0 3 0;
