#N canvas 0 0 266 207 12;
#X text 20 50 simple example;
#X floatatom 20 80 5 0 0 0 - - -;
#X obj 101 80 sync;
#X floatatom 191 80 5 0 0 0 - - -;
#X text 20 110 more complex;
#X floatatom 20 140 5 0 0 0 - - -;
#X floatatom 92 140 5 0 0 0 - - -;
#X floatatom 164 140 5 0 0 0 - - -;
#X obj 20 170 sync 3, f 22;
#X connect 5 0 8 0;
#X connect 8 0 5 0;
#X connect 6 0 8 1;
#X connect 8 1 6 0;
#X connect 7 0 8 2;
#X connect 8 2 7 0;
#X connect 1 0 2 0;
#X connect 2 0 1 0;
#X connect 2 1 3 0;
#X connect 3 0 2 1;
