#N canvas 0 0 561 357 12;
#X obj 20 50 tgl 15 0 empty empty empty 17 7 0 10 -262144 -1 -1 0 1;
#X msg 20 80 @gate \$1;
#X obj 38 110 ui.tab alto bass countertenor soprano tenor @size 360
17;
#X msg 38 140 @voice \$1;
#X msg 155 140 random move;
#X floatatom 56 170 5 0 0 0 - - -;
#X obj 155 170 ui.tab a e i o u;
#X obj 335 170 ui.hsl 0 40 @show_value 1;
#X msg 56 200 @freq \$1;
#X msg 155 200 @vowel \$1;
#X msg 335 200 @wsmooth \$1;
#X obj 20 230 synth.voice_fofc~ bass @freq 120;
#X obj 20 260 flt.lpf24~ 4500;
#X obj 20 290 ui.gain~ @size 120 16;
#X obj 245 290 ui.dsp~;
#X obj 20 320 dac~;
#X connect 0 0 1 0;
#X connect 2 0 3 0;
#X connect 4 0 6 0;
#X connect 5 0 8 0;
#X connect 6 0 9 0;
#X connect 7 0 10 0;
#X connect 1 0 11 0;
#X connect 3 0 11 0;
#X connect 8 0 11 0;
#X connect 9 0 11 0;
#X connect 10 0 11 0;
#X connect 11 0 12 0;
#X connect 12 0 13 0;
#X connect 13 0 15 0;
#X connect 13 0 15 1;
