#N canvas 0 0 251 552 12;
#X obj 20 50 tgl 15 0 empty empty empty 17 7 0 10 -262144 -1 -1 0 1;
#X obj 155 50 ui.dsp~;
#X obj 20 80 metro 1000;
#X msg 20 110 @gate 1;
#X obj 20 140 msg.after 300 @gate 0;
#X obj 20 170 msg synth.russian_bell;
#X obj 20 200 gsynth.russian_bell~;
#X obj 20 485 ui.gain~ @size 120 16;
#X obj 20 515 dac~;
#X connect 0 0 2 0;
#X connect 2 0 3 0;
#X connect 3 0 4 0;
#X connect 4 0 5 0;
#X connect 5 0 6 0;
#X connect 6 0 7 0;
#X connect 7 0 8 0;
#X connect 7 0 8 1;
