#N canvas 0 0 620 297 12;
#X obj 20 50 tgl 15 0 empty empty empty 17 7 0 10 -262144 -1 -1 0 1;
#X floatatom 83 50 5 0 0 0 - - -;
#X obj 137 50 ui.k 0 100 @show_value 1;
#X obj 254 50 ui.k 0 100 @show_value 1;
#X obj 380 50 ui.k 400 3500 @show_value 1;
#X obj 20 80 metro 150;
#X obj 20 110 tgl 15 0 empty empty empty 17 7 0 10 -262144 -1 -1 0 1;
#X msg 137 110 @attack \$1;
#X msg 254 110 @release \$1;
#X msg 380 110 @tone \$1;
#X msg 20 140 @gate \$1;
#X obj 20 170 synth.clap~;
#X obj 164 200 bng 15 250 50 0 empty empty empty 17 7 0 10 -262144 -1
-1;
#X obj 20 230 ui.hgain~;
#X obj 164 230 ui.dsp~;
#X obj 20 260 dac~;
#X connect 0 0 5 0;
#X connect 1 0 5 1;
#X connect 5 0 6 0;
#X connect 2 0 7 0;
#X connect 3 0 8 0;
#X connect 4 0 9 0;
#X connect 6 0 10 0;
#X connect 10 0 11 0;
#X connect 7 0 11 0;
#X connect 8 0 11 0;
#X connect 9 0 11 0;
#X connect 11 1 12 0;
#X connect 11 0 13 0;
#X connect 13 0 15 0;
#X connect 13 0 15 1;
