#N canvas 0 0 303 297 12;
#X floatatom 20 50 5 0 0 0 - - -;
#X msg 173 50 bang;
#X obj 20 80 * 0.001;
#X msg 20 110 @rate \$1;
#X obj 20 140 synth.risset_tone~ 60 -0.005;
#X obj 38 170 synth.risset_tone~ 56 -0.005;
#X obj 56 200 synth.risset_tone~ 53 -0.005;
#X obj 20 230 ui.hgain~;
#X obj 173 230 ui.dsp~;
#X obj 20 260 dac~;
#X connect 0 0 2 0;
#X connect 2 0 3 0;
#X connect 4 0 7 0;
#X connect 5 0 7 0;
#X connect 6 0 7 0;
#X connect 7 0 9 0;
#X connect 7 0 9 1;
#X connect 1 0 4 0;
#X connect 1 0 5 0;
#X connect 1 0 6 0;
#X connect 3 0 4 0;
#X connect 3 0 5 0;
#X connect 3 0 6 0;
