#N canvas 0 0 319 357 12;
#X obj 20 50 tgl 15 0 empty empty empty 17 7 0 10 -262144 -1 -1 0 1;
#X obj 20 80 midi.kbd qwerty 0;
#X obj 20 110 ui.hk;
#X obj 20 200 poly 6;
#X obj 20 230 pack f f f;
#X obj 20 260 clone 7 poly.obj synth.harpsichord~;
#X obj 20 290 ui.hgain~;
#X obj 20 320 dac~;
#X connect 0 0 1 1;
#X connect 1 0 2 0;
#X connect 2 0 3 0;
#X connect 3 0 4 0;
#X connect 3 1 4 1;
#X connect 3 2 4 2;
#X connect 4 0 5 0;
#X connect 5 0 6 0;
#X connect 6 0 7 0;
#X connect 6 0 7 1;
