#N canvas 0 0 805 297 12;
#X obj 20 50 tgl 15 0 empty empty empty 17 7 0 10 -262144 -1 -1 0 1;
#X floatatom 83 50 5 0 0 0 - - -;
#X obj 137 50 ui.k 20 500 @show_value 1;
#X obj 236 50 ui.k 5 100 @show_value 1;
#X obj 353 50 ui.k 5 500 @show_value 1;
#X obj 479 50 ui.k 1 10 @show_value 1;
#X obj 587 50 ui.k 5 100 @show_value 1;
#X obj 20 80 metro 1000;
#X msg 137 110 @freq \$1;
#X msg 236 110 @attack \$1;
#X msg 353 110 @release \$1;
#X msg 479 110 @drive \$1;
#X msg 587 110 @click \$1;
#X obj 20 170 synth.kick2~;
#X obj 164 200 bng 15 250 50 0 empty empty empty 17 7 0 10 -262144 -1
-1;
#X obj 20 230 ui.hgain~;
#X obj 164 230 ui.dsp~;
#X obj 20 260 dac~;
#X connect 0 0 7 0;
#X connect 1 0 7 1;
#X connect 2 0 8 0;
#X connect 3 0 9 0;
#X connect 4 0 10 0;
#X connect 5 0 11 0;
#X connect 6 0 12 0;
#X connect 7 0 13 0;
#X connect 8 0 13 0;
#X connect 9 0 13 0;
#X connect 10 0 13 0;
#X connect 11 0 13 0;
#X connect 12 0 13 0;
#X connect 13 1 14 0;
#X connect 13 0 15 0;
#X connect 15 0 17 0;
#X connect 15 0 17 1;
