#N canvas 0 0 564 267 12;
#X obj 20 50 r $0s;
#X floatatom 101 50 5 0 0 0 - - -;
#X floatatom 200 50 5 0 0 0 - - -;
#X obj 353 50 ui.sliders @size 150 80;
#X msg 101 80 @freq \$1;
#X msg 200 80 @detune \$1;
#X obj 20 110 synth.risset_arp~;
#X obj 20 140 ui.hgain2~ @size;
#X obj 353 140 list.enumerate @from 1;
#X obj 20 170 dac~;
#X obj 353 170 list.repack 2;
#X obj 20 200 ui.dsp~;
#X msg 353 200 @harmonic\$1 \$2;
#X obj 353 230 s $0s;
#X connect 1 0 4 0;
#X connect 2 0 5 0;
#X connect 0 0 6 0;
#X connect 4 0 6 0;
#X connect 5 0 6 0;
#X connect 6 0 7 0;
#X connect 6 1 7 1;
#X connect 3 0 8 0;
#X connect 7 0 9 0;
#X connect 7 1 9 1;
#X connect 8 0 10 0;
#X connect 10 0 12 0;
#X connect 12 0 13 0;
