#N canvas 0 0 384 297 12;
#X obj 20 50 tgl 15 0 empty empty empty 17 7 0 10 -262144 -1 -1 0 1;
#X obj 20 80 metro.random 500 1000;
#X obj 20 110 random.f 0.1 1;
#X floatatom 38 140 5 0 0 0 - - -;
#X obj 137 140 ui.hsl @max 10 @show_value 1;
#X msg 38 170 @freq \$1;
#X msg 137 170 @pfreq \$1;
#X obj 20 200 synth.risset_bell~;
#X obj 20 230 ui.hgain~;
#X obj 155 230 ui.dsp~;
#X obj 20 260 dac~;
#X connect 0 0 1 0;
#X connect 1 0 2 0;
#X connect 3 0 5 0;
#X connect 4 0 6 0;
#X connect 2 0 7 0;
#X connect 5 0 7 0;
#X connect 6 0 7 0;
#X connect 7 0 8 0;
#X connect 8 0 10 0;
#X connect 8 0 10 1;
