#N canvas 0 0 419 237 12;
#X obj 20 50 tgl 15 0 empty empty empty 17 7 0 10 -262144 -1 -1 0 1;
#X msg 56 50 down;
#X msg 146 50 on;
#X msg 218 50 off;
#X msg 299 50 mark;
#X floatatom 56 80 5 0 0 0 - - -;
#X msg 56 110 @tempo \$1;
#X msg 164 110 1;
#X msg 200 110 2;
#X msg 236 110 3;
#X msg 272 110 4;
#X floatatom 344 110 5 0 0 0 - - -;
#X obj 20 140 synth.metro~ 120|8bpm |5/4+3/16|;
#X obj 20 170 ui.hgain~;
#X obj 263 170 print BEAT;
#X obj 20 200 dac~;
#X connect 5 0 6 0;
#X connect 0 0 12 0;
#X connect 6 0 12 0;
#X connect 7 0 12 0;
#X connect 8 0 12 1;
#X connect 9 0 12 1;
#X connect 10 0 12 1;
#X connect 11 0 12 2;
#X connect 12 0 13 0;
#X connect 12 1 14 0;
#X connect 13 0 15 0;
#X connect 13 0 15 1;
#X connect 1 0 12 0;
#X connect 2 0 12 0;
#X connect 3 0 12 0;
#X connect 4 0 12 0;
