#N canvas 0 0 389 387 12;
#X obj 20 50 ui.icon get_app;
#X obj 182 50 loadbang;
#X obj 281 50 r menu;
#X obj 281 80 ui.menu;
#X msg 20 110 @gate \$1;
#X msg 182 110 @types?;
#X msg 281 110 @type \$1;
#X obj 20 140 synth.shakers~ big_rocks;
#X obj 20 170 ~->;
#X obj 56 200 prop-> @types;
#X obj 92 230 msg @items;
#X obj 92 260 flow.append 1;
#X obj 92 290 s menu;
#X obj 20 320 ui.gain~ @size 120 16;
#X obj 245 320 ui.dsp~;
#X obj 20 350 dac~;
#X connect 2 0 3 0;
#X connect 0 0 4 0;
#X connect 1 0 5 0;
#X connect 3 0 6 0;
#X connect 4 0 7 0;
#X connect 5 0 7 0;
#X connect 6 0 7 0;
#X connect 7 0 8 0;
#X connect 8 1 9 0;
#X connect 9 1 10 0;
#X connect 10 0 11 0;
#X connect 11 0 12 0;
#X connect 8 0 13 0;
#X connect 13 0 15 0;
#X connect 13 0 15 1;
