#N canvas 0 0 341 252 12;
#X obj 20 50 ui.keyboard;
#X msg 20 125 note \$1 \$2;
#X msg 137 125 dump;
#X obj 20 155 synth.bee3~;
#X obj 20 185 ui.gain~ @size 120 16;
#X obj 245 185 ui.dsp~;
#X obj 20 215 dac~;
#X connect 0 0 1 0;
#X connect 1 0 3 0;
#X connect 2 0 3 0;
#X connect 3 0 4 0;
#X connect 4 0 6 0;
#X connect 4 0 6 1;
