#N canvas 0 0 615 237 12;
#X obj 20 50 tgl 15 0 empty empty empty 17 7 0 10 -262144 -1 -1 0 1;
#X obj 200 50 ui.k @show_value 1 @min 1 @max 10;
#X obj 317 50 ui.k @show_value 1 @min 20 @max 200;
#X obj 20 80 metro 100;
#X obj 20 110 random.f 0.3 0.95;
#X msg 200 110 @attack \$1;
#X msg 317 110 @release \$1;
#X obj 20 140 synth.snare~;
#X obj 20 170 ui.hgain~;
#X obj 164 170 ui.dsp~;
#X obj 20 200 dac~;
#X connect 0 0 3 0;
#X connect 3 0 4 0;
#X connect 1 0 5 0;
#X connect 2 0 6 0;
#X connect 4 0 7 0;
#X connect 5 0 7 0;
#X connect 6 0 7 0;
#X connect 7 0 8 0;
#X connect 8 0 10 0;
#X connect 8 0 10 1;
