#N canvas 0 0 458 387 12;
#X obj 20 50 loadbang;
#X msg 20 80 open %CEAMMC%/guitar1.wav;
#X obj 20 110 expand_env;
#X obj 290 110 ui.knob @max 0.95;
#X floatatom 38 140 5 0 0 0 - - -;
#X floatatom 155 140 5 0 0 0 - - -;
#X msg 38 170 @voices \$1;
#X msg 155 170 @stretch \$1;
#X msg 290 170 @random \$1;
#X floatatom 56 200 5 0 0 0 - - -;
#X floatatom 173 200 5 0 0 0 - - -;
#X floatatom 308 200 5 0 0 0 - - -;
#X msg 56 230 @gdur \$1;
#X msg 173 230 @gdelay \$1;
#X msg 308 230 @goffset \$1;
#X msg 191 260 reset;
#X obj 20 290 synth.fgrain~;
#X obj 20 320 ui.gain~ @size 120 16;
#X obj 236 320 ui.dsp~;
#X obj 20 350 dac~;
#X connect 0 0 1 0;
#X connect 1 0 2 0;
#X connect 4 0 6 0;
#X connect 5 0 7 0;
#X connect 3 0 8 0;
#X connect 9 0 12 0;
#X connect 10 0 13 0;
#X connect 11 0 14 0;
#X connect 2 0 16 0;
#X connect 6 0 16 0;
#X connect 12 0 16 0;
#X connect 7 0 16 0;
#X connect 13 0 16 0;
#X connect 15 0 16 0;
#X connect 8 0 16 0;
#X connect 14 0 16 0;
#X connect 16 0 17 0;
#X connect 17 0 19 0;
#X connect 17 0 19 1;
