#N canvas 0 0 628 165 12;
#X msg 20 44 symbol HOME;
#X msg 132 44 symbol APPDATA;
#X msg 268 44 symbol PATH;
#X msg 380 44 symbol USER;
#X msg 492 44 symbol SHELL;
#X obj 44 80 bng 15 250 50 0 empty empty empty 17 7 0 10 -262144 -1
-1;
#X obj 20 104 system.getenv USER;
#X obj 20 128 ui.display;
#X connect 0 0 6 0;
#X connect 5 0 6 0;
#X connect 1 0 6 0;
#X connect 2 0 6 0;
#X connect 3 0 6 0;
#X connect 4 0 6 0;
#X connect 6 0 7 0;
