#N canvas 0 0 628 297 12;
#X obj 20 50 tgl 15 0 empty empty empty 17 7 0 10 -262144 -1 -1 0 1;
#X obj 110 50 tgl 15 0 empty empty empty 17 7 0 10 -262144 -1 -1 0 1;
#X obj 245 50 tgl 15 0 empty empty empty 17 7 0 10 -262144 -1 -1 0 1;
#X obj 344 50 tgl 15 0 empty empty empty 17 7 0 10 -262144 -1 -1 0 1;
#X obj 452 50 system.cursor.abs;
#X msg 47 80 bang;
#X msg 110 80 @relative \$1;
#X msg 245 80 @norm \$1;
#X msg 344 80 @clip \$1;
#X obj 452 80 system.cursor.osc~;
#X obj 20 140 system.cursor;
#X obj 20 170 route motion mousewheel button;
#X floatatom 101 200 5 0 0 0 - - -;
#X obj 155 200 route 1 2 3;
#X obj 155 230 tgl 15 0 empty empty empty 17 7 0 10 -262144 -1 -1 0 1;
#X obj 191 230 tgl 15 0 empty empty empty 17 7 0 10 -262144 -1 -1 0 1;
#X obj 236 230 tgl 15 0 empty empty empty 17 7 0 10 -262144 -1 -1 0 1;
#X obj 20 260 ui.dt;
#X connect 1 0 6 0;
#X connect 2 0 7 0;
#X connect 3 0 8 0;
#X connect 0 0 10 0;
#X connect 5 0 10 0;
#X connect 6 0 10 0;
#X connect 7 0 10 0;
#X connect 8 0 10 0;
#X connect 10 0 11 0;
#X connect 11 1 12 0;
#X connect 11 2 13 0;
#X connect 13 0 14 0;
#X connect 13 1 15 0;
#X connect 13 2 16 0;
#X connect 11 0 17 0;
