#N canvas 0 0 573 177 12;
#X obj 92 50 tl.cue;
#X obj 263 50 tl.cue;
#X obj 20 80 hradio 15 1 0 3 empty empty empty 17 7 0 10 -262144 -1 -1
0;
#X obj 173 80 tl.bang;
#X obj 398 80 tl.bang @delay 500;
#X msg 20 110 cue \$1;
#X obj 173 110 bng 15 250 50 0 empty empty empty 17 7 0 10 -262144 -1
-1;
#X obj 398 110 bng 15 250 50 0 empty empty empty 17 7 0 10 -262144 -1
-1;
#X obj 20 140 tl.transport;
#X connect 2 0 5 0;
#X connect 3 0 6 0;
#X connect 4 0 7 0;
#X connect 5 0 8 0;
