#N canvas 0 0 635 177 12;
#X obj 92 50 tl.cue;
#X obj 290 50 tl.cue;
#X obj 461 50 tl.cue;
#X obj 20 80 hradio 15 1 0 3 empty empty empty 17 7 0 10 -262144 -1 -1
0;
#X obj 155 80 tl.bang @delay 500;
#X msg 20 110 cue \$1;
#X obj 155 110 bng 15 250 50 0 empty empty empty 17 7 0 10 -262144 -1
-1;
#X obj 380 110 tl.bang;
#X obj 524 110 tl.toggle;
#X obj 20 140 tl.transport;
#X obj 380 140 bng 15 250 50 0 empty empty empty 17 7 0 10 -262144 -1
-1;
#X obj 524 140 tgl 15 0 empty empty empty 17 7 0 10 -262144 -1 -1 0 1;
#X connect 3 0 5 0;
#X connect 4 0 6 0;
#X connect 5 0 9 0;
#X connect 7 0 10 0;
#X connect 8 0 11 0;
