#N canvas 0 0 561 387 12;
#X msg 20 50 add 5.4 sec;
#X msg 173 50 add middle 10s;
#X msg 353 50 add last 5s before end;
#X obj 29 80 tgl 15 0 empty empty empty 17 7 0 10 -262144 -1 -1 0 1;
#X obj 29 110 metro 100;
#X msg 29 140 @current?;
#X msg 65 170 start;
#X msg 137 170 pause;
#X msg 209 170 stop;
#X obj 272 170 tgl 15 0 empty empty empty 17 7 0 10 -262144 -1 -1 0 1;
#X msg 272 200 @loop \$1;
#X obj 20 230 tl.timeline 20 @loop 1;
#X obj 20 260 prop-> @current, f 20;
#X obj 20 290 sel 0 1 2 begin end;
#X obj 245 290 / 1000;
#X obj 20 320 bng 15 250 50 0 empty empty empty 17 7 0 10 -262144 -1
-1;
#X obj 56 320 bng 15 250 50 0 empty empty empty 17 7 0 10 -262144 -1
-1;
#X obj 92 320 bng 15 250 50 0 empty empty empty 17 7 0 10 -262144 -1
-1;
#X obj 146 320 bng 15 250 50 0 empty empty empty 17 7 0 10 -262144 -1
-1;
#X obj 209 320 bng 15 250 50 0 empty empty empty 17 7 0 10 -262144 -1
-1;
#X obj 245 320 sec->str @symbol @ms;
#X symbolatom 245 350 15 0 0 0 - - -;
#X connect 3 0 4 0;
#X connect 4 0 5 0;
#X connect 9 0 10 0;
#X connect 5 0 11 0;
#X connect 6 0 11 0;
#X connect 7 0 11 0;
#X connect 8 0 11 0;
#X connect 10 0 11 0;
#X connect 11 0 12 0;
#X connect 12 0 13 0;
#X connect 12 1 14 0;
#X connect 13 0 15 0;
#X connect 13 1 16 0;
#X connect 13 2 17 0;
#X connect 13 3 18 0;
#X connect 13 4 19 0;
#X connect 14 0 20 0;
#X connect 20 0 21 0;
#X connect 0 0 11 0;
#X connect 1 0 11 0;
#X connect 2 0 11 0;
