#N canvas 0 0 423 627 12;
#X obj 20 50 loadbang;
#X obj 119 50 table array_view;
#X msg 20 80 load %DOC%/sound/voice.wav @to array_view @resize;
#X obj 20 110 expand_env;
#X obj 20 140 snd.file;
#X msg 20 170 update;
#X text 110 170 Ctrl+drag - select region to play;
#X obj 20 200 ui.aview @array array_view @show_labels 1 @size 300 80;
#X obj 20 290 ui.mf @up;
#X obj 20 320 route @select_samp;
#X obj 20 350 flow.change;
#X obj 236 350 loadbang;
#X obj 20 380 expr $f1\; $f2 - $f1;
#X msg 236 380 1;
#X obj 65 410 b;
#X floatatom 236 410 5 0 0 0 - - -;
#X text 299 410 speed;
#X obj 65 440 loop~;
#X obj 65 470 *~;
#X obj 20 500 +~;
#X obj 20 530 tabread4~ array_view;
#X obj 20 560 ui.gain~ @size 120 16;
#X obj 245 560 ui.dsp~;
#X obj 20 590 dac~;
#X connect 0 0 2 0;
#X connect 2 0 3 0;
#X connect 3 0 4 0;
#X connect 4 0 5 0;
#X connect 5 0 7 0;
#X connect 7 0 8 0;
#X connect 8 0 9 0;
#X connect 9 0 10 0;
#X connect 10 0 12 0;
#X connect 11 0 13 0;
#X connect 13 0 15 0;
#X connect 14 0 17 0;
#X connect 12 1 17 1;
#X connect 15 0 17 0;
#X connect 17 0 18 0;
#X connect 17 1 18 1;
#X connect 12 0 19 0;
#X connect 18 0 19 1;
#X connect 19 0 20 0;
#X connect 20 0 21 0;
#X connect 21 0 23 0;
#X connect 21 0 23 1;
#X connect 10 0 14 0;
