#N canvas 0 0 808 340 12;
#X obj 20 50 nsig~ 5 0 0.06 0.15 0.5 0.9;
#X obj 344 50 tgl 15 0 empty empty empty 17 7 0 10 -262144 -1 -1 0 1;
#X obj 380 50 ui.n @step 0 @min -5 @max 5;
#X obj 488 50 ui.knob @min -90 @max 90 @show_value 1;
#X obj 20 80 ui.cmeter~ @nch 5 @size 193 193 @receive $0-cm @nosave 1;
#X obj 218 80 ui.dsp~;
#X msg 380 80 @offset \$1;
#X msg 344 110 @clockwise \$1;
#X msg 488 110 @rotation \$1;
#X msg 362 140 @angles 0 45 110 202.5 295;
#X obj 344 170 s \$0-cm;
#X text 20 305 ...;
#X connect 0 0 4 0;
#X connect 0 1 4 1;
#X connect 0 2 4 2;
#X connect 0 3 4 3;
#X connect 0 4 4 4;
#X connect 2 0 6 0;
#X connect 1 0 7 0;
#X connect 7 0 10 0;
#X connect 9 0 10 0;
#X connect 6 0 10 0;
#X connect 8 0 10 0;
#X connect 3 0 8 0;
