#N canvas 0 0 741 597 12;
#X msg 20 50 clear \, matrix;
#X msg 299 50 image 150 10 img/puredata-ceammc.png 0.13 \, update;
#X msg 20 80 line 30 50 100% 100% \, stroke red \, update;
#X msg 299 80 qrcode 220 40 3 message \, fill black \, update;
#X msg 20 110 circle 0 0 50 \, fill blue \, update;
#X msg 299 110 star 150 160 5 30 \, stroke red \, update;
#X msg 20 140 rect 80% 90% 15% 10% \, fill navy \, update;
#X msg 299 140 abc 0 0 K:E L:1/4 =F4| \, update;
#X msg 20 170 curve 0 0 30% 50% 70% 50% 100% 0 \, stroke #FA0 \, update;
#X msg 20 200 polygon 20 90 40 70 100 70 90 190 \, fill lime!-30 \, update;
#X msg 20 230 csave \, translate 50% 50% \, rotate 35 \, font_size 40 \, text 0 0 CEAM \, fill gray \, crestore \, update;
#X msg 20 275 bg gray!+75 \, update;
#X obj 20 305 ui.canvas @size 300 200;
#X obj 20 530 ui.canvas.line;
#X obj 182 530 ui.canvas.text;
#X obj 353 530 ui.canvas.music;
#X obj 515 530 ui.canvas.matrix;
#X obj 20 560 ui.canvas.color;
#X obj 182 560 ui.canvas.arrows;
#X obj 353 560 ui.canvas.image;
#X connect 0 0 12 0;
#X connect 2 0 12 0;
#X connect 4 0 12 0;
#X connect 6 0 12 0;
#X connect 8 0 12 0;
#X connect 9 0 12 0;
#X connect 10 0 12 0;
#X connect 11 0 12 0;
#X connect 1 0 12 0;
#X connect 3 0 12 0;
#X connect 5 0 12 0;
#X connect 7 0 12 0;
