#N canvas 0 0 402 249 12;
#X msg 20 56 list a b c;
#X msg 124 56 1;
#X msg 156 56 symbol X;
#X msg 244 56 any msg;
#X msg 324 56 bang;
#X obj 20 104 ui.display;
#X text 20 140 display message type;
#X msg 20 164 list a b c;
#X msg 124 164 1;
#X msg 156 164 symbol X;
#X msg 244 164 any msg;
#X msg 324 164 bang;
#X obj 20 212 ui.dt;
#X connect 0 0 5 0;
#X connect 1 0 5 0;
#X connect 2 0 5 0;
#X connect 3 0 5 0;
#X connect 4 0 5 0;
#X connect 7 0 12 0;
#X connect 8 0 12 0;
#X connect 9 0 12 0;
#X connect 10 0 12 0;
#X connect 11 0 12 0;
