#N canvas 0 0 590 432 12;
#X msg 20 50 ar 10 450 \, bang;
#X obj 20 80 envelope;
#X msg 119 80 adsr 10 20 15 80;
#X msg 290 80 eadsr 180 -2 20 4 30 100 -8;
#X msg 137 110 asr 300 400;
#X msg 308 110 easr 200 2 30 7;
#X msg 155 140 ar 10 80;
#X msg 326 140 ear 10 -4 70 -6;
#X obj 20 200 ui.env @size 240 60;
#X text 353 200 Cmd+Click to play envelope;
#X obj 20 275 env->vline @sync 1;
#X obj 20 305 vline~;
#X obj 110 305 osc~ 1000;
#X obj 20 335 *~;
#X obj 20 365 ui.gain~ @size 120 16;
#X obj 236 365 ui.dsp~;
#X obj 20 395 dac~;
#X connect 0 0 1 0;
#X connect 1 0 8 0;
#X connect 2 0 8 0;
#X connect 4 0 8 0;
#X connect 6 0 8 0;
#X connect 3 0 8 0;
#X connect 5 0 8 0;
#X connect 7 0 8 0;
#X connect 8 0 10 0;
#X connect 10 0 11 0;
#X connect 11 0 13 0;
#X connect 12 0 13 1;
#X connect 13 0 14 0;
#X connect 14 0 16 0;
#X connect 14 0 16 1;
