#N canvas 0 0 464 402 12;
#X text 20 50 use [ui.hgain~] to create horizontal control];
#X obj 20 80 ui.hgain~;
#X obj 20 110 osc~ 440;
#X msg 47 140 @db -30;
#X msg 137 140 @amp 0.25;
#X msg 245 140 - 3;
#X msg 299 140 + 3;
#X msg 353 140 ++;
#X msg 398 140 --;
#X msg 65 170 bang;
#X obj 20 200 ui.gain~ @output_value 1;
#X obj 65 230 ui.dsp~;
#X obj 20 335 ~->;
#X obj 20 365 dac~;
#X obj 92 365 ui.display @display_type 1;
#X connect 2 0 10 0;
#X connect 3 0 10 0;
#X connect 9 0 10 0;
#X connect 4 0 10 0;
#X connect 5 0 10 0;
#X connect 6 0 10 0;
#X connect 7 0 10 0;
#X connect 8 0 10 0;
#X connect 10 0 12 0;
#X connect 12 0 13 0;
#X connect 12 1 14 0;
