#N canvas 0 0 407 237 12;
#X obj 20 50 bng 15 250 50 0 empty empty empty 17 7 0 10 -262144 -1
-1;
#X msg 56 50 inc;
#X msg 110 50 dec;
#X floatatom 299 50 5 0 0 0 - - -;
#X msg 128 80 @value?;
#X msg 218 80 set 10;
#X msg 299 80 @step \$1;
#X floatatom 155 110 5 0 0 0 - - -;
#X obj 20 140 ui.incdec @step 0.1;
#X obj 20 170 prop-> @value;
#X floatatom 20 200 5 0 0 0 - - -;
#X floatatom 110 200 5 0 0 0 - - -;
#X connect 3 0 6 0;
#X connect 0 0 8 0;
#X connect 1 0 8 0;
#X connect 2 0 8 0;
#X connect 4 0 8 0;
#X connect 7 0 8 0;
#X connect 5 0 8 0;
#X connect 6 0 8 0;
#X connect 8 0 9 0;
#X connect 9 0 10 0;
#X connect 9 1 11 0;
