#N canvas 0 0 514 237 12;
#X obj 20 50 ui.rslider @mouse_events 1;
#X obj 281 50 ui.rslider @mouse_events 1;
#X obj 20 80 ui.mouse_filter @up;
#X obj 281 80 ui.mouse_filter @drag;
#X obj 20 110 ui.display @display_type 1;
#X obj 281 110 ui.display @display_type 1;
#X obj 20 140 ui.rslider @mouse_events 1;
#X obj 20 170 ui.mouse_filter @down;
#X obj 20 200 ui.display @display_type 1;
#X connect 0 0 2 0;
#X connect 1 0 3 0;
#X connect 2 0 4 0;
#X connect 3 0 5 0;
#X connect 6 0 7 0;
#X connect 7 0 8 0;
