#N canvas 0 0 480 387 12;
#X msg 20 50 erase \, file_glob * %DOC%/sound \, 0;
#X obj 20 80 expand_env;
#X obj 20 110 ui.menu @max_length 32 @size 200 16;
#X obj 20 140 list.at 1;
#X symbolatom 20 170 60 0 0 0 - - -;
#X obj 20 200 t b s;
#X obj 20 230 del 100;
#X msg 110 230 open \$1;
#X msg 20 260 1;
#X msg 56 260 0;
#X obj 20 290 readsf~;
#X obj 20 320 ui.gain~ @size 120 16;
#X obj 254 320 ui.dsp~;
#X obj 20 350 dac~;
#X connect 0 0 1 0;
#X connect 1 0 2 0;
#X connect 2 0 3 0;
#X connect 3 0 4 0;
#X connect 4 0 5 0;
#X connect 5 0 6 0;
#X connect 5 1 7 0;
#X connect 6 0 8 0;
#X connect 8 0 10 0;
#X connect 9 0 10 0;
#X connect 7 0 10 0;
#X connect 10 0 11 0;
#X connect 11 0 13 0;
#X connect 11 0 13 1;
