#N canvas 0 0 415 387 12;
#X floatatom 110 50 5 0 0 0 - - -;
#X floatatom 227 50 5 0 0 0 - - -;
#X msg 20 65 dump;
#X msg 110 80 get row \$1;
#X msg 227 80 get col \$1;
#X msg 38 95 reset;
#X msg 128 110 bang;
#X msg 245 110 flip;
#X msg 308 110 get list;
#X obj 20 155 ui.matrix;
#X obj 20 230 route cell row col;
#X obj 182 260 ui.d;
#X obj 119 290 ui.d;
#X obj 74 320 ui.d;
#X obj 20 350 ui.d;
#X connect 0 0 3 0;
#X connect 1 0 4 0;
#X connect 2 0 9 0;
#X connect 5 0 9 0;
#X connect 3 0 9 0;
#X connect 6 0 9 0;
#X connect 4 0 9 0;
#X connect 7 0 9 0;
#X connect 8 0 9 0;
#X connect 9 0 10 0;
#X connect 10 3 11 0;
#X connect 10 2 12 0;
#X connect 10 1 13 0;
#X connect 10 0 14 0;
