#N canvas 0 0 593 352 12;
#X obj 20 50 ui.radio @presetname P-radio;
#X obj 317 50 ui.sliders @presetname P-sliders;
#X obj 20 95 ui.toggle @presetname P-toggle @size 17 17;
#X obj 20 140 ui.rslider @presetname P-rslider;
#X floatatom 20 170 5 0 0 0 - - -;
#X msg 20 200 load \$1;
#X obj 254 200 ui.hsl @min 0 @max 2;
#X msg 38 230 clear 1;
#X msg 146 230 clearall;
#X msg 254 230 interp \$1;
#X msg 56 260 store 1;
#X obj 164 260 loadmsg read prs.txt;
#X obj 20 290 ui.preset @size 102 42;
#X connect 4 0 5 0;
#X connect 6 0 9 0;
#X connect 5 0 12 0;
#X connect 7 0 12 0;
#X connect 10 0 12 0;
#X connect 8 0 12 0;
#X connect 11 0 12 0;
#X connect 9 0 12 0;
