#N canvas 0 0 320 207 12;
#X msg 20 50 20 80;
#X msg 137 50 60 90;
#X msg 38 80 @range?;
#X msg 155 80 @low?;
#X msg 227 80 @high?;
#X obj 20 140 ui.rslider @min 0 @max 100;
#X obj 20 170 ui.display @display_type 1;
#X connect 0 0 5 0;
#X connect 2 0 5 0;
#X connect 1 0 5 0;
#X connect 3 0 5 0;
#X connect 4 0 5 0;
#X connect 5 0 6 0;
