#N canvas 0 0 610 282 12;
#X floatatom 20 50 5 0 0 0 - - -;
#X msg 65 50 set 2;
#X msg 209 50 flip;
#X msg 272 50 reset;
#X msg 344 50 1 1 0 1 0 0 1;
#X msg 488 50 euclid 3 1;
#X msg 371 80 rotate 1;
#X msg 488 80 hexbeat BE;
#X obj 20 110 ui.radio;
#X obj 209 110 ui.radio*;
#X floatatom 20 140 5 0 0 0 - - -;
#X obj 209 140 ui.dt;
#X msg 20 170 + 3;
#X msg 74 170 - 1;
#X msg 128 170 prev;
#X msg 191 170 next;
#X msg 254 170 random;
#X msg 335 170 random move;
#X obj 20 215 ui.radio 4;
#X obj 20 245 ui.dt;
#X connect 0 0 8 0;
#X connect 1 0 8 0;
#X connect 2 0 9 0;
#X connect 3 0 9 0;
#X connect 4 0 9 0;
#X connect 6 0 9 0;
#X connect 8 0 10 0;
#X connect 9 0 11 0;
#X connect 12 0 18 0;
#X connect 13 0 18 0;
#X connect 14 0 18 0;
#X connect 15 0 18 0;
#X connect 16 0 18 0;
#X connect 17 0 18 0;
#X connect 18 0 19 0;
#X connect 5 0 9 0;
#X connect 7 0 9 0;
