#N canvas 0 0 613 342 12;
#X msg 20 50 5;
#X msg 56 50 50;
#X msg 101 50 set 100;
#X msg 191 50 bang;
#X msg 218 80 - 5;
#X msg 272 80 + 10;
#X msg 335 80 * 2;
#X msg 389 80 / 3;
#X msg 407 110 ++ \, bang;
#X msg 506 110 -- \, bang;
#X msg 425 140 random;
#X obj 20 170 ui.slider @max 127;
#X floatatom 20 305 5 0 0 0 - - -;
#X connect 0 0 11 0;
#X connect 1 0 11 0;
#X connect 2 0 11 0;
#X connect 3 0 11 0;
#X connect 4 0 11 0;
#X connect 5 0 11 0;
#X connect 6 0 11 0;
#X connect 7 0 11 0;
#X connect 8 0 11 0;
#X connect 10 0 11 0;
#X connect 11 0 12 0;
#X connect 9 0 11 0;
