#N canvas 0 0 466 237 12;
#X msg 20 50 append sqrt;
#X msg 173 50 set_item 0 white_noise;
#X msg 38 80 insert 0 saw;
#X msg 200 80 delete 1;
#X msg 56 110 clear;
#X floatatom 128 110 5 0 0 0 - - -;
#X obj 218 110 bng 15 250 50 0 empty empty empty 17 7 0 10 -262144 -1
-1;
#X msg 263 110 tri;
#X obj 344 110 tgl 15 0 empty empty empty 17 7 0 10 -262144 -1 -1 0 1;
#X msg 344 140 @toggle \$1;
#X obj 20 170 ui.tab @items sin tri @size 350 15;
#X obj 20 200 ui.d;
#X connect 8 0 9 0;
#X connect 0 0 10 0;
#X connect 2 0 10 0;
#X connect 4 0 10 0;
#X connect 5 0 10 0;
#X connect 1 0 10 0;
#X connect 3 0 10 0;
#X connect 6 0 10 0;
#X connect 7 0 10 0;
#X connect 9 0 10 0;
#X connect 10 0 11 0;
