#N canvas 0 0 544 237 12;
#X msg 20 50 append sqrt;
#X msg 146 50 set_item 0 white_noise;
#X msg 416 50 next;
#X msg 38 80 insert 0 saw;
#X msg 191 80 delete 1;
#X msg 299 80 + 1;
#X msg 416 80 random move;
#X msg 56 110 clear;
#X floatatom 128 110 5 0 0 0 - - -;
#X obj 209 110 bng 15 250 50 0 empty empty empty 17 7 0 10 -262144 -1
-1;
#X msg 245 110 tri;
#X obj 299 110 tgl 15 0 empty empty empty 17 7 0 10 -262144 -1 -1 0 1;
#X msg 416 110 random;
#X msg 299 140 @toggle \$1;
#X msg 416 140 flip;
#X obj 20 170 ui.tab @items sin tri @size 350 15;
#X obj 20 200 print;
#X obj 92 200 ui.dt;
#X connect 11 0 13 0;
#X connect 0 0 15 0;
#X connect 3 0 15 0;
#X connect 7 0 15 0;
#X connect 8 0 15 0;
#X connect 1 0 15 0;
#X connect 4 0 15 0;
#X connect 9 0 15 0;
#X connect 10 0 15 0;
#X connect 13 0 15 0;
#X connect 15 0 16 0;
#X connect 15 0 17 0;
#X connect 12 0 15 0;
#X connect 14 0 15 0;
#X connect 5 0 15 0;
#X connect 2 0 15 0;
#X connect 6 0 15 0;
