#N canvas 0 0 432 207 12;
#X msg 20 50 0 \, 1 200;
#X msg 128 50 1 100 50;
#X msg 227 50 0 \, 1 300 \, 0 500 300;
#X msg 245 80 0 \, 1 300 \, 0 500 500;
#X obj 20 140 vline2env;
#X obj 20 170 ui.env;
#X connect 0 0 4 0;
#X connect 1 0 4 0;
#X connect 2 0 4 0;
#X connect 3 0 4 0;
#X connect 4 0 5 0;
