#N canvas 0 0 580 267 12;
#X text 20 50 simple 2-channel crossfade;
#X obj 434 50 ui.radio 3;
#X obj 20 80 osc~ 440;
#X obj 155 80 ui.knob;
#X obj 290 80 osc~ 440;
#X obj 434 80 ui.knob @max 2;
#X obj 47 110 osc~ 1000;
#X obj 308 110 osc~ 1000;
#X floatatom 155 140 5 0 0 0 - - -;
#X obj 326 140 osc~ 1500;
#X floatatom 434 140 5 0 0 0 - - -;
#X obj 20 170 xfade~;
#X obj 290 170 xfade~ 3 @pow;
#X obj 20 200 ui.gain~ @size 120 16;
#X obj 290 200 ui.gain~ @size 120 16;
#X obj 20 230 dac~;
#X obj 290 230 dac~;
#X connect 1 0 5 0;
#X connect 3 0 8 0;
#X connect 5 0 10 0;
#X connect 2 0 11 0;
#X connect 6 0 11 1;
#X connect 8 0 11 2;
#X connect 4 0 12 0;
#X connect 7 0 12 1;
#X connect 9 0 12 2;
#X connect 10 0 12 3;
#X connect 11 0 13 0;
#X connect 12 0 14 0;
#X connect 13 0 15 0;
#X connect 13 0 15 1;
#X connect 14 0 16 0;
#X connect 14 0 16 1;
