#N canvas 155 51 686 596 12;
#X obj 45 150 cnv 15 590 395 empty empty empty 20 12 0 14 -228856 -66577
0;
#X obj 285 316 ui.link @size 133 16 @fontname "Helvetica" @fontweight
"normal" @fontslant "roman" @fontsize 11 @receive "(null)" @send "(null)"
@pinned 0 @bgcolor 1 1 1 1 @bdcolor 0.6 0.6 0.6 1 @url "@CEAMMC_LIB_HOME@"
@title "@CEAMMC_LIB_HOME@";
#X text 60 314 The source code available at:;
#X obj 60 481 ui.link @size 80 16 @fontname "Helvetica" @fontweight
"normal" @fontslant "roman" @fontsize 11 @receive "(null)" @send "(null)"
@pinned 0 @bgcolor 1 1 1 1 @bdcolor 0.6 0.6 0.6 1 @url "ceammc-help.pd"
@title "ceammc:doc";
#X obj 585 525 cnv 15 50 20 empty empty empty 20 12 0 14 -99865 -66577
0;
#X obj 45 525 cnv 15 50 20 empty empty empty 20 12 0 14 -99865 -66577
0;
#X obj 45 150 cnv 15 50 20 empty empty empty 20 12 0 14 -99865 -66577
0;
#X obj 45 16 ui.bang @size 101 101 @fontname "Helvetica" @fontweight
"normal" @fontslant "roman" @fontsize 11 @receive "(null)" @send "(null)"
@pinned 0 @bgcolor 1 1 1 1 @bdcolor 0.6 0.6 0.6 1 @bacolor 0 0.75 1
1 @borderwidth 1 @labeloffset 0 0;
#X obj 60 116 cnv 3 3 50 empty empty empty 20 12 0 14 -99865 -66577
0;
#X text 60 194 This is PureData distribution v@CEAMMC_DISTRIB_VERSION@
by Centre of electoacoustic music of Moscow Conservatory (CEAMMC) and
ZIL-electro studio. Made by Serge Poltavsky and Alex Nadzharov. It
based on original 'vanilla' Pd-@PD_TEXT_VERSION_SHORT@ by Miller Puckette.
;
#X text 60 284 Distribution license is GPL 3;
#N canvas 211 126 693 402 info 0;
#X obj 20 20 cnv 15 50 20 empty empty empty 20 12 0 14 -99865 -66577
0;
#X obj 25 25 cnv 10 40 10 empty empty empty 20 12 0 14 -233017 -66577
0;
#X obj 75 0 cnv 15 600 400 empty empty empty 20 12 0 14 -191407 -66577
0;
#X obj 120 30 cnv 15 500 200 empty empty empty 20 12 0 14 -233017 -66577
0;
#X text 150 59 Additional info;
#X text 150 104 Build date:;
#X text 150 164 Distribution version:;
#X text 150 179 ceammc version:;
#X text 150 149 Git commit:;
#X text 315 104 @BUILD_DATETIME@;
#X text 315 149 @GIT_COMMIT@;
#X text 315 134 @GIT_BRANCH@;
#X text 150 134 Git branch:;
#X text 315 164 v@CEAMMC_DISTRIB_VERSION@;
#X text 315 179 @CEAMMC_LIB_VERSION@;
#X text 150 194 origin Pd version:;
#X text 315 194 @PD_TEXT_VERSION_SHORT@;
#X text 150 119 Tcl/Tk version:;
#X text 315 119 @TK_VERSION@;
#X coords 0 -1 1 1 50 20 2 20 20;
#X restore 585 150 pd info;
#X text 60 389 This distribution contains ceammc-@CEAMMC_LIB_VERSION@
library \, that aims to be standard base for education and artists
purposes. It contains over 550 objects for working with lists \, GUI
etc.;
