#N canvas 0 0 785 555 12;
#X declare -lib ceammc;
#X obj 331 50 cnv 1 434 38 empty empty empty 17 7 0 10 -245760 -1 0;
#X text 331 50 convert array sample position to relative phase position
[0\..1];
#X obj 1 1 cnv 5 765 40 empty empty array.s2p 20 20 0 20 -104026 -4096
0;
#X obj 413 11 array.s->p;
#X obj 511 11 array.sample->phase;
#X obj 674 11 array.s2p;
#X obj 210 80 cnv 1 555 35 empty empty empty 17 7 0 10 -257983 -1 0;
#X text 215 80 with this object you can get relative position in array;
#X obj 50 143 hslider 128 15 0.0 100.0 0 0 empty empty empty 17 7 0 10
-262144 -1 -1 0 0;
#N canvas 0 22 450 300 (subpatch) 0;
#X array array1 100 float 1;
#A 0 0 0 0 0 0 0 0 0 0 0 0 0 0 0 0 0 0 0 0 0 0 0 0 0 0 0 0 0 0 0 0 0 0
0 0 0 0 0 0 0 0 0 0 0 0 0 0 0 0 0 0 0 0 0 0 0 0 0 0 0 0 0 0 0 0 0 0 0
0 0 0 0 0 0 0 0 0 0 0 0 0 0 0 0 0 0 0 0 0 0 0 0 0 0 0 0 0 0 0 0;
#X coords 0 1 100 -1 100 70 1;
#X restore 290 143 graph;
#X floatatom 50 172 5 0 0 0 - - -;
#X obj 50 201 array.s->p array1;
#X floatatom 50 230 5 0 0 0 - - -;
#X obj 50 259 array.p->s array1;
#X floatatom 50 287 5 0 0 0 - - -;
#X obj 20 326 cnv 1 745 1 empty empty empty 17 7 0 10 -203890 -1 0;
#X obj 20 331 cnv 5 90 26 empty empty arguments: 4 10 0 14 -262144
-49933 0;
#X text 110 366 1\.;
#X text 150 366 symbol;
#X obj 246 367 cnv 1 40 20 empty empty empty 17 7 0 10 -245695 -1 0;
#X text 245 366 NAME: array name.;
#X obj 20 396 cnv 1 745 1 empty empty empty 17 7 0 10 -203890 -1 0;
#X obj 20 401 cnv 5 98 26 empty empty properties: 4 10 0 14 -262144
-49933 0;
#X msg 110 436 @array;
#X text 245 436 Get/Set array name. Type: symbol.;
#X obj 20 475 cnv 1 745 1 empty empty empty 17 7 0 10 -203890 -1 0;
#X obj 20 480 cnv 5 64 26 empty empty inlets: 4 10 0 14 -262144 -49933
0;
#X text 110 481 1\.;
#X text 150 481 *float*;
#X text 245 481 array sample number.;
#X text 150 501 *list*;
#X text 245 501 list of sample numbers.;
#X obj 20 531 cnv 1 745 1 empty empty empty 17 7 0 10 -203890 -1 0;
#X obj 20 536 cnv 5 73 26 empty empty outlets: 4 10 0 14 -262144
-49933 0;
#X text 110 537 1\.;
#X text 245 537 relative position (non-clipped).;
#X obj 10 48 ui.link @title index @url ../index-help.pd;
#X text 51 45 ::;
#X obj 67 48 ui.link @title ceammc @url ceammc-help.pd;
#X text 115 45 ::;
#X obj 131 48 ui.link @title conv @url ceammc.conv-help.pd;
#X obj 1 587 cnv 5 765 48 empty empty empty 17 7 0 10 -203890 -1 0;
#X text 10 590 library: ceammc v0.9.0;
#X text 601 602 see also:;
#X obj 675 602 array.p2s;
#N canvas 10 609 400 290 info 0;
#X obj 1 1 cnv 1 107 287 empty empty empty 17 7 0 10 -183085 -1 0;
#X text 10 10 library:;
#X text 120 10 ceammc;
#X text 10 32 version:;
#X text 120 32 0.9.0;
#X text 10 54 object:;
#X text 120 54 array.s2p;
#X text 10 76 category:;
#X text 120 76 conv;
#X text 10 98 since:;
#X text 120 98 0.2;
#X text 10 120 authors:;
#X text 120 120 Serge Poltavsky;
#X text 10 142 license:;
#X text 120 142 GPL3 or later;
#X text 10 164 keywords:;
#X text 120 164 array \, phase \, sample;
#X text 10 186 website:;
#X obj 120 189 ui.link @title https://github.com/uliss/pure-data @url
https://github.com/uliss/pure-data;
#X obj 120 208 declare -lib ceammc;
#X obj 120 268 cnv 1 270 1 empty empty empty 17 7 0 10 -203890 -1 0;
#X text 120 268 generated by pddoc;
#X restore 10 609 pd info;
#X connect 8 0 10 0;
#X connect 10 0 11 0;
#X connect 11 0 12 0;
#X connect 12 0 13 0;
#X connect 13 0 14 0;