#N canvas 0 0 785 555 12;
#X declare -lib ceammc;
#X obj 468 50 cnv 1 297 23 empty empty empty 17 7 0 10 -245760 -1 0;
#X text 468 50 calculates array arithmetic mean value;
#X obj 1 1 cnv 5 765 40 empty empty array.mean 20 20 0 20 -104026
-4096 0;
#X obj 668 11 array.mean;
#X obj 210 80 cnv 1 555 33 empty empty empty 17 7 0 10 -257983 -1 0;
#X text 215 80 Wiki:;
#X obj 255 82 ui.link @background_color 0.98039 0.98039 0.98039 @title
Arithmetic mean @url https://en.wikipedia.org/wiki/Arithmetic_mean;
#X obj 50 141 bng 15 250 50 0 empty empty empty 17 7 0 10 -262144 -1
-1;
#N canvas 0 22 450 300 (subpatch) 0;
#X array amean 10 float 1;
#A 0 0 0 0 0 0 0 0 0 0 0;
#X coords 0 1 10 -1 180 130 1;
#X restore 347 141 graph;
#X obj 50 170 array.mean amean;
#X floatatom 50 199 16 0 0 0 - - -;
#X msg 50 228 uniform;
#X msg 146 228 fill 0;
#X obj 50 257 array.fill amean;
#X obj 20 296 cnv 1 745 1 empty empty empty 17 7 0 10 -203890 -1 0;
#X obj 20 301 cnv 5 90 26 empty empty arguments: 4 10 0 14 -262144
-49933 0;
#X text 110 336 1\.;
#X text 150 336 symbol;
#X obj 246 337 cnv 1 40 20 empty empty empty 17 7 0 10 -245695 -1 0;
#X text 245 336 NAME: array name.;
#X obj 20 366 cnv 1 745 1 empty empty empty 17 7 0 10 -203890 -1 0;
#X obj 20 371 cnv 5 98 26 empty empty properties: 4 10 0 14 -262144
-49933 0;
#X msg 110 406 @array;
#X text 245 406 Get/Set array name. Type: symbol.;
#X obj 20 445 cnv 1 745 1 empty empty empty 17 7 0 10 -203890 -1 0;
#X obj 20 450 cnv 5 64 26 empty empty inlets: 4 10 0 14 -262144 -49933
0;
#X text 110 451 1\.;
#X text 150 451 *bang*;
#X text 245 451 calculates and outputs mean value.;
#X obj 20 481 cnv 1 745 1 empty empty empty 17 7 0 10 -203890 -1 0;
#X obj 20 486 cnv 5 73 26 empty empty outlets: 4 10 0 14 -262144
-49933 0;
#X text 110 487 1\.;
#X text 245 487 mean value.;
#X obj 10 48 ui.link @title index @url ../index-help.pd;
#X text 51 45 ::;
#X obj 67 48 ui.link @title ceammc @url ceammc-help.pd;
#X text 115 45 ::;
#X obj 131 48 ui.link @title array @url ceammc.array-help.pd;
#X obj 1 537 cnv 5 765 48 empty empty empty 17 7 0 10 -203890 -1 0;
#X text 10 540 library: ceammc v0.9.0;
#X text 600 552 see also:;
#X obj 674 552 array.sum;
#N canvas 10 559 400 290 info 0;
#X obj 1 1 cnv 1 107 287 empty empty empty 17 7 0 10 -183085 -1 0;
#X text 10 10 library:;
#X text 120 10 ceammc;
#X text 10 32 version:;
#X text 120 32 0.9.0;
#X text 10 54 object:;
#X text 120 54 array.mean;
#X text 10 76 category:;
#X text 120 76 array;
#X text 10 98 since:;
#X text 120 98 0.8;
#X text 10 120 authors:;
#X text 120 120 Serge Poltavsky;
#X text 10 142 license:;
#X text 120 142 GPL3 or later;
#X text 10 164 keywords:;
#X text 120 164 array \, mean;
#X text 10 186 website:;
#X obj 120 189 ui.link @title https://github.com/uliss/pure-data @url
https://github.com/uliss/pure-data;
#X obj 120 208 declare -lib ceammc;
#X obj 120 268 cnv 1 270 1 empty empty empty 17 7 0 10 -203890 -1 0;
#X text 120 268 generated by pddoc;
#X restore 10 559 pd info;
#X connect 7 0 9 0;
#X connect 9 0 10 0;
#X connect 11 0 13 0;
#X connect 12 0 13 0;