#N canvas 0 0 785 555 12;
#X declare -lib ceammc;
#X obj 445 50 cnv 1 320 23 empty empty empty 17 7 0 10 -245760 -1 0;
#X text 445 50 simple array player for using with vline~;
#X obj 1 1 cnv 5 765 40 empty empty array.vplay 20 20 0 20 -104026
-4096 0;
#X obj 660 11 array.vplay;
#X msg 50 118 load %DOC%/sound/voice.wav @to vplay @resize;
#N canvas 0 22 450 300 (subpatch) 0;
#X array vplay 100 float 1;
#A 0 0 0 0 0 0 0 0 0 0 0 0 0 0 0 0 0 0 0 0 0 0 0 0 0 0 0 0 0 0 0 0 0 0
0 0 0 0 0 0 0 0 0 0 0 0 0 0 0 0 0 0 0 0 0 0 0 0 0 0 0 0 0 0 0 0 0 0 0
0 0 0 0 0 0 0 0 0 0 0 0 0 0 0 0 0 0 0 0 0 0 0 0 0 0 0 0 0 0 0 0;
#X coords 0 1 100 -1 120 80 1;
#X restore 443 133 graph;
#X obj 50 147 expand_env;
#X msg 184 147 0.3;
#X msg 242 147 1;
#X msg 280 147 1.7;
#X obj 50 176 snd.file;
#X floatatom 184 176 5 0 0 0 - - -;
#X obj 299 176 tgl 15 0 empty empty empty 17 7 0 10 -262144 -1 -1 0 1;
#X msg 50 219 stop \, play;
#X msg 184 219 @speed \$1;
#X msg 299 219 @reversed \$1;
#X obj 443 219 ui.rslider @mouse_events 1;
#X obj 69 248 r pos;
#X obj 146 248 bng 15 250 50 0 empty empty empty 17 7 0 10 -262144 -1
-1;
#X obj 443 248 ui.mouse_filter @up;
#X obj 50 277 array.vplay @array vplay;
#X msg 443 277 range \$1 phase \$2 phase;
#X obj 50 305 vline~;
#X obj 251 305 bng 15 250 50 0 empty empty empty 17 7 0 10 -262144 -1
-1;
#X msg 462 305 @begin 0;
#X msg 568 305 @end -1;
#X obj 50 334 tabread4~ vplay;
#X obj 443 334 s pos;
#X obj 50 363 ui.gain~ @size 120 16;
#X obj 328 363 ui.dsp~;
#X obj 50 392 dac~;
#X obj 20 431 cnv 1 745 1 empty empty empty 17 7 0 10 -203890 -1 0;
#X obj 20 436 cnv 5 90 26 empty empty arguments: 4 10 0 14 -262144
-49933 0;
#X text 110 471 1\.;
#X text 150 471 symbol;
#X obj 246 472 cnv 1 40 20 empty empty empty 17 7 0 10 -245695 -1 0;
#X text 245 471 NAME: array name.;
#X obj 20 501 cnv 1 745 1 empty empty empty 17 7 0 10 -203890 -1 0;
#X obj 20 506 cnv 5 98 26 empty empty properties: 4 10 0 14 -262144
-49933 0;
#X msg 110 541 @abs_begin;
#X text 245 541 (readonly) Get absolute start position in samples.
Type: int. Units: samp. Default value: 0\.;
#X msg 110 583 @abs_end;
#X text 245 583 (readonly) Get absolute stop position in samples. Type:
int. Units: samp. Default value: 0\.;
#X msg 110 625 @array;
#X text 245 625 Get/Set array name. Type: symbol.;
#X msg 110 654 @begin;
#X text 245 654 Get/Set begin position in samples. Type: int. Units:
samp. Default value: 0\.;
#X msg 110 696 @end;
#X text 245 696 Get/Set end position in samples. Type: int. Units:
samp. Default value: -1\.;
#X msg 110 738 @reversed;
#X text 245 738 Get/Set playing backwards (if set to 1). Type: int.
Default value: 0\. Allowed values: 0 \, 1\.;
#X msg 110 780 @speed;
#X text 245 780 Get/Set play speed. Type: float. Default value: 1\.
Min value: 0.1\.;
#X msg 110 822 @state;
#X text 245 822 (readonly) Get player state. Type: symbol. Default
value: stop. Allowed values: play \, stop.;
#X obj 20 874 cnv 1 745 1 empty empty empty 17 7 0 10 -203890 -1 0;
#X obj 20 879 cnv 5 73 26 empty empty methods: 4 10 0 14 -262144
-49933 0;
#X msg 110 914 play;
#X text 245 914 start playing.;
#X msg 110 941 range;
#X text 245 941 set play range. Arguments are:;
#X obj 255 964 cnv 1 45 23 empty empty empty 17 7 0 10 -245695 -1 0;
#X text 255 964 VALUE: start value. Negative values (offset from end)
are supported for ms \, sec and sample units. *-1 sample* means last
sample. Type: float.;
#X obj 255 1017 cnv 1 37 23 empty empty empty 17 7 0 10 -245695 -1 0;
#X text 255 1017 UNIT: value unit. Type: symbol. Allowed values: ms
\, sec \, phase \, sample.;
#X obj 255 1055 cnv 1 54 23 empty empty empty 17 7 0 10 -245695 -1 0;
#X text 255 1055 [VALUE]: end value. Type: float.;
#X obj 255 1078 cnv 1 37 23 empty empty empty 17 7 0 10 -245695 -1 0;
#X text 255 1078 UNIT: value unit. Type: symbol. Allowed values: ms
\, sec \, phase \, sample.;
#X msg 110 1118 stop;
#X text 245 1118 stop playing.;
#X obj 20 1155 cnv 1 745 1 empty empty empty 17 7 0 10 -203890 -1 0;
#X obj 20 1160 cnv 5 64 26 empty empty inlets: 4 10 0 14 -262144
-49933 0;
#X text 110 1161 1\.;
#X text 150 1161 *bang*;
#X text 245 1161 start playing from the begining.;
#X text 150 1181 *float*;
#X text 245 1181 1 - play \, 0 - stop.;
#X obj 20 1211 cnv 1 745 1 empty empty empty 17 7 0 10 -203890 -1 0;
#X obj 20 1216 cnv 5 73 26 empty empty outlets: 4 10 0 14 -262144
-49933 0;
#X text 110 1217 1\.;
#X text 245 1217 message to vline~ object.;
#X text 110 1237 2\.;
#X text 245 1237 bang after playing finished.;
#X obj 10 48 ui.link @title index @url ../index-help.pd;
#X text 51 45 ::;
#X obj 67 48 ui.link @title ceammc @url ceammc-help.pd;
#X text 115 45 ::;
#X obj 131 48 ui.link @title array @url ceammc.array-help.pd;
#X obj 1 1287 cnv 5 765 48 empty empty empty 17 7 0 10 -203890 -1 0;
#X text 10 1290 library: ceammc v0.9.0;
#X text 601 1302 see also:;
#X obj 675 1302 list.each;
#N canvas 10 1309 400 290 info 0;
#X obj 1 1 cnv 1 107 287 empty empty empty 17 7 0 10 -183085 -1 0;
#X text 10 10 library:;
#X text 120 10 ceammc;
#X text 10 32 version:;
#X text 120 32 0.9.0;
#X text 10 54 object:;
#X text 120 54 array.vplay;
#X text 10 76 category:;
#X text 120 76 array;
#X text 10 98 since:;
#X text 120 98 0.5;
#X text 10 120 authors:;
#X text 120 120 Serge Poltavsky;
#X text 10 142 license:;
#X text 120 142 GPL3 or later;
#X text 10 164 keywords:;
#X text 120 164 array \, play \, vline;
#X text 10 186 website:;
#X obj 120 189 ui.link @title https://github.com/uliss/pure-data @url
https://github.com/uliss/pure-data;
#X obj 120 208 declare -lib ceammc;
#X obj 120 268 cnv 1 270 1 empty empty empty 17 7 0 10 -203890 -1 0;
#X text 120 268 generated by pddoc;
#X restore 10 1309 pd info;
#X connect 4 0 6 0;
#X connect 6 0 10 0;
#X connect 7 0 11 0;
#X connect 8 0 11 0;
#X connect 9 0 11 0;
#X connect 11 0 14 0;
#X connect 12 0 15 0;
#X connect 16 0 19 0;
#X connect 13 0 20 0;
#X connect 17 0 20 0;
#X connect 18 0 20 0;
#X connect 14 0 20 0;
#X connect 15 0 20 0;
#X connect 19 0 21 0;
#X connect 20 0 22 0;
#X connect 20 1 23 0;
#X connect 22 0 26 0;
#X connect 21 0 27 0;
#X connect 24 0 27 0;
#X connect 25 0 27 0;
#X connect 26 0 28 0;
#X connect 28 0 30 0;
#X connect 28 0 30 1;