#N canvas 0 0 785 555 12;
#X declare -lib ceammc;
#X obj 408 50 cnv 1 357 23 empty empty empty 17 7 0 10 -245760 -1 0;
#X text 408 50 calculates standard deviation for array values;
#X obj 1 1 cnv 5 765 40 empty empty array.stddev 20 20 0 20 -104026
-4096 0;
#X obj 653 11 array.stddev;
#X obj 210 80 cnv 1 555 33 empty empty empty 17 7 0 10 -257983 -1 0;
#X text 215 80 Wiki:;
#X obj 255 82 ui.link @background_color 0.98039 0.98039 0.98039 @title
Standard deviation @url
https://en.wikipedia.org/wiki/Standard_deviation;
#X obj 50 141 bng 15 250 50 0 empty empty empty 17 7 0 10 -262144 -1
-1;
#N canvas 0 22 450 300 (subpatch) 0;
#X array astddev 200 float 1;
#A 0 0 0 0 0 0 0 0 0 0 0 0 0 0 0 0 0 0 0 0 0 0 0 0 0 0 0 0 0 0 0 0 0 0
0 0 0 0 0 0 0 0 0 0 0 0 0 0 0 0 0 0 0 0 0 0 0 0 0 0 0 0 0 0 0 0 0 0 0
0 0 0 0 0 0 0 0 0 0 0 0 0 0 0 0 0 0 0 0 0 0 0 0 0 0 0 0 0 0 0 0 0 0 0
0 0 0 0 0 0 0 0 0 0 0 0 0 0 0 0 0 0 0 0 0 0 0 0 0 0 0 0 0 0 0 0 0 0 0
0 0 0 0 0 0 0 0 0 0 0 0 0 0 0 0 0 0 0 0 0 0 0 0 0 0 0 0 0 0 0 0 0 0 0
0 0 0 0 0 0 0 0 0 0 0 0 0 0 0 0 0 0 0 0 0 0 0 0 0 0 0;
#X coords 0 1 200 -1 200 100 1;
#X restore 347 141 graph;
#X obj 50 170 array.stddev astddev;
#X floatatom 50 199 16 0 0 0 - - -;
#X msg 50 257 gauss 0 0.4;
#X msg 184 257 sin 25 1;
#X msg 290 257 fill 0;
#X obj 50 285 array.fill astddev;
#X obj 20 324 cnv 1 745 1 empty empty empty 17 7 0 10 -203890 -1 0;
#X obj 20 329 cnv 5 90 26 empty empty arguments: 4 10 0 14 -262144
-49933 0;
#X text 110 364 1\.;
#X text 150 364 symbol;
#X obj 246 365 cnv 1 40 20 empty empty empty 17 7 0 10 -245695 -1 0;
#X text 245 364 NAME: array name.;
#X obj 20 394 cnv 1 745 1 empty empty empty 17 7 0 10 -203890 -1 0;
#X obj 20 399 cnv 5 98 26 empty empty properties: 4 10 0 14 -262144
-49933 0;
#X msg 110 434 @array;
#X text 245 434 Get/Set array name. Type: symbol.;
#X obj 20 473 cnv 1 745 1 empty empty empty 17 7 0 10 -203890 -1 0;
#X obj 20 478 cnv 5 64 26 empty empty inlets: 4 10 0 14 -262144 -49933
0;
#X text 110 479 1\.;
#X text 150 479 *bang*;
#X text 245 479 calculates and outputs standard deviation.;
#X obj 20 509 cnv 1 745 1 empty empty empty 17 7 0 10 -203890 -1 0;
#X obj 20 514 cnv 5 73 26 empty empty outlets: 4 10 0 14 -262144
-49933 0;
#X text 110 515 1\.;
#X text 245 515 standard deviation value.;
#X obj 10 48 ui.link @title index @url ../index-help.pd;
#X text 51 45 ::;
#X obj 67 48 ui.link @title ceammc @url ceammc-help.pd;
#X text 115 45 ::;
#X obj 131 48 ui.link @title array @url ceammc.array-help.pd;
#X obj 1 565 cnv 5 765 48 empty empty empty 17 7 0 10 -203890 -1 0;
#X text 10 568 library: ceammc v0.9.0;
#X text 564 580 see also:;
#X obj 638 580 array.variance;
#N canvas 10 587 400 290 info 0;
#X obj 1 1 cnv 1 107 287 empty empty empty 17 7 0 10 -183085 -1 0;
#X text 10 10 library:;
#X text 120 10 ceammc;
#X text 10 32 version:;
#X text 120 32 0.9.0;
#X text 10 54 object:;
#X text 120 54 array.stddev;
#X text 10 76 category:;
#X text 120 76 array;
#X text 10 98 since:;
#X text 120 98 0.7.1;
#X text 10 120 authors:;
#X text 120 120 Serge Poltavsky;
#X text 10 142 license:;
#X text 120 142 GPL3 or later;
#X text 10 164 keywords:;
#X text 120 164 array \, deviation;
#X text 10 186 website:;
#X obj 120 189 ui.link @title https://github.com/uliss/pure-data @url
https://github.com/uliss/pure-data;
#X obj 120 208 declare -lib ceammc;
#X obj 120 268 cnv 1 270 1 empty empty empty 17 7 0 10 -203890 -1 0;
#X text 120 268 generated by pddoc;
#X restore 10 587 pd info;
#X connect 7 0 9 0;
#X connect 9 0 10 0;
#X connect 11 0 14 0;
#X connect 12 0 14 0;
#X connect 13 0 14 0;