#N canvas 0 0 785 555 12;
#X declare -lib ceammc;
#X obj 584 50 cnv 1 181 23 empty empty empty 17 7 0 10 -245760 -1 0;
#X text 584 50 current canvas fullpath;
#X obj 1 1 cnv 5 765 40 empty empty canvas.path 20 20 0 20 -104026
-4096 0;
#X obj 661 11 canvas.path;
#X obj 50 118 bng 15 250 50 0 empty empty empty 17 7 0 10 -262144 -1
-1;
#X obj 50 147 canvas.path;
#X obj 184 147 bng 15 250 50 0 empty empty empty 17 7 0 10 -262144 -1
-1;
#X obj 50 176 ui.display @size 150 18;
#X obj 20 216 cnv 1 745 1 empty empty empty 17 7 0 10 -203890 -1 0;
#X obj 20 221 cnv 5 64 26 empty empty inlets: 4 10 0 14 -262144 -49933
0;
#X text 110 222 1\.;
#X text 150 222 *bang*;
#X text 245 222 output current canvas fullpath.;
#X obj 20 252 cnv 1 745 1 empty empty empty 17 7 0 10 -203890 -1 0;
#X obj 20 257 cnv 5 73 26 empty empty outlets: 4 10 0 14 -262144
-49933 0;
#X text 110 258 1\.;
#X text 245 258 current canvas fullpath as symbol.;
#X obj 10 48 ui.link @title index @url ../index-help.pd;
#X text 51 45 ::;
#X obj 67 48 ui.link @title ceammc @url ceammc-help.pd;
#X text 115 45 ::;
#X obj 131 48 ui.link @title patch @url ceammc.patch-help.pd;
#X obj 1 505 cnv 5 765 48 empty empty empty 17 7 0 10 -203890 -1 0;
#X text 10 508 library: ceammc v0.9.0;
#X text 498 520 see also:;
#X obj 572 520 canvas.name;
#X obj 667 520 canvas.dir;
#N canvas 10 527 400 290 info 0;
#X obj 1 1 cnv 1 107 287 empty empty empty 17 7 0 10 -183085 -1 0;
#X text 10 10 library:;
#X text 120 10 ceammc;
#X text 10 32 version:;
#X text 120 32 0.9.0;
#X text 10 54 object:;
#X text 120 54 canvas.path;
#X text 10 76 category:;
#X text 120 76 patch;
#X text 10 98 since:;
#X text 120 98 0.8;
#X text 10 120 authors:;
#X text 120 120 Serge Poltavsky;
#X text 10 142 license:;
#X text 120 142 GPL3 or later;
#X text 10 164 keywords:;
#X text 120 164 canvas \, path;
#X text 10 186 website:;
#X obj 120 189 ui.link @title https://github.com/uliss/pure-data @url
https://github.com/uliss/pure-data;
#X obj 120 208 declare -lib ceammc;
#X obj 120 268 cnv 1 270 1 empty empty empty 17 7 0 10 -203890 -1 0;
#X text 120 268 generated by pddoc;
#X restore 10 527 pd info;
#X connect 4 0 5 0;
#X connect 5 0 7 0;
#X connect 6 0 7 0;