#N canvas 0 0 760 555 12;
#X obj 20 53 ui.link @title index @url ../index-help.pd;
#X text 62 50 ::;
#X obj 79 53 ui.link @title ceammc @url ceammc-help.pd;
#X obj 30 116 osc.blit~;
#X text 200 116 Bandlimited impulse train oscillator;
#X obj 30 143 osc.impulse~;
#X text 200 143 Bandlimited impulse train generator;
#X obj 30 170 osc.pulse~;
#X text 200 170 Bandlimited pulse train oscillator;
#X obj 30 197 osc.saw4~;
#X text 200 197 Bandlimited sawtooth wave;
#X obj 30 224 osc.saw~;
#X text 200 224 Alias-free sawtooth wave;
#X obj 30 251 osc.sinfb~;
#X text 200 251 Sine oscilator with feedback;
#X obj 30 278 osc.sin~;
#X text 200 278 Sine wave oscillator;
#X obj 30 305 osc.square~;
#X text 200 305 Bandlimited square wave oscillator;
#X obj 30 332 osc.tri~;
#X text 200 332 Bandlimited triangle wave oscillator;
#X obj 1 1 cnv 5 740 40 empty empty ceammc::osc 20 20 0 20 -104026
-4096 0;
#X obj 1 513 cnv 5 740 40 empty empty empty 17 7 0 10 -203890 -1 0;
#X text 20 523 library: ceammc;