#N canvas 0 0 760 555 12;
#X obj 20 53 ui.link @title index @url ../index-help.pd;
#X text 62 50 ::;
#X obj 79 53 ui.link @title ceammc @url ceammc-help.pd;
#X obj 30 116 midi.ctl2str;
#X text 200 116 convert Standard MIDI Controllers number to name;
#X obj 30 143 midi.event2ctl;
#X text 200 143 convert MidiEvent message to controller channel/value
pair;
#X obj 30 170 midi.event2note;
#X text 200 170 convert MidiEvent message to midi note/velocity pair;
#X obj 30 197 midi.event2prg;
#X text 200 197 convert MidiEvent message to midi program change value;
#X obj 30 224 midi.file;
#X text 200 224 standard midi file SMF reader and writer;
#X obj 30 251 midi.key2str;
#X text 200 251 convert key number to SPN name according to tonality;
#X obj 30 278 midi.prg2str;
#X text 200 278 convert GM Instrument number to name (string or symbol);
#X obj 30 305 midi.track;
#X text 200 305 extract track from MidiFile;
#X obj 1 1 cnv 5 740 40 empty empty ceammc::midi 20 20 0 20 -104026
-4096 0;
#X obj 1 513 cnv 5 740 40 empty empty empty 17 7 0 10 -203890 -1 0;
#X text 20 523 library: ceammc;