#N canvas 0 0 760 555 12;
#X obj 20 53 ui.link @title index @url ../index-help.pd;
#X text 62 50 ::;
#X obj 79 53 ui.link @title ceammc @url ceammc-help.pd;
#X obj 30 116 array.p2s;
#X text 200 116 convert array phase [0\..1] to sample position;
#X obj 30 143 array.s2p;
#X text 200 143 convert array sample position to relative phase position
[0\..1];
#X obj 30 183 conv.amp2dbfs;
#X text 200 183 convert from amplitude to decibel full scale;
#X obj 30 210 conv.amp2dbfs~;
#X text 200 210 convert from amplitude to decibel full scale;
#X obj 30 237 conv.bpm2hz;
#X text 200 237 converts BPM to frequency in herz;
#X obj 30 264 conv.bpm2ms;
#X text 200 264 convert frequency in BPM to period in milliseconds;
#X obj 30 291 conv.bpm2sec;
#X text 200 291 convert frequency in BPM to period in seconds;
#X obj 30 318 conv.car2pol;
#X text 200 318 convert cartesian coords to polar;
#X obj 30 345 conv.cc2amp;
#X text 200 345 convert from MIDI Control Change range;
#X obj 30 372 conv.dbfs2amp;
#X text 200 372 convert decibel full scale to amplitude;
#X obj 30 399 conv.lin2curve;
#X text 200 399 map linear to exponential range with 0 allowed.;
#X obj 30 426 conv.lin2exp;
#X text 200 426 maps linear range to exponential range;
#X obj 30 453 conv.lin2lin;
#X text 200 453 convert from one linear range to another;
#X obj 30 480 conv.lin2lin~;
#X text 200 480 convert from one linear range to another for signals;
#X obj 30 507 conv.list2props;
#X text 200 507 converts list to series of property messages;
#X obj 30 534 conv.midi2freq;
#X text 200 534 convert from midi pitch to frequency in hz (with various
base A and temperament);
#X obj 30 574 conv.ms2samp;
#X text 200 574 convert time in milliseconds to number of samples according
to current samplerate;
#X obj 30 614 conv.ms2samp~;
#X text 200 614 convert time in milliseconds to number of samples according
to current samplerate;
#X obj 30 654 conv.phase2rad;
#X text 200 654 convert phase value [0-1] to radians [0-2π];
#X obj 30 681 conv.phase2rad~;
#X text 200 681 convert phase value [0-1] to radians [0-2π];
#X obj 30 708 conv.pitch2midi;
#X text 200 708 converts symbol pitch name to MIDI note number;
#X obj 30 735 conv.pol2car;
#X text 200 735 convert from polar coordinates to cartesian;
#X obj 30 762 conv.rad2phase;
#X text 200 762 convert radians value to phase;
#X obj 30 789 conv.rad2phase~;
#X text 200 789 convert radians value to phase;
#X obj 30 816 conv.samp2ms;
#X text 200 816 convert samples to time according to samplerate;
#X obj 30 843 conv.samp2ms~;
#X text 200 843 convert samples to milliseconds according to samplerate;
#X obj 30 870 conv.samp2sec;
#X text 200 870 convert samples to time according to samplerate;
#X obj 30 897 conv.sec2samp;
#X text 200 897 convert time in seconds to number of samples according
to current samplerate;
#X obj 30 937 conv.sec2str;
#X text 200 937 converts float time in seconds to formated symbol (or
string);
#X obj 30 964 conv.str2sec;
#X text 200 964 converts formatted time to float value in seconds;
#X obj 1 1 cnv 5 740 40 empty empty ceammc::conv 20 20 0 20 -104026
-4096 0;
#X obj 1 991 cnv 5 740 40 empty empty empty 17 7 0 10 -203890 -1 0;
#X text 20 1001 library: ceammc;