#N canvas 0 0 760 555 12;
#X obj 20 53 ui.link @title index @url ../index-help.pd;
#X text 62 50 ::;
#X obj 79 53 ui.link @title ceammc @url ceammc-help.pd;
#X obj 30 116 symbol.equal;
#X text 200 116 check symbols for equality;
#X obj 30 143 symbol.length;
#X text 200 143 number of characters in symbol (unicode supported);
#X obj 30 170 symbol.num_compare;
#X text 200 170 numeric symbol compare;
#X obj 1 1 cnv 5 740 40 empty empty ceammc::symbol 20 20 0 20 -104026
-4096 0;
#X obj 1 513 cnv 5 740 40 empty empty empty 17 7 0 10 -203890 -1 0;
#X text 20 523 library: ceammc;