#N canvas 0 0 760 555 12;
#X obj 20 53 ui.link @title index @url ../index-help.pd;
#X text 62 50 ::;
#X obj 79 53 ui.link @title ceammc @url ceammc-help.pd;
#X obj 30 116 global.dict;
#X text 200 116 global named dict object;
#X obj 30 143 global.float;
#X text 200 143 global named float object;
#X obj 30 170 global.int;
#X text 200 170 global named integer object;
#X obj 30 197 global.list;
#X text 200 197 global named list object;
#X obj 30 224 global.mlist;
#X text 200 224 global named mlist object;
#X obj 30 251 global.set;
#X text 200 251 global named set object;
#X obj 1 1 cnv 5 740 40 empty empty ceammc::global 20 20 0 20 -104026
-4096 0;
#X obj 1 513 cnv 5 740 40 empty empty empty 17 7 0 10 -203890 -1 0;
#X text 20 523 library: ceammc;