#N canvas 0 0 785 555 12;
#X declare -lib ceammc;
#X obj 385 50 cnv 1 380 23 empty empty empty 17 7 0 10 -245760 -1 0;
#X text 385 50 converts formatted time to float value in seconds;
#X obj 1 1 cnv 5 765 40 empty empty conv.str2sec 20 20 0 20 -104026
-4096 0;
#X obj 570 11 str->sec;
#X obj 653 11 conv.str2sec;
#X msg 50 118 0:59;
#X msg 126 118 2:01;
#X msg 194 118 0:01.5;
#X msg 280 118 1:03:45;
#X obj 50 176 str->sec @on_err -100;
#X floatatom 50 205 5 0 0 0 - - -;
#X obj 50 234 sec->str;
#X symbolatom 50 262 12 0 0 0 - - -;
#X obj 20 301 cnv 1 745 1 empty empty empty 17 7 0 10 -203890 -1 0;
#X obj 20 306 cnv 5 98 26 empty empty properties: 4 10 0 14 -262144
-49933 0;
#X msg 110 341 @on_err;
#X text 245 341 Get/Set value returned when unrecognized symbol given.
Type: float. Default value: -1\.;
#X obj 20 393 cnv 1 745 1 empty empty empty 17 7 0 10 -203890 -1 0;
#X obj 20 398 cnv 5 64 26 empty empty inlets: 4 10 0 14 -262144 -49933
0;
#X text 110 399 1\.;
#X text 150 399 *symbol*;
#X text 245 399 Time in format: "HH:MM::SS[.XXX]".;
#X text 150 419 *data*;
#X text 245 419 String time in format: "HH:MM::SS[.XXX]".;
#X text 150 439 *any*;
#X text 245 439 Time in format: "HH:MM::SS[.XXX]".;
#X obj 20 469 cnv 1 745 1 empty empty empty 17 7 0 10 -203890 -1 0;
#X obj 20 474 cnv 5 73 26 empty empty outlets: 4 10 0 14 -262144
-49933 0;
#X text 110 475 1\.;
#X text 245 475 time in seconds.;
#X obj 10 48 ui.link @title index @url ../index-help.pd;
#X text 51 45 ::;
#X obj 67 48 ui.link @title ceammc @url ceammc-help.pd;
#X text 115 45 ::;
#X obj 131 48 ui.link @title conv @url ceammc.conv-help.pd;
#X obj 1 525 cnv 5 765 48 empty empty empty 17 7 0 10 -203890 -1 0;
#X text 10 528 library: ceammc v0.9.0;
#X text 579 540 see also:;
#X obj 653 540 conv.sec2str;
#N canvas 10 547 400 290 info 0;
#X obj 1 1 cnv 1 107 287 empty empty empty 17 7 0 10 -183085 -1 0;
#X text 10 10 library:;
#X text 120 10 ceammc;
#X text 10 32 version:;
#X text 120 32 0.9.0;
#X text 10 54 object:;
#X text 120 54 conv.str2sec;
#X text 10 76 category:;
#X text 120 76 conv;
#X text 10 98 since:;
#X text 120 98 0.1;
#X text 10 120 authors:;
#X text 120 120 Serge Poltavsky;
#X text 10 142 license:;
#X text 120 142 GPL3 or later;
#X text 10 164 keywords:;
#X text 120 164 conv \, time;
#X text 10 186 website:;
#X obj 120 189 ui.link @title https://github.com/uliss/pure-data @url
https://github.com/uliss/pure-data;
#X obj 120 208 declare -lib ceammc;
#X obj 120 268 cnv 1 270 1 empty empty empty 17 7 0 10 -203890 -1 0;
#X text 120 268 generated by pddoc;
#X restore 10 547 pd info;
#X connect 5 0 9 0;
#X connect 6 0 9 0;
#X connect 7 0 9 0;
#X connect 8 0 9 0;
#X connect 9 0 10 0;
#X connect 10 0 11 0;
#X connect 11 0 12 0;