#N canvas 0 0 785 555 12;
#X declare -lib ceammc;
#X obj 433 50 cnv 1 332 23 empty empty empty 17 7 0 10 -245760 -1 0;
#X text 433 50 convert phase value [0-1] to radians [0-2π];
#X obj 1 1 cnv 5 765 40 empty empty conv.phase2rad 20 20 0 20 -104026
-4096 0;
#X obj 542 11 phase->rad;
#X obj 639 11 conv.phase2rad;
#X obj 50 118 ui.knob;
#X floatatom 50 176 5 0 0 0 - - -;
#X obj 50 205 phase->rad;
#X floatatom 50 234 5 0 0 0 - - -;
#X obj 50 262 rad->phase;
#X obj 50 291 ui.knob;
#X obj 20 330 cnv 1 745 1 empty empty empty 17 7 0 10 -203890 -1 0;
#X obj 20 335 cnv 5 64 26 empty empty inlets: 4 10 0 14 -262144 -49933
0;
#X text 110 336 1\.;
#X text 150 336 *float*;
#X text 245 336 input value.;
#X text 150 356 *list*;
#X text 245 356 input values.;
#X obj 20 386 cnv 1 745 1 empty empty empty 17 7 0 10 -203890 -1 0;
#X obj 20 391 cnv 5 73 26 empty empty outlets: 4 10 0 14 -262144
-49933 0;
#X text 110 392 1\.;
#X text 245 392 converted value.;
#X obj 10 48 ui.link @title index @url ../index-help.pd;
#X text 51 45 ::;
#X obj 67 48 ui.link @title ceammc @url ceammc-help.pd;
#X text 115 45 ::;
#X obj 131 48 ui.link @title conv @url ceammc.conv-help.pd;
#X obj 1 505 cnv 5 765 48 empty empty empty 17 7 0 10 -203890 -1 0;
#X text 10 508 library: ceammc v0.9.0;
#X text 565 520 see also:;
#X obj 639 520 conv.rad2phase;
#N canvas 10 527 400 290 info 0;
#X obj 1 1 cnv 1 107 287 empty empty empty 17 7 0 10 -183085 -1 0;
#X text 10 10 library:;
#X text 120 10 ceammc;
#X text 10 32 version:;
#X text 120 32 0.9.0;
#X text 10 54 object:;
#X text 120 54 conv.phase2rad;
#X text 10 76 category:;
#X text 120 76 conv;
#X text 10 98 since:;
#X text 120 98 0.8;
#X text 10 120 authors:;
#X text 120 120 Serge Poltavsky;
#X text 10 142 license:;
#X text 120 142 GPL3 or later;
#X text 10 164 keywords:;
#X text 120 164 conv \, phase \, radians;
#X text 10 186 website:;
#X obj 120 189 ui.link @title https://github.com/uliss/pure-data @url
https://github.com/uliss/pure-data;
#X obj 120 208 declare -lib ceammc;
#X obj 120 268 cnv 1 270 1 empty empty empty 17 7 0 10 -203890 -1 0;
#X text 120 268 generated by pddoc;
#X restore 10 527 pd info;
#X connect 5 0 6 0;
#X connect 6 0 7 0;
#X connect 7 0 8 0;
#X connect 8 0 9 0;
#X connect 9 0 10 0;