#N canvas 0 0 785 555 12;
#X declare -lib ceammc;
#X obj 308 50 cnv 1 457 38 empty empty empty 17 7 0 10 -245760 -1 0;
#X text 308 50 convert time in milliseconds to number of samples according
to current samplerate;
#X obj 1 1 cnv 5 765 40 empty empty conv.ms2samp 20 20 0 20 -104026
-4096 0;
#X obj 570 11 ms->samp;
#X obj 653 11 conv.ms2samp;
#X floatatom 50 118 10 0 0 0 - - -;
#X obj 50 147 ms->samp;
#X floatatom 50 176 10 0 0 0 - - -;
#X obj 20 215 cnv 1 745 1 empty empty empty 17 7 0 10 -203890 -1 0;
#X obj 20 220 cnv 5 64 26 empty empty inlets: 4 10 0 14 -262144 -49933
0;
#X text 110 221 1\.;
#X text 150 221 *float*;
#X text 245 221 time in milliseconds.;
#X text 150 241 *list*;
#X text 245 241 list of times in milliseconds.;
#X obj 20 271 cnv 1 745 1 empty empty empty 17 7 0 10 -203890 -1 0;
#X obj 20 276 cnv 5 73 26 empty empty outlets: 4 10 0 14 -262144
-49933 0;
#X text 110 277 1\.;
#X text 245 277 converted value (float or list).;
#X obj 10 48 ui.link @title index @url ../index-help.pd;
#X text 51 45 ::;
#X obj 67 48 ui.link @title ceammc @url ceammc-help.pd;
#X text 115 45 ::;
#X obj 131 48 ui.link @title conv @url ceammc.conv-help.pd;
#X obj 1 505 cnv 5 765 48 empty empty empty 17 7 0 10 -203890 -1 0;
#X text 10 508 library: ceammc v0.9.0;
#X text 580 520 see also:;
#X obj 654 520 conv.samp2ms;
#N canvas 10 527 400 290 info 0;
#X obj 1 1 cnv 1 107 287 empty empty empty 17 7 0 10 -183085 -1 0;
#X text 10 10 library:;
#X text 120 10 ceammc;
#X text 10 32 version:;
#X text 120 32 0.9.0;
#X text 10 54 object:;
#X text 120 54 conv.ms2samp;
#X text 10 76 category:;
#X text 120 76 conv;
#X text 10 98 since:;
#X text 120 98 0.2;
#X text 10 120 authors:;
#X text 120 120 Serge Poltavsky;
#X text 10 142 license:;
#X text 120 142 GPL3 or later;
#X text 10 164 keywords:;
#X text 120 164 conv \, samp \, ms;
#X text 10 186 website:;
#X obj 120 189 ui.link @title https://github.com/uliss/pure-data @url
https://github.com/uliss/pure-data;
#X obj 120 208 declare -lib ceammc;
#X obj 120 268 cnv 1 270 1 empty empty empty 17 7 0 10 -203890 -1 0;
#X text 120 268 generated by pddoc;
#X restore 10 527 pd info;
#X connect 5 0 6 0;
#X connect 6 0 7 0;