#N canvas 0 0 785 555 12;
#X declare -lib ceammc;
#X obj 615 50 cnv 1 150 23 empty empty empty 17 7 0 10 -245760 -1 0;
#X text 615 50 robust float object;
#X obj 1 1 cnv 5 765 40 empty empty data.float 20 20 0 20 -104026
-4096 0;
#X obj 559 11 .float;
#X obj 626 11 .f;
#X obj 668 11 data.float;
#X floatatom 50 118 5 0 0 0 - - -;
#X msg 69 147 + 1.1 \, bang;
#X msg 203 147 10 \, bang;
#X msg 88 176 * 2 \, bang;
#X msg 222 176 / 3.1 \, bang;
#X msg 107 205 bang;
#X floatatom 251 205 5 0 0 0 - - -;
#X obj 50 234 .float 100;
#X floatatom 50 262 10 0 0 0 - - -;
#X obj 20 301 cnv 1 745 1 empty empty empty 17 7 0 10 -203890 -1 0;
#X obj 20 306 cnv 5 90 26 empty empty arguments: 4 10 0 14 -262144
-49933 0;
#X text 110 341 1\.;
#X text 150 341 float;
#X obj 246 342 cnv 1 32 20 empty empty empty 17 7 0 10 -245695 -1 0;
#X text 245 341 VAL: set initial value.;
#X obj 20 371 cnv 1 745 1 empty empty empty 17 7 0 10 -203890 -1 0;
#X obj 20 376 cnv 5 98 26 empty empty properties: 4 10 0 14 -262144
-49933 0;
#X msg 110 411 @value;
#X text 245 411 (readonly) Get current value. Type: float. Default
value: 0\.;
#X obj 20 450 cnv 1 745 1 empty empty empty 17 7 0 10 -203890 -1 0;
#X obj 20 455 cnv 5 73 26 empty empty methods: 4 10 0 14 -262144
-49933 0;
#X msg 110 490 set;
#X text 245 490 sets new value without output.;
#X msg 110 517 *;
#X text 245 517 multiply to \, no output.;
#X msg 110 544 +;
#X text 245 544 add to float \, no output.;
#X msg 110 571 -;
#X text 245 571 subtract from float \, no output.;
#X msg 110 598 /;
#X text 245 598 divide by \, no output.;
#X obj 20 635 cnv 1 745 1 empty empty empty 17 7 0 10 -203890 -1 0;
#X obj 20 640 cnv 5 64 26 empty empty inlets: 4 10 0 14 -262144 -49933
0;
#X text 110 641 1\.;
#X text 150 641 *bang*;
#X text 245 641 output value.;
#X text 150 661 *float*;
#X text 245 661 set new value and outputs.;
#X text 110 681 2\.;
#X text 245 681 set new value without output.;
#X obj 20 711 cnv 1 745 1 empty empty empty 17 7 0 10 -203890 -1 0;
#X obj 20 716 cnv 5 73 26 empty empty outlets: 4 10 0 14 -262144
-49933 0;
#X text 110 717 1\.;
#X text 245 717 set output.;
#X obj 10 48 ui.link @title index @url ../index-help.pd;
#X text 51 45 ::;
#X obj 67 48 ui.link @title ceammc @url ceammc-help.pd;
#X text 115 45 ::;
#X obj 131 48 ui.link @title data @url ceammc.data-help.pd;
#X obj 1 767 cnv 5 765 48 empty empty empty 17 7 0 10 -203890 -1 0;
#X text 10 770 library: ceammc v0.9.0;
#X text 608 782 see also:;
#X obj 682 782 data.int;
#N canvas 10 789 400 290 info 0;
#X obj 1 1 cnv 1 107 287 empty empty empty 17 7 0 10 -183085 -1 0;
#X text 10 10 library:;
#X text 120 10 ceammc;
#X text 10 32 version:;
#X text 120 32 0.9.0;
#X text 10 54 object:;
#X text 120 54 data.float;
#X text 10 76 category:;
#X text 120 76 data;
#X text 10 98 since:;
#X text 120 98 0.6;
#X text 10 120 authors:;
#X text 120 120 Serge Poltavsky;
#X text 10 142 license:;
#X text 120 142 GPL3 or later;
#X text 10 164 keywords:;
#X text 120 164 data \, float;
#X text 10 186 website:;
#X obj 120 189 ui.link @title https://github.com/uliss/pure-data @url
https://github.com/uliss/pure-data;
#X obj 120 208 declare -lib ceammc;
#X obj 120 268 cnv 1 270 1 empty empty empty 17 7 0 10 -203890 -1 0;
#X text 120 268 generated by pddoc;
#X restore 10 789 pd info;
#X connect 6 0 13 0;
#X connect 7 0 13 0;
#X connect 9 0 13 0;
#X connect 11 0 13 0;
#X connect 8 0 13 0;
#X connect 10 0 13 0;
#X connect 12 0 13 1;
#X connect 13 0 14 0;