#N canvas 0 0 785 555 12;
#X declare -lib ceammc;
#X obj 516 50 cnv 1 249 23 empty empty empty 17 7 0 10 -245760 -1 0;
#X text 516 50 Envelope time-shift (horizontal);
#X obj 1 1 cnv 5 765 40 empty empty env.tshift 20 20 0 20 -104026
-4096 0;
#X obj 668 11 env.tshift;
#X msg 50 118 ar 100 200 \, bang;
#X obj 50 147 envelope;
#X msg 155 147 @shift 0;
#X msg 261 147 @shift 50;
#X obj 50 205 env.tshift 10;
#X obj 50 234 env->array tshift_array @resize;
#N canvas 0 22 450 300 (subpatch) 0;
#X array tshift_array 100 float 1;
#A 0 0 0 0 0 0 0 0 0 0 0 0 0 0 0 0 0 0 0 0 0 0 0 0 0 0 0 0 0 0 0 0 0 0
0 0 0 0 0 0 0 0 0 0 0 0 0 0 0 0 0 0 0 0 0 0 0 0 0 0 0 0 0 0 0 0 0 0 0
0 0 0 0 0 0 0 0 0 0 0 0 0 0 0 0 0 0 0 0 0 0 0 0 0 0 0 0 0 0 0 0;
#X coords 0 1 100 0 300 100 1;
#X restore 50 277 graph;
#X obj 20 399 cnv 1 745 1 empty empty empty 17 7 0 10 -203890 -1 0;
#X obj 20 404 cnv 5 90 26 empty empty arguments: 4 10 0 14 -262144
-49933 0;
#X text 110 439 1\.;
#X text 150 439 float;
#X obj 246 440 cnv 1 77 20 empty empty empty 17 7 0 10 -245695 -1 0;
#X text 245 439 SHIFT(ms): time-shift.;
#X obj 20 469 cnv 1 745 1 empty empty empty 17 7 0 10 -203890 -1 0;
#X obj 20 474 cnv 5 98 26 empty empty properties: 4 10 0 14 -262144
-49933 0;
#X msg 110 509 @shift;
#X text 245 509 Get/Set time-shift. Type: float. Units: ms. Default
value: 0\.;
#X obj 20 561 cnv 1 745 1 empty empty empty 17 7 0 10 -203890 -1 0;
#X obj 20 566 cnv 5 64 26 empty empty inlets: 4 10 0 14 -262144 -49933
0;
#X text 110 567 1\.;
#X text 150 567 *data*;
#X text 245 567 input envelope.;
#X obj 20 597 cnv 1 745 1 empty empty empty 17 7 0 10 -203890 -1 0;
#X obj 20 602 cnv 5 73 26 empty empty outlets: 4 10 0 14 -262144
-49933 0;
#X text 110 603 1\.;
#X text 245 603 shifted output envelope.;
#X obj 10 48 ui.link @title index @url ../index-help.pd;
#X text 51 45 ::;
#X obj 67 48 ui.link @title ceammc @url ceammc-help.pd;
#X text 115 45 ::;
#X obj 131 48 ui.link @title env @url ceammc.env-help.pd;
#X obj 1 653 cnv 5 765 48 empty empty empty 17 7 0 10 -203890 -1 0;
#X text 10 656 library: ceammc v0.9.0;
#X text 520 668 see also:;
#X obj 594 668 env.tscale;
#X obj 682 668 envelope;
#N canvas 10 675 400 290 info 0;
#X obj 1 1 cnv 1 107 287 empty empty empty 17 7 0 10 -183085 -1 0;
#X text 10 10 library:;
#X text 120 10 ceammc;
#X text 10 32 version:;
#X text 120 32 0.9.0;
#X text 10 54 object:;
#X text 120 54 env.tshift;
#X text 10 76 category:;
#X text 120 76 env;
#X text 10 98 since:;
#X text 120 98 0.5;
#X text 10 120 authors:;
#X text 120 120 Serge Poltavsky;
#X text 10 142 license:;
#X text 120 142 GPL3 or later;
#X text 10 164 keywords:;
#X text 120 164 time \, shift;
#X text 10 186 website:;
#X obj 120 189 ui.link @title https://github.com/uliss/pure-data @url
https://github.com/uliss/pure-data;
#X obj 120 208 declare -lib ceammc;
#X obj 120 268 cnv 1 270 1 empty empty empty 17 7 0 10 -203890 -1 0;
#X text 120 268 generated by pddoc;
#X restore 10 675 pd info;
#X connect 4 0 5 0;
#X connect 5 0 8 0;
#X connect 6 0 8 0;
#X connect 7 0 8 0;
#X connect 8 0 9 0;