#N canvas 0 0 785 555 12;
#X declare -lib ceammc;
#X obj 591 50 cnv 1 174 23 empty empty empty 17 7 0 10 -245760 -1 0;
#X text 591 50 Envelope concatenation;
#X obj 1 1 cnv 5 765 40 empty empty env.concat 20 20 0 20 -104026
-4096 0;
#X obj 668 11 env.concat;
#X msg 50 118 bang;
#X obj 50 147 envelope adsr 10 40 20 50;
#X obj 117 176 loadbang;
#X obj 117 205 envelope ear 60 -4 30 2;
#X obj 50 234 env.concat;
#X obj 50 262 env->array concat_array @resize;
#N canvas 0 22 450 300 (subpatch) 0;
#X array concat_array 100 float 1;
#A 0 0 0 0 0 0 0 0 0 0 0 0 0 0 0 0 0 0 0 0 0 0 0 0 0 0 0 0 0 0 0 0 0 0
0 0 0 0 0 0 0 0 0 0 0 0 0 0 0 0 0 0 0 0 0 0 0 0 0 0 0 0 0 0 0 0 0 0 0
0 0 0 0 0 0 0 0 0 0 0 0 0 0 0 0 0 0 0 0 0 0 0 0 0 0 0 0 0 0 0 0;
#X coords 0 1 100 0 300 100 1;
#X restore 50 305 graph;
#X obj 20 427 cnv 1 745 1 empty empty empty 17 7 0 10 -203890 -1 0;
#X obj 20 432 cnv 5 64 26 empty empty inlets: 4 10 0 14 -262144 -49933
0;
#X text 110 433 1\.;
#X text 150 433 *bang*;
#X text 245 433 output concatenated result (previous).;
#X text 150 453 *data*;
#X text 245 453 set first envelope and output concatenated result.;
#X text 110 473 2\.;
#X text 150 473 *data*;
#X text 245 473 set second envelope (no output).;
#X obj 20 503 cnv 1 745 1 empty empty empty 17 7 0 10 -203890 -1 0;
#X obj 20 508 cnv 5 73 26 empty empty outlets: 4 10 0 14 -262144
-49933 0;
#X text 110 509 1\.;
#X text 245 509 new combined envelope.;
#X obj 10 48 ui.link @title index @url ../index-help.pd;
#X text 51 45 ::;
#X obj 67 48 ui.link @title ceammc @url ceammc-help.pd;
#X text 115 45 ::;
#X obj 131 48 ui.link @title env @url ceammc.env-help.pd;
#X obj 1 559 cnv 5 765 48 empty empty empty 17 7 0 10 -203890 -1 0;
#X text 10 562 library: ceammc v0.9.0;
#X text 521 574 see also:;
#X obj 595 574 env.tshift;
#X obj 682 574 envelope;
#N canvas 10 581 400 290 info 0;
#X obj 1 1 cnv 1 107 287 empty empty empty 17 7 0 10 -183085 -1 0;
#X text 10 10 library:;
#X text 120 10 ceammc;
#X text 10 32 version:;
#X text 120 32 0.9.0;
#X text 10 54 object:;
#X text 120 54 env.concat;
#X text 10 76 category:;
#X text 120 76 env;
#X text 10 98 since:;
#X text 120 98 0.5;
#X text 10 120 authors:;
#X text 120 120 Serge Poltavsky;
#X text 10 142 license:;
#X text 120 142 GPL3 or later;
#X text 10 164 keywords:;
#X text 120 164 concat;
#X text 10 186 website:;
#X obj 120 189 ui.link @title https://github.com/uliss/pure-data @url
https://github.com/uliss/pure-data;
#X obj 120 208 declare -lib ceammc;
#X obj 120 268 cnv 1 270 1 empty empty empty 17 7 0 10 -203890 -1 0;
#X text 120 268 generated by pddoc;
#X restore 10 581 pd info;
#X connect 4 0 5 0;
#X connect 6 0 7 0;
#X connect 5 0 8 0;
#X connect 7 0 8 1;
#X connect 8 0 9 0;