#N canvas 0 0 785 555 12;
#X declare -lib ceammc;
#X obj 423 50 cnv 1 342 23 empty empty empty 17 7 0 10 -245760 -1 0;
#X text 423 50 Converts envelope to bunch of vline messages;
#X obj 1 1 cnv 5 765 40 empty empty env2vline 20 20 0 20 -104026 -4096
0;
#X obj 576 11 env->vline;
#X obj 674 11 env2vline;
#X obj 210 80 cnv 1 555 50 empty empty empty 17 7 0 10 -257983 -1 0;
#X text 215 80 Supports stop-points for multisegment envelopes. Note:
non-linear envelopes are outputted using linear approximation;
#X obj 50 158 loadbang;
#X obj 414 158 r a1;
#X obj 50 187 envelope easr 20 -4 1000 -8;
#X obj 414 187 env->array env_a1;
#X obj 69 216 s a1;
#X msg 136 216 bang;
#X obj 203 216 tgl 15 0 empty empty empty 17 7 0 10 -262144 -1 -1 0 1;
#X obj 50 245 env->vline;
#N canvas 0 22 450 300 (subpatch) 0;
#X array env_a1 100 float 1;
#A 0 0 0 0 0 0 0 0 0 0 0 0 0 0 0 0 0 0 0 0 0 0 0 0 0 0 0 0 0 0 0 0 0 0
0 0 0 0 0 0 0 0 0 0 0 0 0 0 0 0 0 0 0 0 0 0 0 0 0 0 0 0 0 0 0 0 0 0 0
0 0 0 0 0 0 0 0 0 0 0 0 0 0 0 0 0 0 0 0 0 0 0 0 0 0 0 0 0 0 0 0;
#X coords 0 1 100 0 110 80 1;
#X restore 414 245 graph;
#X obj 50 274 vline~;
#X obj 136 274 osc~ 1000;
#X obj 50 302 *~;
#X obj 50 331 dac~;
#X obj 50 360 loadbang;
#X msg 50 389 line 0 100 1 400 0.2 1000 0.7 2000 0 \, set_stop_point 2 1 \, set_stop_point 3 1 \, bang;
#X obj 50 432 envelope;
#X msg 155 432 next;
#X msg 222 432 reset;
#X obj 434 432 r a2;
#X obj 69 461 s a2;
#X obj 434 461 env->array env_b1;
#X obj 50 489 env->vline;
#X obj 50 518 vline~;
#X obj 136 518 osc~ 1200;
#N canvas 0 22 450 300 (subpatch) 0;
#X array env_b1 100 float 1;
#A 0 0 0 0 0 0 0 0 0 0 0 0 0 0 0 0 0 0 0 0 0 0 0 0 0 0 0 0 0 0 0 0 0 0
0 0 0 0 0 0 0 0 0 0 0 0 0 0 0 0 0 0 0 0 0 0 0 0 0 0 0 0 0 0 0 0 0 0 0
0 0 0 0 0 0 0 0 0 0 0 0 0 0 0 0 0 0 0 0 0 0 0 0 0 0 0 0 0 0 0 0;
#X coords 0 1 100 0 110 80 1;
#X restore 414 518 graph;
#X obj 50 547 *~;
#X obj 50 576 dac~;
#X obj 20 620 cnv 1 745 1 empty empty empty 17 7 0 10 -203890 -1 0;
#X obj 20 625 cnv 5 98 26 empty empty properties: 4 10 0 14 -262144
-49933 0;
#X msg 110 660 @sync;
#X text 245 660 Get/Set sync with input data. When set to 1 outputs
envelope (as fixed) on every input data. Type: int. Default value:
0\. Allowed values: 0 \, 1\.;
#X obj 20 727 cnv 1 745 1 empty empty empty 17 7 0 10 -203890 -1 0;
#X obj 20 732 cnv 5 73 26 empty empty methods: 4 10 0 14 -262144
-49933 0;
#X msg 110 767 next;
#X text 245 767 output segment until next stop-point or end of envelope
is reached.;
#X msg 110 807 reset;
#X text 245 807 reset current segment position for multi-segment envelopes.;
#X obj 20 844 cnv 1 745 1 empty empty empty 17 7 0 10 -203890 -1 0;
#X obj 20 849 cnv 5 64 26 empty empty inlets: 4 10 0 14 -262144 -49933
0;
#X text 110 850 1\.;
#X text 150 850 *bang*;
#X text 245 850 output as envelope of fixed length (no stop-points
are encountered).;
#X text 150 885 *float*;
#X text 245 885 output as attack (on 1) / release (on 0) envelope with
one stop-point.;
#X text 150 920 *data*;
#X text 245 920 output as fixed envelope* data.;
#X obj 20 950 cnv 1 745 1 empty empty empty 17 7 0 10 -203890 -1 0;
#X obj 20 955 cnv 5 73 26 empty empty outlets: 4 10 0 14 -262144
-49933 0;
#X text 110 956 1\.;
#X text 245 956 bunch of vline-compatible messages: VALUE \, DURATION
\, OFFSET.;
#X obj 10 48 ui.link @title index @url ../index-help.pd;
#X text 51 45 ::;
#X obj 67 48 ui.link @title ceammc @url ceammc-help.pd;
#X text 115 45 ::;
#X obj 131 48 ui.link @title env @url ceammc.env-help.pd;
#X obj 1 1006 cnv 5 765 48 empty empty empty 17 7 0 10 -203890 -1 0;
#X text 10 1009 library: ceammc v0.9.0;
#X text 505 1021 see also:;
#X obj 579 1021 vline->env;
#X obj 667 1021 env->array;
#N canvas 10 1028 400 290 info 0;
#X obj 1 1 cnv 1 107 287 empty empty empty 17 7 0 10 -183085 -1 0;
#X text 10 10 library:;
#X text 120 10 ceammc;
#X text 10 32 version:;
#X text 120 32 0.9.0;
#X text 10 54 object:;
#X text 120 54 env2vline;
#X text 10 76 category:;
#X text 120 76 env;
#X text 10 98 since:;
#X text 120 98 0.5;
#X text 10 120 authors:;
#X text 120 120 Serge Poltavsky;
#X text 10 142 license:;
#X text 120 142 GPL3 or later;
#X text 10 164 keywords:;
#X text 120 164 envelope \, vline;
#X text 10 186 website:;
#X obj 120 189 ui.link @title https://github.com/uliss/pure-data @url
https://github.com/uliss/pure-data;
#X obj 120 208 declare -lib ceammc;
#X obj 120 268 cnv 1 270 1 empty empty empty 17 7 0 10 -203890 -1 0;
#X text 120 268 generated by pddoc;
#X restore 10 1028 pd info;
#X connect 7 0 9 0;
#X connect 8 0 10 0;
#X connect 9 0 11 0;
#X connect 9 0 14 0;
#X connect 12 0 14 0;
#X connect 13 0 14 0;
#X connect 14 0 16 0;
#X connect 16 0 18 0;
#X connect 17 0 18 1;
#X connect 18 0 19 0;
#X connect 18 0 19 1;
#X connect 20 0 21 0;
#X connect 21 0 22 0;
#X connect 22 0 26 0;
#X connect 25 0 27 0;
#X connect 22 0 28 0;
#X connect 23 0 28 0;
#X connect 24 0 28 0;
#X connect 28 0 29 0;
#X connect 29 0 32 0;
#X connect 30 0 32 1;
#X connect 32 0 33 0;
#X connect 32 0 33 1;