#N canvas 0 0 785 555 12;
#X declare -lib ceammc;
#X obj 521 50 cnv 1 244 23 empty empty empty 17 7 0 10 -245760 -1 0;
#X text 521 50 audio stream stereo multiplexer;
#X obj 1 1 cnv 5 765 40 empty empty flow.multiplex2~ 20 20 0 20
-104026 -4096 0;
#X obj 464 11 flow.mux2~;
#X obj 562 11 mux2~;
#X obj 624 11 flow.multiplex2~;
#X obj 50 118 osc~ 440;
#X obj 270 118 ui.radio @nitems 2;
#X obj 472 118 ui.dsp~;
#X obj 69 147 osc~ 442;
#X obj 98 176 osc~ 660;
#X obj 136 205 osc~ 662;
#X obj 50 248 flow.multiplex2~ 2;
#X obj 117 277 ui.slider @size 120 16;
#X obj 50 305 gain~ 2;
#X obj 50 334 dac~;
#X obj 20 373 cnv 1 745 1 empty empty empty 17 7 0 10 -203890 -1 0;
#X obj 20 378 cnv 5 90 26 empty empty arguments: 4 10 0 14 -262144
-49933 0;
#X text 110 413 1\.;
#X text 150 413 int;
#X obj 246 414 cnv 1 17 20 empty empty empty 17 7 0 10 -245695 -1 0;
#X text 245 413 N: number of input stereo-pairs. Range: 2\...8;
#X obj 20 443 cnv 1 745 1 empty empty empty 17 7 0 10 -203890 -1 0;
#X obj 20 448 cnv 5 98 26 empty empty properties: 4 10 0 14 -262144
-49933 0;
#X msg 110 483 @value;
#X text 245 483 Get/Set gain coefficients per each input. Type: list.
Default value: 1 0\.;
#X obj 20 535 cnv 1 745 1 empty empty empty 17 7 0 10 -203890 -1 0;
#X obj 20 540 cnv 5 64 26 empty empty inlets: 4 10 0 14 -262144 -49933
0;
#X text 110 541 1\.;
#X text 245 541 first left input signal.;
#X text 110 561 2\.;
#X text 245 561 first right input signal.;
#X text 110 581 ....;
#X text 245 581 ... left input signal.;
#X text 110 601 ....;
#X text 245 601 ... right input signal.;
#X text 110 621 n-1\.;
#X text 245 621 last left input signal.;
#X text 110 641 n-1\.;
#X text 245 641 last right input signal.;
#X text 110 661 n-1\.;
#X text 245 661 multiplexer control.;
#X obj 20 691 cnv 1 745 1 empty empty empty 17 7 0 10 -203890 -1 0;
#X obj 20 696 cnv 5 73 26 empty empty outlets: 4 10 0 14 -262144
-49933 0;
#X text 110 697 1\.;
#X text 245 697 left output.;
#X text 110 717 2\.;
#X text 245 717 right output.;
#X obj 10 48 ui.link @title index @url ../index-help.pd;
#X text 51 45 ::;
#X obj 67 48 ui.link @title ceammc @url ceammc-help.pd;
#X text 115 45 ::;
#X obj 131 48 ui.link @title flow @url ceammc.flow-help.pd;
#X obj 1 767 cnv 5 765 48 empty empty empty 17 7 0 10 -203890 -1 0;
#X text 10 770 library: ceammc v0.9.0;
#X text 440 782 see also:;
#X obj 514 782 flow.multiplex~;
#X obj 638 782 flow.multiplex;
#N canvas 10 789 400 290 info 0;
#X obj 1 1 cnv 1 107 287 empty empty empty 17 7 0 10 -183085 -1 0;
#X text 10 10 library:;
#X text 120 10 ceammc;
#X text 10 32 version:;
#X text 120 32 0.9.0;
#X text 10 54 object:;
#X text 120 54 flow.multiplex2~;
#X text 10 76 category:;
#X text 120 76 flow;
#X text 10 98 since:;
#X text 120 98 0.6;
#X text 10 120 authors:;
#X text 120 120 Serge Poltavsky;
#X text 10 142 license:;
#X text 120 142 GPL3 or later;
#X text 10 164 keywords:;
#X text 120 164 flow \, multiplex;
#X text 10 186 website:;
#X obj 120 189 ui.link @title https://github.com/uliss/pure-data @url
https://github.com/uliss/pure-data;
#X obj 120 208 declare -lib ceammc;
#X obj 120 268 cnv 1 270 1 empty empty empty 17 7 0 10 -203890 -1 0;
#X text 120 268 generated by pddoc;
#X restore 10 789 pd info;
#X connect 6 0 12 0;
#X connect 9 0 12 1;
#X connect 10 0 12 2;
#X connect 11 0 12 3;
#X connect 7 0 12 4;
#X connect 12 0 14 0;
#X connect 12 1 14 1;
#X connect 13 0 14 2;
#X connect 14 0 15 0;
#X connect 14 1 15 1;