#N canvas 0 0 785 555 12;
#X declare -lib ceammc;
#X obj 500 50 cnv 1 265 23 empty empty empty 17 7 0 10 -245760 -1 0;
#X text 500 50 control flow gate. [spigot] analog;
#X obj 1 1 cnv 5 765 40 empty empty flow.gate 20 20 0 20 -104026 -4096
0;
#X obj 620 11 gate;
#X obj 675 11 flow.gate;
#X floatatom 50 118 5 0 0 0 - - -;
#X obj 146 118 tgl 15 0 empty empty empty 17 7 0 10 -262144 -1 -1 0 1;
#X obj 50 147 flow.gate 1;
#X floatatom 50 176 5 0 0 0 - - -;
#X obj 20 215 cnv 1 745 1 empty empty empty 17 7 0 10 -203890 -1 0;
#X obj 20 220 cnv 5 90 26 empty empty arguments: 4 10 0 14 -262144
-49933 0;
#X text 110 255 1\.;
#X text 150 255 int;
#X obj 246 256 cnv 1 39 20 empty empty empty 17 7 0 10 -245695 -1 0;
#X text 245 255 PASS: init gate state. 1 means open \, 0 - closed.
By default gate is closed.;
#X obj 20 300 cnv 1 745 1 empty empty empty 17 7 0 10 -203890 -1 0;
#X obj 20 305 cnv 5 98 26 empty empty properties: 4 10 0 14 -262144
-49933 0;
#X msg 110 340 @state;
#X text 245 340 Get/Set gate state. 1 means open \, 0 - closed. Type:
int. Default value: 0\. Allowed values: 0 \, 1\.;
#X obj 20 392 cnv 1 745 1 empty empty empty 17 7 0 10 -203890 -1 0;
#X obj 20 397 cnv 5 64 26 empty empty inlets: 4 10 0 14 -262144 -49933
0;
#X text 110 398 1\.;
#X text 150 398 *any*;
#X text 245 398 input flow.;
#X text 110 418 2\.;
#X text 150 418 *float*;
#X text 245 418 gate control inlet. Sending *1* opens gate \, *0* -
closes.;
#X obj 20 448 cnv 1 745 1 empty empty empty 17 7 0 10 -203890 -1 0;
#X obj 20 453 cnv 5 73 26 empty empty outlets: 4 10 0 14 -262144
-49933 0;
#X text 110 454 1\.;
#X text 245 454 output flow.;
#X obj 10 48 ui.link @title index @url ../index-help.pd;
#X text 51 45 ::;
#X obj 67 48 ui.link @title ceammc @url ceammc-help.pd;
#X text 115 45 ::;
#X obj 131 48 ui.link @title flow @url ceammc.flow-help.pd;
#X obj 1 505 cnv 5 765 48 empty empty empty 17 7 0 10 -203890 -1 0;
#X text 10 508 library: ceammc v0.9.0;
#X text 601 520 see also:;
#X obj 675 520 flow.pass;
#N canvas 10 527 400 290 info 0;
#X obj 1 1 cnv 1 107 287 empty empty empty 17 7 0 10 -183085 -1 0;
#X text 10 10 library:;
#X text 120 10 ceammc;
#X text 10 32 version:;
#X text 120 32 0.9.0;
#X text 10 54 object:;
#X text 120 54 flow.gate;
#X text 10 76 category:;
#X text 120 76 flow;
#X text 10 98 since:;
#X text 120 98 0.4;
#X text 10 120 authors:;
#X text 120 120 Serge Poltavsky;
#X text 10 142 license:;
#X text 120 142 GPL3 or later;
#X text 10 164 keywords:;
#X text 120 164 gate;
#X text 10 186 website:;
#X obj 120 189 ui.link @title https://github.com/uliss/pure-data @url
https://github.com/uliss/pure-data;
#X obj 120 208 declare -lib ceammc;
#X obj 120 268 cnv 1 270 1 empty empty empty 17 7 0 10 -203890 -1 0;
#X text 120 268 generated by pddoc;
#X restore 10 527 pd info;
#X connect 5 0 7 0;
#X connect 6 0 7 1;
#X connect 7 0 8 0;