#N canvas 0 0 785 555 12;
#X declare -lib ceammc;
#X obj 690 50 cnv 1 75 23 empty empty empty 17 7 0 10 -245760 -1 0;
#X text 690 50 flow pack;
#X obj 1 1 cnv 5 765 40 empty empty flow.pack 20 20 0 20 -104026 -4096
0;
#X obj 674 11 flow.pack;
#X obj 50 118 bng 15 250 50 0 empty empty empty 17 7 0 10 -262144 -1
-1;
#X floatatom 98 118 5 0 0 0 - - -;
#X floatatom 155 118 5 0 0 0 - - -;
#X msg 203 118 1 2;
#X msg 280 118 1 2 3;
#X floatatom 357 118 5 0 0 0 - - -;
#X obj 50 162 flow.pack 3 0 0 ABC, f 20;
#X obj 50 190 ui.display @display_type 1 @size 150 18;
#X obj 20 230 cnv 1 745 1 empty empty empty 17 7 0 10 -203890 -1 0;
#X obj 20 235 cnv 5 90 26 empty empty arguments: 4 10 0 14 -262144
-49933 0;
#X text 110 270 1\.;
#X text 150 270 int;
#X obj 246 271 cnv 1 17 20 empty empty empty 17 7 0 10 -245695 -1 0;
#X text 245 270 N: number of inputs. Min value: 1;
#X text 110 290 2\.;
#X text 150 290 list;
#X obj 246 291 cnv 1 39 20 empty empty empty 17 7 0 10 -245695 -1 0;
#X text 245 290 VALS: default values for all inlets. If not enough
default values given it sets to 0\..;
#X obj 20 335 cnv 1 745 1 empty empty empty 17 7 0 10 -203890 -1 0;
#X obj 20 340 cnv 5 64 26 empty empty inlets: 4 10 0 14 -262144 -49933
0;
#X text 110 341 1\.;
#X text 150 341 *bang*;
#X text 245 341 output current value.;
#X text 150 361 *float*;
#X text 245 361 change first packed value and output.;
#X text 150 381 *symbol*;
#X text 245 381 change first packed value and output.;
#X text 150 401 *list*;
#X text 245 401 propagate list values to other inlets and output.;
#X text 150 421 *any*;
#X text 245 421 propagate message values to other inlets and output.;
#X text 110 441 ....;
#X text 150 441 *float*;
#X text 245 441 change ... packed value.;
#X text 150 461 *symbol*;
#X text 245 461 change ... packed value.;
#X text 150 481 *list*;
#X text 245 481 propagate ... list values among rest inlets.;
#X text 110 501 n.;
#X text 150 501 *float*;
#X text 245 501 change n-th packed value.;
#X text 150 521 *symbol*;
#X text 245 521 change n-th packed value.;
#X text 150 541 *list*;
#X text 245 541 propagate n-th list values among rest inlets.;
#X obj 20 571 cnv 1 745 1 empty empty empty 17 7 0 10 -203890 -1 0;
#X obj 20 576 cnv 5 73 26 empty empty outlets: 4 10 0 14 -262144
-49933 0;
#X text 110 577 1\.;
#X text 245 577 packed list or message (if message input).;
#X obj 10 48 ui.link @title index @url ../index-help.pd;
#X text 51 45 ::;
#X obj 67 48 ui.link @title ceammc @url ceammc-help.pd;
#X text 115 45 ::;
#X obj 131 48 ui.link @title flow @url ceammc.flow-help.pd;
#X obj 1 627 cnv 5 765 48 empty empty empty 17 7 0 10 -203890 -1 0;
#X text 10 630 library: ceammc v0.9.0;
#X text 439 642 see also:;
#X obj 513 642 pack;
#X obj 558 642 flow.sync;
#X obj 638 642 flow.sync_pack;
#N canvas 10 649 400 290 info 0;
#X obj 1 1 cnv 1 107 287 empty empty empty 17 7 0 10 -183085 -1 0;
#X text 10 10 library:;
#X text 120 10 ceammc;
#X text 10 32 version:;
#X text 120 32 0.9.0;
#X text 10 54 object:;
#X text 120 54 flow.pack;
#X text 10 76 category:;
#X text 120 76 flow;
#X text 10 98 since:;
#X text 120 98 0.8;
#X text 10 120 authors:;
#X text 120 120 Serge Poltavsky;
#X text 10 142 license:;
#X text 120 142 GPL3 or later;
#X text 10 164 keywords:;
#X text 120 164 flow \, pack;
#X text 10 186 website:;
#X obj 120 189 ui.link @title https://github.com/uliss/pure-data @url
https://github.com/uliss/pure-data;
#X obj 120 208 declare -lib ceammc;
#X obj 120 268 cnv 1 270 1 empty empty empty 17 7 0 10 -203890 -1 0;
#X text 120 268 generated by pddoc;
#X restore 10 649 pd info;
#X connect 4 0 10 0;
#X connect 5 0 10 0;
#X connect 6 0 10 1;
#X connect 7 0 10 0;
#X connect 8 0 10 0;
#X connect 9 0 10 2;
#X connect 10 0 11 0;