#N canvas 0 0 785 555 12;
#X declare -lib ceammc;
#X obj 561 50 cnv 1 204 23 empty empty empty 17 7 0 10 -245760 -1 0;
#X text 561 50 reject values by predicate;
#X obj 1 1 cnv 5 765 40 empty empty flow.reject_if 20 20 0 20 -104026
-4096 0;
#X obj 550 11 reject_if;
#X obj 639 11 flow.reject_if;
#X obj 210 80 cnv 1 555 90 empty empty empty 17 7 0 10 -257983 -1 0;
#X text 215 80 conditional value reject according to *predicate* object.
*predicate* should accept value and ouput 0 or 1 \, for value passing.;
#X text 215 135 [<] [is_even] [is_list] - examples of predicates.;
#X floatatom 50 198 5 0 0 0 - - -;
#X obj 50 227 flow.reject_if;
#X obj 232 227 < 10;
#X floatatom 50 256 5 0 0 0 - - -;
#X obj 20 295 cnv 1 745 1 empty empty empty 17 7 0 10 -203890 -1 0;
#X obj 20 300 cnv 5 64 26 empty empty inlets: 4 10 0 14 -262144 -49933
0;
#X text 110 301 1\.;
#X text 245 301 input value.;
#X text 110 321 2\.;
#X text 150 321 *int*;
#X text 245 321 value from predicate (0 or 1). If *1* reject value
\, if *0* - pass.;
#X obj 20 366 cnv 1 745 1 empty empty empty 17 7 0 10 -203890 -1 0;
#X obj 20 371 cnv 5 73 26 empty empty outlets: 4 10 0 14 -262144
-49933 0;
#X text 110 372 1\.;
#X text 245 372 passed values.;
#X text 110 392 2\.;
#X text 245 392 output value to predicate.;
#X obj 10 48 ui.link @title index @url ../index-help.pd;
#X text 51 45 ::;
#X obj 67 48 ui.link @title ceammc @url ceammc-help.pd;
#X text 115 45 ::;
#X obj 131 48 ui.link @title flow @url ceammc.flow-help.pd;
#X obj 1 505 cnv 5 765 48 empty empty empty 17 7 0 10 -203890 -1 0;
#X text 10 508 library: ceammc v0.9.0;
#X text 420 520 see also:;
#X obj 494 520 flow.pass_if;
#X obj 596 520 flow.reject;
#X obj 690 520 is_even;
#N canvas 10 527 400 290 info 0;
#X obj 1 1 cnv 1 107 287 empty empty empty 17 7 0 10 -183085 -1 0;
#X text 10 10 library:;
#X text 120 10 ceammc;
#X text 10 32 version:;
#X text 120 32 0.9.0;
#X text 10 54 object:;
#X text 120 54 flow.reject_if;
#X text 10 76 category:;
#X text 120 76 flow;
#X text 10 98 since:;
#X text 120 98 0.3;
#X text 10 120 authors:;
#X text 120 120 Serge Poltavsky;
#X text 10 142 license:;
#X text 120 142 GPL3 or later;
#X text 10 164 keywords:;
#X text 120 164 reject \, functional;
#X text 10 186 website:;
#X obj 120 189 ui.link @title https://github.com/uliss/pure-data @url
https://github.com/uliss/pure-data;
#X obj 120 208 declare -lib ceammc;
#X obj 120 268 cnv 1 270 1 empty empty empty 17 7 0 10 -203890 -1 0;
#X text 120 268 generated by pddoc;
#X restore 10 527 pd info;
#X connect 8 0 9 0;
#X connect 9 0 11 0;
#X connect 9 1 10 0;
#X connect 10 0 9 1;