#N canvas 0 0 785 555 12;
#X declare -lib ceammc;
#X obj 377 50 cnv 1 388 23 empty empty empty 17 7 0 10 -245760 -1 0;
#X text 377 50 Highshelf filter coefficient calculator for biquad;
#X obj 1 1 cnv 5 765 40 empty empty flt.c_highshelf~ 20 20 0 20
-104026 -4096 0;
#X obj 624 11 flt.c_highshelf~;
#X obj 210 80 cnv 1 555 75 empty empty empty 17 7 0 10 -257983 -1 0;
#X text 215 80 gain boost|cut above some frequency;
#X text 215 105 Calculates coefficients for transfer function: H(z)=(b0
+ b1*z⁻¹ + b2*z⁻²)/(1 + a1*z⁻¹ + a2*z⁻²);
#X obj 50 183 noise.pink~;
#X obj 78 212 tgl 15 0 empty empty empty 17 7 0 10 -262144 -1 -1 0 1;
#X obj 50 241 *~;
#X floatatom 98 270 5 0 0 0 - - -;
#X floatatom 203 270 5 0 0 0 - - -;
#X msg 98 299 @freq \$1;
#X msg 203 299 @gain \$1;
#X obj 98 327 flt.c_highshelf~ 1100 -15;
#X obj 50 370 flt.biquad~;
#X obj 50 399 ui.gain~ @size 120 16;
#X obj 50 428 dac~;
#X obj 50 457 ui.dsp~;
#X obj 20 496 cnv 1 745 1 empty empty empty 17 7 0 10 -203890 -1 0;
#X obj 20 501 cnv 5 90 26 empty empty arguments: 4 10 0 14 -262144
-49933 0;
#X text 110 536 1\.;
#X text 150 536 float;
#X obj 246 537 cnv 1 69 20 empty empty empty 17 7 0 10 -245695 -1 0;
#X text 245 536 freq(Hz): cutoff frequency.;
#X text 110 556 2\.;
#X text 150 556 float;
#X obj 246 557 cnv 1 70 20 empty empty empty 17 7 0 10 -245695 -1 0;
#X text 245 556 gain(db): filter gain. Range: -15\...+15;
#X obj 20 586 cnv 1 745 1 empty empty empty 17 7 0 10 -203890 -1 0;
#X obj 20 591 cnv 5 98 26 empty empty properties: 4 10 0 14 -262144
-49933 0;
#X msg 110 626 @active;
#X text 245 626 Get/Set on/off dsp processing. Type: int. Default value:
1\. Allowed values: 0 \, 1\.;
#X msg 110 668 @freq;
#X text 245 668 Get/Set center frequency. Type: float. Units: Hz. Default
value: 10000\. Range: 20\...20000\.;
#X msg 110 710 @gain;
#X text 245 710 Get/Set filter gain. Type: float. Units: db. Default
value: 0\. Range: -15\...15\.;
#X obj 20 762 cnv 1 745 1 empty empty empty 17 7 0 10 -203890 -1 0;
#X obj 20 767 cnv 5 64 26 empty empty inlets: 4 10 0 14 -262144 -49933
0;
#X text 110 768 1\.;
#X text 245 768 control input.;
#X obj 20 798 cnv 1 745 1 empty empty empty 17 7 0 10 -203890 -1 0;
#X obj 20 803 cnv 5 73 26 empty empty outlets: 4 10 0 14 -262144
-49933 0;
#X text 110 804 1\.;
#X text 245 804 b0\.;
#X text 110 824 2\.;
#X text 245 824 b1\.;
#X text 110 844 3\.;
#X text 245 844 b2\.;
#X text 110 864 4\.;
#X text 245 864 a1\.;
#X text 110 884 5\.;
#X text 245 884 a2\.;
#X obj 10 48 ui.link @title index @url ../index-help.pd;
#X text 51 45 ::;
#X obj 67 48 ui.link @title ceammc @url ceammc-help.pd;
#X text 115 45 ::;
#X obj 131 48 ui.link @title flt @url ceammc.flt-help.pd;
#X obj 1 934 cnv 5 765 48 empty empty empty 17 7 0 10 -203890 -1 0;
#X text 10 937 library: ceammc v0.9.0;
#X text 469 949 see also:;
#X obj 543 949 flt.highshelf~;
#X obj 660 949 flt.biquad~;
#N canvas 10 956 400 290 info 0;
#X obj 1 1 cnv 1 107 287 empty empty empty 17 7 0 10 -183085 -1 0;
#X text 10 10 library:;
#X text 120 10 ceammc;
#X text 10 32 version:;
#X text 120 32 0.9.0;
#X text 10 54 object:;
#X text 120 54 flt.c_highshelf~;
#X text 10 76 category:;
#X text 120 76 flt;
#X text 10 98 since:;
#X text 120 98 0.1;
#X text 10 120 authors:;
#X text 120 120 Alex Nadzharov \, Serge Poltavsky;
#X text 10 142 license:;
#X text 120 142 GPL3 or later;
#X text 10 164 keywords:;
#X text 120 164 filter \, highshelf;
#X text 10 186 website:;
#X obj 120 189 ui.link @title https://github.com/uliss/pure-data @url
https://github.com/uliss/pure-data;
#X obj 120 208 declare -lib ceammc;
#X obj 120 268 cnv 1 270 1 empty empty empty 17 7 0 10 -203890 -1 0;
#X text 120 268 generated by pddoc;
#X restore 10 956 pd info;
#X connect 7 0 9 0;
#X connect 8 0 9 1;
#X connect 10 0 12 0;
#X connect 11 0 13 0;
#X connect 12 0 14 0;
#X connect 13 0 14 0;
#X connect 9 0 15 0;
#X connect 14 0 15 1;
#X connect 14 1 15 2;
#X connect 14 2 15 3;
#X connect 14 3 15 4;
#X connect 14 4 15 5;
#X connect 15 0 16 0;
#X connect 16 0 17 0;
#X connect 16 0 17 1;