#N canvas 0 0 785 555 12;
#X declare -lib ceammc;
#X obj 599 50 cnv 1 166 23 empty empty empty 17 7 0 10 -245760 -1 0;
#X text 599 50 Guitarix drive effect;
#X obj 1 1 cnv 5 765 40 empty empty fx.drive~ 20 20 0 20 -104026 -4096
0;
#X obj 674 11 fx.drive~;
#X msg 50 118 open %CEAMMC%/guitar1.wav \, 1;
#X obj 50 147 expand_env;
#X obj 174 147 ui.knob @min 1 @max 10;
#X obj 50 205 readsf~;
#X msg 174 205 @drive \$1;
#X obj 50 262 fx.drive~;
#X obj 50 291 ui.gain~ @size 120 14;
#X obj 280 291 ui.dsp~;
#X obj 50 320 dac~;
#X obj 20 359 cnv 1 745 1 empty empty empty 17 7 0 10 -203890 -1 0;
#X obj 20 364 cnv 5 90 26 empty empty arguments: 4 10 0 14 -262144
-49933 0;
#X text 110 399 1\.;
#X text 150 399 float;
#X obj 246 400 cnv 1 47 20 empty empty empty 17 7 0 10 -245695 -1 0;
#X text 245 399 DRIVE: drive coefficient. Range: 1\...10;
#X obj 20 429 cnv 1 745 1 empty empty empty 17 7 0 10 -203890 -1 0;
#X obj 20 434 cnv 5 98 26 empty empty properties: 4 10 0 14 -262144
-49933 0;
#X msg 110 469 @active;
#X text 245 469 Get/Set on/off dsp processing. Type: int. Default value:
1\. Allowed values: 0 \, 1\.;
#X msg 110 511 @bypass;
#X text 245 511 Get/Set if set to 1 - bypass 'effected' signal. Type:
int. Default value: 0\. Allowed values: 0 \, 1\.;
#X msg 110 553 @drive;
#X text 245 553 Get/Set drive coefficient. Type: float. Default value:
1\. Range: 1\...10\.;
#X obj 20 605 cnv 1 745 1 empty empty empty 17 7 0 10 -203890 -1 0;
#X obj 20 610 cnv 5 64 26 empty empty inlets: 4 10 0 14 -262144 -49933
0;
#X text 110 611 1\.;
#X text 245 611 input signal.;
#X obj 20 641 cnv 1 745 1 empty empty empty 17 7 0 10 -203890 -1 0;
#X obj 20 646 cnv 5 73 26 empty empty outlets: 4 10 0 14 -262144
-49933 0;
#X text 110 647 1\.;
#X text 245 647 output.;
#X obj 10 48 ui.link @title index @url ../index-help.pd;
#X text 51 45 ::;
#X obj 67 48 ui.link @title ceammc @url ceammc-help.pd;
#X text 115 45 ::;
#X obj 131 48 ui.link @title fx @url ceammc.fx-help.pd;
#X obj 1 697 cnv 5 765 48 empty empty empty 17 7 0 10 -203890 -1 0;
#X text 10 700 library: ceammc v0.9.0;
#N canvas 10 719 400 290 info 0;
#X obj 1 1 cnv 1 107 287 empty empty empty 17 7 0 10 -183085 -1 0;
#X text 10 10 library:;
#X text 120 10 ceammc;
#X text 10 32 version:;
#X text 120 32 0.9.0;
#X text 10 54 object:;
#X text 120 54 fx.drive~;
#X text 10 76 category:;
#X text 120 76 fx;
#X text 10 98 since:;
#X text 120 98 0.7;
#X text 10 120 authors:;
#X text 120 120 Serge Poltavsky;
#X text 10 142 license:;
#X text 120 142 GPL3 or later;
#X text 10 164 keywords:;
#X text 120 164 fx \, drive;
#X text 10 186 website:;
#X obj 120 189 ui.link @title https://github.com/uliss/pure-data @url
https://github.com/uliss/pure-data;
#X obj 120 208 declare -lib ceammc;
#X obj 120 268 cnv 1 270 1 empty empty empty 17 7 0 10 -203890 -1 0;
#X text 120 268 generated by pddoc;
#X restore 10 719 pd info;
#X connect 4 0 5 0;
#X connect 5 0 7 0;
#X connect 6 0 8 0;
#X connect 7 0 9 0;
#X connect 8 0 9 0;
#X connect 9 0 10 0;
#X connect 10 0 12 0;
#X connect 10 0 12 1;