#N canvas 0 0 785 555 12;
#X declare -lib ceammc;
#X obj 408 50 cnv 1 357 23 empty empty empty 17 7 0 10 -245760 -1 0;
#X text 408 50 simple distortion #3 from Guitarix effects set;
#X obj 1 1 cnv 5 765 40 empty empty fx.distortion3~ 20 20 0 20 -104026
-4096 0;
#X obj 631 11 fx.distortion3~;
#X msg 50 118 open %CEAMMC%/guitar1.wav \, 1;
#X obj 50 147 expand_env;
#X obj 50 176 readsf~;
#X obj 69 205 ui.knob;
#X obj 184 205 ui.knob;
#X obj 309 205 ui.knob;
#X obj 434 205 tgl 15 0 empty empty empty 17 7 0 10 -262144 -1 -1 0 1;
#X msg 69 262 @drive \$1;
#X msg 184 262 @offset \$1;
#X msg 309 262 @drywet \$1;
#X msg 434 262 @bypass \$1;
#X obj 50 305 fx.distortion2~;
#X obj 50 334 ui.gain~ @size 120 16;
#X obj 376 334 ui.dsp~;
#X obj 50 363 dac~;
#X obj 20 402 cnv 1 745 1 empty empty empty 17 7 0 10 -203890 -1 0;
#X obj 20 407 cnv 5 98 26 empty empty properties: 4 10 0 14 -262144
-49933 0;
#X msg 110 442 @active;
#X text 245 442 Get/Set on/off dsp processing. Type: int. Default value:
1\. Allowed values: 0 \, 1\.;
#X msg 110 484 @bypass;
#X text 245 484 Get/Set if set to 1 - bypass 'effected' signal. Type:
int. Default value: 0\. Allowed values: 0 \, 1\.;
#X msg 110 526 @drive;
#X text 245 526 Get/Set distortion amount. Type: float. Default value:
0.5\. Range: 0\...1\.;
#X msg 110 568 @drywet;
#X text 245 568 Get/Set proportion of mix between the original (dry)
and 'effected' (wet) signals. 0 - dry signal \, 1 - wet. Type: float.
Default value: 1\. Range: 0\...1\.;
#X msg 110 625 @gain;
#X text 245 625 Get/Set total effect gain. Type: float. Units: db.
Default value: 0\. Range: -30\...10\.;
#X msg 110 667 @hp_freq;
#X text 245 667 Get/Set high pass frequency. Type: float. Units: Hz.
Default value: 30\. Range: 20\...2000\.;
#X msg 110 709 @lp_freq;
#X text 245 709 Get/Set low pass frequency. Type: float. Units: Hz.
Default value: 10000\. Range: 1000\...20000\.;
#X obj 20 761 cnv 1 745 1 empty empty empty 17 7 0 10 -203890 -1 0;
#X obj 20 766 cnv 5 64 26 empty empty inlets: 4 10 0 14 -262144 -49933
0;
#X text 110 767 1\.;
#X text 245 767 input signal.;
#X obj 20 797 cnv 1 745 1 empty empty empty 17 7 0 10 -203890 -1 0;
#X obj 20 802 cnv 5 73 26 empty empty outlets: 4 10 0 14 -262144
-49933 0;
#X text 110 803 1\.;
#X text 245 803 output signal.;
#X obj 10 48 ui.link @title index @url ../index-help.pd;
#X text 51 45 ::;
#X obj 67 48 ui.link @title ceammc @url ceammc-help.pd;
#X text 115 45 ::;
#X obj 131 48 ui.link @title fx @url ceammc.fx-help.pd;
#X obj 1 853 cnv 5 765 48 empty empty empty 17 7 0 10 -203890 -1 0;
#X text 10 856 library: ceammc v0.9.0;
#X text 316 868 see also:;
#X obj 390 868 fx.distortion~;
#X obj 507 868 fx.distortion1~;
#X obj 631 868 fx.distortion2~;
#N canvas 10 875 400 290 info 0;
#X obj 1 1 cnv 1 107 287 empty empty empty 17 7 0 10 -183085 -1 0;
#X text 10 10 library:;
#X text 120 10 ceammc;
#X text 10 32 version:;
#X text 120 32 0.9.0;
#X text 10 54 object:;
#X text 120 54 fx.distortion3~;
#X text 10 76 category:;
#X text 120 76 fx;
#X text 10 98 since:;
#X text 120 98 0.7;
#X text 10 120 authors:;
#X text 120 120 Serge Poltavsky;
#X text 10 142 license:;
#X text 120 142 GPL3 or later;
#X text 10 164 keywords:;
#X text 120 164 fx \, distortion;
#X text 10 186 website:;
#X obj 120 189 ui.link @title https://github.com/uliss/pure-data @url
https://github.com/uliss/pure-data;
#X obj 120 208 declare -lib ceammc;
#X obj 120 268 cnv 1 270 1 empty empty empty 17 7 0 10 -203890 -1 0;
#X text 120 268 generated by pddoc;
#X restore 10 875 pd info;
#X connect 4 0 5 0;
#X connect 5 0 6 0;
#X connect 7 0 11 0;
#X connect 8 0 12 0;
#X connect 9 0 13 0;
#X connect 10 0 14 0;
#X connect 6 0 15 0;
#X connect 11 0 15 0;
#X connect 12 0 15 0;
#X connect 13 0 15 0;
#X connect 14 0 15 0;
#X connect 15 0 16 0;
#X connect 16 0 18 0;
#X connect 16 0 18 1;