#N canvas 0 0 785 555 12;
#X declare -lib ceammc;
#X obj 560 50 cnv 1 205 23 empty empty empty 17 7 0 10 -245760 -1 0;
#X text 560 50 A complex echo-like effect;
#X obj 1 1 cnv 5 765 40 empty empty fx.greyhole~ 20 20 0 20 -104026
-4096 0;
#X obj 653 11 fx.greyhole~;
#X obj 210 80 cnv 1 555 120 empty empty empty 17 7 0 10 -257983 -1 0;
#X text 215 80 A complex echo-like effect \, inspired by the classic
Eventide effect of a similar name. The effect consists of a diffuser
(like a mini-reverb \, structurally similar to the one used in JPverb)
connected in a feedback system with a long \, modulated delay-line.
Excels at producing spacey washes of sound.;
#X text 215 165 Developed as part of the DEIND project.;
#X msg 50 228 1000 1000 0 \, 300 300 1000 \, 3000 500 1300 \, 0 100 1400;
#X obj 50 257 vline~;
#X obj 50 286 osc.saw~;
#X obj 50 315 fx.greyhole~;
#X obj 213 315 ui.hsl;
#X obj 50 358 *~;
#X obj 126 358 *~;
#X obj 50 401 dac~;
#X obj 20 440 cnv 1 745 1 empty empty empty 17 7 0 10 -203890 -1 0;
#X obj 20 445 cnv 5 98 26 empty empty properties: 4 10 0 14 -262144
-49933 0;
#X msg 110 480 @active;
#X text 245 480 Get/Set on/off dsp processing. Type: int. Default value:
1\. Allowed values: 0 \, 1\.;
#X msg 110 522 @bypass;
#X text 245 522 Get/Set if set to 1 - bypass 'effected' signal. Type:
int. Default value: 0\. Allowed values: 0 \, 1\.;
#X msg 110 564 @damping;
#X text 245 564 Get/Set controls damping of high-frequencies as the
delay decays. 0 is no damping \, 1 is very strong damping. Type: float.
Default value: 0\. Range: 0\...0.99\.;
#X msg 110 621 @delaytime;
#X text 245 621 Get/Set approximate delay time in seconds. Type: float.
Units: sec. Default value: 0.2\. Range: 0.001\...1.45\.;
#X msg 110 663 @diffusion;
#X text 245 663 Get/Set shape of the diffusion unit. Values greater
than 0.707 produce smooth exponential decay. Lower values produce a
slower build-up of echoes. Type: float. Default value: 0.5\. Range:
0\...0.99\.;
#X msg 110 735 @drywet;
#X text 245 735 Get/Set proportion of mix between the original (dry)
and 'effected' (wet) signals. 0 - dry signal \, 1 - wet. Type: float.
Default value: 1\. Range: 0\...1\.;
#X msg 110 792 @feedback;
#X text 245 792 Get/Set amount of feedback for the delay line. Type:
float. Default value: 0.9\. Range: 0\...1\.;
#X msg 110 834 @moddepth;
#X text 245 834 Get/Set depth of delay-line modulation. Use in combination
with *@modfreq* to set amount of chorusing within the structure. Type:
float. Default value: 0.1\. Range: 0\...1\.;
#X msg 110 891 @modfreq;
#X text 245 891 Get/Set frequency of delay-line modulation. Use in
combination with *@moddepth* to set amount of chorusing within the
structure. Type: float. Default value: 2\. Range: 0\...10\.;
#X msg 110 963 @size;
#X text 245 963 Get/Set size of delay-lines within the diffusion unit
\, producing the impression of a larger or smaller space. Values below
1 can sound quite metallic. Type: float. Default value: 1\. Range:
0.5\...3\.;
#X obj 20 1045 cnv 1 745 1 empty empty empty 17 7 0 10 -203890 -1 0;
#X obj 20 1050 cnv 5 73 26 empty empty methods: 4 10 0 14 -262144
-49933 0;
#X msg 110 1085 reset;
#X text 245 1085 reset to initial state.;
#X obj 20 1122 cnv 1 745 1 empty empty empty 17 7 0 10 -203890 -1 0;
#X obj 20 1127 cnv 5 64 26 empty empty inlets: 4 10 0 14 -262144
-49933 0;
#X text 110 1128 1\.;
#X text 245 1128 left channel.;
#X text 110 1148 2\.;
#X text 245 1148 right channel.;
#X obj 20 1178 cnv 1 745 1 empty empty empty 17 7 0 10 -203890 -1 0;
#X obj 20 1183 cnv 5 73 26 empty empty outlets: 4 10 0 14 -262144
-49933 0;
#X text 110 1184 1\.;
#X text 245 1184 output signal.;
#X text 110 1204 2\.;
#X text 245 1204 output signal.;
#X obj 10 48 ui.link @title index @url ../index-help.pd;
#X text 51 45 ::;
#X obj 67 48 ui.link @title ceammc @url ceammc-help.pd;
#X text 115 45 ::;
#X obj 131 48 ui.link @title fx @url ceammc.fx-help.pd;
#X obj 1 1254 cnv 5 765 48 empty empty empty 17 7 0 10 -203890 -1 0;
#X text 10 1257 library: ceammc v0.9.0;
#X text 571 1269 see also:;
#X obj 645 1269 fx.freeverb2~;
#N canvas 10 1276 400 290 info 0;
#X obj 1 1 cnv 1 107 287 empty empty empty 17 7 0 10 -183085 -1 0;
#X text 10 10 library:;
#X text 120 10 ceammc;
#X text 10 32 version:;
#X text 120 32 0.9.0;
#X text 10 54 object:;
#X text 120 54 fx.greyhole~;
#X text 10 76 category:;
#X text 120 76 fx;
#X text 10 98 since:;
#X text 120 98 0.5;
#X text 10 120 authors:;
#X text 120 120 Julian Parker \, Till Bovermann \, Serge Poltavsky;
#X text 10 142 license:;
#X text 120 142 GPL3 or later;
#X text 10 164 keywords:;
#X text 120 164 fx \, reverb \, echo;
#X text 10 186 website:;
#X obj 120 189 ui.link @title https://github.com/uliss/pure-data @url
https://github.com/uliss/pure-data;
#X obj 120 208 declare -lib ceammc;
#X obj 120 268 cnv 1 270 1 empty empty empty 17 7 0 10 -203890 -1 0;
#X text 120 268 generated by pddoc;
#X restore 10 1276 pd info;
#X connect 7 0 8 0;
#X connect 8 0 9 0;
#X connect 9 0 10 0;
#X connect 9 0 10 1;
#X connect 10 0 12 0;
#X connect 10 1 13 0;
#X connect 12 0 14 0;
#X connect 13 0 14 1;
#X connect 11 0 12 1;
#X connect 11 0 13 1;