#N canvas 0 0 785 555 12;
#X declare -lib ceammc;
#X obj 553 50 cnv 1 212 23 empty empty empty 17 7 0 10 -245760 -1 0;
#X text 553 50 global named integer object;
#X obj 1 1 cnv 5 765 40 empty empty global.int 20 20 0 20 -104026
-4096 0;
#X obj 668 11 global.int;
#X obj 210 80 cnv 1 555 35 empty empty empty 17 7 0 10 -257983 -1 0;
#X text 215 80 Defines global scope integer variable \, accessed by
ID name.;
#X floatatom 50 143 5 0 0 0 - - -;
#X msg 107 143 + 2 \, bang;
#X msg 251 143 * 3 \, bang;
#X msg 395 143 bang;
#X msg 136 187 - 3 \, bang;
#X msg 270 187 / 2 \, bang;
#X msg 155 215 set 2;
#X obj 50 244 global.int f1;
#X obj 395 244 global.int f1;
#X floatatom 50 273 5 0 0 0 - - -;
#X floatatom 395 273 5 0 0 0 - - -;
#X obj 20 312 cnv 1 745 1 empty empty empty 17 7 0 10 -203890 -1 0;
#X obj 20 317 cnv 5 90 26 empty empty arguments: 4 10 0 14 -262144
-49933 0;
#X text 110 352 1\.;
#X text 150 352 symbol;
#X obj 246 353 cnv 1 23 20 empty empty empty 17 7 0 10 -245695 -1 0;
#X text 245 352 ID: object ID.;
#X obj 20 382 cnv 1 745 1 empty empty empty 17 7 0 10 -203890 -1 0;
#X obj 20 387 cnv 5 98 26 empty empty properties: 4 10 0 14 -262144
-49933 0;
#X msg 110 422 @value;
#X text 245 422 (readonly) Get current value. Type: int. Default value:
0\.;
#X obj 20 461 cnv 1 745 1 empty empty empty 17 7 0 10 -203890 -1 0;
#X obj 20 466 cnv 5 73 26 empty empty methods: 4 10 0 14 -262144
-49933 0;
#X msg 110 501 set;
#X text 245 501 sets new value without output.;
#X msg 110 528 *;
#X text 245 528 multiply to \, no output.;
#X msg 110 555 +;
#X text 245 555 add to int \, no output.;
#X msg 110 582 -;
#X text 245 582 substruct from int \, no output.;
#X msg 110 609 /;
#X text 245 609 divide by \, no output.;
#X obj 20 646 cnv 1 745 1 empty empty empty 17 7 0 10 -203890 -1 0;
#X obj 20 651 cnv 5 64 26 empty empty inlets: 4 10 0 14 -262144 -49933
0;
#X text 110 652 1\.;
#X text 150 652 *bang*;
#X text 245 652 outputs variable.;
#X text 150 672 *float*;
#X text 245 672 set truncated integer and outputs.;
#X obj 20 702 cnv 1 745 1 empty empty empty 17 7 0 10 -203890 -1 0;
#X obj 20 707 cnv 5 73 26 empty empty outlets: 4 10 0 14 -262144
-49933 0;
#X text 110 708 1\.;
#X text 245 708 int output.;
#X obj 10 48 ui.link @title index @url ../index-help.pd;
#X text 51 45 ::;
#X obj 67 48 ui.link @title ceammc @url ceammc-help.pd;
#X text 115 45 ::;
#X obj 131 48 ui.link @title global @url ceammc.global-help.pd;
#X obj 1 758 cnv 5 765 48 empty empty empty 17 7 0 10 -203890 -1 0;
#X text 10 761 library: ceammc v0.9.0;
#X text 579 773 see also:;
#X obj 653 773 global.float;
#N canvas 10 780 400 290 info 0;
#X obj 1 1 cnv 1 107 287 empty empty empty 17 7 0 10 -183085 -1 0;
#X text 10 10 library:;
#X text 120 10 ceammc;
#X text 10 32 version:;
#X text 120 32 0.9.0;
#X text 10 54 object:;
#X text 120 54 global.int;
#X text 10 76 category:;
#X text 120 76 global;
#X text 10 98 since:;
#X text 120 98 0.1;
#X text 10 120 authors:;
#X text 120 120 Serge Poltavsky;
#X text 10 142 license:;
#X text 120 142 GPL3 or later;
#X text 10 164 keywords:;
#X text 120 164 int \, global;
#X text 10 186 website:;
#X obj 120 189 ui.link @title https://github.com/uliss/pure-data @url
https://github.com/uliss/pure-data;
#X obj 120 208 declare -lib ceammc;
#X obj 120 268 cnv 1 270 1 empty empty empty 17 7 0 10 -203890 -1 0;
#X text 120 268 generated by pddoc;
#X restore 10 780 pd info;
#X connect 6 0 13 0;
#X connect 7 0 13 0;
#X connect 10 0 13 0;
#X connect 12 0 13 0;
#X connect 8 0 13 0;
#X connect 11 0 13 0;
#X connect 9 0 14 0;
#X connect 13 0 15 0;
#X connect 14 0 16 0;