#N canvas 0 0 785 555 12;
#X declare -lib ceammc;
#X obj 453 50 cnv 1 312 23 empty empty empty 17 7 0 10 -245760 -1 0;
#X text 453 50 query the sudden motion sensor in Apples;
#X obj 1 1 cnv 5 765 40 empty empty hw.apple_sms 20 20 0 20 -104026
-4096 0;
#X obj 654 11 hw.apple_sms;
#X obj 210 80 cnv 1 555 110 empty empty empty 17 7 0 10 -257983 -1 0;
#X text 215 80 In raw output mode output values can be in various output
range and sign \, otherwise output data are normalized to float range
\, where positive *x* mean rightwards \, positive *y* means rearwards
\, positive *z* mean upwards \, but not all devices are in database.
It it occures with your device (wrong direction) \, please \, send
us this information;
#X obj 50 218 tgl 15 0 empty empty empty 17 7 0 10 -262144 -1 -1 0 1;
#X obj 50 247 metro 300;
#X obj 165 247 tgl 15 0 empty empty empty 17 7 0 10 -262144 -1 -1 0 1;
#X msg 165 276 @raw \$1;
#X obj 50 305 hw.apple_sms;
#X obj 50 334 unpack 0 0 0;
#X floatatom 50 362 5 0 0 0 - - -;
#X floatatom 117 362 5 0 0 0 - - -;
#X floatatom 184 362 5 0 0 0 - - -;
#X obj 20 401 cnv 1 745 1 empty empty empty 17 7 0 10 -203890 -1 0;
#X obj 20 406 cnv 5 98 26 empty empty properties: 4 10 0 14 -262144
-49933 0;
#X msg 110 441 @raw;
#X text 245 441 Get/Set raw data output mode. Type: int. Default value:
0\. Allowed values: 0 \, 1\.;
#X obj 20 493 cnv 1 745 1 empty empty empty 17 7 0 10 -203890 -1 0;
#X obj 20 498 cnv 5 64 26 empty empty inlets: 4 10 0 14 -262144 -49933
0;
#X text 110 499 1\.;
#X text 150 499 *bang*;
#X text 245 499 outputs current motion sensor information.;
#X obj 20 529 cnv 1 745 1 empty empty empty 17 7 0 10 -203890 -1 0;
#X obj 20 534 cnv 5 73 26 empty empty outlets: 4 10 0 14 -262144
-49933 0;
#X text 110 535 1\.;
#X text 245 535 list of three values: x-rotation \, y-rotation \, z-acceleration.;
#X obj 10 48 ui.link @title index @url ../index-help.pd;
#X text 51 45 ::;
#X obj 67 48 ui.link @title ceammc @url ceammc-help.pd;
#X text 115 45 ::;
#X obj 131 48 ui.link @title hw @url ceammc.hw-help.pd;
#X obj 1 585 cnv 5 765 48 empty empty empty 17 7 0 10 -203890 -1 0;
#X text 10 588 library: ceammc v0.9.0;
#N canvas 10 607 400 290 info 0;
#X obj 1 1 cnv 1 107 287 empty empty empty 17 7 0 10 -183085 -1 0;
#X text 10 10 library:;
#X text 120 10 ceammc;
#X text 10 32 version:;
#X text 120 32 0.9.0;
#X text 10 54 object:;
#X text 120 54 hw.apple_sms;
#X text 10 76 category:;
#X text 120 76 hw;
#X text 10 98 since:;
#X text 120 98 0.8;
#X text 10 120 authors:;
#X text 120 120 Serge Poltavsky;
#X text 10 142 license:;
#X text 120 142 GPL3 or later;
#X text 10 164 keywords:;
#X text 120 164 motion \, sensor;
#X text 10 186 website:;
#X obj 120 189 ui.link @title https://github.com/uliss/pure-data @url
https://github.com/uliss/pure-data;
#X obj 120 208 declare -lib ceammc;
#X obj 120 268 cnv 1 270 1 empty empty empty 17 7 0 10 -203890 -1 0;
#X text 120 268 generated by pddoc;
#X restore 10 607 pd info;
#X connect 6 0 7 0;
#X connect 8 0 9 0;
#X connect 7 0 10 0;
#X connect 9 0 10 0;
#X connect 10 0 11 0;
#X connect 11 0 12 0;
#X connect 11 1 13 0;
#X connect 11 2 14 0;