#N canvas 0 0 785 555 12;
#X declare -lib ceammc;
#X obj 560 50 cnv 1 205 23 empty empty empty 17 7 0 10 -245760 -1 0;
#X text 560 50 get/set display properties;
#X obj 1 1 cnv 5 765 40 empty empty hw.display 20 20 0 20 -104026
-4096 0;
#X obj 667 11 hw.display;
#X obj 210 80 cnv 1 555 35 empty empty empty 17 7 0 10 -257983 -1 0;
#X text 215 80 At this moment supports only MacOSX;
#X obj 50 143 ui.slider @size 120 12;
#X msg 50 172 @brightness \$1;
#X msg 213 172 @brightness?;
#X obj 50 201 hw.display;
#X obj 50 230 ui.d;
#X obj 20 269 cnv 1 745 1 empty empty empty 17 7 0 10 -203890 -1 0;
#X obj 20 274 cnv 5 98 26 empty empty properties: 4 10 0 14 -262144
-49933 0;
#X msg 110 309 @brightness;
#X text 245 309 Get/Set display brightness. Type: float. Range: 0\...1\.;
#X obj 20 348 cnv 1 745 1 empty empty empty 17 7 0 10 -203890 -1 0;
#X obj 20 353 cnv 5 64 26 empty empty inlets: 4 10 0 14 -262144 -49933
0;
#X text 110 354 1\.;
#X text 245 354 input.;
#X obj 20 384 cnv 1 745 1 empty empty empty 17 7 0 10 -203890 -1 0;
#X obj 20 389 cnv 5 73 26 empty empty outlets: 4 10 0 14 -262144
-49933 0;
#X text 110 390 1\.;
#X text 245 390 properties output.;
#X obj 10 48 ui.link @title index @url ../index-help.pd;
#X text 51 45 ::;
#X obj 67 48 ui.link @title ceammc @url ceammc-help.pd;
#X text 115 45 ::;
#X obj 131 48 ui.link @title hw @url ceammc.hw-help.pd;
#X obj 1 505 cnv 5 765 48 empty empty empty 17 7 0 10 -203890 -1 0;
#X text 10 508 library: ceammc v0.9.0;
#N canvas 10 527 400 290 info 0;
#X obj 1 1 cnv 1 107 287 empty empty empty 17 7 0 10 -183085 -1 0;
#X text 10 10 library:;
#X text 120 10 ceammc;
#X text 10 32 version:;
#X text 120 32 0.9.0;
#X text 10 54 object:;
#X text 120 54 hw.display;
#X text 10 76 category:;
#X text 120 76 hw;
#X text 10 98 since:;
#X text 120 98 0.7.1;
#X text 10 120 authors:;
#X text 120 120 Serge Poltavsky;
#X text 10 142 license:;
#X text 120 142 GPL3 or later;
#X text 10 164 keywords:;
#X text 120 164 display \, brightness;
#X text 10 186 website:;
#X obj 120 189 ui.link @title https://github.com/uliss/pure-data @url
https://github.com/uliss/pure-data;
#X obj 120 208 declare -lib ceammc;
#X obj 120 268 cnv 1 270 1 empty empty empty 17 7 0 10 -203890 -1 0;
#X text 120 268 generated by pddoc;
#X restore 10 527 pd info;
#X connect 6 0 7 0;
#X connect 7 0 9 0;
#X connect 8 0 9 0;
#X connect 9 0 10 0;