#N canvas 0 0 785 555 12;
#X declare -lib ceammc;
#X obj 445 50 cnv 1 320 23 empty empty empty 17 7 0 10 -245760 -1 0;
#X text 445 50 sends list elements one by one separately;
#X obj 1 1 cnv 5 765 40 empty empty list.separate 20 20 0 20 -104026
-4096 0;
#X obj 563 11 list.sep;
#X obj 646 11 list.separate;
#X msg 50 118 1 2 3 4 5;
#X msg 165 118 (a b c d e) \, bang;
#X obj 165 147 ml;
#X obj 213 147 tgl 15 0 empty empty empty 17 7 0 10 -262144 -1 -1 0 1;
#X msg 213 176 @enumerate \$1;
#X obj 50 205 list.separate;
#X obj 50 234 print SEPARATE;
#X obj 20 273 cnv 1 745 1 empty empty empty 17 7 0 10 -203890 -1 0;
#X obj 20 278 cnv 5 98 26 empty empty properties: 4 10 0 14 -262144
-49933 0;
#X msg 110 313 @enumerate;
#X text 245 313 Get/Set enumeration mode. If enumeration is active
output pairs: INDEX ATOM \, otherwise single atoms. Type: int. Default
value: 0\. Allowed values: 0 \, 1\.;
#X msg 110 370 @from;
#X text 245 370 Get/Set enumeration starting index. Type: int. Default
value: 0\.;
#X obj 20 422 cnv 1 745 1 empty empty empty 17 7 0 10 -203890 -1 0;
#X obj 20 427 cnv 5 64 26 empty empty inlets: 4 10 0 14 -262144 -49933
0;
#X text 110 428 1\.;
#X text 150 428 *list*;
#X text 245 428 input list.;
#X text 150 448 *data:mlist*;
#X text 245 448 input mlist.;
#X obj 20 478 cnv 1 745 1 empty empty empty 17 7 0 10 -203890 -1 0;
#X obj 20 483 cnv 5 73 26 empty empty outlets: 4 10 0 14 -262144
-49933 0;
#X text 110 484 1\.;
#X text 245 484 outlet for single atoms (or pair: IDX ATOM in enumeration
mode).;
#X text 110 519 2\.;
#X text 245 519 outputs bang after last element in the list.;
#X obj 10 48 ui.link @title index @url ../index-help.pd;
#X text 51 45 ::;
#X obj 67 48 ui.link @title ceammc @url ceammc-help.pd;
#X text 115 45 ::;
#X obj 131 48 ui.link @title list @url ceammc.list-help.pd;
#X obj 1 569 cnv 5 765 48 empty empty empty 17 7 0 10 -203890 -1 0;
#X text 10 572 library: ceammc v0.9.0;
#X text 491 584 see also:;
#X obj 565 584 list.repack;
#X obj 660 584 list.unpack;
#N canvas 10 591 400 290 info 0;
#X obj 1 1 cnv 1 107 287 empty empty empty 17 7 0 10 -183085 -1 0;
#X text 10 10 library:;
#X text 120 10 ceammc;
#X text 10 32 version:;
#X text 120 32 0.9.0;
#X text 10 54 object:;
#X text 120 54 list.separate;
#X text 10 76 category:;
#X text 120 76 list;
#X text 10 98 since:;
#X text 120 98 0.3;
#X text 10 120 authors:;
#X text 120 120 Serge Poltavsky;
#X text 10 142 license:;
#X text 120 142 GPL3 or later;
#X text 10 164 keywords:;
#X text 120 164 list \, separate;
#X text 10 186 website:;
#X obj 120 189 ui.link @title https://github.com/uliss/pure-data @url
https://github.com/uliss/pure-data;
#X obj 120 208 declare -lib ceammc;
#X obj 120 268 cnv 1 270 1 empty empty empty 17 7 0 10 -203890 -1 0;
#X text 120 268 generated by pddoc;
#X restore 10 591 pd info;
#X connect 6 0 7 0;
#X connect 8 0 9 0;
#X connect 5 0 10 0;
#X connect 7 0 10 0;
#X connect 9 0 10 0;
#X connect 10 0 11 0;