#N canvas 0 0 785 555 12;
#X declare -lib ceammc;
#X obj 485 50 cnv 1 280 23 empty empty empty 17 7 0 10 -245760 -1 0;
#X text 485 50 randomly rearranges elements in list;
#X obj 1 1 cnv 5 765 40 empty empty list.shuffle 20 20 0 20 -104026
-4096 0;
#X obj 653 11 list.shuffle;
#X msg 50 118 1 2 3 a b c;
#X msg 184 118 (1 2 3 4 5 6 7 8 9) \, bang;
#X obj 184 147 ml;
#X obj 50 176 list.shuffle;
#X obj 50 205 ui.display @display_type 1 @size 150 18;
#X obj 20 245 cnv 1 745 1 empty empty empty 17 7 0 10 -203890 -1 0;
#X obj 20 250 cnv 5 64 26 empty empty inlets: 4 10 0 14 -262144 -49933
0;
#X text 110 251 1\.;
#X text 150 251 *list*;
#X text 245 251 input list.;
#X text 150 271 *data:mlist*;
#X text 245 271 input mlist.;
#X obj 20 301 cnv 1 745 1 empty empty empty 17 7 0 10 -203890 -1 0;
#X obj 20 306 cnv 5 73 26 empty empty outlets: 4 10 0 14 -262144
-49933 0;
#X text 110 307 1\.;
#X text 245 307 new shuffled list.;
#X obj 10 48 ui.link @title index @url ../index-help.pd;
#X text 51 45 ::;
#X obj 67 48 ui.link @title ceammc @url ceammc-help.pd;
#X text 115 45 ::;
#X obj 131 48 ui.link @title list @url ceammc.list-help.pd;
#X obj 1 505 cnv 5 765 48 empty empty empty 17 7 0 10 -203890 -1 0;
#X text 10 508 library: ceammc v0.9.0;
#X text 500 520 see also:;
#X obj 574 520 list.sort;
#X obj 653 520 list.reverse;
#N canvas 10 527 400 290 info 0;
#X obj 1 1 cnv 1 107 287 empty empty empty 17 7 0 10 -183085 -1 0;
#X text 10 10 library:;
#X text 120 10 ceammc;
#X text 10 32 version:;
#X text 120 32 0.9.0;
#X text 10 54 object:;
#X text 120 54 list.shuffle;
#X text 10 76 category:;
#X text 120 76 list;
#X text 10 98 since:;
#X text 120 98 0.1;
#X text 10 120 authors:;
#X text 120 120 Serge Poltavsky;
#X text 10 142 license:;
#X text 120 142 GPL3 or later;
#X text 10 164 keywords:;
#X text 120 164 list \, shuffle \, random;
#X text 10 186 website:;
#X obj 120 189 ui.link @title https://github.com/uliss/pure-data @url
https://github.com/uliss/pure-data;
#X obj 120 208 declare -lib ceammc;
#X obj 120 268 cnv 1 270 1 empty empty empty 17 7 0 10 -203890 -1 0;
#X text 120 268 generated by pddoc;
#X restore 10 527 pd info;
#X connect 5 0 6 0;
#X connect 4 0 7 0;
#X connect 6 0 7 0;
#X connect 7 0 8 0;