#N canvas 0 0 785 555 12;
#X declare -lib ceammc;
#X obj 484 50 cnv 1 281 23 empty empty empty 17 7 0 10 -245760 -1 0;
#X text 484 50 search specified items in input list;
#X obj 1 1 cnv 5 765 40 empty empty list.search 20 20 0 20 -104026
-4096 0;
#X obj 661 11 list.search;
#X obj 210 80 cnv 1 555 60 empty empty empty 17 7 0 10 -257983 -1 0;
#X text 215 80 Returns item position in list or -1 if not found.;
#X text 215 105 If several items are specified returns list of positions.;
#X msg 50 168 1 2 3 4;
#X msg 146 168 list ABC BC A;
#X floatatom 203 197 5 0 0 0 - - -;
#X msg 270 197 3 2;
#X obj 50 226 list.search A;
#X obj 50 255 msg set;
#X msg 50 284 ;
#X obj 20 323 cnv 1 745 1 empty empty empty 17 7 0 10 -203890 -1 0;
#X obj 20 328 cnv 5 64 26 empty empty inlets: 4 10 0 14 -262144 -49933
0;
#X text 110 329 1\.;
#X text 150 329 *list*;
#X text 245 329 input list.;
#X text 150 349 *data:mlist*;
#X text 245 349 input mlist.;
#X text 110 369 2\.;
#X text 150 369 *list*;
#X text 245 369 set searched items.;
#X obj 20 399 cnv 1 745 1 empty empty empty 17 7 0 10 -203890 -1 0;
#X obj 20 404 cnv 5 73 26 empty empty outlets: 4 10 0 14 -262144
-49933 0;
#X text 110 405 1\.;
#X text 245 405 position of search item or list of such positions.;
#X obj 10 48 ui.link @title index @url ../index-help.pd;
#X text 51 45 ::;
#X obj 67 48 ui.link @title ceammc @url ceammc-help.pd;
#X text 115 45 ::;
#X obj 131 48 ui.link @title list @url ceammc.list-help.pd;
#X obj 1 505 cnv 5 765 48 empty empty empty 17 7 0 10 -203890 -1 0;
#X text 10 508 library: ceammc v0.9.0;
#X text 580 520 see also:;
#X obj 654 520 list.^search;
#N canvas 10 527 400 290 info 0;
#X obj 1 1 cnv 1 107 287 empty empty empty 17 7 0 10 -183085 -1 0;
#X text 10 10 library:;
#X text 120 10 ceammc;
#X text 10 32 version:;
#X text 120 32 0.9.0;
#X text 10 54 object:;
#X text 120 54 list.search;
#X text 10 76 category:;
#X text 120 76 list;
#X text 10 98 since:;
#X text 120 98 0.6;
#X text 10 120 authors:;
#X text 120 120 Serge Poltavsky;
#X text 10 142 license:;
#X text 120 142 GPL3 or later;
#X text 10 164 keywords:;
#X text 120 164 list \, search \, find;
#X text 10 186 website:;
#X obj 120 189 ui.link @title https://github.com/uliss/pure-data @url
https://github.com/uliss/pure-data;
#X obj 120 208 declare -lib ceammc;
#X obj 120 268 cnv 1 270 1 empty empty empty 17 7 0 10 -203890 -1 0;
#X text 120 268 generated by pddoc;
#X restore 10 527 pd info;
#X connect 7 0 11 0;
#X connect 8 0 11 0;
#X connect 9 0 11 1;
#X connect 10 0 11 1;
#X connect 11 0 12 0;
#X connect 12 0 13 0;