#N canvas 0 0 785 555 12;
#X declare -lib ceammc;
#X obj 322 50 cnv 1 443 23 empty empty empty 17 7 0 10 -245760 -1 0;
#X text 322 50 generates list of specified length via external generator;
#X obj 1 1 cnv 5 765 40 empty empty list.gen 20 20 0 20 -104026 -4096
0;
#X obj 683 11 list.gen;
#X obj 210 80 cnv 1 555 35 empty empty empty 17 7 0 10 -257983 -1 0;
#X text 215 80 Note \, that maximum length limited to 1024 elements.;
#X floatatom 88 143 5 0 0 0 - - -;
#X floatatom 184 143 5 0 0 0 - - -;
#X obj 50 172 bng 15 250 50 0 empty empty empty 17 7 0 10 -262144 -1
-1;
#X msg 117 172 dump;
#X msg 184 172 @count \$1;
#X obj 50 230 list.gen 3;
#X obj 222 230 random 100;
#X obj 50 259 m set;
#X msg 50 287 ;
#X obj 20 326 cnv 1 745 1 empty empty empty 17 7 0 10 -203890 -1 0;
#X obj 20 331 cnv 5 90 26 empty empty arguments: 4 10 0 14 -262144
-49933 0;
#X text 110 366 1\.;
#X text 150 366 int;
#X obj 246 367 cnv 1 17 20 empty empty empty 17 7 0 10 -245695 -1 0;
#X text 245 366 N: length of generated list. Range: 1\...1024;
#X obj 20 396 cnv 1 745 1 empty empty empty 17 7 0 10 -203890 -1 0;
#X obj 20 401 cnv 5 98 26 empty empty properties: 4 10 0 14 -262144
-49933 0;
#X msg 110 436 @count;
#X text 245 436 Get/Set length of generated list. Type: int. Default
value: 1\. Range: 1\...1024\.;
#X obj 20 488 cnv 1 745 1 empty empty empty 17 7 0 10 -203890 -1 0;
#X obj 20 493 cnv 5 73 26 empty empty methods: 4 10 0 14 -262144
-49933 0;
#X msg 110 528 dump;
#X text 245 528 dump internal object state to Pd console window.;
#X obj 20 565 cnv 1 745 1 empty empty empty 17 7 0 10 -203890 -1 0;
#X obj 20 570 cnv 5 64 26 empty empty inlets: 4 10 0 14 -262144 -49933
0;
#X text 110 571 1\.;
#X text 150 571 *bang*;
#X text 245 571 starts list generation.;
#X text 150 591 *int*;
#X text 245 591 changes length of generated list and starts generation.
Range: 0\...1024\.;
#X text 110 626 2\.;
#X text 150 626 *any*;
#X text 245 626 input for generated values.;
#X obj 20 656 cnv 1 745 1 empty empty empty 17 7 0 10 -203890 -1 0;
#X obj 20 661 cnv 5 73 26 empty empty outlets: 4 10 0 14 -262144
-49933 0;
#X text 110 662 1\.;
#X text 245 662 generated list.;
#X text 110 682 2\.;
#X text 245 682 bang output for generator object.;
#X obj 10 48 ui.link @title index @url ../index-help.pd;
#X text 51 45 ::;
#X obj 67 48 ui.link @title ceammc @url ceammc-help.pd;
#X text 115 45 ::;
#X obj 131 48 ui.link @title list @url ceammc.list-help.pd;
#X obj 1 732 cnv 5 765 48 empty empty empty 17 7 0 10 -203890 -1 0;
#X text 10 735 library: ceammc v0.9.0;
#X text 413 747 see also:;
#X obj 487 747 list.seq;
#X obj 559 747 list.shuffle;
#X obj 661 747 list.choice;
#N canvas 10 754 400 290 info 0;
#X obj 1 1 cnv 1 107 287 empty empty empty 17 7 0 10 -183085 -1 0;
#X text 10 10 library:;
#X text 120 10 ceammc;
#X text 10 32 version:;
#X text 120 32 0.9.0;
#X text 10 54 object:;
#X text 120 54 list.gen;
#X text 10 76 category:;
#X text 120 76 list;
#X text 10 98 since:;
#X text 120 98 0.1;
#X text 10 120 authors:;
#X text 120 120 Serge Poltavsky;
#X text 10 142 license:;
#X text 120 142 GPL3 or later;
#X text 10 164 keywords:;
#X text 120 164 list \, generate;
#X text 10 186 website:;
#X obj 120 189 ui.link @title https://github.com/uliss/pure-data @url
https://github.com/uliss/pure-data;
#X obj 120 208 declare -lib ceammc;
#X obj 120 268 cnv 1 270 1 empty empty empty 17 7 0 10 -203890 -1 0;
#X text 120 268 generated by pddoc;
#X restore 10 754 pd info;
#X connect 7 0 10 0;
#X connect 8 0 11 0;
#X connect 6 0 11 0;
#X connect 9 0 11 0;
#X connect 10 0 11 0;
#X connect 11 0 13 0;
#X connect 13 0 14 0;
#X connect 11 1 12 0;
#X connect 12 0 11 1;