#N canvas 0 0 785 555 12;
#X declare -lib ceammc;
#X obj 400 50 cnv 1 365 23 empty empty empty 17 7 0 10 -245760 -1 0;
#X text 400 50 splits list to N lists \, each to separate output;
#X obj 1 1 cnv 5 765 40 empty empty list.unzip 20 20 0 20 -104026
-4096 0;
#X obj 520 11 list.deinterleave;
#X obj 668 11 list.unzip;
#X obj 210 80 cnv 1 555 130 empty empty empty 17 7 0 10 -257983 -1 0;
#X text 215 80 For N = 2 and list elements [1 2 3 4] we get [1 3] on
output 1 and [2 4] on output 2\.;
#X text 215 120 If input value is [1 2 3 4 5] the output depends on
split method.;
#X text 215 160 If @min method used \, output is [1 3 5] and [2 4].
If @pad method used with value X \, output if [1 3 5] and [2 4 X];
#X msg 50 238 1 2 3 4;
#X msg 146 238 1 2 3 4 5;
#X msg 78 282 dump;
#X msg 203 282 @min;
#X msg 270 282 @pad X;
#X obj 50 339 list.unzip 2;
#X obj 50 368 msg set;
#X obj 194 368 msg set;
#X msg 50 397 ;
#X msg 203 397 ;
#X obj 20 436 cnv 1 745 1 empty empty empty 17 7 0 10 -203890 -1 0;
#X obj 20 441 cnv 5 90 26 empty empty arguments: 4 10 0 14 -262144
-49933 0;
#X text 110 476 1\.;
#X text 150 476 int;
#X obj 246 477 cnv 1 17 20 empty empty empty 17 7 0 10 -245695 -1 0;
#X text 245 476 N: number of output outlets. Min value: 2;
#X obj 20 506 cnv 1 745 1 empty empty empty 17 7 0 10 -203890 -1 0;
#X obj 20 511 cnv 5 98 26 empty empty properties: 4 10 0 14 -262144
-49933 0;
#X msg 110 546 @method;
#X text 245 546 Get/Set split method if number element in the input
list is not multiple of number of outputs. Type: symbol. Default value:
min. Allowed values: min \, pad.;
#X msg 110 603 @min;
#X text 245 603 alias to @method min. No padding used.;
#X msg 110 632 @pad;
#X text 245 632 Get/Set padding value. Pads result lists with specified
value \, if number of elements in the input list is not multiple of
number of outputs. Type: atom. Default value: 0\.;
#X obj 20 699 cnv 1 745 1 empty empty empty 17 7 0 10 -203890 -1 0;
#X obj 20 704 cnv 5 64 26 empty empty inlets: 4 10 0 14 -262144 -49933
0;
#X text 110 705 1\.;
#X text 150 705 *list*;
#X text 245 705 input list.;
#X obj 20 735 cnv 1 745 1 empty empty empty 17 7 0 10 -203890 -1 0;
#X obj 20 740 cnv 5 73 26 empty empty outlets: 4 10 0 14 -262144
-49933 0;
#X text 110 741 1\.;
#X text 245 741 unzipped list.;
#X obj 10 48 ui.link @title index @url ../index-help.pd;
#X text 51 45 ::;
#X obj 67 48 ui.link @title ceammc @url ceammc-help.pd;
#X text 115 45 ::;
#X obj 131 48 ui.link @title list @url ceammc.list-help.pd;
#X obj 1 791 cnv 5 765 48 empty empty empty 17 7 0 10 -203890 -1 0;
#X text 10 794 library: ceammc v0.9.0;
#X text 608 806 see also:;
#X obj 682 806 list.zip;
#N canvas 10 813 400 290 info 0;
#X obj 1 1 cnv 1 107 287 empty empty empty 17 7 0 10 -183085 -1 0;
#X text 10 10 library:;
#X text 120 10 ceammc;
#X text 10 32 version:;
#X text 120 32 0.9.0;
#X text 10 54 object:;
#X text 120 54 list.unzip;
#X text 10 76 category:;
#X text 120 76 list;
#X text 10 98 since:;
#X text 120 98 0.1;
#X text 10 120 authors:;
#X text 120 120 Alex Nadzharov \, Serge Poltavsky;
#X text 10 142 license:;
#X text 120 142 GPL3 or later;
#X text 10 164 keywords:;
#X text 120 164 list;
#X text 10 186 website:;
#X obj 120 189 ui.link @title https://github.com/uliss/pure-data @url
https://github.com/uliss/pure-data;
#X obj 120 208 declare -lib ceammc;
#X obj 120 268 cnv 1 270 1 empty empty empty 17 7 0 10 -203890 -1 0;
#X text 120 268 generated by pddoc;
#X restore 10 813 pd info;
#X connect 9 0 14 0;
#X connect 11 0 14 0;
#X connect 10 0 14 0;
#X connect 12 0 14 0;
#X connect 13 0 14 0;
#X connect 14 0 15 0;
#X connect 14 1 16 0;
#X connect 15 0 17 0;
#X connect 16 0 18 0;