#N canvas 0 0 785 555 12;
#X declare -lib ceammc;
#X obj 522 50 cnv 1 243 23 empty empty empty 17 7 0 10 -245760 -1 0;
#X text 522 50 acts like [route] but for lists;
#X obj 1 1 cnv 5 765 40 empty empty list.route 20 20 0 20 -104026
-4096 0;
#X obj 668 11 list.route;
#X obj 210 80 cnv 1 555 50 empty empty empty 17 7 0 10 -257983 -1 0;
#X text 215 80 Outputs float \, symbol or list to matched outlet or
to last outlet if no match;
#X msg 50 158 100;
#X msg 136 158 symbol A;
#X msg 270 158 list A;
#X msg 50 187 200;
#X msg 136 187 symbol B;
#X msg 270 187 list A B;
#X msg 50 216 150;
#X msg 136 216 1 2 3;
#X msg 270 216 200 300;
#X obj 50 259 list.route A B 100 200;
#X obj 50 317 msg set;
#X obj 146 317 msg set;
#X obj 242 317 msg set;
#X obj 338 317 msg set;
#X obj 434 317 msg set;
#X msg 50 345 ;
#X msg 146 345 ;
#X msg 242 345 ;
#X msg 338 345 ;
#X msg 434 345 ;
#X msg 50 389 100;
#X msg 146 389 symbol A;
#X msg 290 389 list A;
#X msg 434 389 1 2 3;
#X msg 50 418 200;
#X msg 146 418 symbol B;
#X msg 290 418 list A B;
#X msg 434 418 100 300;
#X obj 50 461 list.route A B 100 @trim;
#X obj 69 489 bng 15 250 50 0 empty empty empty 17 7 0 10 -262144 -1
-1;
#X obj 174 489 bng 15 250 50 0 empty empty empty 17 7 0 10 -262144 -1
-1;
#X obj 280 489 bng 15 250 50 0 empty empty empty 17 7 0 10 -262144 -1
-1;
#X obj 50 518 msg set;
#X obj 146 518 msg set;
#X obj 242 518 msg set;
#X obj 338 518 msg set;
#X msg 50 547 ;
#X msg 146 547 ;
#X msg 242 547 ;
#X msg 338 547 ;
#X obj 20 586 cnv 1 745 1 empty empty empty 17 7 0 10 -203890 -1 0;
#X obj 20 591 cnv 5 90 26 empty empty arguments: 4 10 0 14 -262144
-49933 0;
#X text 110 626 1\.;
#X text 150 626 list;
#X obj 246 627 cnv 1 47 20 empty empty empty 17 7 0 10 -245695 -1 0;
#X text 245 626 @type: list of matched atoms.;
#X obj 20 656 cnv 1 745 1 empty empty empty 17 7 0 10 -203890 -1 0;
#X obj 20 661 cnv 5 98 26 empty empty properties: 4 10 0 14 -262144
-49933 0;
#X msg 110 696 @as_any;
#X text 245 696 trim list or symbol selector on output.;
#X msg 110 725 @simplify;
#X text 245 725 Get/Set one element list simplification - transform
them to floats or symbols. Type: int. Default value: 1\. Allowed values:
0 \, 1\.;
#X msg 110 782 @trim;
#X text 245 782 cut first element from list \, transform float or symbol
to bang.;
#X obj 20 834 cnv 1 745 1 empty empty empty 17 7 0 10 -203890 -1 0;
#X obj 20 839 cnv 5 64 26 empty empty inlets: 4 10 0 14 -262144 -49933
0;
#X text 110 840 1\.;
#X text 150 840 *list*;
#X text 245 840 input list.;
#X text 150 860 *data:mlist*;
#X text 245 860 input mlist.;
#X obj 20 890 cnv 1 745 1 empty empty empty 17 7 0 10 -203890 -1 0;
#X obj 20 895 cnv 5 73 26 empty empty outlets: 4 10 0 14 -262144
-49933 0;
#X text 110 896 0\.;
#X text 245 896 first match.;
#X text 110 916 1\.;
#X text 245 916 second match.;
#X text 110 936 ....;
#X text 245 936 nth match.;
#X text 110 956 n.;
#X text 245 956 unmatched element (without changes).;
#X obj 10 48 ui.link @title index @url ../index-help.pd;
#X text 51 45 ::;
#X obj 67 48 ui.link @title ceammc @url ceammc-help.pd;
#X text 115 45 ::;
#X obj 131 48 ui.link @title list @url ceammc.list-help.pd;
#X obj 1 1006 cnv 5 765 48 empty empty empty 17 7 0 10 -203890 -1 0;
#X text 10 1009 library: ceammc v0.9.0;
#X text 631 1021 see also:;
#X obj 705 1021 route;
#N canvas 10 1028 400 290 info 0;
#X obj 1 1 cnv 1 107 287 empty empty empty 17 7 0 10 -183085 -1 0;
#X text 10 10 library:;
#X text 120 10 ceammc;
#X text 10 32 version:;
#X text 120 32 0.9.0;
#X text 10 54 object:;
#X text 120 54 list.route;
#X text 10 76 category:;
#X text 120 76 list;
#X text 10 98 since:;
#X text 120 98 0.5;
#X text 10 120 authors:;
#X text 120 120 Serge Poltavsky;
#X text 10 142 license:;
#X text 120 142 GPL3 or later;
#X text 10 164 keywords:;
#X text 120 164 list \, route;
#X text 10 186 website:;
#X obj 120 189 ui.link @title https://github.com/uliss/pure-data @url
https://github.com/uliss/pure-data;
#X obj 120 208 declare -lib ceammc;
#X obj 120 268 cnv 1 270 1 empty empty empty 17 7 0 10 -203890 -1 0;
#X text 120 268 generated by pddoc;
#X restore 10 1028 pd info;
#X connect 15 0 16 0;
#X connect 15 1 17 0;
#X connect 15 2 18 0;
#X connect 15 3 19 0;
#X connect 15 4 20 0;
#X connect 16 0 21 0;
#X connect 17 0 22 0;
#X connect 18 0 23 0;
#X connect 19 0 24 0;
#X connect 20 0 25 0;
#X connect 34 0 35 0;
#X connect 34 1 36 0;
#X connect 34 2 37 0;
#X connect 34 0 38 0;
#X connect 34 1 39 0;
#X connect 34 2 40 0;
#X connect 34 3 41 0;
#X connect 38 0 42 0;
#X connect 39 0 43 0;
#X connect 40 0 44 0;
#X connect 41 0 45 0;
#X connect 7 0 15 0;
#X connect 10 0 15 0;
#X connect 13 0 15 0;
#X connect 8 0 15 0;
#X connect 11 0 15 0;
#X connect 14 0 15 0;
#X connect 6 0 15 0;
#X connect 9 0 15 0;
#X connect 12 0 15 0;
#X connect 27 0 34 0;
#X connect 31 0 34 0;
#X connect 29 0 34 0;
#X connect 28 0 34 0;
#X connect 32 0 34 0;
#X connect 33 0 34 0;
#X connect 26 0 34 0;
#X connect 30 0 34 0;