#N canvas 0 0 785 555 12;
#X declare -lib ceammc;
#X obj 484 50 cnv 1 281 23 empty empty empty 17 7 0 10 -245760 -1 0;
#X text 484 50 calculates product of floats in list;
#X obj 1 1 cnv 5 765 40 empty empty list.product 20 20 0 20 -104026
-4096 0;
#X obj 654 11 list.product;
#X obj 210 80 cnv 1 555 50 empty empty empty 17 7 0 10 -257983 -1 0;
#X text 215 80 Note: symbol values are treated as 0\. So if list contains
at least one symbol \, product will be always equal to zero;
#X msg 50 158 1 2 3 4 5 -6;
#X msg 213 158 1 2 a b c;
#X msg 78 187 1 2 3;
#X obj 50 230 list.product;
#X floatatom 50 259 5 0 0 0 - - -;
#X obj 20 298 cnv 1 745 1 empty empty empty 17 7 0 10 -203890 -1 0;
#X obj 20 303 cnv 5 64 26 empty empty inlets: 4 10 0 14 -262144 -49933
0;
#X text 110 304 1\.;
#X text 150 304 *list*;
#X text 245 304 input list.;
#X text 150 324 *data:mlist*;
#X text 245 324 input mlist.;
#X obj 20 354 cnv 1 745 1 empty empty empty 17 7 0 10 -203890 -1 0;
#X obj 20 359 cnv 5 73 26 empty empty outlets: 4 10 0 14 -262144
-49933 0;
#X text 110 360 1\.;
#X text 245 360 float list product.;
#X obj 10 48 ui.link @title index @url ../index-help.pd;
#X text 51 45 ::;
#X obj 67 48 ui.link @title ceammc @url ceammc-help.pd;
#X text 115 45 ::;
#X obj 131 48 ui.link @title list @url ceammc.list-help.pd;
#X obj 1 505 cnv 5 765 48 empty empty empty 17 7 0 10 -203890 -1 0;
#X text 10 508 library: ceammc v0.9.0;
#X text 608 520 see also:;
#X obj 682 520 list.sum;
#N canvas 10 527 400 290 info 0;
#X obj 1 1 cnv 1 107 287 empty empty empty 17 7 0 10 -183085 -1 0;
#X text 10 10 library:;
#X text 120 10 ceammc;
#X text 10 32 version:;
#X text 120 32 0.9.0;
#X text 10 54 object:;
#X text 120 54 list.product;
#X text 10 76 category:;
#X text 120 76 list;
#X text 10 98 since:;
#X text 120 98 0.1;
#X text 10 120 authors:;
#X text 120 120 Serge Poltavsky;
#X text 10 142 license:;
#X text 120 142 GPL3 or later;
#X text 10 164 keywords:;
#X text 120 164 list \, product;
#X text 10 186 website:;
#X obj 120 189 ui.link @title https://github.com/uliss/pure-data @url
https://github.com/uliss/pure-data;
#X obj 120 208 declare -lib ceammc;
#X obj 120 268 cnv 1 270 1 empty empty empty 17 7 0 10 -203890 -1 0;
#X text 120 268 generated by pddoc;
#X restore 10 527 pd info;
#X connect 6 0 9 0;
#X connect 8 0 9 0;
#X connect 7 0 9 0;
#X connect 9 0 10 0;