#N canvas 0 0 785 555 12;
#X declare -lib ceammc;
#X obj 369 50 cnv 1 396 23 empty empty empty 17 7 0 10 -245760 -1 0;
#X text 369 50 normalizes float list values to get their sum = 1.0;
#X obj 1 1 cnv 5 765 40 empty empty list.normalize 20 20 0 20 -104026
-4096 0;
#X obj 639 11 list.normalize;
#X obj 210 80 cnv 1 555 100 empty empty empty 17 7 0 10 -257983 -1 0;
#X text 215 80 There are two modes of normalization:;
#X text 215 105 1\. by sum - multiply all elements to such number to
get total sum = 1.0;
#X text 215 145 2\. by value range - maps all values to range 0\..1
lineary;
#X msg 50 208 1 2 3 4;
#X msg 78 237 1 2 a b c d;
#X msg 213 237 @range;
#X msg 299 237 @sum;
#X obj 50 295 list.normalize @sum;
#X obj 50 324 t b a;
#X obj 98 352 msg set;
#X msg 50 381 ;
#X obj 50 410 list.sum;
#X floatatom 50 439 5 0 0 0 - - -;
#X obj 20 478 cnv 1 745 1 empty empty empty 17 7 0 10 -203890 -1 0;
#X obj 20 483 cnv 5 98 26 empty empty properties: 4 10 0 14 -262144
-49933 0;
#X msg 110 518 @by;
#X text 245 518 Get/Set normalization mode. Type: symbol. Default value:
sum. Allowed values: sum \, range.;
#X msg 110 560 @range;
#X text 245 560 alias to @by range.;
#X msg 110 589 @sum;
#X text 245 589 alias to @by sum.;
#X obj 20 628 cnv 1 745 1 empty empty empty 17 7 0 10 -203890 -1 0;
#X obj 20 633 cnv 5 64 26 empty empty inlets: 4 10 0 14 -262144 -49933
0;
#X text 110 634 1\.;
#X text 150 634 *list*;
#X text 245 634 input list of floats. Non float values are rejected.;
#X text 150 654 *data:mlist*;
#X text 245 654 same as list.;
#X obj 20 684 cnv 1 745 1 empty empty empty 17 7 0 10 -203890 -1 0;
#X obj 20 689 cnv 5 73 26 empty empty outlets: 4 10 0 14 -262144
-49933 0;
#X text 110 690 1\.;
#X text 245 690 output list.;
#X obj 10 48 ui.link @title index @url ../index-help.pd;
#X text 51 45 ::;
#X obj 67 48 ui.link @title ceammc @url ceammc-help.pd;
#X text 115 45 ::;
#X obj 131 48 ui.link @title list @url ceammc.list-help.pd;
#X obj 1 740 cnv 5 765 48 empty empty empty 17 7 0 10 -203890 -1 0;
#X text 10 743 library: ceammc v0.9.0;
#N canvas 10 762 400 290 info 0;
#X obj 1 1 cnv 1 107 287 empty empty empty 17 7 0 10 -183085 -1 0;
#X text 10 10 library:;
#X text 120 10 ceammc;
#X text 10 32 version:;
#X text 120 32 0.9.0;
#X text 10 54 object:;
#X text 120 54 list.normalize;
#X text 10 76 category:;
#X text 120 76 list;
#X text 10 98 since:;
#X text 120 98 0.1;
#X text 10 120 authors:;
#X text 120 120 Serge Poltavsky;
#X text 10 142 license:;
#X text 120 142 GPL3 or later;
#X text 10 164 keywords:;
#X text 120 164 list \, normalize;
#X text 10 186 website:;
#X obj 120 189 ui.link @title https://github.com/uliss/pure-data @url
https://github.com/uliss/pure-data;
#X obj 120 208 declare -lib ceammc;
#X obj 120 268 cnv 1 270 1 empty empty empty 17 7 0 10 -203890 -1 0;
#X text 120 268 generated by pddoc;
#X restore 10 762 pd info;
#X connect 8 0 12 0;
#X connect 9 0 12 0;
#X connect 10 0 12 0;
#X connect 11 0 12 0;
#X connect 12 0 13 0;
#X connect 13 1 14 0;
#X connect 13 0 15 0;
#X connect 14 0 15 0;
#X connect 15 0 16 0;
#X connect 16 0 17 0;