#N canvas 0 0 785 555 12;
#X declare -lib ceammc;
#X obj 407 50 cnv 1 358 23 empty empty empty 17 7 0 10 -245760 -1 0;
#X text 407 50 checks if all list atoms accepted by predicate;
#X obj 1 1 cnv 5 765 40 empty empty list.all_of 20 20 0 20 -104026
-4096 0;
#X obj 661 11 list.all_of;
#X obj 210 80 cnv 1 555 35 empty empty empty 17 7 0 10 -257983 -1 0;
#X text 215 80 Note: also data.mlist;
#X msg 50 143 1 10;
#X msg 155 143 (1 3 5) \, bang;
#X msg 203 172 1 10 2;
#X obj 50 201 list.seq;
#X obj 155 201 ml;
#X obj 203 201 list.seq;
#X obj 50 259 list.all_of;
#X obj 242 259 is_odd;
#X floatatom 50 287 5 0 0 0 - - -;
#X obj 20 326 cnv 1 745 1 empty empty empty 17 7 0 10 -203890 -1 0;
#X obj 20 331 cnv 5 64 26 empty empty inlets: 4 10 0 14 -262144 -49933
0;
#X text 110 332 1\.;
#X text 150 332 *list*;
#X text 245 332 Input list.;
#X text 150 352 *data*;
#X text 245 352 Input mlist.;
#X text 110 372 2\.;
#X text 150 372 *float*;
#X text 245 372 input value from predicate. "1" means accepted. "0"
means reject. Range: 0\...1\.;
#X obj 20 417 cnv 1 745 1 empty empty empty 17 7 0 10 -203890 -1 0;
#X obj 20 422 cnv 5 73 26 empty empty outlets: 4 10 0 14 -262144
-49933 0;
#X text 110 423 1\.;
#X text 245 423 1 - if predicate object returns true for all the elements
or list is empty or 0 otherwise.;
#X text 110 458 2\.;
#X text 245 458 atom to predicate.;
#X obj 10 48 ui.link @title index @url ../index-help.pd;
#X text 51 45 ::;
#X obj 67 48 ui.link @title ceammc @url ceammc-help.pd;
#X text 115 45 ::;
#X obj 131 48 ui.link @title list @url ceammc.list-help.pd;
#X obj 1 508 cnv 5 765 48 empty empty empty 17 7 0 10 -203890 -1 0;
#X text 10 511 library: ceammc v0.9.0;
#X text 580 523 see also:;
#X obj 654 523 list.none_of;
#N canvas 10 530 400 290 info 0;
#X obj 1 1 cnv 1 107 287 empty empty empty 17 7 0 10 -183085 -1 0;
#X text 10 10 library:;
#X text 120 10 ceammc;
#X text 10 32 version:;
#X text 120 32 0.9.0;
#X text 10 54 object:;
#X text 120 54 list.all_of;
#X text 10 76 category:;
#X text 120 76 list;
#X text 10 98 since:;
#X text 120 98 0.1;
#X text 10 120 authors:;
#X text 120 120 Serge Poltavsky;
#X text 10 142 license:;
#X text 120 142 GPL3 or later;
#X text 10 164 keywords:;
#X text 120 164 list \, predicate \, all;
#X text 10 186 website:;
#X obj 120 189 ui.link @title https://github.com/uliss/pure-data @url
https://github.com/uliss/pure-data;
#X obj 120 208 declare -lib ceammc;
#X obj 120 268 cnv 1 270 1 empty empty empty 17 7 0 10 -203890 -1 0;
#X text 120 268 generated by pddoc;
#X restore 10 530 pd info;
#X connect 6 0 9 0;
#X connect 7 0 10 0;
#X connect 8 0 11 0;
#X connect 9 0 12 0;
#X connect 10 0 12 0;
#X connect 11 0 12 0;
#X connect 12 0 14 0;
#X connect 12 1 13 0;
#X connect 13 0 12 1;