#N canvas 0 0 785 555 12;
#X declare -lib ceammc;
#X obj 294 50 cnv 1 471 38 empty empty empty 17 7 0 10 -245760 -1 0;
#X text 294 50 returns the sum of the previously stored list and the
current one then stores this sum;
#X obj 1 1 cnv 5 765 40 empty empty list.integrator 20 20 0 20 -104026
-4096 0;
#X obj 631 11 list.integrator;
#X msg 50 118 1 2 3;
#X msg 146 118 -1 -2 -3;
#X msg 78 147 dump;
#X msg 165 147 clear;
#X obj 50 205 list.integrator;
#X obj 50 234 msg set;
#X msg 50 262 ;
#X obj 20 301 cnv 1 745 1 empty empty empty 17 7 0 10 -203890 -1 0;
#X obj 20 306 cnv 5 98 26 empty empty properties: 4 10 0 14 -262144
-49933 0;
#X msg 110 341 @clip;
#X text 245 341 alias for "@oversize min" property. Truncates lists
to minimal common size.;
#X msg 110 383 @clip;
#X text 245 383 alias for "@oversize clip" property. Pad shortest list
with last element to conform longest list.;
#X msg 110 425 @fold;
#X text 245 425 alias for "@oversize fold" property. Pad shortest list
with repeated values from the end to the beginning \, then back and
so on.;
#X msg 110 482 @min;
#X text 245 482 alias for "@oversize min" property. Truncates lists
to minimal common size.;
#X msg 110 524 @oversize;
#X text 245 524 Get/Set behavior \, if list have different sizes. Type:
symbol. Default value: padz. Allowed values: min \, padz \, clip \,
wrap \, fold.;
#X msg 110 581 @padz;
#X text 245 581 alias for "@oversize padz" property. Pad shortest list
with zeroes.;
#X msg 110 623 @wrap;
#X text 245 623 alias for "@oversize wrap" property. Pad shortest list
with repeated values from the beginning.;
#X obj 20 675 cnv 1 745 1 empty empty empty 17 7 0 10 -203890 -1 0;
#X obj 20 680 cnv 5 73 26 empty empty methods: 4 10 0 14 -262144
-49933 0;
#X msg 110 715 clear;
#X text 245 715 clear integrator state.;
#X obj 20 752 cnv 1 745 1 empty empty empty 17 7 0 10 -203890 -1 0;
#X obj 20 757 cnv 5 64 26 empty empty inlets: 4 10 0 14 -262144 -49933
0;
#X text 110 758 1\.;
#X text 150 758 *list*;
#X text 245 758 Input list.;
#X obj 20 788 cnv 1 745 1 empty empty empty 17 7 0 10 -203890 -1 0;
#X obj 20 793 cnv 5 73 26 empty empty outlets: 4 10 0 14 -262144
-49933 0;
#X text 110 794 1\.;
#X text 245 794 new integrated list.;
#X obj 10 48 ui.link @title index @url ../index-help.pd;
#X text 51 45 ::;
#X obj 67 48 ui.link @title ceammc @url ceammc-help.pd;
#X text 115 45 ::;
#X obj 131 48 ui.link @title list @url ceammc.list-help.pd;
#X obj 1 844 cnv 5 765 48 empty empty empty 17 7 0 10 -203890 -1 0;
#X text 10 847 library: ceammc v0.9.0;
#X text 594 859 see also:;
#X obj 668 859 list.delta;
#N canvas 10 866 400 290 info 0;
#X obj 1 1 cnv 1 107 287 empty empty empty 17 7 0 10 -183085 -1 0;
#X text 10 10 library:;
#X text 120 10 ceammc;
#X text 10 32 version:;
#X text 120 32 0.9.0;
#X text 10 54 object:;
#X text 120 54 list.integrator;
#X text 10 76 category:;
#X text 120 76 list;
#X text 10 98 since:;
#X text 120 98 0.1;
#X text 10 120 authors:;
#X text 120 120 Alex Nadzharov \, Serge Poltavsky;
#X text 10 142 license:;
#X text 120 142 GPL3 or later;
#X text 10 164 keywords:;
#X text 120 164 list \, integrator;
#X text 10 186 website:;
#X obj 120 189 ui.link @title https://github.com/uliss/pure-data @url
https://github.com/uliss/pure-data;
#X obj 120 208 declare -lib ceammc;
#X obj 120 268 cnv 1 270 1 empty empty empty 17 7 0 10 -203890 -1 0;
#X text 120 268 generated by pddoc;
#X restore 10 866 pd info;
#X connect 4 0 8 0;
#X connect 6 0 8 0;
#X connect 5 0 8 0;
#X connect 7 0 8 0;
#X connect 8 0 9 0;
#X connect 9 0 10 0;