#N canvas 0 0 785 555 12;
#X declare -lib ceammc;
#X obj 308 50 cnv 1 457 23 empty empty empty 17 7 0 10 -245760 -1 0;
#X text 308 50 insert atom or list to the specified position of input
list;
#X obj 1 1 cnv 5 765 40 empty empty list.insert 20 20 0 20 -104026
-4096 0;
#X obj 661 11 list.insert;
#X obj 210 80 cnv 1 555 35 empty empty empty 17 7 0 10 -257983 -1 0;
#X text 215 80 Works with data atoms;
#X msg 50 143 1 2 3 4;
#X msg 78 172 list D E F;
#X floatatom 213 172 5 0 0 0 - - -;
#X obj 50 215 list.insert A B C @index 1;
#X obj 50 244 ui.display @display_type 1 @size 150 18;
#X obj 20 284 cnv 1 745 1 empty empty empty 17 7 0 10 -203890 -1 0;
#X obj 20 289 cnv 5 98 26 empty empty properties: 4 10 0 14 -262144
-49933 0;
#X msg 110 324 @index;
#X text 245 324 Get/Set insert element index. Type: int. Default value:
0\. Min value: 0\.;
#X obj 20 376 cnv 1 745 1 empty empty empty 17 7 0 10 -203890 -1 0;
#X obj 20 381 cnv 5 64 26 empty empty inlets: 4 10 0 14 -262144 -49933
0;
#X text 110 382 1\.;
#X text 150 382 *list*;
#X text 245 382 input list.;
#X text 150 402 *data:mlist*;
#X text 245 402 input mlist.;
#X text 110 422 2\.;
#X text 150 422 *list*;
#X text 245 422 set inserted atom or list.;
#X text 110 442 3\.;
#X text 150 442 *float*;
#X text 245 442 set insert position.;
#X obj 20 472 cnv 1 745 1 empty empty empty 17 7 0 10 -203890 -1 0;
#X obj 20 477 cnv 5 73 26 empty empty outlets: 4 10 0 14 -262144
-49933 0;
#X text 110 478 1\.;
#X text 245 478 output result list or mlist.;
#X obj 10 48 ui.link @title index @url ../index-help.pd;
#X text 51 45 ::;
#X obj 67 48 ui.link @title ceammc @url ceammc-help.pd;
#X text 115 45 ::;
#X obj 131 48 ui.link @title list @url ceammc.list-help.pd;
#X obj 1 528 cnv 5 765 48 empty empty empty 17 7 0 10 -203890 -1 0;
#X text 10 531 library: ceammc v0.9.0;
#X text 486 543 see also:;
#X obj 560 543 list.append;
#X obj 654 543 list.prepend;
#N canvas 10 550 400 290 info 0;
#X obj 1 1 cnv 1 107 287 empty empty empty 17 7 0 10 -183085 -1 0;
#X text 10 10 library:;
#X text 120 10 ceammc;
#X text 10 32 version:;
#X text 120 32 0.9.0;
#X text 10 54 object:;
#X text 120 54 list.insert;
#X text 10 76 category:;
#X text 120 76 list;
#X text 10 98 since:;
#X text 120 98 0.6;
#X text 10 120 authors:;
#X text 120 120 Serge Poltavsky;
#X text 10 142 license:;
#X text 120 142 GPL3 or later;
#X text 10 164 keywords:;
#X text 120 164 list \, insert;
#X text 10 186 website:;
#X obj 120 189 ui.link @title https://github.com/uliss/pure-data @url
https://github.com/uliss/pure-data;
#X obj 120 208 declare -lib ceammc;
#X obj 120 268 cnv 1 270 1 empty empty empty 17 7 0 10 -203890 -1 0;
#X text 120 268 generated by pddoc;
#X restore 10 550 pd info;
#X connect 6 0 9 0;
#X connect 7 0 9 1;
#X connect 8 0 9 2;
#X connect 9 0 10 0;