#N canvas 0 0 785 555 12;
#X declare -lib ceammc;
#X obj 469 50 cnv 1 296 23 empty empty empty 17 7 0 10 -245760 -1 0;
#X text 469 50 prepend atom or list before input list;
#X obj 1 1 cnv 5 765 40 empty empty list.prepend 20 20 0 20 -104026
-4096 0;
#X obj 654 11 list.prepend;
#X obj 210 80 cnv 1 555 35 empty empty empty 17 7 0 10 -257983 -1 0;
#X text 215 80 Works with data atoms;
#X obj 50 143 bng 15 250 50 0 empty empty empty 17 7 0 10 -262144 -1
-1;
#X floatatom 88 143 5 0 0 0 - - -;
#X obj 136 143 bng 15 250 50 0 empty empty empty 17 7 0 10 -262144 -1
-1;
#X msg 203 143 1 2 3 4 5;
#X obj 318 143 bng 15 250 50 0 empty empty empty 17 7 0 10 -262144 -1
-1;
#X obj 136 172 str test1;
#X obj 318 172 str ANOTHER STRING;
#X obj 50 215 list.prepend @prop ABC;
#X obj 50 244 ui.display @display_type 1 @size 150 18;
#X obj 20 284 cnv 1 745 1 empty empty empty 17 7 0 10 -203890 -1 0;
#X obj 20 289 cnv 5 64 26 empty empty inlets: 4 10 0 14 -262144 -49933
0;
#X text 110 290 1\.;
#X text 150 290 *bang*;
#X text 245 290 treated as empty input list.;
#X text 150 310 *float*;
#X text 245 310 input float.;
#X text 150 330 *symbol*;
#X text 245 330 input symbol.;
#X text 150 350 *list*;
#X text 245 350 input list.;
#X text 150 370 *data:mlist*;
#X text 245 370 input mlist.;
#X text 150 390 *data*;
#X text 245 390 input data.;
#X text 110 410 2\.;
#X text 150 410 *list*;
#X text 245 410 set prepended atom or list.;
#X obj 20 440 cnv 1 745 1 empty empty empty 17 7 0 10 -203890 -1 0;
#X obj 20 445 cnv 5 73 26 empty empty outlets: 4 10 0 14 -262144
-49933 0;
#X text 110 446 1\.;
#X text 245 446 output concatenated list.;
#X obj 10 48 ui.link @title index @url ../index-help.pd;
#X text 51 45 ::;
#X obj 67 48 ui.link @title ceammc @url ceammc-help.pd;
#X text 115 45 ::;
#X obj 131 48 ui.link @title list @url ceammc.list-help.pd;
#X obj 1 505 cnv 5 765 48 empty empty empty 17 7 0 10 -203890 -1 0;
#X text 10 508 library: ceammc v0.9.0;
#X text 587 520 see also:;
#X obj 661 520 list.append;
#N canvas 10 527 400 290 info 0;
#X obj 1 1 cnv 1 107 287 empty empty empty 17 7 0 10 -183085 -1 0;
#X text 10 10 library:;
#X text 120 10 ceammc;
#X text 10 32 version:;
#X text 120 32 0.9.0;
#X text 10 54 object:;
#X text 120 54 list.prepend;
#X text 10 76 category:;
#X text 120 76 list;
#X text 10 98 since:;
#X text 120 98 0.6;
#X text 10 120 authors:;
#X text 120 120 Serge Poltavsky;
#X text 10 142 license:;
#X text 120 142 GPL3 or later;
#X text 10 164 keywords:;
#X text 120 164 list \, prepend;
#X text 10 186 website:;
#X obj 120 189 ui.link @title https://github.com/uliss/pure-data @url
https://github.com/uliss/pure-data;
#X obj 120 208 declare -lib ceammc;
#X obj 120 268 cnv 1 270 1 empty empty empty 17 7 0 10 -203890 -1 0;
#X text 120 268 generated by pddoc;
#X restore 10 527 pd info;
#X connect 8 0 11 0;
#X connect 10 0 12 0;
#X connect 6 0 13 0;
#X connect 7 0 13 0;
#X connect 11 0 13 0;
#X connect 9 0 13 0;
#X connect 12 0 13 1;
#X connect 13 0 14 0;