#N canvas 0 0 785 555 12;
#X declare -lib ceammc;
#X obj 446 50 cnv 1 319 23 empty empty empty 17 7 0 10 -245760 -1 0;
#X text 446 50 leave only elements accepted by predicate;
#X obj 1 1 cnv 5 765 40 empty empty list.pass_if 20 20 0 20 -104026
-4096 0;
#X obj 549 11 list.filter;
#X obj 654 11 list.pass_if;
#X obj 210 80 cnv 1 555 50 empty empty empty 17 7 0 10 -257983 -1 0;
#X text 215 80 Predicate object should accept atom and output 0 (remove
element) or 1 (leave element).;
#X msg 50 158 10;
#X msg 338 158 10;
#X obj 50 187 list.seq;
#X obj 338 187 list.seq;
#X obj 50 216 list.pass_if;
#X obj 213 216 is_odd;
#X obj 338 216 list.pass_if;
#X obj 501 216 > 5;
#X obj 50 245 msg set;
#X obj 338 245 msg set;
#X msg 50 274 ;
#X msg 338 274 ;
#X obj 50 302 bng 15 250 50 0 empty empty empty 17 7 0 10 -262144 -1
-1;
#X obj 50 331 path.ls .;
#X obj 50 360 list.pass_if;
#X obj 213 360 str.ends_with .pd;
#X obj 50 389 str.join ' ';
#X obj 50 418 str->sym;
#X obj 50 446 msg set;
#X msg 50 475 ;
#X obj 20 514 cnv 1 745 1 empty empty empty 17 7 0 10 -203890 -1 0;
#X obj 20 519 cnv 5 64 26 empty empty inlets: 4 10 0 14 -262144 -49933
0;
#X text 110 520 1\.;
#X text 150 520 *list*;
#X text 245 520 input list.;
#X text 150 540 *data:mlist*;
#X text 245 540 input mlist.;
#X text 110 560 2\.;
#X text 150 560 *float*;
#X text 245 560 value from predicate.;
#X obj 20 590 cnv 1 745 1 empty empty empty 17 7 0 10 -203890 -1 0;
#X obj 20 595 cnv 5 73 26 empty empty outlets: 4 10 0 14 -262144
-49933 0;
#X text 110 596 1\.;
#X text 245 596 output list with accepted elements.;
#X text 110 616 2\.;
#X text 245 616 atom to predicate.;
#X obj 10 48 ui.link @title index @url ../index-help.pd;
#X text 51 45 ::;
#X obj 67 48 ui.link @title ceammc @url ceammc-help.pd;
#X text 115 45 ::;
#X obj 131 48 ui.link @title list @url ceammc.list-help.pd;
#X obj 1 666 cnv 5 765 48 empty empty empty 17 7 0 10 -203890 -1 0;
#X text 10 669 library: ceammc v0.9.0;
#X text 565 681 see also:;
#X obj 639 681 list.remove_if;
#N canvas 10 688 400 290 info 0;
#X obj 1 1 cnv 1 107 287 empty empty empty 17 7 0 10 -183085 -1 0;
#X text 10 10 library:;
#X text 120 10 ceammc;
#X text 10 32 version:;
#X text 120 32 0.9.0;
#X text 10 54 object:;
#X text 120 54 list.pass_if;
#X text 10 76 category:;
#X text 120 76 list;
#X text 10 98 since:;
#X text 120 98 0.3;
#X text 10 120 authors:;
#X text 120 120 Serge Poltavsky;
#X text 10 142 license:;
#X text 120 142 GPL3 or later;
#X text 10 164 keywords:;
#X text 120 164 list \, pass \, accept \, leave \, predicate;
#X text 10 186 website:;
#X obj 120 189 ui.link @title https://github.com/uliss/pure-data @url
https://github.com/uliss/pure-data;
#X obj 120 208 declare -lib ceammc;
#X obj 120 268 cnv 1 270 1 empty empty empty 17 7 0 10 -203890 -1 0;
#X text 120 268 generated by pddoc;
#X restore 10 688 pd info;
#X connect 7 0 9 0;
#X connect 8 0 10 0;
#X connect 9 0 11 0;
#X connect 10 0 13 0;
#X connect 11 0 15 0;
#X connect 13 0 16 0;
#X connect 15 0 17 0;
#X connect 16 0 18 0;
#X connect 19 0 20 0;
#X connect 20 0 21 0;
#X connect 21 0 23 0;
#X connect 23 0 24 0;
#X connect 24 0 25 0;
#X connect 25 0 26 0;
#X connect 11 1 12 0;
#X connect 12 0 11 1;
#X connect 13 1 14 0;
#X connect 14 0 13 1;
#X connect 21 1 22 0;
#X connect 22 0 21 1;