#N canvas 0 0 785 555 12;
#X declare -lib ceammc;
#X obj 499 50 cnv 1 266 23 empty empty empty 17 7 0 10 -245760 -1 0;
#X text 499 50 canvas-scoped named float variable;
#X obj 1 1 cnv 5 765 40 empty empty local.float 20 20 0 20 -104026
-4096 0;
#X obj 661 11 local.float;
#X obj 210 80 cnv 1 555 65 empty empty empty 17 7 0 10 -257983 -1 0;
#X text 215 80 Defines named local float variable \, accessed by name
and available only within its patch (canvas). Note: it is not accessible
even from subpatch.;
#X floatatom 50 173 5 0 0 0 - - -;
#X msg 107 173 + 2 \, bang;
#X msg 251 173 * 3 \, bang;
#X msg 395 173 bang;
#X msg 136 217 - 3 \, bang;
#X msg 270 217 / 2 \, bang;
#X obj 50 274 local.float f1;
#X obj 395 274 local.float f1;
#X floatatom 50 303 5 0 0 0 - - -;
#X floatatom 395 303 5 0 0 0 - - -;
#X obj 20 342 cnv 1 745 1 empty empty empty 17 7 0 10 -203890 -1 0;
#X obj 20 347 cnv 5 90 26 empty empty arguments: 4 10 0 14 -262144
-49933 0;
#X text 110 382 1\.;
#X text 150 382 symbol;
#X obj 246 383 cnv 1 23 20 empty empty empty 17 7 0 10 -245695 -1 0;
#X text 245 382 ID: object ID.;
#X obj 20 412 cnv 1 745 1 empty empty empty 17 7 0 10 -203890 -1 0;
#X obj 20 417 cnv 5 98 26 empty empty properties: 4 10 0 14 -262144
-49933 0;
#X msg 110 452 @value;
#X text 245 452 (readonly) Get current value. Type: float. Default
value: 0\.;
#X obj 20 491 cnv 1 745 1 empty empty empty 17 7 0 10 -203890 -1 0;
#X obj 20 496 cnv 5 73 26 empty empty methods: 4 10 0 14 -262144
-49933 0;
#X msg 110 531 set;
#X text 245 531 sets new value without output.;
#X msg 110 558 *;
#X text 245 558 multiply to \, no output.;
#X msg 110 585 +;
#X text 245 585 add to float \, no output.;
#X msg 110 612 -;
#X text 245 612 subtract from float \, no output.;
#X msg 110 639 /;
#X text 245 639 divide by \, no output.;
#X obj 20 676 cnv 1 745 1 empty empty empty 17 7 0 10 -203890 -1 0;
#X obj 20 681 cnv 5 64 26 empty empty inlets: 4 10 0 14 -262144 -49933
0;
#X text 110 682 1\.;
#X text 150 682 *bang*;
#X text 245 682 output value.;
#X text 150 702 *float*;
#X text 245 702 sets new value and outputs it ONLY at current object
outlet.;
#X obj 20 732 cnv 1 745 1 empty empty empty 17 7 0 10 -203890 -1 0;
#X obj 20 737 cnv 5 73 26 empty empty outlets: 4 10 0 14 -262144
-49933 0;
#X text 110 738 1\.;
#X text 245 738 float output.;
#X obj 10 48 ui.link @title index @url ../index-help.pd;
#X text 51 45 ::;
#X obj 67 48 ui.link @title ceammc @url ceammc-help.pd;
#X text 115 45 ::;
#X obj 131 48 ui.link @title local @url ceammc.local-help.pd;
#X obj 1 788 cnv 5 765 48 empty empty empty 17 7 0 10 -203890 -1 0;
#X text 10 791 library: ceammc v0.9.0;
#X text 515 803 see also:;
#X obj 589 803 local.int;
#X obj 668 803 global.int;
#N canvas 10 810 400 290 info 0;
#X obj 1 1 cnv 1 107 287 empty empty empty 17 7 0 10 -183085 -1 0;
#X text 10 10 library:;
#X text 120 10 ceammc;
#X text 10 32 version:;
#X text 120 32 0.9.0;
#X text 10 54 object:;
#X text 120 54 local.float;
#X text 10 76 category:;
#X text 120 76 local;
#X text 10 98 since:;
#X text 120 98 0.1;
#X text 10 120 authors:;
#X text 120 120 Serge Poltavsky;
#X text 10 142 license:;
#X text 120 142 GPL3 or later;
#X text 10 164 keywords:;
#X text 120 164 float \, local;
#X text 10 186 website:;
#X obj 120 189 ui.link @title https://github.com/uliss/pure-data @url
https://github.com/uliss/pure-data;
#X obj 120 208 declare -lib ceammc;
#X obj 120 268 cnv 1 270 1 empty empty empty 17 7 0 10 -203890 -1 0;
#X text 120 268 generated by pddoc;
#X restore 10 810 pd info;
#X connect 6 0 12 0;
#X connect 7 0 12 0;
#X connect 10 0 12 0;
#X connect 8 0 12 0;
#X connect 11 0 12 0;
#X connect 9 0 13 0;
#X connect 12 0 14 0;
#X connect 13 0 15 0;