#N canvas 0 0 785 555 12;
#X declare -lib ceammc;
#X obj 615 50 cnv 1 150 23 empty empty empty 17 7 0 10 -245760 -1 0;
#X text 615 50 logarithm functions;
#X obj 1 1 cnv 5 765 40 empty empty math.log10 20 20 0 20 -104026
-4096 0;
#X obj 667 11 math.log10;
#X obj 210 80 cnv 1 555 175 empty empty empty 17 7 0 10 -257983 -1 0;
#X text 215 80 The log10() function computes the value of the logarithm
of argument x to base 10\.;
#X text 215 120 Special values:;
#X text 215 145 log10(+-0) return -infinity;
#X text 215 170 log10(1) return +0\.;
#X text 215 195 log10(x) return a NaN;
#X text 215 220 log10(+infinity) return +infinity.;
#X msg 50 283 bang;
#N canvas 0 22 450 300 (subpatch) 0;
#X array LOG10 100 float 1;
#A 0 0 0 0 0 0 0 0 0 0 0 0 0 0 0 0 0 0 0 0 0 0 0 0 0 0 0 0 0 0 0 0 0 0
0 0 0 0 0 0 0 0 0 0 0 0 0 0 0 0 0 0 0 0 0 0 0 0 0 0 0 0 0 0 0 0 0 0 0
0 0 0 0 0 0 0 0 0 0 0 0 0 0 0 0 0 0 0 0 0 0 0 0 0 0 0 0 0 0 0 0;
#X coords 0 2 100 -2 320 140 1;
#X restore 280 283 graph;
#X obj 50 312 list.seq -1 100 0.5;
#X obj 50 341 math.log10;
#X obj 50 370 list->array LOG10;
#X obj 20 445 cnv 1 745 1 empty empty empty 17 7 0 10 -203890 -1 0;
#X obj 20 450 cnv 5 64 26 empty empty inlets: 4 10 0 14 -262144 -49933
0;
#X text 110 451 1\.;
#X text 150 451 *float*;
#X text 245 451 input value.;
#X text 150 471 *list*;
#X text 245 471 apply to all numeric values.;
#X obj 20 501 cnv 1 745 1 empty empty empty 17 7 0 10 -203890 -1 0;
#X obj 20 506 cnv 5 73 26 empty empty outlets: 4 10 0 14 -262144
-49933 0;
#X text 110 507 1\.;
#X text 245 507 result value.;
#X obj 10 48 ui.link @title index @url ../index-help.pd;
#X text 51 45 ::;
#X obj 67 48 ui.link @title ceammc @url ceammc-help.pd;
#X text 115 45 ::;
#X obj 131 48 ui.link @title math @url ceammc.math-help.pd;
#X obj 1 557 cnv 5 765 48 empty empty empty 17 7 0 10 -203890 -1 0;
#X text 10 560 library: ceammc v0.9.0;
#X text 608 572 see also:;
#X obj 682 572 math.exp;
#N canvas 10 579 400 290 info 0;
#X obj 1 1 cnv 1 107 287 empty empty empty 17 7 0 10 -183085 -1 0;
#X text 10 10 library:;
#X text 120 10 ceammc;
#X text 10 32 version:;
#X text 120 32 0.9.0;
#X text 10 54 object:;
#X text 120 54 math.log10;
#X text 10 76 category:;
#X text 120 76 math;
#X text 10 98 since:;
#X text 120 98 0.1;
#X text 10 120 authors:;
#X text 120 120 Serge Poltavsky;
#X text 10 142 license:;
#X text 120 142 GPL3 or later;
#X text 10 164 keywords:;
#X text 120 164 math \, log10;
#X text 10 186 website:;
#X obj 120 189 ui.link @title https://github.com/uliss/pure-data @url
https://github.com/uliss/pure-data;
#X obj 120 208 declare -lib ceammc;
#X obj 120 268 cnv 1 270 1 empty empty empty 17 7 0 10 -203890 -1 0;
#X text 120 268 generated by pddoc;
#X restore 10 579 pd info;
#X connect 11 0 13 0;
#X connect 13 0 14 0;
#X connect 14 0 15 0;