#N canvas 0 0 785 555 12;
#X declare -lib ceammc;
#X obj 446 50 cnv 1 319 23 empty empty empty 17 7 0 10 -245760 -1 0;
#X text 446 50 gamma function for floating point signals;
#X obj 1 1 cnv 5 765 40 empty empty math.gamma~ 20 20 0 20 -104026
-4096 0;
#X obj 659 11 math.gamma~;
#X obj 210 80 cnv 1 555 60 empty empty empty 17 7 0 10 -257983 -1 0;
#X text 215 80 Extension of factorial function to real numbers;
#X text 215 105 For any positive integer n \, Γ(n) = (n−1)!;
#X msg 50 168 bang;
#X obj 50 197 plot.linspace~ -4 8 400;
#X obj 50 226 math.gamma~;
#X obj 50 255 ui.plot~ @xlabels 1 @ylabels 1 @ymin -20 @ymax 40 @size
400 170 @ymin_ticks 0;
#X obj 50 442 ui.dsp~;
#X obj 20 481 cnv 1 745 1 empty empty empty 17 7 0 10 -203890 -1 0;
#X obj 20 486 cnv 5 64 26 empty empty inlets: 4 10 0 14 -262144 -49933
0;
#X text 110 487 1\.;
#X text 245 487 input signal.;
#X obj 20 517 cnv 1 745 1 empty empty empty 17 7 0 10 -203890 -1 0;
#X obj 20 522 cnv 5 73 26 empty empty outlets: 4 10 0 14 -262144
-49933 0;
#X text 110 523 1\.;
#X text 245 523 output signal.;
#X obj 10 48 ui.link @title index @url ../index-help.pd;
#X text 51 45 ::;
#X obj 67 48 ui.link @title ceammc @url ceammc-help.pd;
#X text 115 45 ::;
#X obj 131 48 ui.link @title math @url ceammc.math-help.pd;
#X obj 1 573 cnv 5 765 48 empty empty empty 17 7 0 10 -203890 -1 0;
#X text 10 576 library: ceammc v0.9.0;
#X text 490 588 see also:;
#X obj 564 588 math.gamma;
#X obj 652 588 math.lgamma~;
#N canvas 10 595 400 290 info 0;
#X obj 1 1 cnv 1 107 287 empty empty empty 17 7 0 10 -183085 -1 0;
#X text 10 10 library:;
#X text 120 10 ceammc;
#X text 10 32 version:;
#X text 120 32 0.9.0;
#X text 10 54 object:;
#X text 120 54 math.gamma~;
#X text 10 76 category:;
#X text 120 76 math;
#X text 10 98 since:;
#X text 120 98 0.9;
#X text 10 120 authors:;
#X text 120 120 Serge Poltavsky;
#X text 10 142 license:;
#X text 120 142 GPL3 or later;
#X text 10 164 keywords:;
#X text 120 164 math \, gamma \, factorial;
#X text 10 186 website:;
#X obj 120 189 ui.link @title https://github.com/uliss/pure-data @url
https://github.com/uliss/pure-data;
#X obj 120 208 declare -lib ceammc;
#X obj 120 268 cnv 1 270 1 empty empty empty 17 7 0 10 -203890 -1 0;
#X text 120 268 generated by pddoc;
#X restore 10 595 pd info;
#X connect 7 0 8 0;
#X connect 8 0 9 0;
#X connect 9 0 10 0;
#X connect 8 1 10 1;