#N canvas 0 0 785 555 12;
#X declare -lib ceammc;
#X obj 552 50 cnv 1 213 23 empty empty empty 17 7 0 10 -245760 -1 0;
#X text 552 50 calculate reciprocal number;
#X obj 1 1 cnv 5 765 40 empty empty math.reciprocal 20 20 0 20 -104026
-4096 0;
#X obj 584 11 1/x;
#X obj 631 11 math.reciprocal;
#X obj 210 80 cnv 1 555 35 empty empty empty 17 7 0 10 -257983 -1 0;
#X text 215 80 Symbols are ignored \, 0 gives NAN value;
#X floatatom 50 143 5 0 0 0 - - -;
#X msg 98 143 1 2 3 4 5;
#X floatatom 261 143 5 0 0 0 - - -;
#X obj 50 172 math.reciprocal;
#X msg 261 172 1 \$1;
#X obj 50 201 msg set;
#X obj 261 201 /;
#X msg 50 230 ;
#X floatatom 261 230 5 0 0 0 - - -;
#X obj 20 269 cnv 1 745 1 empty empty empty 17 7 0 10 -203890 -1 0;
#X obj 20 274 cnv 5 64 26 empty empty inlets: 4 10 0 14 -262144 -49933
0;
#X text 110 275 1\.;
#X text 150 275 *float*;
#X text 245 275 input value.;
#X text 150 295 *list*;
#X text 245 295 on list input outputs a list of reciprocal values.;
#X obj 20 325 cnv 1 745 1 empty empty empty 17 7 0 10 -203890 -1 0;
#X obj 20 330 cnv 5 73 26 empty empty outlets: 4 10 0 14 -262144
-49933 0;
#X text 110 331 1\.;
#X text 245 331 result value.;
#X obj 10 48 ui.link @title index @url ../index-help.pd;
#X text 51 45 ::;
#X obj 67 48 ui.link @title ceammc @url ceammc-help.pd;
#X text 115 45 ::;
#X obj 131 48 ui.link @title math @url ceammc.math-help.pd;
#X obj 1 505 cnv 5 765 48 empty empty empty 17 7 0 10 -203890 -1 0;
#X text 10 508 library: ceammc v0.9.0;
#N canvas 10 527 400 290 info 0;
#X obj 1 1 cnv 1 107 287 empty empty empty 17 7 0 10 -183085 -1 0;
#X text 10 10 library:;
#X text 120 10 ceammc;
#X text 10 32 version:;
#X text 120 32 0.9.0;
#X text 10 54 object:;
#X text 120 54 math.reciprocal;
#X text 10 76 category:;
#X text 120 76 math;
#X text 10 98 since:;
#X text 120 98 0.1;
#X text 10 120 authors:;
#X text 120 120 Serge Poltavsky;
#X text 10 142 license:;
#X text 120 142 GPL3 or later;
#X text 10 164 keywords:;
#X text 120 164 math \, reciprocal;
#X text 10 186 website:;
#X obj 120 189 ui.link @title https://github.com/uliss/pure-data @url
https://github.com/uliss/pure-data;
#X obj 120 208 declare -lib ceammc;
#X obj 120 268 cnv 1 270 1 empty empty empty 17 7 0 10 -203890 -1 0;
#X text 120 268 generated by pddoc;
#X restore 10 527 pd info;
#X connect 7 0 10 0;
#X connect 8 0 10 0;
#X connect 9 0 11 0;
#X connect 10 0 12 0;
#X connect 11 0 13 0;
#X connect 12 0 14 0;
#X connect 13 0 15 0;