#N canvas 0 0 785 555 12;
#X declare -lib ceammc;
#X obj 660 50 cnv 1 105 23 empty empty empty 17 7 0 10 -245760 -1 0;
#X text 660 50 sync division;
#X obj 1 1 cnv 5 765 40 empty empty math.sync_div 20 20 0 20 -104026
-4096 0;
#X obj 529 11 math./';
#X obj 603 11 /';
#X obj 645 11 math.sync_div;
#X obj 210 80 cnv 1 555 50 empty empty empty 17 7 0 10 -257983 -1 0;
#X text 215 80 on division by zero outputs nothing: just put error
message into console;
#X floatatom 50 158 5 0 0 0 - - -;
#X floatatom 107 158 5 0 0 0 - - -;
#X text 165 158 same as:;
#X floatatom 290 158 5 0 0 0 - - -;
#X floatatom 338 158 5 0 0 0 - - -;
#X obj 338 187 t b f;
#X obj 50 216 math.sync_div 2;
#X obj 290 216 / 2;
#X floatatom 50 245 5 0 0 0 - - -;
#X floatatom 290 245 5 0 0 0 - - -;
#X msg 50 274 3.1415 5.1;
#X msg 174 274 13 0;
#X obj 50 317 math.sync_div @int;
#X floatatom 50 345 5 0 0 0 - - -;
#X obj 20 384 cnv 1 745 1 empty empty empty 17 7 0 10 -203890 -1 0;
#X obj 20 389 cnv 5 90 26 empty empty arguments: 4 10 0 14 -262144
-49933 0;
#X text 110 424 1\.;
#X text 150 424 float;
#X obj 246 425 cnv 1 31 20 empty empty empty 17 7 0 10 -245695 -1 0;
#X text 245 424 DIV: divisor.;
#X obj 20 454 cnv 1 745 1 empty empty empty 17 7 0 10 -203890 -1 0;
#X obj 20 459 cnv 5 98 26 empty empty properties: 4 10 0 14 -262144
-49933 0;
#X msg 110 494 @int;
#X text 245 494 operate on integers only.;
#X obj 20 533 cnv 1 745 1 empty empty empty 17 7 0 10 -203890 -1 0;
#X obj 20 538 cnv 5 64 26 empty empty inlets: 4 10 0 14 -262144 -49933
0;
#X text 110 539 1\.;
#X text 150 539 *float*;
#X text 245 539 set divident \, calculate and output result.;
#X text 150 559 *list*;
#X text 245 559 pair: set divident and divisor \, calculate and output
result.;
#X text 110 579 2\.;
#X text 150 579 *float*;
#X text 245 579 change divisor \, calculate and output result.;
#X obj 20 609 cnv 1 745 1 empty empty empty 17 7 0 10 -203890 -1 0;
#X obj 20 614 cnv 5 73 26 empty empty outlets: 4 10 0 14 -262144
-49933 0;
#X text 110 615 1\.;
#X text 245 615 division result.;
#X obj 10 48 ui.link @title index @url ../index-help.pd;
#X text 51 45 ::;
#X obj 67 48 ui.link @title ceammc @url ceammc-help.pd;
#X text 115 45 ::;
#X obj 131 48 ui.link @title math @url ceammc.math-help.pd;
#X obj 1 665 cnv 5 765 48 empty empty empty 17 7 0 10 -203890 -1 0;
#X text 10 668 library: ceammc v0.9.0;
#N canvas 10 687 400 290 info 0;
#X obj 1 1 cnv 1 107 287 empty empty empty 17 7 0 10 -183085 -1 0;
#X text 10 10 library:;
#X text 120 10 ceammc;
#X text 10 32 version:;
#X text 120 32 0.9.0;
#X text 10 54 object:;
#X text 120 54 math.sync_div;
#X text 10 76 category:;
#X text 120 76 math;
#X text 10 98 since:;
#X text 120 98 0.8;
#X text 10 120 authors:;
#X text 120 120 Serge Poltavsky;
#X text 10 142 license:;
#X text 120 142 GPL3 or later;
#X text 10 164 keywords:;
#X text 120 164 math \, division \, sync;
#X text 10 186 website:;
#X obj 120 189 ui.link @title https://github.com/uliss/pure-data @url
https://github.com/uliss/pure-data;
#X obj 120 208 declare -lib ceammc;
#X obj 120 268 cnv 1 270 1 empty empty empty 17 7 0 10 -203890 -1 0;
#X text 120 268 generated by pddoc;
#X restore 10 687 pd info;
#X connect 12 0 13 0;
#X connect 8 0 14 0;
#X connect 9 0 14 1;
#X connect 11 0 15 0;
#X connect 13 0 15 0;
#X connect 13 1 15 1;
#X connect 14 0 16 0;
#X connect 15 0 17 0;
#X connect 18 0 20 0;
#X connect 19 0 20 0;
#X connect 20 0 21 0;