#N canvas 0 0 785 555 12;
#X declare -lib ceammc;
#X obj 561 50 cnv 1 204 23 empty empty empty 17 7 0 10 -245760 -1 0;
#X text 561 50 sync logical AND operation;
#X obj 1 1 cnv 5 765 40 empty empty math.sync_and 20 20 0 20 -104026
-4096 0;
#X obj 520 11 math.&&';
#X obj 601 11 &&';
#X obj 646 11 math.sync_and;
#X obj 210 80 cnv 1 555 50 empty empty empty 17 7 0 10 -257983 -1 0;
#X text 215 80 Only 1 and 0 values are accepted. Any other number treat
as 1 \, but print error to console.;
#X obj 50 158 tgl 15 0 empty empty empty 17 7 0 10 -262144 -1 -1 0 1;
#X obj 107 158 tgl 15 0 empty empty empty 17 7 0 10 -262144 -1 -1 0 1;
#X text 165 158 same as:;
#X obj 290 158 tgl 15 0 empty empty empty 17 7 0 10 -262144 -1 -1 0 1;
#X obj 338 158 tgl 15 0 empty empty empty 17 7 0 10 -262144 -1 -1 0 1;
#X text 424 158 0 0 | 0;
#X obj 338 187 t b f;
#X text 424 187 0 1 | 0;
#X obj 50 216 &&';
#X obj 290 216 &&;
#X text 424 216 1 0 | 0;
#X obj 50 245 tgl 15 0 empty empty empty 17 7 0 10 -262144 -1 -1 0 1;
#X obj 290 245 tgl 15 0 empty empty empty 17 7 0 10 -262144 -1 -1 0 1;
#X text 424 245 1 1 | 1;
#X obj 20 282 cnv 1 745 1 empty empty empty 17 7 0 10 -203890 -1 0;
#X obj 20 287 cnv 5 90 26 empty empty arguments: 4 10 0 14 -262144
-49933 0;
#X text 110 322 1\.;
#X text 150 322 int;
#X obj 246 323 cnv 1 16 20 empty empty empty 17 7 0 10 -245695 -1 0;
#X text 245 322 V: second value.;
#X obj 20 352 cnv 1 745 1 empty empty empty 17 7 0 10 -203890 -1 0;
#X obj 20 357 cnv 5 64 26 empty empty inlets: 4 10 0 14 -262144 -49933
0;
#X text 110 358 1\.;
#X text 150 358 *float*;
#X text 245 358 set first value \, calculate and output result.;
#X text 150 378 *list*;
#X text 245 378 pair: set first and second values \, calculate and
output result.;
#X text 110 413 2\.;
#X text 150 413 *float*;
#X text 245 413 change second value \, calculate and output result.;
#X obj 20 443 cnv 1 745 1 empty empty empty 17 7 0 10 -203890 -1 0;
#X obj 20 448 cnv 5 73 26 empty empty outlets: 4 10 0 14 -262144
-49933 0;
#X text 110 449 1\.;
#X text 245 449 output 1 or 0 \, according logical AND operation.;
#X obj 10 48 ui.link @title index @url ../index-help.pd;
#X text 51 45 ::;
#X obj 67 48 ui.link @title ceammc @url ceammc-help.pd;
#X text 115 45 ::;
#X obj 131 48 ui.link @title math @url ceammc.math-help.pd;
#X obj 1 505 cnv 5 765 48 empty empty empty 17 7 0 10 -203890 -1 0;
#X text 10 508 library: ceammc v0.9.0;
#X text 610 520 see also:;
#X obj 684 520 math.||';
#N canvas 10 527 400 290 info 0;
#X obj 1 1 cnv 1 107 287 empty empty empty 17 7 0 10 -183085 -1 0;
#X text 10 10 library:;
#X text 120 10 ceammc;
#X text 10 32 version:;
#X text 120 32 0.9.0;
#X text 10 54 object:;
#X text 120 54 math.sync_and;
#X text 10 76 category:;
#X text 120 76 math;
#X text 10 98 since:;
#X text 120 98 0.8;
#X text 10 120 authors:;
#X text 120 120 Serge Poltavsky;
#X text 10 142 license:;
#X text 120 142 GPL3 or later;
#X text 10 164 keywords:;
#X text 120 164 math \, sync \, logical \, and;
#X text 10 186 website:;
#X obj 120 189 ui.link @title https://github.com/uliss/pure-data @url
https://github.com/uliss/pure-data;
#X obj 120 208 declare -lib ceammc;
#X obj 120 268 cnv 1 270 1 empty empty empty 17 7 0 10 -203890 -1 0;
#X text 120 268 generated by pddoc;
#X restore 10 527 pd info;
#X connect 12 0 14 0;
#X connect 8 0 16 0;
#X connect 9 0 16 1;
#X connect 11 0 17 0;
#X connect 14 0 17 0;
#X connect 14 1 17 1;
#X connect 16 0 19 0;
#X connect 17 0 20 0;