#N canvas 0 0 785 555 12;
#X declare -lib ceammc;
#X obj 553 50 cnv 1 212 23 empty empty empty 17 7 0 10 -245760 -1 0;
#X text 553 50 hyperbolic sine for signals;
#X obj 1 1 cnv 5 765 40 empty empty math.sinh~ 20 20 0 20 -104026
-4096 0;
#X obj 666 11 math.sinh~;
#X obj 210 80 cnv 1 555 83 empty empty empty 17 7 0 10 -257983 -1 0;
#X text 215 80 Outputs hyperbolic sine of input signal;
#X text 215 105 sinh x = (ℯˣ - ℯ⁻ˣ)/2;
#X obj 215 130 ui.link @background_color 0.98039 0.98039 0.98039
@title wiki: Hyperbolic             functions @url
https://en.wikipedia.org/wiki/Hyperbolic_functions;
#X obj 50 191 bng 15 250 50 0 empty empty empty 17 7 0 10 -262144 -1
-1;
#X obj 50 220 plot.linspace~ -3 3, f 37;
#X obj 290 249 *~ -1;
#X obj 50 278 math.sinh~;
#X obj 174 278 math.exp~;
#X obj 290 278 math.exp~;
#X obj 50 307 ui.plot~ @xlabels 1 @ylabels 1 @ymin -10 @ymax 10 @size
250 200 @n 3;
#X obj 50 522 ui.dsp~;
#X obj 20 561 cnv 1 745 1 empty empty empty 17 7 0 10 -203890 -1 0;
#X obj 20 566 cnv 5 64 26 empty empty inlets: 4 10 0 14 -262144 -49933
0;
#X text 110 567 1\.;
#X text 245 567 input signal.;
#X obj 20 597 cnv 1 745 1 empty empty empty 17 7 0 10 -203890 -1 0;
#X obj 20 602 cnv 5 73 26 empty empty outlets: 4 10 0 14 -262144
-49933 0;
#X text 110 603 1\.;
#X text 245 603 result signal.;
#X obj 10 48 ui.link @title index @url ../index-help.pd;
#X text 51 45 ::;
#X obj 67 48 ui.link @title ceammc @url ceammc-help.pd;
#X text 115 45 ::;
#X obj 131 48 ui.link @title math @url ceammc.math-help.pd;
#X obj 1 653 cnv 5 765 48 empty empty empty 17 7 0 10 -203890 -1 0;
#X text 10 656 library: ceammc v0.9.0;
#X text 505 668 see also:;
#X obj 579 668 math.asinh~;
#X obj 675 668 math.sinh;
#N canvas 10 675 400 290 info 0;
#X obj 1 1 cnv 1 107 287 empty empty empty 17 7 0 10 -183085 -1 0;
#X text 10 10 library:;
#X text 120 10 ceammc;
#X text 10 32 version:;
#X text 120 32 0.9.0;
#X text 10 54 object:;
#X text 120 54 math.sinh~;
#X text 10 76 category:;
#X text 120 76 math;
#X text 10 98 since:;
#X text 120 98 0.9;
#X text 10 120 authors:;
#X text 120 120 Serge Poltavsky;
#X text 10 142 license:;
#X text 120 142 GPL3 or later;
#X text 10 164 keywords:;
#X text 120 164 math \, hyperbolic \, arc \, sine;
#X text 10 186 website:;
#X obj 120 189 ui.link @title https://github.com/uliss/pure-data @url
https://github.com/uliss/pure-data;
#X obj 120 208 declare -lib ceammc;
#X obj 120 268 cnv 1 270 1 empty empty empty 17 7 0 10 -203890 -1 0;
#X text 120 268 generated by pddoc;
#X restore 10 675 pd info;
#X connect 8 0 9 0;
#X connect 9 0 10 0;
#X connect 9 0 11 0;
#X connect 9 0 12 0;
#X connect 10 0 13 0;
#X connect 11 0 14 0;
#X connect 12 0 14 1;
#X connect 13 0 14 2;
#X connect 9 1 14 3;