#N canvas 0 0 785 555 12;
#X declare -lib ceammc;
#X obj 369 50 cnv 1 396 23 empty empty empty 17 7 0 10 -245760 -1 0;
#X text 369 50 check if input value approximately equal to pattern;
#X obj 1 1 cnv 5 765 40 empty empty math.approx 20 20 0 20 -104026
-4096 0;
#X obj 591 11 approx;
#X obj 660 11 math.approx;
#X obj 210 80 cnv 1 555 35 empty empty empty 17 7 0 10 -257983 -1 0;
#X text 215 80 checks is |x - pattern| <= |epsilon|;
#X obj 50 143 hslider 128 15 0.0 127.0 0 0 empty empty empty 17 7 0 10
-262144 -1 -1 0 0;
#X msg 88 172 1.99 2 0.01;
#X floatatom 50 201 5 0 0 0 - - -;
#X obj 50 230 math.approx 50 10;
#X text 242 230 40 <= x <= 60;
#X floatatom 50 259 5 0 0 0 - - -;
#X obj 20 298 cnv 1 745 1 empty empty empty 17 7 0 10 -203890 -1 0;
#X obj 20 303 cnv 5 90 26 empty empty arguments: 4 10 0 14 -262144
-49933 0;
#X text 110 338 1\.;
#X text 150 338 float;
#X obj 246 339 cnv 1 16 20 empty empty empty 17 7 0 10 -245695 -1 0;
#X text 245 338 P: compare pattern.;
#X text 110 358 2\.;
#X text 150 358 float;
#X obj 246 359 cnv 1 16 20 empty empty empty 17 7 0 10 -245695 -1 0;
#X text 245 358 E: compare epsilon.;
#X obj 20 388 cnv 1 745 1 empty empty empty 17 7 0 10 -203890 -1 0;
#X obj 20 393 cnv 5 98 26 empty empty properties: 4 10 0 14 -262144
-49933 0;
#X msg 110 428 @epsilon;
#X text 245 428 Get/Set compare epsilon. Type: float. Default value:
0.01\.;
#X msg 110 457 @value;
#X text 245 457 Get/Set compare pattern. Type: float. Default value:
0\.;
#X obj 20 496 cnv 1 745 1 empty empty empty 17 7 0 10 -203890 -1 0;
#X obj 20 501 cnv 5 64 26 empty empty inlets: 4 10 0 14 -262144 -49933
0;
#X text 110 502 1\.;
#X text 150 502 *float*;
#X text 245 502 input value.;
#X text 150 522 *list*;
#X text 245 522 list values are spreaded among three inlets.;
#X text 110 542 2\.;
#X text 150 542 *float*;
#X text 245 542 pattern value.;
#X text 110 562 3\.;
#X text 150 562 *float*;
#X text 245 562 epsilon.;
#X obj 20 592 cnv 1 745 1 empty empty empty 17 7 0 10 -203890 -1 0;
#X obj 20 597 cnv 5 73 26 empty empty outlets: 4 10 0 14 -262144
-49933 0;
#X text 110 598 1\.;
#X text 245 598 output 1 if input value is approximately equal to pattern
\, 0 0 otherwise.;
#X obj 10 48 ui.link @title index @url ../index-help.pd;
#X text 51 45 ::;
#X obj 67 48 ui.link @title ceammc @url ceammc-help.pd;
#X text 115 45 ::;
#X obj 131 48 ui.link @title math @url ceammc.math-help.pd;
#X obj 1 663 cnv 5 765 48 empty empty empty 17 7 0 10 -203890 -1 0;
#X text 10 666 library: ceammc v0.9.0;
#N canvas 10 685 400 290 info 0;
#X obj 1 1 cnv 1 107 287 empty empty empty 17 7 0 10 -183085 -1 0;
#X text 10 10 library:;
#X text 120 10 ceammc;
#X text 10 32 version:;
#X text 120 32 0.9.0;
#X text 10 54 object:;
#X text 120 54 math.approx;
#X text 10 76 category:;
#X text 120 76 math;
#X text 10 98 since:;
#X text 120 98 0.1;
#X text 10 120 authors:;
#X text 120 120 Serge Poltavsky;
#X text 10 142 license:;
#X text 120 142 GPL3 or later;
#X text 10 164 keywords:;
#X text 120 164 equal \, compare \, approx;
#X text 10 186 website:;
#X obj 120 189 ui.link @title https://github.com/uliss/pure-data @url
https://github.com/uliss/pure-data;
#X obj 120 208 declare -lib ceammc;
#X obj 120 268 cnv 1 270 1 empty empty empty 17 7 0 10 -203890 -1 0;
#X text 120 268 generated by pddoc;
#X restore 10 685 pd info;
#X connect 7 0 9 0;
#X connect 9 0 10 0;
#X connect 8 0 10 0;
#X connect 10 0 12 0;