#N canvas 0 0 785 555 12;
#X declare -lib ceammc;
#X obj 515 50 cnv 1 250 23 empty empty empty 17 7 0 10 -245760 -1 0;
#X text 515 50 phase angle of a complex signals;
#X obj 1 1 cnv 5 765 40 empty empty math.carg~ 20 20 0 20 -104026
-4096 0;
#X obj 604 11 carg~;
#X obj 666 11 math.carg~;
#X obj 210 80 cnv 1 555 35 empty empty empty 17 7 0 10 -257983 -1 0;
#X text 215 80 outputs the phase angle in the interval [−π π];
#X obj 50 143 ui.slider2d @show_grid 1 @size 100 100;
#X obj 50 259 unpack f f;
#X obj 50 287 sig~;
#X obj 117 287 sig~;
#X obj 50 316 math.carg~;
#X obj 184 316 ui.dsp~;
#X obj 50 345 ui.n~;
#X obj 20 384 cnv 1 745 1 empty empty empty 17 7 0 10 -203890 -1 0;
#X obj 20 389 cnv 5 64 26 empty empty inlets: 4 10 0 14 -262144 -49933
0;
#X text 110 390 1\.;
#X text 245 390 real part of input signal.;
#X text 110 410 2\.;
#X text 245 410 imag part of input signal.;
#X obj 20 440 cnv 1 745 1 empty empty empty 17 7 0 10 -203890 -1 0;
#X obj 20 445 cnv 5 73 26 empty empty outlets: 4 10 0 14 -262144
-49933 0;
#X text 110 446 1\.;
#X text 245 446 signal phase angle in radians.;
#X obj 10 48 ui.link @title index @url ../index-help.pd;
#X text 51 45 ::;
#X obj 67 48 ui.link @title ceammc @url ceammc-help.pd;
#X text 115 45 ::;
#X obj 131 48 ui.link @title math @url ceammc.math-help.pd;
#X obj 1 505 cnv 5 765 48 empty empty empty 17 7 0 10 -203890 -1 0;
#X text 10 508 library: ceammc v0.9.0;
#X text 592 520 see also:;
#X obj 666 520 math.cabs~;
#N canvas 10 527 400 290 info 0;
#X obj 1 1 cnv 1 107 287 empty empty empty 17 7 0 10 -183085 -1 0;
#X text 10 10 library:;
#X text 120 10 ceammc;
#X text 10 32 version:;
#X text 120 32 0.9.0;
#X text 10 54 object:;
#X text 120 54 math.carg~;
#X text 10 76 category:;
#X text 120 76 math;
#X text 10 98 since:;
#X text 120 98 0.9;
#X text 10 120 authors:;
#X text 120 120 Serge Poltavsky;
#X text 10 142 license:;
#X text 120 142 GPL3 or later;
#X text 10 164 keywords:;
#X text 120 164 math \, complex \, phase \, angle;
#X text 10 186 website:;
#X obj 120 189 ui.link @title https://github.com/uliss/pure-data @url
https://github.com/uliss/pure-data;
#X obj 120 208 declare -lib ceammc;
#X obj 120 268 cnv 1 270 1 empty empty empty 17 7 0 10 -203890 -1 0;
#X text 120 268 generated by pddoc;
#X restore 10 527 pd info;
#X connect 7 0 8 0;
#X connect 8 0 9 0;
#X connect 8 1 10 0;
#X connect 9 0 11 0;
#X connect 10 0 11 1;
#X connect 11 0 13 0;