#N canvas 0 0 785 555 12;
#X declare -lib ceammc;
#X obj 652 50 cnv 1 113 23 empty empty empty 17 7 0 10 -245760 -1 0;
#X text 652 50 error function;
#X obj 1 1 cnv 5 765 40 empty empty math.erf 20 20 0 20 -104026 -4096
0;
#X obj 682 11 math.erf;
#X obj 210 80 cnv 1 555 105 empty empty empty 17 7 0 10 -257983 -1 0;
#X text 215 80 In statistics \, for non-negative values of x \, the
error function has the following interpretation:;
#X text 215 120 for a random variable Y that is normally distributed
with mean 0 and variance 1/2 \, erf x is the probability that Y falls
in the range [−x \, x];
#X msg 50 213 bang;
#N canvas 0 22 450 300 (subpatch) 0;
#X array ERF 100 float 1;
#A 0 0 0 0 0 0 0 0 0 0 0 0 0 0 0 0 0 0 0 0 0 0 0 0 0 0 0 0 0 0 0 0 0 0
0 0 0 0 0 0 0 0 0 0 0 0 0 0 0 0 0 0 0 0 0 0 0 0 0 0 0 0 0 0 0 0 0 0 0
0 0 0 0 0 0 0 0 0 0 0 0 0 0 0 0 0 0 0 0 0 0 0 0 0 0 0 0 0 0 0 0;
#X coords 0 1 100 -1 320 140 1;
#X restore 270 213 graph;
#X obj 50 242 list.seq -4 4 0.025;
#X obj 50 271 math.erf;
#X obj 50 300 list->array ERF;
#X obj 20 375 cnv 1 745 1 empty empty empty 17 7 0 10 -203890 -1 0;
#X obj 20 380 cnv 5 64 26 empty empty inlets: 4 10 0 14 -262144 -49933
0;
#X text 110 381 1\.;
#X text 150 381 *float*;
#X text 245 381 input value.;
#X text 150 401 *list*;
#X text 245 401 apply to all numeric values.;
#X obj 20 431 cnv 1 745 1 empty empty empty 17 7 0 10 -203890 -1 0;
#X obj 20 436 cnv 5 73 26 empty empty outlets: 4 10 0 14 -262144
-49933 0;
#X text 110 437 1\.;
#X text 245 437 result value.;
#X obj 10 48 ui.link @title index @url ../index-help.pd;
#X text 51 45 ::;
#X obj 67 48 ui.link @title ceammc @url ceammc-help.pd;
#X text 115 45 ::;
#X obj 131 48 ui.link @title math @url ceammc.math-help.pd;
#X obj 1 505 cnv 5 765 48 empty empty empty 17 7 0 10 -203890 -1 0;
#X text 10 508 library: ceammc v0.9.0;
#X text 600 520 see also:;
#X obj 674 520 math.erf~;
#N canvas 10 527 400 290 info 0;
#X obj 1 1 cnv 1 107 287 empty empty empty 17 7 0 10 -183085 -1 0;
#X text 10 10 library:;
#X text 120 10 ceammc;
#X text 10 32 version:;
#X text 120 32 0.9.0;
#X text 10 54 object:;
#X text 120 54 math.erf;
#X text 10 76 category:;
#X text 120 76 math;
#X text 10 98 since:;
#X text 120 98 0.9;
#X text 10 120 authors:;
#X text 120 120 Serge Poltavsky;
#X text 10 142 license:;
#X text 120 142 GPL3 or later;
#X text 10 164 keywords:;
#X text 120 164 math \, error \, gauss;
#X text 10 186 website:;
#X obj 120 189 ui.link @title https://github.com/uliss/pure-data @url
https://github.com/uliss/pure-data;
#X obj 120 208 declare -lib ceammc;
#X obj 120 268 cnv 1 270 1 empty empty empty 17 7 0 10 -203890 -1 0;
#X text 120 268 generated by pddoc;
#X restore 10 527 pd info;
#X connect 7 0 9 0;
#X connect 9 0 10 0;
#X connect 10 0 11 0;