#N canvas 0 0 785 555 12;
#X declare -lib ceammc;
#X obj 316 50 cnv 1 449 23 empty empty empty 17 7 0 10 -245760 -1 0;
#X text 316 50 round to smallest integral value not less than input
value;
#X obj 1 1 cnv 5 765 40 empty empty math.ceil~ 20 20 0 20 -104026
-4096 0;
#X obj 666 11 math.ceil~;
#X obj 210 80 cnv 1 555 33 empty empty empty 17 7 0 10 -257983 -1 0;
#X obj 215 80 ui.link @background_color 0.98039 0.98039 0.98039 @title
wiki: Floor and             ceiling functions @url
https://en.wikipedia.org/wiki/Floor_and_ceiling_functions;
#X msg 50 141 bang;
#X obj 50 170 plot.linspace~ -3 3;
#X obj 50 199 math.ceil~;
#X obj 174 199 math.floor~;
#X obj 50 228 ui.plot~ @ymin_ticks 0 @xlabels 1 @ylabels 1 @ymin -3
@ymax 3 @size 260 260 @n 2;
#X obj 50 501 ui.dsp~;
#X obj 20 540 cnv 1 745 1 empty empty empty 17 7 0 10 -203890 -1 0;
#X obj 20 545 cnv 5 64 26 empty empty inlets: 4 10 0 14 -262144 -49933
0;
#X text 110 546 1\.;
#X text 245 546 input signal.;
#X obj 20 576 cnv 1 745 1 empty empty empty 17 7 0 10 -203890 -1 0;
#X obj 20 581 cnv 5 73 26 empty empty outlets: 4 10 0 14 -262144
-49933 0;
#X text 110 582 1\.;
#X text 245 582 result signal.;
#X obj 10 48 ui.link @title index @url ../index-help.pd;
#X text 51 45 ::;
#X obj 67 48 ui.link @title ceammc @url ceammc-help.pd;
#X text 115 45 ::;
#X obj 131 48 ui.link @title math @url ceammc.math-help.pd;
#X obj 1 632 cnv 5 765 48 empty empty empty 17 7 0 10 -203890 -1 0;
#X text 10 635 library: ceammc v0.9.0;
#X text 408 647 see also:;
#X obj 482 647 math.ceil;
#X obj 563 647 math.round~;
#X obj 659 647 math.floor~;
#N canvas 10 654 400 290 info 0;
#X obj 1 1 cnv 1 107 287 empty empty empty 17 7 0 10 -183085 -1 0;
#X text 10 10 library:;
#X text 120 10 ceammc;
#X text 10 32 version:;
#X text 120 32 0.9.0;
#X text 10 54 object:;
#X text 120 54 math.ceil~;
#X text 10 76 category:;
#X text 120 76 math;
#X text 10 98 since:;
#X text 120 98 0.9;
#X text 10 120 authors:;
#X text 120 120 Serge Poltavsky;
#X text 10 142 license:;
#X text 120 142 GPL3 or later;
#X text 10 164 keywords:;
#X text 120 164 math \, ceil;
#X text 10 186 website:;
#X obj 120 189 ui.link @title https://github.com/uliss/pure-data @url
https://github.com/uliss/pure-data;
#X obj 120 208 declare -lib ceammc;
#X obj 120 268 cnv 1 270 1 empty empty empty 17 7 0 10 -203890 -1 0;
#X text 120 268 generated by pddoc;
#X restore 10 654 pd info;
#X connect 6 0 7 0;
#X connect 7 0 8 0;
#X connect 7 0 9 0;
#X connect 8 0 10 0;
#X connect 9 0 10 1;
#X connect 7 1 10 2;