#N canvas 0 0 785 555 12;
#X declare -lib ceammc;
#X obj 614 50 cnv 1 151 23 empty empty empty 17 7 0 10 -245760 -1 0;
#X text 614 50 signal value square;
#X obj 1 1 cnv 5 765 40 empty empty math.squared~ 20 20 0 20 -104026
-4096 0;
#X obj 513 11 ^2~;
#X obj 561 11 math.^2~;
#X obj 645 11 math.squared~;
#X obj 50 118 bng 15 250 50 0 empty empty empty 17 7 0 10 -262144 -1
-1;
#X obj 50 147 plot.linspace~ -5 5;
#X obj 50 176 math.squared~;
#X obj 50 205 ui.plot~ @xlabels 1 @ylabels 1 @ymin 0 @ymax 25;
#X obj 50 421 ui.dsp~;
#X obj 20 460 cnv 1 745 1 empty empty empty 17 7 0 10 -203890 -1 0;
#X obj 20 465 cnv 5 64 26 empty empty inlets: 4 10 0 14 -262144 -49933
0;
#X text 110 466 1\.;
#X text 245 466 input signal.;
#X obj 20 496 cnv 1 745 1 empty empty empty 17 7 0 10 -203890 -1 0;
#X obj 20 501 cnv 5 73 26 empty empty outlets: 4 10 0 14 -262144
-49933 0;
#X text 110 502 1\.;
#X text 245 502 output signal.;
#X obj 10 48 ui.link @title index @url ../index-help.pd;
#X text 51 45 ::;
#X obj 67 48 ui.link @title ceammc @url ceammc-help.pd;
#X text 115 45 ::;
#X obj 131 48 ui.link @title math @url ceammc.math-help.pd;
#X obj 1 552 cnv 5 765 48 empty empty empty 17 7 0 10 -203890 -1 0;
#X text 10 555 library: ceammc v0.9.0;
#N canvas 10 574 400 290 info 0;
#X obj 1 1 cnv 1 107 287 empty empty empty 17 7 0 10 -183085 -1 0;
#X text 10 10 library:;
#X text 120 10 ceammc;
#X text 10 32 version:;
#X text 120 32 0.9.0;
#X text 10 54 object:;
#X text 120 54 math.squared~;
#X text 10 76 category:;
#X text 120 76 math;
#X text 10 98 since:;
#X text 120 98 0.9;
#X text 10 120 authors:;
#X text 120 120 Serge Poltavsky;
#X text 10 142 license:;
#X text 120 142 GPL3 or later;
#X text 10 164 keywords:;
#X text 120 164 math \, square;
#X text 10 186 website:;
#X obj 120 189 ui.link @title https://github.com/uliss/pure-data @url
https://github.com/uliss/pure-data;
#X obj 120 208 declare -lib ceammc;
#X obj 120 268 cnv 1 270 1 empty empty empty 17 7 0 10 -203890 -1 0;
#X text 120 268 generated by pddoc;
#X restore 10 574 pd info;
#X connect 6 0 7 0;
#X connect 7 0 8 0;
#X connect 8 0 9 0;
#X connect 7 1 9 1;