#N canvas 0 0 785 555 12;
#X declare -lib ceammc;
#X obj 583 50 cnv 1 182 23 empty empty empty 17 7 0 10 -245760 -1 0;
#X text 583 50 arc tangent for signals;
#X obj 1 1 cnv 5 765 40 empty empty math.atan~ 20 20 0 20 -104026
-4096 0;
#X obj 666 11 math.atan~;
#X obj 210 80 cnv 1 555 50 empty empty empty 17 7 0 10 -257983 -1 0;
#X text 215 80 Outputs arc tangent of input signal. The result is in
the range [-π/2 \, +π/2];
#X obj 50 158 bng 15 250 50 0 empty empty empty 17 7 0 10 -262144 -1
-1;
#X obj 50 187 plot.linspace~ -5 5;
#X obj 50 216 math.atan~;
#X obj 50 245 ui.plot~ @xlabels 1 @ylabels 1 @ymin -1.6 @ymax 1.6
@ymin_ticks 0 @ymaj_ticks 0 @xmin_grid 1 @size 400 200;
#X obj 50 461 ui.dsp~;
#X obj 20 500 cnv 1 745 1 empty empty empty 17 7 0 10 -203890 -1 0;
#X obj 20 505 cnv 5 64 26 empty empty inlets: 4 10 0 14 -262144 -49933
0;
#X text 110 506 1\.;
#X text 245 506 input signal.;
#X obj 20 536 cnv 1 745 1 empty empty empty 17 7 0 10 -203890 -1 0;
#X obj 20 541 cnv 5 73 26 empty empty outlets: 4 10 0 14 -262144
-49933 0;
#X text 110 542 1\.;
#X text 245 542 result signal.;
#X obj 10 48 ui.link @title index @url ../index-help.pd;
#X text 51 45 ::;
#X obj 67 48 ui.link @title ceammc @url ceammc-help.pd;
#X text 115 45 ::;
#X obj 131 48 ui.link @title math @url ceammc.math-help.pd;
#X obj 1 592 cnv 5 765 48 empty empty empty 17 7 0 10 -203890 -1 0;
#X text 10 595 library: ceammc v0.9.0;
#X text 512 607 see also:;
#X obj 586 607 math.atan;
#X obj 666 607 math.acos~;
#N canvas 10 614 400 290 info 0;
#X obj 1 1 cnv 1 107 287 empty empty empty 17 7 0 10 -183085 -1 0;
#X text 10 10 library:;
#X text 120 10 ceammc;
#X text 10 32 version:;
#X text 120 32 0.9.0;
#X text 10 54 object:;
#X text 120 54 math.atan~;
#X text 10 76 category:;
#X text 120 76 math;
#X text 10 98 since:;
#X text 120 98 0.9;
#X text 10 120 authors:;
#X text 120 120 Serge Poltavsky;
#X text 10 142 license:;
#X text 120 142 GPL3 or later;
#X text 10 164 keywords:;
#X text 120 164 math \, asin;
#X text 10 186 website:;
#X obj 120 189 ui.link @title https://github.com/uliss/pure-data @url
https://github.com/uliss/pure-data;
#X obj 120 208 declare -lib ceammc;
#X obj 120 268 cnv 1 270 1 empty empty empty 17 7 0 10 -203890 -1 0;
#X text 120 268 generated by pddoc;
#X restore 10 614 pd info;
#X connect 6 0 7 0;
#X connect 7 0 8 0;
#X connect 8 0 9 0;
#X connect 7 1 9 1;