#N canvas 0 0 785 555 12;
#X declare -lib ceammc;
#X obj 568 50 cnv 1 197 23 empty empty empty 17 7 0 10 -245760 -1 0;
#X text 568 50 truncate to integer value;
#X obj 1 1 cnv 5 765 40 empty empty math.trunc 20 20 0 20 -104026
-4096 0;
#X obj 667 11 math.trunc;
#X obj 210 80 cnv 1 555 50 empty empty empty 17 7 0 10 -257983 -1 0;
#X text 215 80 Outputs the integral value nearest to but no larger
in magnitude than x;
#X msg 50 158 bang;
#N canvas 0 22 450 300 (subpatch) 0;
#X array TRUNC 100 float 1;
#A 0 0 0 0 0 0 0 0 0 0 0 0 0 0 0 0 0 0 0 0 0 0 0 0 0 0 0 0 0 0 0 0 0 0
0 0 0 0 0 0 0 0 0 0 0 0 0 0 0 0 0 0 0 0 0 0 0 0 0 0 0 0 0 0 0 0 0 0 0
0 0 0 0 0 0 0 0 0 0 0 0 0 0 0 0 0 0 0 0 0 0 0 0 0 0 0 0 0 0 0 0;
#X coords 0 4 100 -4 320 140 1;
#X restore 270 158 graph;
#X obj 50 187 list.seq -4 4 0.025;
#X obj 50 216 math.trunc;
#X obj 50 245 list->array TRUNC;
#X obj 20 320 cnv 1 745 1 empty empty empty 17 7 0 10 -203890 -1 0;
#X obj 20 325 cnv 5 64 26 empty empty inlets: 4 10 0 14 -262144 -49933
0;
#X text 110 326 1\.;
#X text 245 326 input signal.;
#X obj 20 356 cnv 1 745 1 empty empty empty 17 7 0 10 -203890 -1 0;
#X obj 20 361 cnv 5 73 26 empty empty outlets: 4 10 0 14 -262144
-49933 0;
#X text 110 362 1\.;
#X text 245 362 result signal.;
#X obj 10 48 ui.link @title index @url ../index-help.pd;
#X text 51 45 ::;
#X obj 67 48 ui.link @title ceammc @url ceammc-help.pd;
#X text 115 45 ::;
#X obj 131 48 ui.link @title math @url ceammc.math-help.pd;
#X obj 1 505 cnv 5 765 48 empty empty empty 17 7 0 10 -203890 -1 0;
#X text 10 508 library: ceammc v0.9.0;
#X text 345 520 see also:;
#X obj 419 520 math.ceil;
#X obj 500 520 math.floor;
#X obj 588 520 math.round;
#X obj 675 520 math.math;
#N canvas 10 527 400 290 info 0;
#X obj 1 1 cnv 1 107 287 empty empty empty 17 7 0 10 -183085 -1 0;
#X text 10 10 library:;
#X text 120 10 ceammc;
#X text 10 32 version:;
#X text 120 32 0.9.0;
#X text 10 54 object:;
#X text 120 54 math.trunc;
#X text 10 76 category:;
#X text 120 76 math;
#X text 10 98 since:;
#X text 120 98 0.1;
#X text 10 120 authors:;
#X text 120 120 Serge Poltavsky;
#X text 10 142 license:;
#X text 120 142 GPL3 or later;
#X text 10 164 keywords:;
#X text 120 164 math \, trunc;
#X text 10 186 website:;
#X obj 120 189 ui.link @title https://github.com/uliss/pure-data @url
https://github.com/uliss/pure-data;
#X obj 120 208 declare -lib ceammc;
#X obj 120 268 cnv 1 270 1 empty empty empty 17 7 0 10 -203890 -1 0;
#X text 120 268 generated by pddoc;
#X restore 10 527 pd info;
#X connect 6 0 8 0;
#X connect 8 0 9 0;
#X connect 9 0 10 0;