#N canvas 0 0 785 555 12;
#X declare -lib ceammc;
#X obj 575 50 cnv 1 190 23 empty empty empty 17 7 0 10 -245760 -1 0;
#X text 575 50 sync equal numbers check;
#X obj 1 1 cnv 5 765 40 empty empty math.sync_eq 20 20 0 20 -104026
-4096 0;
#X obj 527 11 math.==';
#X obj 608 11 ==';
#X obj 653 11 math.sync_eq;
#X floatatom 50 118 5 0 0 0 - - -;
#X floatatom 107 118 5 0 0 0 - - -;
#X text 165 118 same as:;
#X floatatom 290 118 5 0 0 0 - - -;
#X floatatom 338 118 5 0 0 0 - - -;
#X obj 338 147 t b f;
#X obj 50 176 ==';
#X obj 290 176 ==;
#X obj 50 205 tgl 15 0 empty empty empty 17 7 0 10 -262144 -1 -1 0 1;
#X obj 290 205 tgl 15 0 empty empty empty 17 7 0 10 -262144 -1 -1 0 1;
#X msg 50 234 100 100.01;
#X msg 174 234 100 101;
#X msg 270 234 100 99.99;
#X obj 50 277 ==' @epsilon 0.1;
#X obj 50 305 tgl 15 0 empty empty empty 17 7 0 10 -262144 -1 -1 0 1;
#X obj 20 342 cnv 1 745 1 empty empty empty 17 7 0 10 -203890 -1 0;
#X obj 20 347 cnv 5 90 26 empty empty arguments: 4 10 0 14 -262144
-49933 0;
#X text 110 382 1\.;
#X text 150 382 float;
#X obj 246 383 cnv 1 15 20 empty empty empty 17 7 0 10 -245695 -1 0;
#X text 245 382 F: second number.;
#X obj 20 412 cnv 1 745 1 empty empty empty 17 7 0 10 -203890 -1 0;
#X obj 20 417 cnv 5 98 26 empty empty properties: 4 10 0 14 -262144
-49933 0;
#X msg 110 452 @epsilon;
#X text 245 452 Get/Set compare epsilon. If not zero calculates expession:
-epsilon < abs(A-B) < +epsilon. Type: float. Default value: 0\. Min
value: 0\.;
#X obj 20 519 cnv 1 745 1 empty empty empty 17 7 0 10 -203890 -1 0;
#X obj 20 524 cnv 5 64 26 empty empty inlets: 4 10 0 14 -262144 -49933
0;
#X text 110 525 1\.;
#X text 150 525 *float*;
#X text 245 525 set first number \, calculate and output result.;
#X text 150 545 *list*;
#X text 245 545 pair: set first and second numbers \, calculate and
output result.;
#X text 110 580 2\.;
#X text 150 580 *float*;
#X text 245 580 change second number \, calculate and output result.;
#X obj 20 610 cnv 1 745 1 empty empty empty 17 7 0 10 -203890 -1 0;
#X obj 20 615 cnv 5 73 26 empty empty outlets: 4 10 0 14 -262144
-49933 0;
#X text 110 616 1\.;
#X text 245 616 result output: 1 if numbers are equal otherwise 0\.;
#X obj 10 48 ui.link @title index @url ../index-help.pd;
#X text 51 45 ::;
#X obj 67 48 ui.link @title ceammc @url ceammc-help.pd;
#X text 115 45 ::;
#X obj 131 48 ui.link @title math @url ceammc.math-help.pd;
#X obj 1 666 cnv 5 765 48 empty empty empty 17 7 0 10 -203890 -1 0;
#X text 10 669 library: ceammc v0.9.0;
#X text 610 681 see also:;
#X obj 684 681 math.!=';
#N canvas 10 688 400 290 info 0;
#X obj 1 1 cnv 1 107 287 empty empty empty 17 7 0 10 -183085 -1 0;
#X text 10 10 library:;
#X text 120 10 ceammc;
#X text 10 32 version:;
#X text 120 32 0.9.0;
#X text 10 54 object:;
#X text 120 54 math.sync_eq;
#X text 10 76 category:;
#X text 120 76 math;
#X text 10 98 since:;
#X text 120 98 0.8;
#X text 10 120 authors:;
#X text 120 120 Serge Poltavsky;
#X text 10 142 license:;
#X text 120 142 GPL3 or later;
#X text 10 164 keywords:;
#X text 120 164 math \, sync \, equal;
#X text 10 186 website:;
#X obj 120 189 ui.link @title https://github.com/uliss/pure-data @url
https://github.com/uliss/pure-data;
#X obj 120 208 declare -lib ceammc;
#X obj 120 268 cnv 1 270 1 empty empty empty 17 7 0 10 -203890 -1 0;
#X text 120 268 generated by pddoc;
#X restore 10 688 pd info;
#X connect 10 0 11 0;
#X connect 6 0 12 0;
#X connect 7 0 12 1;
#X connect 9 0 13 0;
#X connect 11 0 13 0;
#X connect 11 1 13 1;
#X connect 12 0 14 0;
#X connect 13 0 15 0;
#X connect 16 0 19 0;
#X connect 17 0 19 0;
#X connect 18 0 19 0;
#X connect 19 0 20 0;