#N canvas 0 0 785 555 12;
#X declare -lib ceammc;
#X obj 654 50 cnv 1 111 23 empty empty empty 17 7 0 10 -245760 -1 0;
#X text 654 50 dynamic [expr];
#X obj 1 1 cnv 5 765 40 empty empty math.expr 20 20 0 20 -104026 -4096
0;
#X obj 674 11 math.expr;
#X obj 210 80 cnv 1 555 165 empty empty empty 17 7 0 10 -257983 -1 0;
#X text 215 80 Operators: + \, - \, * \, / \, % \, < \, <= \, >= \,
> \, == \, !=;
#X text 215 105 Functions: sin() \, cos() \, tan() \, atan() \, sqrt()
\, ln() \, log2() \, log10() \, exp() \, round() \, ceil() \, float()
\, fact() \, min() \, max() \, sign() \, abs();
#X text 215 160 Constants: $pi \, $e;
#X text 215 185 Variables: $f \, $f0 \, $f1 ... $f9;
#X text 215 210 Array access: array1[$f];
#X floatatom 50 273 5 0 0 0 - - -;
#X msg 174 273 \$f * 2;
#X msg 261 273 \$f*\$pi/180;
#X text 386 273 change expression;
#X msg 69 302 @expr?;
#X obj 174 302 list;
#X obj 50 331 math.expr sin($f);
#X obj 50 360 prop-> @expr;
#X obj 184 389 msg set;
#X floatatom 50 417 10 0 0 0 - - -;
#X msg 184 417 ;
#X msg 50 460 14 2 1;
#X msg 136 460 1 3 4;
#X text 213 460 lists;
#X obj 50 489 math.expr $f0^2 + $f0 * $f1 + $f2;
#X floatatom 50 518 5 0 0 0 - - -;
#X floatatom 50 547 5 0 0 0 - - -;
#X floatatom 242 547 5 0 0 0 - - -;
#X floatatom 443 547 5 0 0 0 - - -;
#X obj 50 576 math.expr abs($f);
#X obj 242 576 math.expr sign($f);
#X obj 443 576 math.expr sqrt($f);
#X floatatom 50 604 5 0 0 0 - - -;
#X floatatom 242 604 5 0 0 0 - - -;
#X floatatom 443 604 5 0 0 0 - - -;
#X obj 20 643 cnv 1 745 1 empty empty empty 17 7 0 10 -203890 -1 0;
#X obj 20 648 cnv 5 90 26 empty empty arguments: 4 10 0 14 -262144
-49933 0;
#X text 110 683 1\.;
#X text 150 683 list;
#X obj 246 684 cnv 1 39 20 empty empty empty 17 7 0 10 -245695 -1 0;
#X text 245 683 EXPR: expression.;
#X obj 20 713 cnv 1 745 1 empty empty empty 17 7 0 10 -203890 -1 0;
#X obj 20 718 cnv 5 98 26 empty empty properties: 4 10 0 14 -262144
-49933 0;
#X msg 110 753 @expr;
#X text 245 753 Get/Set expression. Type: list.;
#X obj 20 792 cnv 1 745 1 empty empty empty 17 7 0 10 -203890 -1 0;
#X obj 20 797 cnv 5 64 26 empty empty inlets: 4 10 0 14 -262144 -49933
0;
#X text 110 798 1\.;
#X text 150 798 *float*;
#X text 245 798 input value (referenced as $f0 or $f in expression).;
#X text 150 818 *list*;
#X text 245 818 input values (referenced as $f0 ... $f9 in expression).;
#X text 110 838 2\.;
#X text 245 838 change expression.;
#X obj 20 868 cnv 1 745 1 empty empty empty 17 7 0 10 -203890 -1 0;
#X obj 20 873 cnv 5 73 26 empty empty outlets: 4 10 0 14 -262144
-49933 0;
#X text 110 874 1\.;
#X text 245 874 calculated expression.;
#X obj 10 48 ui.link @title index @url ../index-help.pd;
#X text 51 45 ::;
#X obj 67 48 ui.link @title ceammc @url ceammc-help.pd;
#X text 115 45 ::;
#X obj 131 48 ui.link @title math @url ceammc.math-help.pd;
#X obj 1 924 cnv 5 765 48 empty empty empty 17 7 0 10 -203890 -1 0;
#X text 10 927 library: ceammc v0.9.0;
#N canvas 10 946 400 290 info 0;
#X obj 1 1 cnv 1 107 287 empty empty empty 17 7 0 10 -183085 -1 0;
#X text 10 10 library:;
#X text 120 10 ceammc;
#X text 10 32 version:;
#X text 120 32 0.9.0;
#X text 10 54 object:;
#X text 120 54 math.expr;
#X text 10 76 category:;
#X text 120 76 math;
#X text 10 98 since:;
#X text 120 98 0.6;
#X text 10 120 authors:;
#X text 120 120 Serge Poltavsky;
#X text 10 142 license:;
#X text 120 142 GPL3 or later;
#X text 10 164 keywords:;
#X text 120 164 math \, expr;
#X text 10 186 website:;
#X obj 120 189 ui.link @title https://github.com/uliss/pure-data @url
https://github.com/uliss/pure-data;
#X obj 120 208 declare -lib ceammc;
#X obj 120 268 cnv 1 270 1 empty empty empty 17 7 0 10 -203890 -1 0;
#X text 120 268 generated by pddoc;
#X restore 10 946 pd info;
#X connect 11 0 15 0;
#X connect 12 0 15 0;
#X connect 10 0 16 0;
#X connect 14 0 16 0;
#X connect 15 0 16 1;
#X connect 16 0 17 0;
#X connect 17 1 18 0;
#X connect 17 0 19 0;
#X connect 18 0 20 0;
#X connect 21 0 24 0;
#X connect 22 0 24 0;
#X connect 24 0 25 0;
#X connect 26 0 29 0;
#X connect 27 0 30 0;
#X connect 28 0 31 0;
#X connect 29 0 32 0;
#X connect 30 0 33 0;
#X connect 31 0 34 0;