#N canvas 0 0 785 555 12;
#X declare -lib ceammc;
#X obj 293 50 cnv 1 472 38 empty empty empty 17 7 0 10 -245760 -1 0;
#X text 293 50 natural logarithm of the absolute value of the gamma
function for signals;
#X obj 1 1 cnv 5 765 40 empty empty math.lgamma~ 20 20 0 20 -104026
-4096 0;
#X obj 652 11 math.lgamma~;
#X msg 50 118 bang;
#X obj 50 147 plot.linspace~ -4 5 400;
#X obj 50 176 math.lgamma~;
#X obj 50 205 ui.plot~ @xlabels 1 @ylabels 1 @ymin -5 @ymax 10 @size
400 170;
#X obj 50 392 ui.dsp~;
#X obj 20 431 cnv 1 745 1 empty empty empty 17 7 0 10 -203890 -1 0;
#X obj 20 436 cnv 5 64 26 empty empty inlets: 4 10 0 14 -262144 -49933
0;
#X text 110 437 1\.;
#X text 245 437 input signal.;
#X obj 20 467 cnv 1 745 1 empty empty empty 17 7 0 10 -203890 -1 0;
#X obj 20 472 cnv 5 73 26 empty empty outlets: 4 10 0 14 -262144
-49933 0;
#X text 110 473 1\.;
#X text 245 473 output signal.;
#X obj 10 48 ui.link @title index @url ../index-help.pd;
#X text 51 45 ::;
#X obj 67 48 ui.link @title ceammc @url ceammc-help.pd;
#X text 115 45 ::;
#X obj 131 48 ui.link @title math @url ceammc.math-help.pd;
#X obj 1 523 cnv 5 765 48 empty empty empty 17 7 0 10 -203890 -1 0;
#X text 10 526 library: ceammc v0.9.0;
#X text 490 538 see also:;
#X obj 564 538 math.lgamma;
#X obj 659 538 math.gamma~;
#N canvas 10 545 400 290 info 0;
#X obj 1 1 cnv 1 107 287 empty empty empty 17 7 0 10 -183085 -1 0;
#X text 10 10 library:;
#X text 120 10 ceammc;
#X text 10 32 version:;
#X text 120 32 0.9.0;
#X text 10 54 object:;
#X text 120 54 math.lgamma~;
#X text 10 76 category:;
#X text 120 76 math;
#X text 10 98 since:;
#X text 120 98 0.9;
#X text 10 120 authors:;
#X text 120 120 Serge Poltavsky;
#X text 10 142 license:;
#X text 120 142 GPL3 or later;
#X text 10 164 keywords:;
#X text 120 164 math \, log \, gamma \, factorial;
#X text 10 186 website:;
#X obj 120 189 ui.link @title https://github.com/uliss/pure-data @url
https://github.com/uliss/pure-data;
#X obj 120 208 declare -lib ceammc;
#X obj 120 268 cnv 1 270 1 empty empty empty 17 7 0 10 -203890 -1 0;
#X text 120 268 generated by pddoc;
#X restore 10 545 pd info;
#X connect 4 0 5 0;
#X connect 5 0 6 0;
#X connect 6 0 7 0;
#X connect 5 1 7 1;