#N canvas 0 0 785 555 12;
#X declare -lib ceammc;
#X obj 507 50 cnv 1 258 23 empty empty empty 17 7 0 10 -245760 -1 0;
#X text 507 50 hyperbolic arc cosine for signals;
#X obj 1 1 cnv 5 765 40 empty empty math.acosh~ 20 20 0 20 -104026
-4096 0;
#X obj 659 11 math.acosh~;
#X obj 210 80 cnv 1 555 88 empty empty empty 17 7 0 10 -257983 -1 0;
#X text 215 80 Outputs the principle value of the hyperbolic arc cosine
of input signal. Input signal expected to be >= 1 \, otherwise output
will be NAN;
#X obj 215 135 ui.link @background_color 0.98039 0.98039 0.98039
@title wiki: Inverse             hyperbolic functions @url
https://en.wikipedia.org/wiki/Inverse_hyperbolic_functions;
#X obj 50 196 bng 15 250 50 0 empty empty empty 17 7 0 10 -262144 -1
-1;
#X obj 50 225 plot.linspace~ 0 15;
#X obj 50 254 math.acosh~;
#X obj 50 283 ui.plot~ @xlabels 1 @ylabels 1 @ymin -1 @ymax 4
@ymin_ticks 0 @ymaj_ticks 0 @size 400 200;
#X obj 50 499 ui.dsp~;
#X obj 20 538 cnv 1 745 1 empty empty empty 17 7 0 10 -203890 -1 0;
#X obj 20 543 cnv 5 64 26 empty empty inlets: 4 10 0 14 -262144 -49933
0;
#X text 110 544 1\.;
#X text 245 544 input signal.;
#X obj 20 574 cnv 1 745 1 empty empty empty 17 7 0 10 -203890 -1 0;
#X obj 20 579 cnv 5 73 26 empty empty outlets: 4 10 0 14 -262144
-49933 0;
#X text 110 580 1\.;
#X text 245 580 result signal.;
#X obj 10 48 ui.link @title index @url ../index-help.pd;
#X text 51 45 ::;
#X obj 67 48 ui.link @title ceammc @url ceammc-help.pd;
#X text 115 45 ::;
#X obj 131 48 ui.link @title math @url ceammc.math-help.pd;
#X obj 1 630 cnv 5 765 48 empty empty empty 17 7 0 10 -203890 -1 0;
#X text 10 633 library: ceammc v0.9.0;
#X text 504 645 see also:;
#X obj 578 645 math.cosh~;
#X obj 667 645 math.acosh;
#N canvas 10 652 400 290 info 0;
#X obj 1 1 cnv 1 107 287 empty empty empty 17 7 0 10 -183085 -1 0;
#X text 10 10 library:;
#X text 120 10 ceammc;
#X text 10 32 version:;
#X text 120 32 0.9.0;
#X text 10 54 object:;
#X text 120 54 math.acosh~;
#X text 10 76 category:;
#X text 120 76 math;
#X text 10 98 since:;
#X text 120 98 0.9;
#X text 10 120 authors:;
#X text 120 120 Serge Poltavsky;
#X text 10 142 license:;
#X text 120 142 GPL3 or later;
#X text 10 164 keywords:;
#X text 120 164 math \, hyperbolic \, arc \, cosine;
#X text 10 186 website:;
#X obj 120 189 ui.link @title https://github.com/uliss/pure-data @url
https://github.com/uliss/pure-data;
#X obj 120 208 declare -lib ceammc;
#X obj 120 268 cnv 1 270 1 empty empty empty 17 7 0 10 -203890 -1 0;
#X text 120 268 generated by pddoc;
#X restore 10 652 pd info;
#X connect 7 0 8 0;
#X connect 8 0 9 0;
#X connect 9 0 10 0;
#X connect 8 1 10 1;