#N canvas 0 0 785 555 12;
#X declare -lib ceammc;
#X obj 637 50 cnv 1 128 23 empty empty empty 17 7 0 10 -245760 -1 0;
#X text 637 50 tangent function;
#X obj 1 1 cnv 5 765 40 empty empty math.tan~ 20 20 0 20 -104026 -4096
0;
#X obj 674 11 math.tan~;
#X obj 210 80 cnv 1 555 35 empty empty empty 17 7 0 10 -257983 -1 0;
#X text 215 80 Outputs the tangent of x (measured in radians).;
#X msg 50 143 bang;
#X obj 50 172 plot.linspace~ -5 5 @pi;
#X obj 50 201 math.tan~;
#X obj 50 230 ui.plot~ @xlabels 1 @ylabels 1 @size 400 170 @ymin -5
@ymax 5;
#X obj 50 417 ui.dsp~;
#X obj 20 456 cnv 1 745 1 empty empty empty 17 7 0 10 -203890 -1 0;
#X obj 20 461 cnv 5 64 26 empty empty inlets: 4 10 0 14 -262144 -49933
0;
#X text 110 462 1\.;
#X text 245 462 input signal.;
#X obj 20 492 cnv 1 745 1 empty empty empty 17 7 0 10 -203890 -1 0;
#X obj 20 497 cnv 5 73 26 empty empty outlets: 4 10 0 14 -262144
-49933 0;
#X text 110 498 1\.;
#X text 245 498 result signal.;
#X obj 10 48 ui.link @title index @url ../index-help.pd;
#X text 51 45 ::;
#X obj 67 48 ui.link @title ceammc @url ceammc-help.pd;
#X text 115 45 ::;
#X obj 131 48 ui.link @title math @url ceammc.math-help.pd;
#X obj 1 548 cnv 5 765 48 empty empty empty 17 7 0 10 -203890 -1 0;
#X text 10 551 library: ceammc v0.9.0;
#X text 440 563 see also:;
#X obj 514 563 math.tan~;
#X obj 595 563 math.asin;
#X obj 675 563 math.atan;
#N canvas 10 570 400 290 info 0;
#X obj 1 1 cnv 1 107 287 empty empty empty 17 7 0 10 -183085 -1 0;
#X text 10 10 library:;
#X text 120 10 ceammc;
#X text 10 32 version:;
#X text 120 32 0.9.0;
#X text 10 54 object:;
#X text 120 54 math.tan~;
#X text 10 76 category:;
#X text 120 76 math;
#X text 10 98 since:;
#X text 120 98 0.9;
#X text 10 120 authors:;
#X text 120 120 Serge Poltavsky;
#X text 10 142 license:;
#X text 120 142 GPL3 or later;
#X text 10 164 keywords:;
#X text 120 164 math \, tan;
#X text 10 186 website:;
#X obj 120 189 ui.link @title https://github.com/uliss/pure-data @url
https://github.com/uliss/pure-data;
#X obj 120 208 declare -lib ceammc;
#X obj 120 268 cnv 1 270 1 empty empty empty 17 7 0 10 -203890 -1 0;
#X text 120 268 generated by pddoc;
#X restore 10 570 pd info;
#X connect 6 0 7 0;
#X connect 7 0 8 0;
#X connect 8 0 9 0;
#X connect 7 1 9 1;