#N canvas 0 0 785 555 12;
#X declare -lib ceammc;
#X obj 576 50 cnv 1 189 23 empty empty empty 17 7 0 10 -245760 -1 0;
#X text 576 50 hyperbolic sine function;
#X obj 1 1 cnv 5 765 40 empty empty math.sinh 20 20 0 20 -104026 -4096
0;
#X obj 675 11 math.sinh;
#X obj 210 80 cnv 1 555 110 empty empty empty 17 7 0 10 -257983 -1 0;
#X text 215 80 The sinh() function computes the hyperbolic sine of
x.;
#X text 215 105 Special values:;
#X text 215 130 sinh(+-0) returns +-0\.;
#X text 215 155 sinh(+-infinity) returns +-infinity.;
#X floatatom 50 218 5 0 0 0 - - -;
#X obj 50 247 math.sinh;
#X floatatom 50 276 5 0 0 0 - - -;
#X obj 20 315 cnv 1 745 1 empty empty empty 17 7 0 10 -203890 -1 0;
#X obj 20 320 cnv 5 64 26 empty empty inlets: 4 10 0 14 -262144 -49933
0;
#X text 110 321 1\.;
#X text 150 321 *float*;
#X text 245 321 input value.;
#X text 150 341 *list*;
#X text 245 341 apply to all numeric values.;
#X obj 20 371 cnv 1 745 1 empty empty empty 17 7 0 10 -203890 -1 0;
#X obj 20 376 cnv 5 73 26 empty empty outlets: 4 10 0 14 -262144
-49933 0;
#X text 110 377 1\.;
#X text 245 377 result value.;
#X obj 10 48 ui.link @title index @url ../index-help.pd;
#X text 51 45 ::;
#X obj 67 48 ui.link @title ceammc @url ceammc-help.pd;
#X text 115 45 ::;
#X obj 131 48 ui.link @title math @url ceammc.math-help.pd;
#X obj 1 505 cnv 5 765 48 empty empty empty 17 7 0 10 -203890 -1 0;
#X text 10 508 library: ceammc v0.9.0;
#X text 441 520 see also:;
#X obj 515 520 math.acos;
#X obj 595 520 math.asin;
#X obj 675 520 math.atan;
#N canvas 10 527 400 290 info 0;
#X obj 1 1 cnv 1 107 287 empty empty empty 17 7 0 10 -183085 -1 0;
#X text 10 10 library:;
#X text 120 10 ceammc;
#X text 10 32 version:;
#X text 120 32 0.9.0;
#X text 10 54 object:;
#X text 120 54 math.sinh;
#X text 10 76 category:;
#X text 120 76 math;
#X text 10 98 since:;
#X text 120 98 0.1;
#X text 10 120 authors:;
#X text 120 120 Serge Poltavsky;
#X text 10 142 license:;
#X text 120 142 GPL3 or later;
#X text 10 164 keywords:;
#X text 120 164 math \, sinh;
#X text 10 186 website:;
#X obj 120 189 ui.link @title https://github.com/uliss/pure-data @url
https://github.com/uliss/pure-data;
#X obj 120 208 declare -lib ceammc;
#X obj 120 268 cnv 1 270 1 empty empty empty 17 7 0 10 -203890 -1 0;
#X text 120 268 generated by pddoc;
#X restore 10 527 pd info;
#X connect 9 0 10 0;
#X connect 10 0 11 0;