#N canvas 0 0 785 555 12;
#X declare -lib ceammc;
#X obj 483 50 cnv 1 282 23 empty empty empty 17 7 0 10 -245760 -1 0;
#X text 483 50 Bandlimited triangle wave oscillator;
#X obj 1 1 cnv 5 765 40 empty empty osc.tri~ 20 20 0 20 -104026 -4096
0;
#X obj 681 11 osc.tri~;
#X floatatom 50 118 5 0 0 0 - - -;
#X obj 146 118 ui.dsp~;
#X msg 50 147 \$1 50;
#X obj 50 176 line~;
#X msg 165 176 bang;
#X obj 50 205 osc.tri~;
#X obj 50 234 ui.gain~ @size 120 14;
#X obj 50 262 dac~;
#X obj 126 262 ui.scope~ @size 150 100;
#X obj 20 384 cnv 1 745 1 empty empty empty 17 7 0 10 -203890 -1 0;
#X obj 20 389 cnv 5 90 26 empty empty arguments: 4 10 0 14 -262144
-49933 0;
#X text 110 424 1\.;
#X text 150 424 float;
#X obj 246 425 cnv 1 69 20 empty empty empty 17 7 0 10 -245695 -1 0;
#X text 245 424 freq(Hz): frequency.;
#X obj 20 454 cnv 1 745 1 empty empty empty 17 7 0 10 -203890 -1 0;
#X obj 20 459 cnv 5 98 26 empty empty properties: 4 10 0 14 -262144
-49933 0;
#X msg 110 494 @active;
#X text 245 494 Get/Set on/off dsp processing. Type: int. Default value:
1\. Allowed values: 0 \, 1\.;
#X obj 20 546 cnv 1 745 1 empty empty empty 17 7 0 10 -203890 -1 0;
#X obj 20 551 cnv 5 64 26 empty empty inlets: 4 10 0 14 -262144 -49933
0;
#X text 110 552 1\.;
#X text 245 552 frequency in Hz.;
#X text 110 572 2\.;
#X text 150 572 *bang*;
#X text 245 572 reset phase.;
#X obj 20 602 cnv 1 745 1 empty empty empty 17 7 0 10 -203890 -1 0;
#X obj 20 607 cnv 5 73 26 empty empty outlets: 4 10 0 14 -262144
-49933 0;
#X text 110 608 1\.;
#X text 245 608 output signal in [1 \, -1] range.;
#X obj 10 48 ui.link @title index @url ../index-help.pd;
#X text 51 45 ::;
#X obj 67 48 ui.link @title ceammc @url ceammc-help.pd;
#X text 115 45 ::;
#X obj 131 48 ui.link @title osc @url ceammc.osc-help.pd;
#X obj 1 658 cnv 5 765 48 empty empty empty 17 7 0 10 -203890 -1 0;
#X text 10 661 library: ceammc v0.9.0;
#X text 438 673 see also:;
#X obj 512 673 osc.saw~;
#X obj 586 673 osc.square~;
#X obj 682 673 lfo.tri~;
#N canvas 10 680 400 290 info 0;
#X obj 1 1 cnv 1 107 287 empty empty empty 17 7 0 10 -183085 -1 0;
#X text 10 10 library:;
#X text 120 10 ceammc;
#X text 10 32 version:;
#X text 120 32 0.9.0;
#X text 10 54 object:;
#X text 120 54 osc.tri~;
#X text 10 76 category:;
#X text 120 76 osc;
#X text 10 98 since:;
#X text 120 98 0.1;
#X text 10 120 authors:;
#X text 120 120 Serge Poltavsky;
#X text 10 142 license:;
#X text 120 142 GPL3 or later;
#X text 10 164 keywords:;
#X text 120 164 oscillator \, band-limited;
#X text 10 186 website:;
#X obj 120 189 ui.link @title https://github.com/uliss/pure-data @url
https://github.com/uliss/pure-data;
#X obj 120 208 declare -lib ceammc;
#X obj 120 268 cnv 1 270 1 empty empty empty 17 7 0 10 -203890 -1 0;
#X text 120 268 generated by pddoc;
#X restore 10 680 pd info;
#X connect 4 0 6 0;
#X connect 6 0 7 0;
#X connect 7 0 9 0;
#X connect 8 0 9 1;
#X connect 9 0 10 0;
#X connect 10 0 11 0;
#X connect 10 0 11 1;
#X connect 10 0 12 0;