#N canvas 0 0 785 555 12;
#X declare -lib ceammc;
#X obj 491 50 cnv 1 274 23 empty empty empty 17 7 0 10 -245760 -1 0;
#X text 491 50 Bandlimited impulse train generator;
#X obj 1 1 cnv 5 765 40 empty empty osc.impulse~ 20 20 0 20 -104026
-4096 0;
#X obj 652 11 osc.impulse~;
#X floatatom 50 118 5 0 0 0 - - -;
#X obj 50 147 osc.impulse~ 20;
#X obj 50 176 ui.gain~ @size 120 16;
#X obj 50 205 dac~;
#X obj 50 234 ui.dsp~;
#X obj 20 273 cnv 1 745 1 empty empty empty 17 7 0 10 -203890 -1 0;
#X obj 20 278 cnv 5 90 26 empty empty arguments: 4 10 0 14 -262144
-49933 0;
#X text 110 313 1\.;
#X text 150 313 float;
#X obj 246 314 cnv 1 69 20 empty empty empty 17 7 0 10 -245695 -1 0;
#X text 245 313 freq(Hz): frequency. Min value: 20;
#X obj 20 343 cnv 1 745 1 empty empty empty 17 7 0 10 -203890 -1 0;
#X obj 20 348 cnv 5 98 26 empty empty properties: 4 10 0 14 -262144
-49933 0;
#X msg 110 383 @active;
#X text 245 383 Get/Set on/off dsp processing. Type: int. Default value:
1\. Allowed values: 0 \, 1\.;
#X obj 20 435 cnv 1 745 1 empty empty empty 17 7 0 10 -203890 -1 0;
#X obj 20 440 cnv 5 64 26 empty empty inlets: 4 10 0 14 -262144 -49933
0;
#X text 110 441 1\.;
#X text 150 441 *float*;
#X text 245 441 frequency in Hz. Min value: 20\.;
#X text 110 461 2\.;
#X text 150 461 *bang*;
#X text 245 461 reset phase.;
#X obj 20 491 cnv 1 745 1 empty empty empty 17 7 0 10 -203890 -1 0;
#X obj 20 496 cnv 5 73 26 empty empty outlets: 4 10 0 14 -262144
-49933 0;
#X text 110 497 1\.;
#X text 245 497 output signal.;
#X obj 10 48 ui.link @title index @url ../index-help.pd;
#X text 51 45 ::;
#X obj 67 48 ui.link @title ceammc @url ceammc-help.pd;
#X text 115 45 ::;
#X obj 131 48 ui.link @title osc @url ceammc.osc-help.pd;
#X obj 1 547 cnv 5 765 48 empty empty empty 17 7 0 10 -203890 -1 0;
#X text 10 550 library: ceammc v0.9.0;
#X text 335 562 see also:;
#X obj 409 562 osc.saw~;
#X obj 483 562 osc.tri~;
#X obj 557 562 osc.square~;
#X obj 653 562 lfo.impulse~;
#N canvas 10 569 400 290 info 0;
#X obj 1 1 cnv 1 107 287 empty empty empty 17 7 0 10 -183085 -1 0;
#X text 10 10 library:;
#X text 120 10 ceammc;
#X text 10 32 version:;
#X text 120 32 0.9.0;
#X text 10 54 object:;
#X text 120 54 osc.impulse~;
#X text 10 76 category:;
#X text 120 76 osc;
#X text 10 98 since:;
#X text 120 98 0.1;
#X text 10 120 authors:;
#X text 120 120 Serge Poltavsky;
#X text 10 142 license:;
#X text 120 142 GPL3 or later;
#X text 10 164 keywords:;
#X text 120 164 oscillator \, band-limited;
#X text 10 186 website:;
#X obj 120 189 ui.link @title https://github.com/uliss/pure-data @url
https://github.com/uliss/pure-data;
#X obj 120 208 declare -lib ceammc;
#X obj 120 268 cnv 1 270 1 empty empty empty 17 7 0 10 -203890 -1 0;
#X text 120 268 generated by pddoc;
#X restore 10 569 pd info;
#X connect 4 0 5 0;
#X connect 5 0 6 0;
#X connect 6 0 7 0;
#X connect 6 0 7 1;