#N canvas 0 0 785 555 12;
#X declare -lib ceammc;
#X obj 499 50 cnv 1 266 23 empty empty empty 17 7 0 10 -245760 -1 0;
#X text 499 50 Bandlimited pulse train oscillator;
#X obj 1 1 cnv 5 765 40 empty empty osc.pulse~ 20 20 0 20 -104026
-4096 0;
#X obj 667 11 osc.pulse~;
#X floatatom 50 118 5 0 0 0 - - -;
#X obj 136 118 ui.knob;
#X obj 251 118 ui.dsp~;
#X msg 136 176 @duty \$1;
#X obj 50 205 osc.pulse~ 220 0.5;
#X obj 50 234 ui.gain~ @size 120 14;
#X obj 50 262 dac~;
#X obj 117 262 ui.scope~ @size 150 100;
#X obj 20 384 cnv 1 745 1 empty empty empty 17 7 0 10 -203890 -1 0;
#X obj 20 389 cnv 5 90 26 empty empty arguments: 4 10 0 14 -262144
-49933 0;
#X text 110 424 1\.;
#X text 150 424 float;
#X obj 246 425 cnv 1 69 20 empty empty empty 17 7 0 10 -245695 -1 0;
#X text 245 424 freq(Hz): frequency. Min value: 20;
#X text 110 444 2\.;
#X text 150 444 float;
#X obj 246 445 cnv 1 39 20 empty empty empty 17 7 0 10 -245695 -1 0;
#X text 245 444 duty: duty cycle. Range: 0\...1;
#X obj 20 474 cnv 1 745 1 empty empty empty 17 7 0 10 -203890 -1 0;
#X obj 20 479 cnv 5 98 26 empty empty properties: 4 10 0 14 -262144
-49933 0;
#X msg 110 514 @active;
#X text 245 514 Get/Set on/off dsp processing. Type: int. Default value:
1\. Allowed values: 0 \, 1\.;
#X msg 110 556 @duty;
#X text 245 556 Get/Set duty cycle. Type: float. Default value: 0.5\.
Range: 0\...1\.;
#X obj 20 608 cnv 1 745 1 empty empty empty 17 7 0 10 -203890 -1 0;
#X obj 20 613 cnv 5 64 26 empty empty inlets: 4 10 0 14 -262144 -49933
0;
#X text 110 614 1\.;
#X text 150 614 *float*;
#X text 245 614 frequency in Hz.;
#X text 110 634 2\.;
#X text 150 634 *bang*;
#X text 245 634 reset phase.;
#X obj 20 664 cnv 1 745 1 empty empty empty 17 7 0 10 -203890 -1 0;
#X obj 20 669 cnv 5 73 26 empty empty outlets: 4 10 0 14 -262144
-49933 0;
#X text 110 670 1\.;
#X text 245 670 output signal.;
#X obj 10 48 ui.link @title index @url ../index-help.pd;
#X text 51 45 ::;
#X obj 67 48 ui.link @title ceammc @url ceammc-help.pd;
#X text 115 45 ::;
#X obj 131 48 ui.link @title osc @url ceammc.osc-help.pd;
#X obj 1 720 cnv 5 765 48 empty empty empty 17 7 0 10 -203890 -1 0;
#X text 10 723 library: ceammc v0.9.0;
#X text 578 735 see also:;
#X obj 652 735 osc.impulse~;
#N canvas 10 742 400 290 info 0;
#X obj 1 1 cnv 1 107 287 empty empty empty 17 7 0 10 -183085 -1 0;
#X text 10 10 library:;
#X text 120 10 ceammc;
#X text 10 32 version:;
#X text 120 32 0.9.0;
#X text 10 54 object:;
#X text 120 54 osc.pulse~;
#X text 10 76 category:;
#X text 120 76 osc;
#X text 10 98 since:;
#X text 120 98 0.1;
#X text 10 120 authors:;
#X text 120 120 Serge Poltavsky;
#X text 10 142 license:;
#X text 120 142 GPL3 or later;
#X text 10 164 keywords:;
#X text 120 164 oscillator \, band-limited;
#X text 10 186 website:;
#X obj 120 189 ui.link @title https://github.com/uliss/pure-data @url
https://github.com/uliss/pure-data;
#X obj 120 208 declare -lib ceammc;
#X obj 120 268 cnv 1 270 1 empty empty empty 17 7 0 10 -203890 -1 0;
#X text 120 268 generated by pddoc;
#X restore 10 742 pd info;
#X connect 5 0 7 0;
#X connect 4 0 8 0;
#X connect 7 0 8 0;
#X connect 8 0 9 0;
#X connect 9 0 10 0;
#X connect 9 0 10 1;
#X connect 9 0 11 0;