#N canvas 0 0 785 555 12;
#X declare -lib ceammc;
#X obj 408 50 cnv 1 357 23 empty empty empty 17 7 0 10 -245760 -1 0;
#X text 408 50 spreads input channels across the stereo field;
#X obj 1 1 cnv 5 765 40 empty empty pan.spread~ 20 20 0 20 -104026
-4096 0;
#X obj 660 11 pan.spread~;
#X obj 50 118 tgl 15 0 empty empty empty 17 7 0 10 -262144 -1 -1 0 1;
#X obj 50 147 metro 160;
#X obj 50 176 flow.count;
#X obj 50 205 % 4;
#X obj 50 234 sel 0 1 2 3;
#X obj 50 262 click~;
#X obj 136 262 click~;
#X obj 222 262 click~;
#X obj 309 262 click~;
#X obj 309 291 flt.resonbp~ 1600 30;
#X obj 222 320 flt.resonbp~ 1200 40;
#X obj 136 349 flt.resonbp~ 800 40;
#X obj 50 378 flt.resonbp~ 500 60;
#X msg 261 406 @spread 0;
#X msg 376 406 @spread 1;
#X obj 50 435 pan.spread~ 4;
#X obj 50 464 dac~;
#X obj 20 503 cnv 1 745 1 empty empty empty 17 7 0 10 -203890 -1 0;
#X obj 20 508 cnv 5 90 26 empty empty arguments: 4 10 0 14 -262144
-49933 0;
#X text 110 543 1\.;
#X text 150 543 int;
#X obj 246 544 cnv 1 17 20 empty empty empty 17 7 0 10 -245695 -1 0;
#X text 245 543 N: number of input channels. Range: 2\...16;
#X obj 20 573 cnv 1 745 1 empty empty empty 17 7 0 10 -203890 -1 0;
#X obj 20 578 cnv 5 98 26 empty empty properties: 4 10 0 14 -262144
-49933 0;
#X msg 110 613 @center;
#X text 245 613 Get/Set shift the centre of the distribution. Type:
float. Default value: 0\. Range: -0.5\...0.5\.;
#X msg 110 655 @ch;
#X text 245 655 (readonly) Get number of input channels. Type: int.
Default value: 2\. Range: 2\...16\.;
#X msg 110 697 @coeffs;
#X text 245 697 (readonly) Get list of gain pairs. Type: list.;
#X msg 110 726 @compensate;
#X text 245 726 Get/Set compensate output level: divide amplitude to
number of input channels. Type: int. Default value: 0\. Allowed values:
0 \, 1\.;
#X msg 110 783 @spread;
#X text 245 783 Get/Set for @spread = 0 \, all channels are in the
centre \, for 1 \, they have maximum distribution. Type: float. Default
value: 1\. Range: 0\...1\.;
#X obj 20 850 cnv 1 745 1 empty empty empty 17 7 0 10 -203890 -1 0;
#X obj 20 855 cnv 5 64 26 empty empty inlets: 4 10 0 14 -262144 -49933
0;
#X text 110 856 1\.;
#X text 245 856 input signal.;
#X text 110 876 ....;
#X text 245 876 input signal.;
#X text 110 896 n.;
#X text 245 896 input signal.;
#X obj 20 926 cnv 1 745 1 empty empty empty 17 7 0 10 -203890 -1 0;
#X obj 20 931 cnv 5 73 26 empty empty outlets: 4 10 0 14 -262144
-49933 0;
#X text 110 932 1\.;
#X text 245 932 left output channel.;
#X text 110 952 2\.;
#X text 245 952 right output channel.;
#X obj 10 48 ui.link @title index @url ../index-help.pd;
#X text 51 45 ::;
#X obj 67 48 ui.link @title ceammc @url ceammc-help.pd;
#X text 115 45 ::;
#X obj 131 48 ui.link @title spat @url ceammc.spat-help.pd;
#X obj 1 1002 cnv 5 765 48 empty empty empty 17 7 0 10 -203890 -1 0;
#X text 10 1005 library: ceammc v0.9.0;
#N canvas 10 1024 400 290 info 0;
#X obj 1 1 cnv 1 107 287 empty empty empty 17 7 0 10 -183085 -1 0;
#X text 10 10 library:;
#X text 120 10 ceammc;
#X text 10 32 version:;
#X text 120 32 0.9.0;
#X text 10 54 object:;
#X text 120 54 pan.spread~;
#X text 10 76 category:;
#X text 120 76 spat;
#X text 10 98 since:;
#X text 120 98 0.5;
#X text 10 120 authors:;
#X text 120 120 Serge Poltavsky;
#X text 10 142 license:;
#X text 120 142 GPL3 or later;
#X text 10 164 keywords:;
#X text 120 164 pan \, spread;
#X text 10 186 website:;
#X obj 120 189 ui.link @title https://github.com/uliss/pure-data @url
https://github.com/uliss/pure-data;
#X obj 120 208 declare -lib ceammc;
#X obj 120 268 cnv 1 270 1 empty empty empty 17 7 0 10 -203890 -1 0;
#X text 120 268 generated by pddoc;
#X restore 10 1024 pd info;
#X connect 4 0 5 0;
#X connect 5 0 6 0;
#X connect 6 0 7 0;
#X connect 7 0 8 0;
#X connect 8 0 9 0;
#X connect 8 1 10 0;
#X connect 8 2 11 0;
#X connect 8 3 12 0;
#X connect 12 0 13 0;
#X connect 11 0 14 0;
#X connect 10 0 15 0;
#X connect 9 0 16 0;
#X connect 17 0 19 0;
#X connect 18 0 19 0;
#X connect 19 0 20 0;
#X connect 19 1 20 1;
#X connect 16 0 19 0;
#X connect 15 0 19 1;
#X connect 14 0 19 2;
#X connect 13 0 19 3;