#N canvas 0 0 785 555 12;
#X declare -lib ceammc;
#X obj 575 50 cnv 1 190 23 empty empty empty 17 7 0 10 -245760 -1 0;
#X text 575 50 patch properties manager;
#X obj 1 1 cnv 5 765 40 empty empty patch.props 20 20 0 20 -104026
-4096 0;
#X obj 661 11 patch.props;
#X obj 210 80 cnv 1 555 35 empty empty empty 17 7 0 10 -257983 -1 0;
#X text 215 80 Property should be declared with [prop.declare];
#X obj 50 143 prop.declare freq @min 20 @max 20000 @default 1000;
#X obj 50 172 prop.declare gain @min -60 @max 12 @default -3;
#X msg 50 201 @*?;
#X msg 107 201 @freq 100;
#X msg 222 201 @freq?;
#X msg 309 201 default;
#X obj 50 230 patch.props;
#X obj 50 259 ui.display @display_type 1 @size 150 18;
#X floatatom 50 287 5 0 0 0 - - -;
#X floatatom 174 287 5 0 0 0 - - -;
#X obj 50 316 prop @freq;
#X obj 174 316 prop @gain;
#X floatatom 50 345 5 0 0 0 - - -;
#X floatatom 174 345 5 0 0 0 - - -;
#X obj 20 384 cnv 1 745 1 empty empty empty 17 7 0 10 -203890 -1 0;
#X obj 20 389 cnv 5 73 26 empty empty methods: 4 10 0 14 -262144
-49933 0;
#X msg 110 424 default;
#X text 245 424 reset all props to default value and output.;
#X msg 110 451 @*?;
#X text 245 451 output all patch properties as list.;
#X obj 20 488 cnv 1 745 1 empty empty empty 17 7 0 10 -203890 -1 0;
#X obj 20 493 cnv 5 64 26 empty empty inlets: 4 10 0 14 -262144 -49933
0;
#X text 110 494 1\.;
#X text 150 494 *bang*;
#X text 245 494 output all properties in [prop] objects.;
#X text 150 514 *any*;
#X text 245 514 get/set property value and output it.;
#X obj 20 544 cnv 1 745 1 empty empty empty 17 7 0 10 -203890 -1 0;
#X obj 20 549 cnv 5 73 26 empty empty outlets: 4 10 0 14 -262144
-49933 0;
#X text 110 550 1\.;
#X text 245 550 output value.;
#X obj 10 48 ui.link @title index @url ../index-help.pd;
#X text 51 45 ::;
#X obj 67 48 ui.link @title ceammc @url ceammc-help.pd;
#X text 115 45 ::;
#X obj 131 48 ui.link @title property @url ceammc.property-help.pd;
#X obj 1 600 cnv 5 765 48 empty empty empty 17 7 0 10 -203890 -1 0;
#X text 10 603 library: ceammc v0.9.0;
#X text 535 615 see also:;
#X obj 609 615 prop.declare;
#X obj 711 615 prop;
#N canvas 10 622 400 290 info 0;
#X obj 1 1 cnv 1 107 287 empty empty empty 17 7 0 10 -183085 -1 0;
#X text 10 10 library:;
#X text 120 10 ceammc;
#X text 10 32 version:;
#X text 120 32 0.9.0;
#X text 10 54 object:;
#X text 120 54 patch.props;
#X text 10 76 category:;
#X text 120 76 property;
#X text 10 98 since:;
#X text 120 98 0.7;
#X text 10 120 authors:;
#X text 120 120 Serge Poltavsky;
#X text 10 142 license:;
#X text 120 142 GPL3 or later;
#X text 10 164 keywords:;
#X text 120 164 property;
#X text 10 186 website:;
#X obj 120 189 ui.link @title https://github.com/uliss/pure-data @url
https://github.com/uliss/pure-data;
#X obj 120 208 declare -lib ceammc;
#X obj 120 268 cnv 1 270 1 empty empty empty 17 7 0 10 -203890 -1 0;
#X text 120 268 generated by pddoc;
#X restore 10 622 pd info;
#X connect 8 0 12 0;
#X connect 9 0 12 0;
#X connect 10 0 12 0;
#X connect 11 0 12 0;
#X connect 12 0 13 0;
#X connect 14 0 16 0;
#X connect 15 0 17 0;
#X connect 16 0 18 0;
#X connect 17 0 19 0;