#N canvas 0 0 785 555 12;
#X declare -lib ceammc;
#X obj 584 50 cnv 1 181 23 empty empty empty 17 7 0 10 -245760 -1 0;
#X text 584 50 list directory contents;
#X obj 1 1 cnv 5 765 40 empty empty path.lsdir 20 20 0 20 -104026
-4096 0;
#X obj 592 11 path.ls;
#X obj 667 11 path.lsdir;
#X msg 50 118 symbol .;
#X msg 155 118 symbol /;
#X obj 299 118 bng 15 250 50 0 empty empty empty 17 7 0 10 -262144 -1
-1;
#X obj 78 147 bng 15 250 50 0 empty empty empty 17 7 0 10 -262144 -1
-1;
#X obj 299 147 path.lsdir ~ @match *.aiff;
#X obj 50 176 path.lsdir ~;
#X obj 299 176 str.join ' ';
#X obj 50 205 str.join ' ';
#X obj 299 205 str->sym;
#X obj 50 234 str->sym;
#X obj 299 234 msg set;
#X msg 78 262 ;
#X msg 299 262 ;
#X obj 50 291 msg set;
#X msg 50 320 ;
#X obj 20 359 cnv 1 745 1 empty empty empty 17 7 0 10 -203890 -1 0;
#X obj 20 364 cnv 5 90 26 empty empty arguments: 4 10 0 14 -262144
-49933 0;
#X text 110 399 1\.;
#X text 150 399 symbol;
#X obj 246 400 cnv 1 39 20 empty empty empty 17 7 0 10 -245695 -1 0;
#X text 245 399 PATH: init directory value.;
#X obj 20 429 cnv 1 745 1 empty empty empty 17 7 0 10 -203890 -1 0;
#X obj 20 434 cnv 5 98 26 empty empty properties: 4 10 0 14 -262144
-49933 0;
#X msg 110 469 @match;
#X text 245 469 Get/Set match mask: for example *.wav for all wav files.
Type: symbol.;
#X obj 20 521 cnv 1 745 1 empty empty empty 17 7 0 10 -203890 -1 0;
#X obj 20 526 cnv 5 64 26 empty empty inlets: 4 10 0 14 -262144 -49933
0;
#X text 110 527 1\.;
#X text 150 527 *bang*;
#X text 245 527 output directory content.;
#X text 150 547 *symbol*;
#X text 245 547 set directory path (symbol or string) and output it
content. If not absolute path is given list current patch directory.;
#X obj 20 592 cnv 1 745 1 empty empty empty 17 7 0 10 -203890 -1 0;
#X obj 20 597 cnv 5 73 26 empty empty outlets: 4 10 0 14 -262144
-49933 0;
#X text 110 598 1\.;
#X text 245 598 list of strings.;
#X obj 10 48 ui.link @title index @url ../index-help.pd;
#X text 51 45 ::;
#X obj 67 48 ui.link @title ceammc @url ceammc-help.pd;
#X text 115 45 ::;
#X obj 131 48 ui.link @title path @url ceammc.path-help.pd;
#X obj 1 648 cnv 5 765 48 empty empty empty 17 7 0 10 -203890 -1 0;
#X text 10 651 library: ceammc v0.9.0;
#N canvas 10 670 400 290 info 0;
#X obj 1 1 cnv 1 107 287 empty empty empty 17 7 0 10 -183085 -1 0;
#X text 10 10 library:;
#X text 120 10 ceammc;
#X text 10 32 version:;
#X text 120 32 0.9.0;
#X text 10 54 object:;
#X text 120 54 path.lsdir;
#X text 10 76 category:;
#X text 120 76 path;
#X text 10 98 since:;
#X text 120 98 0.2;
#X text 10 120 authors:;
#X text 120 120 Serge Poltavsky;
#X text 10 142 license:;
#X text 120 142 GPL3 or later;
#X text 10 164 keywords:;
#X text 120 164 path \, list;
#X text 10 186 website:;
#X obj 120 189 ui.link @title https://github.com/uliss/pure-data @url
https://github.com/uliss/pure-data;
#X obj 120 208 declare -lib ceammc;
#X obj 120 268 cnv 1 270 1 empty empty empty 17 7 0 10 -203890 -1 0;
#X text 120 268 generated by pddoc;
#X restore 10 670 pd info;
#X connect 7 0 9 0;
#X connect 5 0 10 0;
#X connect 8 0 10 0;
#X connect 6 0 10 0;
#X connect 9 0 11 0;
#X connect 10 0 12 0;
#X connect 11 0 13 0;
#X connect 12 0 14 0;
#X connect 13 0 15 0;
#X connect 15 0 17 0;
#X connect 14 0 18 0;
#X connect 16 0 18 0;
#X connect 18 0 19 0;