#N canvas 0 0 785 555 12;
#X declare -lib ceammc;
#X obj 484 50 cnv 1 281 23 empty empty empty 17 7 0 10 -245760 -1 0;
#X text 484 50 Property extractor from sound stream;
#X obj 1 1 cnv 5 765 40 empty empty prop.get~ 20 20 0 20 -104026 -4096
0;
#X obj 557 11 prop~>;
#X obj 626 11 @~>;
#X obj 674 11 prop.get~;
#X obj 210 80 cnv 1 555 50 empty empty empty 17 7 0 10 -257983 -1 0;
#X text 215 80 Extracts properties from sound stream with matching.
Non property values are passed untouched.;
#X obj 50 158 osc~ 440;
#X msg 155 158 @db?;
#X msg 222 158 @size?;
#X msg 309 158 @amp?;
#X obj 50 187 ui.gain~ @size 160 16;
#X obj 347 187 ui.dsp~;
#X obj 50 216 prop~> @db;
#X obj 165 245 ui.display @display_type 1 @size 150 18;
#X obj 88 274 ui.display @display_type 1 @size 150 18;
#X obj 50 302 ui.scope~ @size 150 100;
#X obj 20 424 cnv 1 745 1 empty empty empty 17 7 0 10 -203890 -1 0;
#X obj 20 429 cnv 5 64 26 empty empty inlets: 4 10 0 14 -262144 -49933
0;
#X text 110 430 1\.;
#X text 150 430 *any*;
#X text 245 430 input values and sound.;
#X obj 20 460 cnv 1 745 1 empty empty empty 17 7 0 10 -203890 -1 0;
#X obj 20 465 cnv 5 73 26 empty empty outlets: 4 10 0 14 -262144
-49933 0;
#X text 110 466 1\.;
#X text 245 466 passed values and sound.;
#X text 110 486 2\.;
#X text 245 486 first matched property output.;
#X text 110 506 ....;
#X text 245 506 others matched property output.;
#X text 110 526 n.;
#X text 245 526 unmatched property output.;
#X obj 10 48 ui.link @title index @url ../index-help.pd;
#X text 51 45 ::;
#X obj 67 48 ui.link @title ceammc @url ceammc-help.pd;
#X text 115 45 ::;
#X obj 131 48 ui.link @title property @url ceammc.property-help.pd;
#X obj 1 576 cnv 5 765 48 empty empty empty 17 7 0 10 -203890 -1 0;
#X text 10 579 library: ceammc v0.9.0;
#X text 622 591 see also:;
#X obj 696 591 prop->;
#N canvas 10 598 400 290 info 0;
#X obj 1 1 cnv 1 107 287 empty empty empty 17 7 0 10 -183085 -1 0;
#X text 10 10 library:;
#X text 120 10 ceammc;
#X text 10 32 version:;
#X text 120 32 0.9.0;
#X text 10 54 object:;
#X text 120 54 prop.get~;
#X text 10 76 category:;
#X text 120 76 property;
#X text 10 98 since:;
#X text 120 98 0.6;
#X text 10 120 authors:;
#X text 120 120 Serge Poltavsky;
#X text 10 142 license:;
#X text 120 142 GPL3 or later;
#X text 10 164 keywords:;
#X text 120 164 property;
#X text 10 186 website:;
#X obj 120 189 ui.link @title https://github.com/uliss/pure-data @url
https://github.com/uliss/pure-data;
#X obj 120 208 declare -lib ceammc;
#X obj 120 268 cnv 1 270 1 empty empty empty 17 7 0 10 -203890 -1 0;
#X text 120 268 generated by pddoc;
#X restore 10 598 pd info;
#X connect 8 0 12 0;
#X connect 9 0 12 0;
#X connect 10 0 12 0;
#X connect 11 0 12 0;
#X connect 12 0 14 0;
#X connect 14 2 15 0;
#X connect 14 1 16 0;
#X connect 14 0 17 0;