#N canvas 0 0 785 555 12;
#X declare -lib ceammc;
#X obj 376 50 cnv 1 389 23 empty empty empty 17 7 0 10 -245760 -1 0;
#X text 376 50 declare named property for subpatch or abstraction;
#X obj 1 1 cnv 5 765 40 empty empty prop.declare 20 20 0 20 -104026
-4096 0;
#X obj 653 11 prop.declare;
#X obj 50 118 prop.declare freq @min 20 @max 20000 @default 1000;
#X obj 50 147 prop.declare gain @min -60 @max 12 @default 3;
#X obj 50 176 prop @freq;
#X obj 174 176 prop @gain;
#X floatatom 50 205 5 0 0 0 - - -;
#X floatatom 174 205 5 0 0 0 - - -;
#X obj 20 244 cnv 1 745 1 empty empty empty 17 7 0 10 -203890 -1 0;
#X obj 20 249 cnv 5 90 26 empty empty arguments: 4 10 0 14 -262144
-49933 0;
#X text 110 284 1\.;
#X text 150 284 symbol;
#X obj 246 285 cnv 1 40 20 empty empty empty 17 7 0 10 -245695 -1 0;
#X text 245 284 NAME: property name without @ (should be unique for
current canvas).;
#X obj 20 329 cnv 1 745 1 empty empty empty 17 7 0 10 -203890 -1 0;
#X obj 20 334 cnv 5 98 26 empty empty properties: 4 10 0 14 -262144
-49933 0;
#X msg 110 369 @b;
#X text 245 369 alias to @type bool.;
#X msg 110 398 @default;
#X text 245 398 Get/Set default property value. Type: list.;
#X msg 110 427 @enum;
#X text 245 427 Get/Set allowed values (without default value) (for
symbol properties only). Type: list.;
#X msg 110 469 @f;
#X text 245 469 alias to @type float.;
#X msg 110 498 @i;
#X text 245 498 alias to @type int.;
#X msg 110 527 @l;
#X text 245 527 alias to @type list.;
#X msg 110 556 @max;
#X text 245 556 Get/Set maximum value (for float and int properties
only). Type: float. Default value: 3.40282e+38\.;
#X msg 110 598 @min;
#X text 245 598 Get/Set minimal value (for float and int properties
only). Type: float. Default value: -3.40282e+38\.;
#X msg 110 640 @s;
#X text 245 640 alias to @type symbol.;
#X msg 110 669 @type;
#X text 245 669 Get/Set property type. Type: symbol. Default value:
float. Allowed values: float \, int \, bool \, enum \, symbol \, list.;
#X obj 10 48 ui.link @title index @url ../index-help.pd;
#X text 51 45 ::;
#X obj 67 48 ui.link @title ceammc @url ceammc-help.pd;
#X text 115 45 ::;
#X obj 131 48 ui.link @title property @url ceammc.property-help.pd;
#X obj 1 741 cnv 5 765 48 empty empty empty 17 7 0 10 -203890 -1 0;
#X text 10 744 library: ceammc v0.9.0;
#X text 543 756 see also:;
#X obj 617 756 prop;
#X obj 661 756 patch.props;
#N canvas 10 763 400 290 info 0;
#X obj 1 1 cnv 1 107 287 empty empty empty 17 7 0 10 -183085 -1 0;
#X text 10 10 library:;
#X text 120 10 ceammc;
#X text 10 32 version:;
#X text 120 32 0.9.0;
#X text 10 54 object:;
#X text 120 54 prop.declare;
#X text 10 76 category:;
#X text 120 76 property;
#X text 10 98 since:;
#X text 120 98 0.7;
#X text 10 120 authors:;
#X text 120 120 Serge Poltavsky;
#X text 10 142 license:;
#X text 120 142 GPL3 or later;
#X text 10 164 keywords:;
#X text 120 164 property \, declare;
#X text 10 186 website:;
#X obj 120 189 ui.link @title https://github.com/uliss/pure-data @url
https://github.com/uliss/pure-data;
#X obj 120 208 declare -lib ceammc;
#X obj 120 268 cnv 1 270 1 empty empty empty 17 7 0 10 -203890 -1 0;
#X text 120 268 generated by pddoc;
#X restore 10 763 pd info;
#X connect 6 0 8 0;
#X connect 7 0 9 0;