#N canvas 0 0 785 555 12;
#X declare -lib ceammc;
#X obj 331 50 cnv 1 434 23 empty empty empty 17 7 0 10 -245760 -1 0;
#X text 331 50 get/set named property value for subpatch or abstraction;
#X obj 1 1 cnv 5 765 40 empty empty prop 20 20 0 20 -104026 -4096 0;
#X obj 711 11 prop;
#X obj 210 80 cnv 1 555 50 empty empty empty 17 7 0 10 -257983 -1 0;
#X text 215 80 Property should be declared with [prop.declare]. Min/max
limits can be set to property;
#X obj 50 158 prop.declare freq @min 20 @max 20000 @default 1000;
#X obj 50 187 prop.declare gain @min -60 @max 12 @default -3;
#X floatatom 50 216 5 0 0 0 - - -;
#X obj 50 245 prop @freq;
#X obj 174 245 prop @gain;
#X floatatom 50 274 5 0 0 0 - - -;
#X floatatom 174 274 5 0 0 0 - - -;
#X msg 50 302 default;
#X obj 50 331 prop @freq;
#X floatatom 50 360 5 0 0 0 - - -;
#X obj 20 399 cnv 1 745 1 empty empty empty 17 7 0 10 -203890 -1 0;
#X obj 20 404 cnv 5 90 26 empty empty arguments: 4 10 0 14 -262144
-49933 0;
#X text 110 439 1\.;
#X text 150 439 symbol;
#X obj 246 440 cnv 1 47 20 empty empty empty 17 7 0 10 -245695 -1 0;
#X text 245 439 @NAME: property name.;
#X obj 20 469 cnv 1 745 1 empty empty empty 17 7 0 10 -203890 -1 0;
#X obj 20 474 cnv 5 73 26 empty empty methods: 4 10 0 14 -262144
-49933 0;
#X msg 110 509 default;
#X text 245 509 reset to default value and output.;
#X obj 20 546 cnv 1 745 1 empty empty empty 17 7 0 10 -203890 -1 0;
#X obj 20 551 cnv 5 64 26 empty empty inlets: 4 10 0 14 -262144 -49933
0;
#X text 110 552 1\.;
#X text 150 552 *bang*;
#X text 245 552 output property value.;
#X text 150 572 *any*;
#X text 245 572 set property value and output it.;
#X obj 20 602 cnv 1 745 1 empty empty empty 17 7 0 10 -203890 -1 0;
#X obj 20 607 cnv 5 73 26 empty empty outlets: 4 10 0 14 -262144
-49933 0;
#X text 110 608 1\.;
#X text 245 608 output value.;
#X obj 10 48 ui.link @title index @url ../index-help.pd;
#X text 51 45 ::;
#X obj 67 48 ui.link @title ceammc @url ceammc-help.pd;
#X text 115 45 ::;
#X obj 131 48 ui.link @title property @url ceammc.property-help.pd;
#X obj 1 658 cnv 5 765 48 empty empty empty 17 7 0 10 -203890 -1 0;
#X text 10 661 library: ceammc v0.9.0;
#X text 485 673 see also:;
#X obj 559 673 prop.declare;
#X obj 661 673 patch.props;
#N canvas 10 680 400 290 info 0;
#X obj 1 1 cnv 1 107 287 empty empty empty 17 7 0 10 -183085 -1 0;
#X text 10 10 library:;
#X text 120 10 ceammc;
#X text 10 32 version:;
#X text 120 32 0.9.0;
#X text 10 54 object:;
#X text 120 54 prop;
#X text 10 76 category:;
#X text 120 76 property;
#X text 10 98 since:;
#X text 120 98 0.7;
#X text 10 120 authors:;
#X text 120 120 Serge Poltavsky;
#X text 10 142 license:;
#X text 120 142 GPL3 or later;
#X text 10 164 keywords:;
#X text 120 164 property;
#X text 10 186 website:;
#X obj 120 189 ui.link @title https://github.com/uliss/pure-data @url
https://github.com/uliss/pure-data;
#X obj 120 208 declare -lib ceammc;
#X obj 120 268 cnv 1 270 1 empty empty empty 17 7 0 10 -203890 -1 0;
#X text 120 268 generated by pddoc;
#X restore 10 680 pd info;
#X connect 8 0 9 0;
#X connect 9 0 11 0;
#X connect 10 0 12 0;
#X connect 13 0 14 0;
#X connect 14 0 15 0;