#N canvas 626 147 472 501 12;
#X msg 66 42 bang;
#X obj 66 184 ui.plot~ @size 339 269 @receive "(null)" @send "(null)"
@pinned 0 @background_color 0.93 0.93 0.93 1 @border_color 0.6 0.6
0.6 1 @label_color 0 0 0 1 @plot_color0 0 0.75 1 1 @plot_color1 0.75
0 1 1 @plot_color2 1 0 0.75 1 @plot_color3 1 0.75 0 1 @fontname "Helvetica"
@fontweight "normal" @fontslant "roman" @fontsize 11 @label "(null)"
@label_inner 0 @label_side "top" @label_align "left" @label_valign
"top" @label_margins 0 0 @yauto 1 @ymin -1 @ymax 1 @xmaj_ticks 0 @xmin_ticks
0 @xmaj_grid 1 @xmin_grid 0 @xlabels 1 @ymaj_ticks 0 @ymin_ticks 0
@ymaj_grid 1 @ymin_grid 0 @ylabels 1 @n 2 @mode "lines";
#X obj 66 76 plot.logspace~ -2 2 @e, f 48;
#X obj 232 139 math.log~;
#X connect 0 0 2 0;
#X connect 2 0 1 0;
#X connect 2 0 3 0;
#X connect 2 1 1 2;
#X connect 3 0 1 1;
